<svg xmlns="http://www.w3.org/2000/svg" viewBox="0 0 1024 1024"><defs><style>.cls-1,.cls-2,.cls-3{fill:#658378;}.cls-2,.cls-3{stroke:#658378;stroke-miterlimit:10;}.cls-2{stroke-width:0;}</style></defs><g id="Layer_5" data-name="Layer 5"><path class="cls-1" d="M283.25,176.43a10.63,10.63,0,0,0-2.25,4.26,21.75,21.75,0,0,0-.47,2.24l-.53,2.23c-.24,1-.75,2.68-1.4,4.68s-1.73,4.2-2.65,6.37a31.48,31.48,0,0,1-1.51,3.08L273,202a30.68,30.68,0,0,1-1.74,3.09,29.7,29.7,0,0,0-2,3.43c-.34.65-.68,1.34-1,2s-.64,1.37-1,2c-1.37,2.54-2.41,4.71-2.48,4.83-.94,1.82-2.1,3.5-3.19,5.23L260,225.14l-.84,1.29-.92,1.23-3.58,4.72-.9,1.18-1,1.12-2,2.22c-1.24,1.35-2.43,2.74-3.74,4l-4,3.76-2.5,2.32-2.65,2.15c-1.78,1.41-3.55,2.85-5.42,4.14-2.8,1.77-5.65,3.44-8.41,5.21a40.6,40.6,0,0,0-8,5.78,25.62,25.62,0,0,1-5,3.18l-2.66,1.32c-.9.43-1.77.89-2.68,1.28-3,1.4-6,2.75-9,4.1l-9.28,3.47c-.27.11-.59.14-.75.48a5.56,5.56,0,0,0-.12,1.46c.35.51.85,1.47,1,1.47a17.62,17.62,0,0,0,8.41-1.86c.73-.4,1.45-.81,2.18-1.19a15.8,15.8,0,0,1,2.22-1.1,49,49,0,0,0,4.61-2.1l2.24-1.18,1.11-.6,1.08-.66a44.47,44.47,0,0,1,9.07-4.54,7.64,7.64,0,0,0,1.1-.79l6.66-4.22c2.2-1.44,4.29-3,6.49-4.49,1.14-.8,2.38-1.47,3.52-2.26l3.51-2.32c1.18-.77,2.36-1.54,3.53-2.34a32,32,0,0,0,3.29-2.64,61.57,61.57,0,0,0,6.64-6.58q1.53-1.77,3-3.58c.49-.6,1-1.2,1.46-1.82l1.33-1.93a30.52,30.52,0,0,1,3-3.67c.54-.59,1.13-1.14,1.65-1.74s1-1.22,1.53-1.84c1.14-1.43,2.49-2.72,3.48-4.25a41,41,0,0,0,2.42-4.71c.72-1.61,1.5-3.17,2.17-4.8s1.34-3.24,2.14-4.78c.4-.77.83-1.53,1.29-2.27a25.92,25.92,0,0,1,1.35-2.26A40,40,0,0,0,281.4,199a18.6,18.6,0,0,0,1.52-6.28,6.46,6.46,0,0,1,.77-3.09,13.43,13.43,0,0,0,1.85-5.2,43.28,43.28,0,0,0,.07-5.58C285.58,176.5,284.13,175.41,283.25,176.43Z"/><path class="cls-1" d="M212.89,268.7c-1.87,1.92-1.64,3.87-1.71,5.86a49.15,49.15,0,0,1-1.39,7.54c-.73,3-1.59,5.74-1.8,6.28a26.14,26.14,0,0,0-1.1,5.37c-.26,1.85-.38,3.42-.41,3.51-.48,2.59-1,5.2-1.62,7.76s-1.34,4.93-2.18,7.33c-.39,1.11-.84,2.2-1.28,3.3s-1,2.15-1.46,3.22a49.7,49.7,0,0,1-4.33,7.57c-2.5,3.44-5.65,6.19-7.29,10.18a9.66,9.66,0,0,1-2.22,3l-2.82,2.48a48,48,0,0,1-10.08,7.12c-.16.09-.36.11-.38.42a7.63,7.63,0,0,0,.31,1.34,8.9,8.9,0,0,0,1.13,1.37,7.15,7.15,0,0,0,5.43-1.83c.39-.39.76-.8,1.16-1.18a6.89,6.89,0,0,1,1.23-1.06,22.39,22.39,0,0,0,4.86-4.51c.71-.85,1.45-1.65,2.23-2.43a13.83,13.83,0,0,1,2.57-2.15c.26-.17.31-.51.5-.74,2.22-2.63,4.07-5.53,6.07-8.32,2.05-3,4.74-5.68,6.49-8.94a43.71,43.71,0,0,0,3.94-11.48c.42-2,1.51-3.83,2.27-5.75a19.52,19.52,0,0,0,1.32-3.31c.87-4.49-.08-9.23,1.92-13.42,1.22-2.55,2.31-5.21,1.37-8.09a2.32,2.32,0,0,1,.07-2c1.37-2.23.59-4.7-.07-7.07C215.2,268.56,213.58,268,212.89,268.7Z"/><path class="cls-1" d="M501.74,376.37a81.12,81.12,0,0,0-14.68-15.86,93.62,93.62,0,0,0-17.92-11.71,83.16,83.16,0,0,0-9.8-4.15,62.36,62.36,0,0,0-10.18-2.7,52.59,52.59,0,0,0-10.35-.81,21.84,21.84,0,0,0-9.44,2.14,7,7,0,0,0-4,6.54,3.67,3.67,0,0,0,1.48,2.89,12,12,0,0,0,4.05,1.91,72.16,72.16,0,0,0,10.32,1.85c3.58.46,7.23.86,10.9,1.48,1.84.31,3.68.68,5.51,1.17.92.25,1.84.53,2.75.84s1.82.68,2.65,1c1.69.72,3.37,1.48,5,2.25s3.3,1.65,4.92,2.52a92.86,92.86,0,0,1,9.39,5.8c3,2.1,5.83,4.41,8.83,6.48-3.35-1.49-6.51-3.35-9.72-5s-6.46-3.21-9.76-4.63-6.68-2.66-10.08-3.85a47.39,47.39,0,0,0-10.18-2.34c-3.52-.49-7.12-.78-10.77-1.13a63.35,63.35,0,0,1-11.16-1.81,16.48,16.48,0,0,1-5.75-2.73,9,9,0,0,1-2.4-2.84,8.79,8.79,0,0,1-1-3.64,12.2,12.2,0,0,1,.33-3.42,10.1,10.1,0,0,1,1.34-3.22,12.33,12.33,0,0,1,2.23-2.63,15.48,15.48,0,0,1,2.71-1.85,21.06,21.06,0,0,1,5.82-2,33.4,33.4,0,0,1,5.84-.62A50.93,50.93,0,0,1,450,337.45a66.79,66.79,0,0,1,10.8,3.22,84.48,84.48,0,0,1,19.38,10.92,82.61,82.61,0,0,1,8.41,7.21A69.14,69.14,0,0,1,501.74,376.37Z"/><path class="cls-1" d="M427.31,338.94a119,119,0,0,0-14.12,17.71,115,115,0,0,0-10.42,19.86A93,93,0,0,0,397,397.94a77.21,77.21,0,0,0,.1,22,82.91,82.91,0,0,0,2.39,10.75,88.31,88.31,0,0,0,3.89,10.37c1.49,3.41,3.13,6.78,4.85,10.14s3.52,6.71,5.16,10.21a50.21,50.21,0,0,1,4.05,11.07,19,19,0,0,1,.35,6.13,13,13,0,0,1-.25,1.54,15.4,15.4,0,0,1-.39,1.49,19.22,19.22,0,0,1-1.07,2.82,15.21,15.21,0,0,1-8.55,8.14,15.82,15.82,0,0,1-11.4-.34,16,16,0,0,0,5.59.51,14.93,14.93,0,0,0,5.29-1.41,13.13,13.13,0,0,0,4.23-3.24,14.87,14.87,0,0,0,2.65-4.58A17.45,17.45,0,0,0,415,478.4a16.43,16.43,0,0,0-.71-5.17,50.91,50.91,0,0,0-4.4-10c-3.61-6.55-7.59-13.12-10.87-20.16a79.42,79.42,0,0,1-6.8-22.37c-.31-1.94-.46-3.89-.63-5.85s-.2-3.92-.15-5.88a71.39,71.39,0,0,1,1-11.68A87,87,0,0,1,399.29,375a101.78,101.78,0,0,1,12-19.73A94,94,0,0,1,427.31,338.94Z"/><path class="cls-1" d="M403.93,480.87a21.52,21.52,0,0,0-10,2.61,29,29,0,0,0-4.27,2.79c-.66.52-1.29,1.09-1.91,1.67l-.89.89a12.72,12.72,0,0,1-1.16,1,17.43,17.43,0,0,1-5.27,2.77,22.13,22.13,0,0,1-5.76,1.14,18.28,18.28,0,0,1-11.64-3,14.35,14.35,0,0,1-2.39-2.05c-.69-.73-1.31-1.47-1.89-2.2-1.15-1.48-2.17-2.94-3.2-4.32a27.06,27.06,0,0,0-6.8-7,18.63,18.63,0,0,0-9.17-2.88,33.32,33.32,0,0,0-5.18.09c-1.76.1-3.52.4-5.32.64a29.66,29.66,0,0,1,10.41-3.44,20.54,20.54,0,0,1,5.75.06,18.33,18.33,0,0,1,5.63,1.84,27,27,0,0,1,8.59,7.66l3.22,4.24c.52.67,1,1.31,1.57,1.87a11.1,11.1,0,0,0,1.62,1.47,14.56,14.56,0,0,0,8.64,2.51,18.07,18.07,0,0,0,9.13-2.34c.32-.21.6-.41.92-.66l1.11-.86c.77-.55,1.54-1.09,2.35-1.57a24.47,24.47,0,0,1,5.08-2.37A19,19,0,0,1,403.93,480.87Z"/><path class="cls-1" d="M334.78,440.67a19.76,19.76,0,0,0-12.64,5,22.17,22.17,0,0,0-7.07,10.69,21.87,21.87,0,0,0-.58,6.4,23.72,23.72,0,0,0,1.16,6.46,16.22,16.22,0,0,0,3.18,5.69,12.87,12.87,0,0,0,5.83,3.71,10.94,10.94,0,0,1-7.44-1.78,15.67,15.67,0,0,1-5.24-6,22.38,22.38,0,0,1-2.27-7.65,20.69,20.69,0,0,1,10.19-20.61,19.5,19.5,0,0,1,7.35-2.73A14.18,14.18,0,0,1,334.78,440.67Z"/><path class="cls-1" d="M415.42,535.27a151.1,151.1,0,0,1-31,6.76,111,111,0,0,1-32-.88,144.08,144.08,0,0,1-30.48-9.6c-2.43-1.07-4.85-2.16-7.24-3.31s-4.73-2.38-7.07-3.63a109.62,109.62,0,0,1-13.46-8.44c9.66,4.29,19.43,8,29.27,11.53a221.48,221.48,0,0,0,29.89,8.58,138.65,138.65,0,0,0,30.85,2.09A299.7,299.7,0,0,0,415.42,535.27Z"/><path class="cls-1" d="M497.55,237.47c2.08,3.85,4.13,7.69,6,11.59s3.7,7.82,5.27,11.84,3,8.07,4.23,12.22A126.13,126.13,0,0,1,516,285.74a149.18,149.18,0,0,1,1.83,27.66,311.12,311.12,0,0,1-3.42,39.23c-1,6.67-2.16,13.27-3.18,19.48s-2,12-2.89,17.16c-1.75,10.26-3,17.79-3.45,20.27-1.1,6.18-2.38,14.12-3.68,22.6s-2.86,17.29-4.56,25.4c-3.36,16.24-7.37,29.32-7.61,30.11q-2.58,8.36-5.64,16.53c-.49,1.37-1,2.72-1.55,4.08l-.79,2-.85,2-1.7,4c-.57,1.32-1.24,2.61-1.86,3.91a187.12,187.12,0,0,1-18.09,29.65A222.57,222.57,0,0,1,410.92,597l-6.39,4.46L398,605.63A140,140,0,0,1,384.3,613a150.6,150.6,0,0,1-14.36,5.87,155,155,0,0,1-14.88,4.45,162.08,162.08,0,0,1-18.91,3.49,143,143,0,0,1-19.18,1,125.82,125.82,0,0,1-37.66-6.19c-17.61-5.81-33.54-15.92-47-28.55l-2.5-2.39c-.83-.79-1.67-1.59-2.48-2.45l-4.91-5c-3.33-3.31-6.45-6.79-9.67-10.18-1.64-1.69-3.16-3.45-4.72-5.2l-4.66-5.23c-3-3.6-6.1-7.08-8.92-10.79A130.61,130.61,0,0,1,177,523.29a120.74,120.74,0,0,1-5.66-15.65,163.15,163.15,0,0,1-3.58-16.3c-1.54-9.19-2.59-18.56-3.23-27.87s-.76-18.7-.5-28.07c.51-18.73,2.67-37.41,5.4-56a35,35,0,0,0,.56-5,17.07,17.07,0,0,0-.78-3.68c-.74.81-1.91,1.43-2.14,2.46-3.42,15.48-6.08,31.25-6.77,47.32-.42,9.26-.41,18.55-.38,27.81a240.73,240.73,0,0,0,1.78,28.4,197.06,197.06,0,0,0,5.1,28,134.62,134.62,0,0,0,10.3,26.6c1.09,2.11,2.14,4.25,3.38,6.28l1.79,3.09c.59,1,1.18,2.07,1.84,3.06l3.82,6,4.05,5.87c1.39,2.12,3.14,4,4.72,6a377.85,377.85,0,0,0,29.86,32.61l4,3.82,4.24,3.61c1.38,1.24,2.9,2.32,4.36,3.46s2.93,2.28,4.49,3.3A124.9,124.9,0,0,0,263,619.67a134.34,134.34,0,0,0,45.33,12.49,145.71,145.71,0,0,0,47.12-3.41,161.08,161.08,0,0,0,25-8.13c4.06-1.68,8-3.58,11.93-5.59s7.72-4.26,11.34-6.68,7.24-4.87,10.8-7.39,7-5.25,10.26-8.11,6.56-5.72,9.78-8.64,6.27-6,9.21-9.25c6.1-6.44,12-13.09,17.49-20.1a207.5,207.5,0,0,0,15.26-22l3.81-6.66,3.54-6.84c1.07-2.33,2.16-4.67,3.18-7s1.93-4.71,2.79-7.1c6.77-18.34,11.33-37.37,14.63-56.48,1.67-9.57,2.93-19.16,4.41-28.67s3.07-19,4.86-28.5c2.16-11.54,4.35-23,6.21-34.66a217.24,217.24,0,0,0,2.72-35.42c-.07-5.85-.2-11.85-.1-17.69a102.86,102.86,0,0,0-4-30.52,110.56,110.56,0,0,0-12.7-27.92,47.15,47.15,0,0,0-8-10.11C496.24,234,496,234.64,497.55,237.47Z"/><path class="cls-1" d="M160.46,421.38a15.77,15.77,0,0,1-4.19,1.93,12.49,12.49,0,0,1-4.43.54,11,11,0,0,1-4.72-1.59,6.63,6.63,0,0,1-2.16-2.08,14.65,14.65,0,0,1-1.51-3.35,47.5,47.5,0,0,1-1.51-7.19c-.34-2.21-.59-3.83-.67-4.37a17.75,17.75,0,0,0-1.65-5.25,24.2,24.2,0,0,0-3.51-5.07c-1.2-1.4-2.28-2.52-3-3.37s-1.2-1.38-1.27-1.44A30.88,30.88,0,0,1,126,378c-.54-2.22-1-4.59-1.48-6.88s-.87-4.63-1.26-6.95c-.67-4.3-1.24-8.62-1.58-13a106.61,106.61,0,0,1-.39-16.07,104.76,104.76,0,0,1,1.58-11.37c.71-3.71,1.5-7.27,2.29-10.86a13.39,13.39,0,0,1,3-5.68,15,15,0,0,1,4.84-3.6,14,14,0,0,1,4.84-1.27,10.68,10.68,0,0,1,4.69.7,16.41,16.41,0,0,1,7.76,6.26c.18.24.26.57.63.67a6.52,6.52,0,0,0,1.48-.13c.43-.46,1.26-1.16,1.2-1.39a12,12,0,0,0-6.55-8.19,30.69,30.69,0,0,0-6.06-1.77,11.72,11.72,0,0,0-3.3-.22,16.11,16.11,0,0,0-8.83,3.49c-3.36,2.67-5.56,6.23-7.73,9.78a10.69,10.69,0,0,0-.55,1.56,49.92,49.92,0,0,0-2.29,9.22c-.53,3.11-.81,6.23-1.06,9.34-.49,6.57-1.3,13.22-.89,19.83A121,121,0,0,0,119.8,373a43.75,43.75,0,0,1,1,5.49c.16,1,.27,1.94.47,2.92a27.94,27.94,0,0,0,.7,2.91,25.11,25.11,0,0,0,2.54,6.47,31.41,31.41,0,0,0,4.09,5.1c1.46,1.52,2.92,2.87,4.14,4.28a12.22,12.22,0,0,1,2.67,4.6,23.75,23.75,0,0,1,1,5.77,32,32,0,0,0,1.17,7.73,14.93,14.93,0,0,0,1.84,3.88,7.18,7.18,0,0,0,.68.91,7,7,0,0,0,.8.89c.33.3.67.61,1,.87s.71.44,1.07.64a34.2,34.2,0,0,1,4,2,10.3,10.3,0,0,0,7.39,1.54,10.86,10.86,0,0,0,6.9-4,4.84,4.84,0,0,0,.87-1.94,2.7,2.7,0,0,0-.12-1.37A.91.91,0,0,0,160.46,421.38Z"/><path class="cls-1" d="M153.57,334a3.58,3.58,0,0,0-.58-3.14,7.3,7.3,0,0,0-2.39-1.94,14.32,14.32,0,0,0-3.07-1.46,9.46,9.46,0,0,0-5.16-.2,10.49,10.49,0,0,0-4.39,2.5,20.8,20.8,0,0,0-1.75,2,11.48,11.48,0,0,0-2,5.3,20.85,20.85,0,0,0-.2,3.39,50.1,50.1,0,0,0,.23,7.21c.16,2.22.34,4.47.6,6.73.23,2.1.52,4.2.94,6.31a53.87,53.87,0,0,0,2.36,7.76c1.44,3.79,3.32,7.61,6.87,9.45a8.16,8.16,0,0,1,1.43,1l.16.14.1.09.18.2a2.29,2.29,0,0,1,.32.47,12,12,0,0,1,.78,2.43,20.49,20.49,0,0,1,.57,4.89c0,1.73,0,3.51-.09,5.32,0,.17-.09.34.16.49a10,10,0,0,0,1.31.34,11,11,0,0,0,1.76-.27,5.7,5.7,0,0,0,1.33-4.68,9.69,9.69,0,0,1-.52-2.74,12.48,12.48,0,0,0-1.34-5.66,19.59,19.59,0,0,0-1.58-2.66l-.49-.64c-.15-.19-.28-.36-.41-.56a7.21,7.21,0,0,1-.68-1.22c-.1-.23-.38-.29-.54-.47a29.23,29.23,0,0,1-4.87-6.53,13,13,0,0,1-1.07-4.07c-.17-1.41-.25-2.8-.46-4.15-.46-3-1-6-1.62-9.26-.31-1.64.19-3.35.38-5a20.81,20.81,0,0,0,.51-2.64c0-1.69-.3-3.44-.19-5.13a7,7,0,0,1,.53-2.39,3.19,3.19,0,0,1,1.51-1.62,6.78,6.78,0,0,1,2-.48,3.78,3.78,0,0,0,1.64-.83.88.88,0,0,1,.59-.2.54.54,0,0,1,.5.32,2.72,2.72,0,0,0,1.51,1.36,19,19,0,0,1,2.22.93C151.61,335.14,153.31,334.88,153.57,334Z"/><path class="cls-1" d="M533.81,324c-1.56,2.15-1,4-.7,5.91a41,41,0,0,1-.05,7.36,51.31,51.31,0,0,1-.85,6.16,12.09,12.09,0,0,0-.33,2.41c-.07.9-.12,1.86-.12,2.75-.08,1.78-.07,3.27-.07,3.36a74.46,74.46,0,0,1-1.09,7.5c-.23,1.2-.5,2.39-.82,3.58s-.63,2.38-1,3.55-.71,2.16-1.13,3.23-.82,2.13-1.3,3.16a47.66,47.66,0,0,1-3.9,7.5c-2.28,3.44-5.25,6.39-6.36,10.6-.65,2.52-2.54,4.31-3.89,6.43-2.26,3.54-4.63,7.06-6.79,10.75-.1.16-.27.3-.13.57a6.58,6.58,0,0,0,1,1,9.56,9.56,0,0,0,1.69.57,7.56,7.56,0,0,0,3.79-3.89,9.85,9.85,0,0,1,1.26-2.8c2.58-3.29,3.54-7.62,6.86-10.49.22-.19.24-.52.39-.75,1.75-2.76,3.36-5.62,5.11-8.42,1.85-3,4.4-5.63,5.95-8.86a40.75,40.75,0,0,0,3.42-11.24,15.37,15.37,0,0,1,.86-2.88c.38-.93.81-1.86,1.11-2.83a16.37,16.37,0,0,0,1.1-3.32,18.82,18.82,0,0,0,.12-3.36c0-1.13-.11-2.26-.18-3.37s-.09-2.22,0-3.32a13.88,13.88,0,0,1,.58-3.27c.84-2.65,1.47-5.44,0-8a2.22,2.22,0,0,1-.29-2c1-2.38-.25-4.57-1.29-6.69C536.07,323.5,534.4,323.17,533.81,324Z"/><path class="cls-1" d="M535.3,354.33c2.7-1.88,3.37-4.58,4.3-7.17.61-1.74,2.52-5.85,4.33-9.74s3.51-7.55,3.88-8.26c1.88-3.55,3.61-11.92,3.62-12.19.93-3.62,1.69-7.28,2.41-11s1.25-7.11,1.73-10.69c.22-1.66.39-3.33.58-5s.33-3.34.39-5a109.7,109.7,0,0,0-.06-12.56,58.56,58.56,0,0,0-.93-9.22,32.73,32.73,0,0,0-1.27-4.48,23.76,23.76,0,0,0-2.17-4.15,34.79,34.79,0,0,1-2.66-4.85c-.41-.82-.74-1.69-1.18-2.49s-.87-1.63-1.34-2.42a82.11,82.11,0,0,0-11.24-14.45c-.19-.2-.33-.47-.68-.46a5.05,5.05,0,0,0-1.31.54c-.32.54-1,1.4-.92,1.57a17.72,17.72,0,0,0,1.72,3.49,12.21,12.21,0,0,0,2.34,2.82,14.31,14.31,0,0,1,2.95,3.07c.83,1.19,1.62,2.4,2.49,3.56s1.68,2.35,2.51,3.55l.61.9.53.95c.35.64.69,1.28,1,1.94a18,18,0,0,1,1.31,4.16,8.83,8.83,0,0,0,.48,1,50.74,50.74,0,0,1,3.26,13c.5,4.74-.43,9.48-.83,14.11-.43,5.16-.85,10.34-1.39,15.6-.27,2.7-1.38,5.22-2.25,7.78-.47,1.47-1.27,2.85-1.6,4.36-1.35,5.75-1.48,12.06-4.73,17.27-2,3.15-3.92,6.3-4.07,10.17a4.06,4.06,0,0,1-.85,2.6c-2.21,2.51-2.46,5.79-2.91,9C533.07,353.7,534.3,355,535.3,354.33Z"/><path class="cls-1" d="M509.61,159.82c.94.61,1.86,1,2.76,1.52.45.22.9.41,1.36.59s.89.4,1.33.58a48.86,48.86,0,0,1,5.29,2.34,23.36,23.36,0,0,1,4.89,3.75,31,31,0,0,1,5.24,6.94,36.79,36.79,0,0,1,4.17,11.9c.44,2.82,1.13,7.21,1.72,10.95s1.16,7.12,1.2,7.32c.42,2.78.89,5.59,1.56,8.4.14.7.34,1.41.53,2.11s.38,1.4.62,2.1.43,1.4.72,2.1l.41,1,.2.52c0-.08,0,0,0,0l0,.07.16.29.08.14c0,.05.07.11,0,.14l-.47.48-.12.13-.34.29-.73.6a18.22,18.22,0,0,1-1.49,1.17,37,37,0,0,1-6.51,3.92,39.69,39.69,0,0,1-6.62,2.5,44.52,44.52,0,0,1-7,1.42,57.14,57.14,0,0,1-17.7-.4,77.25,77.25,0,0,1-12.34-3.51,60.62,60.62,0,0,1-5.64-2.33l-5.68-2.83c-4.65-2.34-8.16-6.31-11.54-10.16a65.38,65.38,0,0,1-12.81-22,1.67,1.67,0,0,0-.51-1,5.77,5.77,0,0,0-1.51-.36c-.51.38-1.48.88-1.47,1.14a20.81,20.81,0,0,0,3.25,11c1.23,1.88,2.62,3.63,3.74,5.53a50.2,50.2,0,0,0,8.64,10.47c3.26,3.14,6.69,6,10.07,9.16a11.85,11.85,0,0,0,1.57.94c1.48,1,3,1.85,4.62,2.72a40.08,40.08,0,0,0,5,2,87.09,87.09,0,0,0,10.24,2.79c3.66.79,7.34,1.52,11.11,2a48.32,48.32,0,0,0,11.47.21,43.33,43.33,0,0,0,23.53-9.95c.41-.37.83-.72,1.26-1.07l.31-.26c.13-.11.18-.13.37-.31l1-.89,2-1.77.26-.23.13-.11s0-.1,0-.15l-.25-.62-.51-1.25-.52-1.28-.12-.32-.1-.24,0-.1-.1-.35-.38-1.37c-.21-.94-.43-1.86-.61-2.82-.45-2.18-.46-4.48-.88-6.72-.76-4.34-1.69-8.81-2.61-13.35s-1.81-9.13-2.82-13.87a31.85,31.85,0,0,0-3-8.4,19.05,19.05,0,0,0-6-6.74,14.57,14.57,0,0,1-3.41-2.88A15.49,15.49,0,0,0,520.3,159a26.7,26.7,0,0,0-7.59-1.46,4.76,4.76,0,0,0-3.29.78C508.88,158.79,508.92,159.38,509.61,159.82Z"/><path class="cls-1" d="M295.54,150.06c5,6.77,11.65,11.93,18.52,16.69,1.12.84,2.72,1.87,4.59,3.17s4.1,2.73,6.53,4.27l1.86,1.18,2,1.14,4.08,2.36c1.38.82,2.86,1.5,4.3,2.26l4.35,2.23c3,1.32,5.86,2.69,8.63,3.86l7.75,3,9.33,3.13c2.87.89,6.62,1.78,10.61,2.73,2,.39,4.1.72,6.17,1.08s4.12.72,6.11.94l10.27,1c2.68.2,4.43.19,4.63.23l8.37.43c1.4.07,2.86,0,4.29,0s2.86-.16,4.28-.23a108.66,108.66,0,0,0,16.74-2.76,156.15,156.15,0,0,0,15.54-4.66,152.09,152.09,0,0,0,15-6.21A222.22,222.22,0,0,0,495.27,171q7.69-5.1,15.06-10.68,3.68-2.79,7.3-5.66l1.82-1.44,2.94-2.43,1.5-1.23c.1-.11.29-.21.33-.31l-.31-.35-.63-.7-2.51-2.83L516.05,140l-4.48-5c-3-3.3-6.09-6.55-9.26-9.71A147.49,147.49,0,0,0,481.76,108c-8.89-6.09-17.39-12.72-26.95-17.89a132.75,132.75,0,0,0-12.3-5.8,102,102,0,0,0-13-4.19,79.4,79.4,0,0,0-13.68-2,65.57,65.57,0,0,0-13.9,1,8.15,8.15,0,0,0-2.37.71,6,6,0,0,0-1.34,1.67c.59.48,1.22,1.44,1.71,1.4l2.78-.25c.92-.06,1.85,0,2.77-.1,1.83-.13,3.67,0,5.48,0,.91,0,1.82.09,2.73.11s1.81,0,2.72.12c1.82.16,3.64.21,5.46.43,2.11.13,4.21.47,6.32.8,1,.2,2.08.46,3.12.71a25,25,0,0,1,3.06.91,142.23,142.23,0,0,1,24,10.72,114,114,0,0,1,21.38,15.48c.86.79,1.88,1.41,2.78,2.17a304.85,304.85,0,0,1,29.79,28.39q1.85,2,3.63,4.06l.89,1,.41.51.37.48.18.23c0,.07.16.15,0,.21l-1,.67-.23.15-.51.39-1.09.81c-1.44,1.09-2.91,2.14-4.37,3.2-5.89,4.19-11.9,8.2-17.94,12.12-6.69,4.37-13.49,8.52-20.46,12.3-1.75.92-3.49,1.86-5.26,2.72s-3.53,1.71-5.35,2.51c-3.62,1.6-7.3,3.09-11,4.44a83.41,83.41,0,0,1-11.69,3.26c-4,.79-8,1.37-11.94,1.77a67.55,67.55,0,0,1-6.81.28h-1.69l-1.68-.07c-1.13,0-2.22,0-3.4-.12-2.23-.11-4.47-.2-6.7-.28s-4.48-.08-6.7-.3l-6.7-.52c-1.11-.09-2.24-.14-3.35-.28l-3.32-.46-6.65-1c-2.2-.42-4.37-.93-6.55-1.44l-3.26-.8c-1.09-.26-2.14-.65-3.21-1q-3.18-1.06-6.32-2.23C350.49,180.93,341,176,331,171.78a30,30,0,0,1-7-4c-7.23-5.94-15-10.84-22.66-16.39C296.51,147.87,293.69,147.55,295.54,150.06Z"/><path class="cls-1" d="M331.33,173.86c-2.15-1.37-3.71-.62-5.37-.13a42.9,42.9,0,0,1-6.6.66c-2.67,0-5.14-.08-5.63-.15a16.27,16.27,0,0,0-4.69.22l-3,.39c-1.13.05-2.27.19-3.4.19l-3.41,0a30,30,0,0,1-3.29-.22c-1.09-.12-2.18-.22-3.27-.39s-2-.42-3-.65l-1.49-.35c-.49-.13-1-.31-1.44-.47-1.19-.41-2.4-.77-3.57-1.21s-2.29-1-3.39-1.63a20.5,20.5,0,0,1-2.29-1.5c-.75-.52-1.49-1-2.26-1.49a17.25,17.25,0,0,0-2.29-1.39,15.85,15.85,0,0,0-2.59-.93,8.08,8.08,0,0,1-2.85-1.6l-.63-.52-.57-.59c-.38-.39-.76-.77-1.17-1.12-.67-.61-1.39-1.16-2-1.82l-1.84-2-.92-1c-.29-.34-.56-.71-.84-1.06L257.89,153c-.09-.13-.14-.31-.43-.27a9.46,9.46,0,0,0-1.25.55,9.12,9.12,0,0,0-1.21,1.29,6.23,6.23,0,0,0,2.07,4.59,8.78,8.78,0,0,1,2.26,1.77,17.76,17.76,0,0,0,4.4,3.74l1.17.85q.6.39,1.17.84a11.11,11.11,0,0,1,2.05,2.11c.16.22.46.24.68.37l3.86,2.34c1.33.7,2.68,1.37,4,2.14,2.8,1.48,5.41,3.69,8.5,4.78a25.52,25.52,0,0,0,5.23,1.31,31.09,31.09,0,0,0,5.37.38,36.23,36.23,0,0,1,5.39,1c.51.1,1,.26,1.54.4a5.21,5.21,0,0,0,1.57.16,22.17,22.17,0,0,0,3-.4c.5-.09,1-.18,1.49-.3l1.48-.36a14.11,14.11,0,0,1,5.93-.29,16.77,16.77,0,0,0,3.7.44,5.89,5.89,0,0,0,3.48-1.24,1.81,1.81,0,0,1,1.74-.46,4,4,0,0,0,3.11-.23,19.83,19.83,0,0,0,2.76-1.69C332.07,176,332.12,174.36,331.33,173.86Z"/><path class="cls-1" d="M408.28,79.87a13.78,13.78,0,0,0-5.12-4.27,41.27,41.27,0,0,0-6.09-2.33c-2.73-.92-9.42-3.21-15.86-4.85s-12.55-2.91-13.75-3.19A69.73,69.73,0,0,0,355.55,64c-4.1-.13-7.47,0-7.68,0-5.74,0-11.47.29-17.18.76-5.5.47-11,1.19-16.42,2-2.52.44-5,.83-7.54,1.35-1.25.26-2.51.47-3.75.75l-3.74.85c-1.55.32-3.07.75-4.6,1.15s-3.07.79-4.6,1.28c-3.08.91-6.1,2-9.1,3.1a99.59,99.59,0,0,0-12.81,5.63,42.32,42.32,0,0,0-11.25,8.49C255,91.48,253,93.47,251,95.64l-1.41,1.69L248.34,99c-.83,1.13-1.64,2.28-2.38,3.48a54.22,54.22,0,0,0-6.05,13,36.43,36.43,0,0,0-1.38,7.25,31.83,31.83,0,0,0,.36,7.48,2.4,2.4,0,0,0,.44,1.27,4.34,4.34,0,0,0,1.47.57c.54-.39,1.54-.83,1.56-1.09.21-3.93.74-7.38,1-11a18.69,18.69,0,0,1,1.33-6.23,92.16,92.16,0,0,1,6.07-11.81,28.72,28.72,0,0,1,4-5.31,25,25,0,0,1,5.16-4.16,12.34,12.34,0,0,0,1.35-1.16,84.61,84.61,0,0,1,17.85-10.58,61.68,61.68,0,0,1,10.43-3.4c1.77-.42,3.52-.8,5.34-1.14s3.58-.78,5.38-1.11c7.93-1.72,15.86-3.31,23.91-4.61,4.12-.68,8.32-.4,12.47-.33,1.19,0,2.38.12,3.57.19a32.6,32.6,0,0,0,3.56.14c4.55-.09,9.13-.43,13.72-.39a47.74,47.74,0,0,1,13.59,1.82c5.38,1.65,10.59,3.43,16.25,3.61a8.59,8.59,0,0,1,4,1,27.94,27.94,0,0,0,6.53,2.66c2.24.64,4.53,1.16,6.72,1.91a5.75,5.75,0,0,0,3.2.34C408.52,81.09,408.77,80.57,408.28,79.87Z"/><path class="cls-1" d="M239.94,119.64c-2.59-2.85-6.13-3.43-9.53-4A73.1,73.1,0,0,0,217,114.22a59.7,59.7,0,0,0-11.61,1.31,32.35,32.35,0,0,0-9.19,3.69c-1.49.8-2.73,1.7-3.68,2.3s-1.5,1.1-1.57,1.14c-1,.66-1.93,1.32-2.88,2.07s-1.84,1.48-2.71,2.27a69.57,69.57,0,0,0-5,4.87A84.15,84.15,0,0,0,172,142.28,78,78,0,0,0,165.89,153c-.53,1.17-1.09,2.32-1.51,3.54s-.93,2.4-1.29,3.64-.79,2.46-1.09,3.69-.71,2.45-1,3.69c-.42,1.81-.94,3.61-1.27,5.44-.17.91-.37,1.83-.52,2.75l-.37,2.77a43.34,43.34,0,0,0-.25,5.58,31.34,31.34,0,0,0,.71,5.54c.95,4.37.81,8.78,1.47,13.14,1.08,7.25,2.58,14.39,4.24,21.42.07.31.07.66.39.89a5.5,5.5,0,0,0,1.43.33c.55-.32,1.55-.73,1.58-.94a21,21,0,0,0-.82-9.14,25.93,25.93,0,0,1-1.48-5c-.49-3.55-1.34-7-2-10.52a33.69,33.69,0,0,1-.53-10.65,9.6,9.6,0,0,0-.13-1.41,77,77,0,0,1,1.17-16.41c.32-1.41.64-2.83,1.09-4.21s.91-2.75,1.46-4.06,1.07-2.62,1.72-3.88l.9-1.9c.33-.62.64-1.25.94-1.88l.5-1.05.55-1,1.08-2.06c.78-1.35,1.5-2.72,2.33-4.05,1.6-2.67,3.32-5.3,5.21-7.85s4.58-4.57,7.1-6.52c1.44-1.13,3.09-2,4.47-3.06a97.43,97.43,0,0,1,8.53-6.14,21.37,21.37,0,0,1,9.93-3.26c4.33-.15,8.33.24,12.59-.77a4.88,4.88,0,0,1,3.16.14c3.45,1.59,7.09,1.45,10.89,1.85C239.42,121.89,240.89,120.67,239.94,119.64Z"/><path class="cls-1" d="M160,188.5A10.29,10.29,0,0,0,154.4,191a31.41,31.41,0,0,0-4.13,4.27A87.58,87.58,0,0,0,141,207.34a23.15,23.15,0,0,0-1.13,2.16c-.38.8-.61,1.45-.87,2.1l-1.39,3.62c-.74,2.19-1.3,3.81-1.5,4.34a42.26,42.26,0,0,0-1.29,5c-.34,1.89-.64,3.9-.83,5.76s-.29,3.57-.32,4.83l0,2.17a114.79,114.79,0,0,0,.44,15.64c.49,5,1.27,9.93,2.23,14.82.87,4.53,2,9,3.16,13.44.71,2.74,1.61,5.49,2.51,8.23l1.47,4.06,1.58,4c3.08,7.78,6.44,15.39,11.28,21.91a32,32,0,0,1,3.55,6.32c.91,2.24,1.79,4.48,2.61,6.73a107.32,107.32,0,0,1,6,23.15c.06.36,0,.74.35,1a5.5,5.5,0,0,0,1.43.54c.57-.29,1.6-.62,1.63-.86a30.64,30.64,0,0,0,.3-5.32,19.32,19.32,0,0,0-1-5.15c-.6-1.94-1.51-3.79-1.92-5.77a25.59,25.59,0,0,0-.83-3c-.33-1-.67-2-1-2.93-.76-1.92-1.63-3.81-2.48-5.69A106.92,106.92,0,0,1,160,317.09a10.76,10.76,0,0,0-.82-1.43c-3-5.65-6.23-11.11-8.8-16.84a46.6,46.6,0,0,1-1.82-4.62l-.78-2.35-.66-2.38c-.21-.8-.45-1.58-.64-2.37l-.55-2.39-1.15-4.79c-1.8-7.09-3.56-14.12-4.93-21.28a30.46,30.46,0,0,1-.49-5.55c0-1.86.07-3.72.15-5.57.05-1.06.16-2.11.25-3.16a30.5,30.5,0,0,0,.22-3.15v-3l0-3c.08-2,0-4.08.23-6.11.09-1,.18-2,.3-3.06s.36-2,.58-3a28.13,28.13,0,0,1,1.94-5.81l1.63-3.37c.26-.54.51-1.19.75-1.64l.35-.67.4-.72a49.86,49.86,0,0,0,3.13-6.38,6.35,6.35,0,0,1,2.06-3,23.75,23.75,0,0,0,4.41-4.44c1.29-1.61,2.48-3.33,3.85-4.82a6.14,6.14,0,0,0,1-1.32,3.33,3.33,0,0,0,.45-1.13C161.13,188.94,160.85,188.44,160,188.5Z"/><path class="cls-1" d="M418.61,536a69.47,69.47,0,0,1-15.27,11.58,82.68,82.68,0,0,1-8.7,4.3l-1.11.5-1.14.42-2.29.86a33.24,33.24,0,0,1-4.67,1.46,45.63,45.63,0,0,1-4.8.91c-1.61.24-3.21.57-4.83.74l-4.87.43a22.12,22.12,0,0,1-2.44.1l-2.44,0a96.21,96.21,0,0,1-9.75-.4c-1.62-.15-3.23-.45-4.84-.67l-2.42-.36c-.81-.1-1.6-.35-2.4-.52a86.43,86.43,0,0,1-35-16.72c-5.13-3.93-9.9-8.25-14.56-12.53s-9.25-8.58-14.28-11.71l0,0a2.5,2.5,0,0,1-.8-3.44,2.52,2.52,0,0,1,2.36-1.17c11,1.06,22,1.92,33,2.83L333.89,514l8.28.76,4.16.44c.69.07,1.39.15,2.12.26l1.09.15,1.39.31a1.14,1.14,0,0,1,.36.15l.08.05a17.87,17.87,0,0,1,4,3.51c1.08,1.19,2.05,2.36,3,3.46a15.62,15.62,0,0,0,2.79,2.63,2.15,2.15,0,0,0,.36.18h-.15l.11,0a10.81,10.81,0,0,0,1.68-.61c1.27-.57,2.6-1.27,4-2s2.75-1.42,4.38-2.06a14.07,14.07,0,0,1,1.34-.44,5.66,5.66,0,0,1,.81-.17,4.82,4.82,0,0,1,1-.08l.63,0,.34.06.58.12,1.14.22c1.51.3,3,.56,4.5,1,5.9,1.73,11.76,3.56,17.54,5.64,2.9,1,5.76,2.14,8.61,3.3s5.62,2.48,8.34,3.87a173.18,173.18,0,0,0-17.68-4.58q-8.92-1.89-17.92-3.34c-1.5-.25-3-.63-4.43-1l-1.1-.24-.55-.11-.22,0a.07.07,0,0,0,.06,0l-.1,0a1.67,1.67,0,0,0-.31.07,8.62,8.62,0,0,0-.82.27c-1.22.48-2.56,1.16-3.89,1.84s-2.72,1.41-4.23,2.09a14.66,14.66,0,0,1-2.62.92,2.58,2.58,0,0,1-.45.1,5.12,5.12,0,0,1-.67,0c-.21,0-.42,0-.63,0a5.41,5.41,0,0,1-.55-.12,6.58,6.58,0,0,1-1.72-.75,19.36,19.36,0,0,1-3.9-3.56c-1.06-1.19-2-2.35-3-3.42a13.68,13.68,0,0,0-2.79-2.53l.44.2c-.22,0-.43-.07-.64-.12l-1-.14c-.64-.1-1.32-.17-2-.25l-4.07-.43-8.23-.75L317,517.56c-11-.91-22-1.77-33.07-2.83l1.53-4.63c5.75,3.59,10.4,8.06,15.09,12.3s9.3,8.48,14.23,12.25a81.21,81.21,0,0,0,33,15.8c.75.16,1.49.4,2.25.49l2.28.34c1.52.2,3,.49,4.56.63a88.72,88.72,0,0,0,9.22.38,73.3,73.3,0,0,0,18.25-2.21c3-.57,6-1.23,9-2.07,1.47-.47,3-.85,4.44-1.4s2.94-1,4.37-1.64,2.9-1.16,4.3-1.87l2.12-1,2.08-1.11A60.76,60.76,0,0,0,418.61,536Z"/><path class="cls-2" d="M443.67,388.49c-16.7-.66-27.34,8.91-26.38,9.77s3.41-.2,12.72-1.46c19.06-2.59,31.59,4.45,38.29,7.62,6.15,2.91,12.79,4.16,2.06-5.34C461.45,391.2,453.49,388.88,443.67,388.49Z"/><path class="cls-2" d="M311.33,361.07c26.13,7.29,30.76,20.34,30.37,22.94-.14.94-8-8.53-35.44-15.09-28.3-6.78-45.46-2.59-31.76-7.11A63.67,63.67,0,0,1,311.33,361.07Z"/><path class="cls-1" d="M265.75,316.21a74.27,74.27,0,0,1,13-1.58,102.66,102.66,0,0,1,13.12.33,110.78,110.78,0,0,1,13,2,66.24,66.24,0,0,1,12.61,4.3c8.08,3.46,15.66,7.85,23.49,10.9a39.9,39.9,0,0,0,5.84,1.8,13.34,13.34,0,0,0,5.44.22,6.1,6.1,0,0,0,3.84-2.54,10.45,10.45,0,0,0,1.25-2.32,6.66,6.66,0,0,0,.37-1.13,6.38,6.38,0,0,0,.1-1.08,9.52,9.52,0,0,0-1.69-4.74,22.15,22.15,0,0,0-3.83-4.39A43.33,43.33,0,0,0,342,311.32a65.19,65.19,0,0,0-24.23-6.12c-2.11-.13-4.2-.16-6.33-.08s-4.31.16-6.47.26c-4.3.19-8.6.47-12.86,1a80.49,80.49,0,0,0-12.62,2.39,90.67,90.67,0,0,0-12.11,4.6c1.86-1.11,3.74-2.2,5.67-3.23s3.94-1.9,6-2.71a77.39,77.39,0,0,1,12.68-3.52c4.32-.81,8.66-1.37,13-1.84,2.17-.25,4.35-.4,6.52-.59s4.45-.26,6.68-.23A66.57,66.57,0,0,1,344,307a48,48,0,0,1,11.55,7.32,26.58,26.58,0,0,1,4.74,5.35,13.67,13.67,0,0,1,2.49,7.4,10.48,10.48,0,0,1-.23,2.15,10.76,10.76,0,0,1-.63,2,15.83,15.83,0,0,1-1.87,3.37,11.66,11.66,0,0,1-3,2.84,11.35,11.35,0,0,1-3.84,1.54,18,18,0,0,1-7.46-.28,40.1,40.1,0,0,1-6.54-2.16c-8.26-3.49-15.66-8-23.36-11.74a69.35,69.35,0,0,0-11.78-4.66,116.33,116.33,0,0,0-12.55-2.72A112.44,112.44,0,0,0,278.71,316,89.07,89.07,0,0,0,265.75,316.21Z"/><path class="cls-1" d="M721.57,418.7c6.8,7.82,14.42,14.55,21.52,21.95,1.16,1.25,2.81,2.9,4.62,5l6.13,7.3,6.78,8.93,6.7,9.78A245.92,245.92,0,0,1,783.51,501l1.25,2.63c.45.92.93,1.88,1.36,2.92.9,2.05,1.88,4.25,2.89,6.51,2.15,4.48,4,9.41,5.86,13.89s3.27,8.67,4.41,11.75l1.9,5.31A306,306,0,0,1,811,583.78l1.7,9.76,1.53,9.87c1,6.57,2.08,13.13,3,19.69,1.77,12.15,3.21,24.33,4.11,36.55a355.77,355.77,0,0,1,.72,45.47c-.67,11-1.91,21.92-3.45,32.79s-3.43,21.67-5.17,32.54c-2.13,13.08-6.27,25.67-10.45,38.18-3.51,10.43-7.48,20.7-12,30.73a239.34,239.34,0,0,1-15.26,29,10.71,10.71,0,0,0-1.42,2.49,8.37,8.37,0,0,0,0,2.45c.79-.11,1.93.1,2.33-.38A97.81,97.81,0,0,0,791.45,849c1.09-2.5,2.15-5,3.14-7.54s2.09-5,3.15-7.52a263.55,263.55,0,0,0,11.15-31.42c3.13-10.67,5.9-21.41,9-32.12.38-1.43.53-2.92.84-4.37a378,378,0,0,0,7.11-51.37c1.3-18.22,2.24-36.56,1-54.88-.66-10.15-1.76-20.25-3.22-30.27s-3.17-20-4.9-29.9c-.45-2.53-.81-5.06-1.17-7.61s-.79-5.13-1.15-7.71l-1.06-7.73c-.15-1.29-.41-2.57-.66-3.85l-.74-3.83c-.58-2.92-1.1-5.85-1.65-8.79-.23-1.47-.65-2.91-1-4.36s-.75-2.88-1.17-4.31c-.79-2.76-1.59-5.51-2.45-8.24l-2.94-8.07-1.5-4-.74-2-.85-2-3.38-7.87c-.57-1.31-1.1-2.64-1.68-3.94l-1.84-3.86c-1.22-2.58-2.42-5.16-3.59-7.76s-2.55-5.1-3.77-7.68-2.37-5.19-3.71-7.71l-4.75-9.3c-1.75-3-3.53-6-5.37-9-.89-1.5-1.9-2.92-2.92-4.33s-2.06-2.83-3.11-4.22a84.28,84.28,0,0,0-6.8-8c-1.19-1.25-2.33-2.56-3.47-3.87a44.4,44.4,0,0,1-3.25-4c-6.93-9.83-16.11-17.74-25.56-24.89C722.32,416.33,719.09,415.76,721.57,418.7Z"/><path class="cls-1" d="M713,430.34c1.68,2.73,3.45,5.38,5.07,8.13l2.5,4.07,2.37,4.15c.77,1.39,1.63,2.73,2.36,4.14l2.24,4.22,2.26,4.2,2.08,4.3,2.11,4.29c.35.72.71,1.43,1,2.15l1,2.19,3.86,8.76c.68,1.44,1.18,3,1.78,4.45l1.72,4.47,1.73,4.46c.28.75.59,1.49.85,2.24l.75,2.28c.67,2,1.45,4.43,2.34,7.15l1.4,4.31c.24.76.49,1.54.75,2.33s.44,1.63.66,2.47c.91,3.36,1.89,7,2.92,10.85.5,1.93,1.1,3.89,1.55,5.95l1.38,6.31c.94,4.3,1.91,8.77,2.91,13.35.8,4.63,1.61,9.39,2.44,14.2.41,2.41.82,4.84,1.24,7.27.23,1.22.38,2.45.53,3.68l.48,3.7c.62,4.93,1.25,9.88,1.88,14.79s1,9.82,1.46,14.62.82,9.51,1.21,14.08.56,9,.79,13.25.39,8.27.57,12.06.38,7.32.47,10.55.06,6.16.09,8.73c.05,5.14.08,8.84.1,10.67,0,4.57.14,9.79.13,15.42q0,4.23-.06,8.73c-.07,3-.13,6.05-.2,9.17-.35,12.44-1.22,25.61-2.44,37.68-1.38,12.05-2.95,23-4.44,31.08-.73,4-1.34,7.36-1.77,9.75s-.82,3.83-.88,4.13c-7,33.44-17.66,66.11-30,98.08-1.42,3.88-3,7.68-4.59,11.51L723,916.19c-1.56,3.82-3.28,7.58-4.91,11.38l-5.71,13.09-1,2.32-.06.14s-.08.12,0,.11l.32,0,.62.1,1.25.18,5,.74.59.09.39,0,.79.08,1.59.15c1.06.09,2.11.22,3.17.24,2.12.09,4.24.19,6.36.11s4.24-.15,6.36-.3a98.12,98.12,0,0,0,24.74-5.4,118.81,118.81,0,0,0,21.15-10c3.34-2,6.61-4.11,9.78-6.36,1.61-1.07,3.14-2.32,4.7-3.48s3-2.48,4.53-3.72a168.15,168.15,0,0,0,30.12-35.36,242.79,242.79,0,0,0,25.09-51.66c3.23-9,5.86-18.25,8.18-27.54.54-2.34,1.17-4.65,1.65-7l1.49-7c.48-2.35.87-4.71,1.31-7.06l.64-3.54.54-3.55a384.19,384.19,0,0,0,3.61-83.21l-.82-10.39c-.27-3.47-.71-6.9-1.06-10.35l-1.15-10.32-.59-5.16-.73-5.15-1.49-10.29-.77-5.14c-.24-1.72-.6-3.42-.89-5.12l-1.9-10.23c-.63-3.41-1.25-6.82-2.07-10.19L861,595.28l-.66-3-.77-3-1.52-6.06-1.5-6-.75-3-.86-3-3.43-12c-.54-2-1.21-4-1.87-6l-2-5.93-2-5.93c-.69-2-1.48-3.9-2.22-5.85l-2.26-5.83c-.78-1.94-1.45-3.92-2.35-5.8l-5.15-11.42a276.53,276.53,0,0,0-47-68.76l-3.53-3.85c-1.16-1.3-2.44-2.47-3.66-3.72l-7.4-7.36a104.4,104.4,0,0,0-16.92-12.83A148.38,148.38,0,0,0,736.57,406a120.41,120.41,0,0,0-20.06-6.86l-3.79-.78A24.37,24.37,0,0,0,709,398a13.66,13.66,0,0,0-1.45,0c-.48.07-.93.16-1.38.25-.89.19-1.74.41-2.62.58,1.36.7,2.44,1.83,3.94,2a88.39,88.39,0,0,1,16.61,4.54,153.65,153.65,0,0,1,15.76,7c10.22,5.23,20.13,11.33,28.64,18.95,2.44,2.28,4.85,4.64,7.28,7l3.63,3.49,3.47,3.66c2.3,2.45,4.64,4.87,6.88,7.37s4.31,5.15,6.44,7.74a280.8,280.8,0,0,1,23.43,33.84l2.65,4.41c.87,1.48,1.62,3,2.44,4.54l4.82,9.11c1.47,3.1,2.89,6.23,4.34,9.35l2.16,4.68c.68,1.58,1.29,3.19,1.94,4.78a365.89,365.89,0,0,1,22,79.41c.65,3.59,1.3,7.23,2,10.84,6.88,42.21,11.88,85.15,8.11,127.79-.27,2.81-.47,5.62-.81,8.42l-1,8.4L867,774.46c-.42,2.79-1,5.54-1.51,8.31a296.86,296.86,0,0,1-8.3,32.69A254,254,0,0,1,829,876.27c-3.36,5.2-7,10.22-10.76,15.09A171.11,171.11,0,0,1,806,905.17a119.24,119.24,0,0,1-13.83,12,147.8,147.8,0,0,1-15.48,9.92A104.13,104.13,0,0,1,742.26,939a87.73,87.73,0,0,1-18.18.77l-4.5-.39-1.07-.12c.1-.3.22-.57.36-.94l1.86-4.34,3.83-8.86,1.94-4.42c.64-1.47,1.23-3,1.86-4.45l7.47-17.82,7.11-18c2.31-6,4.46-12.11,6.68-18.16l.94-2.61.88-2.62,1.76-5.25,3.53-10.51,3.21-10.61,1.57-5.32c.52-1.77.94-3.57,1.4-5.36l2.59-10.34c.85-3.44,1.53-6.94,2.29-10.4,1.58-6.93,2.7-14,4-20.94,2.2-14,3.82-28.15,4.77-42.3s1.2-28.32,1.16-42.45l-.32-21.18c-.09-7.06,0-14.13-.37-21.19-.75-34.33-3.61-68.92-11.83-102.54-1.09-4.12-2.15-8.3-3.13-12.5q-.74-3.14-1.41-6.29c-.53-2.07-1-4.14-1.53-6.21q-1.26-5.42-2.61-10.82c-.42-1.81-1-3.57-1.55-5.35l-1.66-5.31-1.7-5.3c-.3-.88-.56-1.77-.88-2.64l-1-2.6-4.05-10.37a235.36,235.36,0,0,0-21.08-39.08,94.48,94.48,0,0,0-11.76-14.56C710.62,425.56,710.48,426.33,713,430.34Z"/><path class="cls-1" d="M696.2,397.21a68.87,68.87,0,0,0-23.61-6,105.52,105.52,0,0,0-24.48,1.13,178.39,178.39,0,0,0-25.34,5.83c-1.33.41-2.7.81-4.07,1.26l-4.17,1.4c-1.42.46-2.82,1-4.26,1.52l-2.16.78-2.17.89A104.62,104.62,0,0,0,589,412.78a161.45,161.45,0,0,0-26.76,21.83l-4.71,4.81-3.7,4.14L551,446.67l-1.67,2-3,3.59c-1,1.28-2.16,2.59-3.19,4.05L540,460.81c-1.11,1.55-2.31,3.1-3.37,4.77l-3.31,5c-1.1,1.7-2.26,3.38-3.27,5.14-2.07,3.49-4.19,6.92-6.07,10.28s-3.59,6.64-5.2,9.6-2.87,5.76-4,8.08-2.1,4.25-2.76,5.64l-1.09,2.44-3.38,7.37c-.56,1.23-1.15,2.45-1.67,3.69l-1.55,3.76-3.09,7.51L500.4,536l-.69,1.91-1.37,3.83-2.75,7.64-2.4,7.76L492,561c-.41,1.29-.81,2.59-1.12,3.9l-2,7.87a293.61,293.61,0,0,0-8.73,61.85,306.33,306.33,0,0,0,3.56,57.72,359.2,359.2,0,0,0,18.71,69.12c5.84,16.22,11.43,32.53,17.06,48.82l8.38,24.41c2.77,8.13,5.61,16.26,8.09,24.38.41,1.22.69,2.43,1,3.65s.64,2.41.89,3.7l1.56,7.61q1.53,7.62,2.86,15.23c.89,5.08,1.71,10.17,2.36,15.24.32,2.53.59,5.06.78,7.57.07,1.25.15,2.5.16,3.72,0,.62,0,1.22,0,1.81a16.12,16.12,0,0,1-.11,1.64l-.15,1.65c-1,2.46,1.88,2,3.45,2.59,2.11.48,2.88.5,4.07.7s2.27.22,3.41.32,2.28.06,3.42.07a47.2,47.2,0,0,0,13.45-2.3,61.8,61.8,0,0,0,22.86-14,108.23,108.23,0,0,0,16.76-20.53A166.14,166.14,0,0,0,625,864.48a23.21,23.21,0,0,0,1.64-4.33,14.21,14.21,0,0,0,0-3.51c-.88.56-2.14.83-2.57,1.69q-4.78,9.75-10.29,19a193.18,193.18,0,0,1-11.93,17.94c-5,6.61-10.78,12.76-17.73,17.22a54.09,54.09,0,0,1-11.26,5.56,44.87,44.87,0,0,1-12.23,2.44,43.48,43.48,0,0,1-6.25-.12c-1-.08-2.09-.27-3.09-.39-.7-.12-1.32-.26-2-.38a8.6,8.6,0,0,1,.08-1,4.26,4.26,0,0,0,0-.5l0-.61c0-1.13-.05-2.22-.07-3.33-.14-2.2-.35-4.37-.62-6.53-1.1-8.63-2.76-17.1-4.28-25.6-.78-4.25-1.54-8.49-2.26-12.75-.38-2.13-.64-4.23-1.1-6.39l-.63-3.24c-.22-1.07-.49-2.12-.73-3.18s-.58-2.24-.92-3.35-.73-2.2-1-3.31c-3.88-12.9-8.26-25.59-12.7-38.26s-9-25.28-13.57-37.91l-7.14-20-1.74-5c-.59-1.62-1.05-3.35-1.57-5l-3-10.1c-.91-3.4-1.72-6.82-2.6-10.22l-1.28-5.1L493,713.07l-1.07-5.16c-.34-1.72-.78-3.42-1-5.16l-1.73-10.38A337.15,337.15,0,0,1,485.3,646l.1-11.65c.15-3.87.42-7.75.61-11.63l.15-2.91.29-2.9.59-5.8c.21-1.93.37-3.87.61-5.8l.86-5.77c.59-3.93,1.14-7.87,2.08-11.73l1.29-5.83c.45-1.93.86-3.88,1.44-5.78l3.27-11.48,3.78-11.3c.67-2.18,1.57-4.27,2.38-6.39l2.5-6.34c.79-2.13,1.73-4.2,2.64-6.28s1.8-4.17,2.66-6.27a423,423,0,0,1,23.2-47,242.82,242.82,0,0,1,14.41-21.88c1.3-1.76,2.7-3.43,4.05-5.14s2.69-3.44,4.17-5l4.38-4.85c.72-.82,1.49-1.59,2.27-2.35l2.33-2.28a177.33,177.33,0,0,1,24.34-19.92l3.25-2.17c1.09-.71,2.23-1.33,3.34-2s2.21-1.37,3.35-2l3.43-1.82c.57-.3,1.14-.62,1.71-.91l1.76-.81,3.51-1.64c2.45-1,4.87-2.11,7.33-3.09a79,79,0,0,1,15-4.8,256.23,256.23,0,0,1,26.67-4.07,108.08,108.08,0,0,1,26.71.87c1.4.17,2.66.51,3.84.7l3.2.53a26.11,26.11,0,0,0,4.3.61C699,399.1,698.92,398.47,696.2,397.21Z"/><path class="cls-1" d="M703.24,426a85.69,85.69,0,0,0-24.1,2.84l-3,.72-2.91.86c-1.94.59-3.9,1.15-5.82,1.79-3.81,1.37-7.67,2.64-11.41,4.2l-4.43,1.74c-1.68.69-3.52,1.51-5.55,2.37l-3.16,1.36c-1.08.47-2.18,1-3.33,1.55l-3.52,1.66c-1.21.56-2.45,1.14-3.67,1.79A232.31,232.31,0,0,0,601,465.64l-7.45,5.62c-2.38,1.94-4.67,3.91-6.91,5.78-4.32,3.95-8.33,7.72-11.56,11.32-6.55,7.11-10.82,12.75-12.27,14.58a195.89,195.89,0,0,0-12.08,17.39c-4.2,6.73-8.27,14.09-11.7,21A252,252,0,0,0,527.58,568,262.61,262.61,0,0,0,512.46,631a254.78,254.78,0,0,0,.87,62.44l.49,3.59c.15,1.2.33,2.39.56,3.58l1.27,7.12c.87,4.64,1.55,9.38,2.38,14.13,1.61,9.48,3.57,18.93,6,28.26,6.09,23.12,15.18,45.6,28.23,65.87a120.52,120.52,0,0,0,16.51,20.6,85.48,85.48,0,0,0,21.61,15.63,78.43,78.43,0,0,0,12.49,5l3.24.87,1.63.43,1.64.33,3.3.65c1.1.17,2.21.31,3.32.46,2.21.35,4.43.43,6.65.61,1.11.08,2.22.07,3.33.1s2.21.08,3.34,0l3.35-.16c.56,0,1.12,0,1.68-.1l1.66-.21,3.31-.42c1.11-.12,2.19-.41,3.28-.61A124.8,124.8,0,0,0,658,855.1a157.22,157.22,0,0,0,14.63-5.88,186.3,186.3,0,0,0,27.27-15.48c7.21-4.9,14.12-10.18,20.85-15.66s13.28-11.24,19.47-17.39c12.36-12.27,23.47-26.13,31.47-41.87a23.42,23.42,0,0,0,1.89-4.26,14.41,14.41,0,0,0,.14-3.52c-.9.53-2.17.74-2.63,1.59-7,12.67-15.59,24.13-24.87,35.22a163.16,163.16,0,0,1-17.4,18.07c-12.93,11.24-26.37,22-40.92,31.11a150.57,150.57,0,0,1-22.78,11.76,92.67,92.67,0,0,1-24.62,6.42c-1.11.18-2.24.24-3.35.4s-2.24.29-3.37.38c-13.11.61-26.51-1.38-38.5-6.74A78.46,78.46,0,0,1,578.47,839a91,91,0,0,1-14.05-13.83A118.89,118.89,0,0,1,552.54,808c-.87-1.51-1.78-3-2.62-4.54l-2.4-4.66c-1.66-3.08-3-6.3-4.5-9.47a260.43,260.43,0,0,1-13.52-39.67q-2.91-11.28-5.06-22.74c-.72-3.82-1.38-7.65-2-11.51s-1.38-7.91-2.06-11.64l-1-5.71-.83-5.75c-.62-3.83-1-7.69-1.38-11.54-.24-1.93-.35-3.86-.48-5.79l-.41-5.81-.18-5.81c-.06-1.94-.16-3.88-.12-5.82l.07-5.94c0-2,.2-4,.3-5.94.19-4,.66-7.9,1.1-11.84,1-7.87,2.33-15.7,4.09-23.42,2-8.86,4.56-17.54,7.27-26.17a289.33,289.33,0,0,1,19.75-48.3c8.13-15.41,17.93-30.09,29.84-42.75,1.82-1.91,3.66-3.79,5.57-5.59l5.81-5.3,6.07-5c1-.86,2.05-1.64,3.1-2.42l3.15-2.38c8.44-6.26,17.24-12.06,26.19-17.75,2.24-1.36,4.53-2.7,6.85-4a78.11,78.11,0,0,1,7.16-3.3c8.5-3.29,16.86-6.78,25.4-9.77A209,209,0,0,1,693.58,430c1.38-.27,2.67-.53,3.84-.8s2.22-.54,3.17-.71a26.81,26.81,0,0,0,4.2-1.12C706.57,426.63,706.23,426.08,703.24,426Z"/><path class="cls-1" d="M692.67,409.24c-4.66-2.62-9.91-2.42-14.9-2.18l-3.35.13-4.68.3-5.49.54-5.78.82c-7.69,1.22-14.74,3.19-16.15,3.51a78.73,78.73,0,0,0-13.11,4.9c-4.32,2.06-7.79,3.93-8,4.08-6,3.08-11.66,6.58-17.26,10.21-5.32,3.62-10.57,7.33-15.56,11.37l-3.49,2.77-3.39,2.88c-2.31,1.88-4.48,3.9-6.69,5.89l-2.05,1.85-2,1.93-4,3.86-3.83,4c-1.3,1.31-2.59,2.62-3.83,4-7.37,7.73-14.77,15.73-19.54,25.43-2.86,5.79-6.7,10.93-9.81,16.54-1.36,2.31-2.56,4.7-3.8,7.06s-2.52,4.72-3.64,7.15L519,533.48l-3.18,7.36a2.56,2.56,0,0,0-.4,1.36c0,.43.54.94.83,1.41.67,0,1.75.18,1.93-.06a52.88,52.88,0,0,0,3.71-5.66c.54-1,1-2,1.49-3a32.11,32.11,0,0,0,1.33-3.06,56.34,56.34,0,0,1,3-7.13c1.31-2.29,2.51-4.63,3.66-7s2.41-4.67,3.61-7c.62-1.17,1.22-2.34,1.88-3.48s1.36-2.25,2.07-3.36a49.46,49.46,0,0,1,4.67-6.38,19.22,19.22,0,0,0,1.12-1.79c2.23-3.42,4.68-6.69,7.1-10,1.18-1.66,2.52-3.21,3.79-4.81s2.55-3.19,4-4.68,2.94-3.16,4.44-4.7,3.16-2.94,4.74-4.4,3.22-2.85,4.83-4.27,3.19-2.86,4.83-4.24c7.09-6.31,14.25-12.5,21.78-18.31a65.61,65.61,0,0,1,6.09-4l6.42-3.44c2.48-1.25,5-2.32,7.46-3.64s4.6-2.66,7-3.9l3.5-1.93c1.18-.62,2.38-1.2,3.58-1.79a54.56,54.56,0,0,1,15.09-5.11c6.43-1.07,12.75-1.67,18.92-3.75a13.93,13.93,0,0,1,2.34-.62,9.19,9.19,0,0,1,2.4,0c5.55.69,10.89-.34,16.41-.51C692.67,411.56,694.38,410.15,692.67,409.24Z"/><path class="cls-1" d="M577.52,705a11.33,11.33,0,0,1-8.39-1.76,11.79,11.79,0,0,1-3.28-3.14,10.36,10.36,0,0,1-1.13-2.07,17.87,17.87,0,0,1-.66-2.19,19.68,19.68,0,0,1-.6-4.5,23.5,23.5,0,0,1,.43-4.53,34.67,34.67,0,0,1,1.08-4.3,25.67,25.67,0,0,1,1.8-4.19c2.82-5.22,6-9.77,8.91-14.62,1.47-2.41,2.88-4.81,4.27-7.28s2.79-4.91,4.1-7.37a91.64,91.64,0,0,0,6.67-15.11,78.42,78.42,0,0,0,3.41-16.11c.33-2.74.49-5.52.55-8.31s.05-5.59-.07-8.39c-.23-5.62-.81-11.25-1.44-16.92a96.34,96.34,0,0,1,5.11,33.94,69.61,69.61,0,0,1-2.91,17.26,81.62,81.62,0,0,1-7,16c-1.41,2.52-2.88,5-4.36,7.39s-3,4.9-4.54,7.28-3.17,4.77-4.78,7.1-3.27,4.63-4.64,7a22.68,22.68,0,0,0-1.73,3.54c-.48,1.26-.93,2.58-1.31,3.86a20.22,20.22,0,0,0-.74,3.89,18.87,18.87,0,0,0,.14,4,16.93,16.93,0,0,0,.34,1.94,7.79,7.79,0,0,0,.7,1.76A10.77,10.77,0,0,0,570,702.1,11.31,11.31,0,0,0,577.52,705Z"/><path class="cls-1" d="M572.83,696a21.51,21.51,0,0,1,9.16.61,18.45,18.45,0,0,1,4.33,2c1.34.85,2.55,1.76,3.71,2.57a20.26,20.26,0,0,0,3.48,2,17.41,17.41,0,0,0,3.7,1.13,20,20,0,0,0,7.75-.12,16.12,16.12,0,0,0,3.62-1.24,31,31,0,0,0,3.49-2.19,37.14,37.14,0,0,1,8.36-4.18,34.5,34.5,0,0,1,9.09-1.76,39.58,39.58,0,0,1,9.05.59c-3,.45-5.89.9-8.71,1.62a45.78,45.78,0,0,0-8,3,42.38,42.38,0,0,0-7.14,4.5,31.66,31.66,0,0,1-3.9,2.74,18.54,18.54,0,0,1-4.72,1.8,21.23,21.23,0,0,1-9.9,0,18.92,18.92,0,0,1-4.67-1.84,22,22,0,0,1-3.92-2.9c-2.3-2.1-4.12-4.09-6.56-5.43A30.31,30.31,0,0,0,572.83,696Z"/><path class="cls-1" d="M634.91,703.26a60.79,60.79,0,0,0,13-4.25,18.06,18.06,0,0,0,5.05-3.52,9.38,9.38,0,0,0,2.58-4.79,16.31,16.31,0,0,0-1.72-11.64c-2.07-3.58-5.52-6.6-9.5-9.19a19.31,19.31,0,0,1,6.94,2.11,18.44,18.44,0,0,1,5.9,4.74,16.37,16.37,0,0,1,3.37,7.15,19.3,19.3,0,0,1-.13,7.87,13,13,0,0,1-4.28,7.12,18.78,18.78,0,0,1-6.83,3.66,29.17,29.17,0,0,1-7.22,1.21A31,31,0,0,1,634.91,703.26Z"/><path class="cls-1" d="M728.7,579.35A101.91,101.91,0,0,0,688.55,562c-1.8-.34-3.59-.68-5.4-.92s-3.61-.49-5.42-.7-3.62-.34-5.44-.43l-5.52-.24a30.74,30.74,0,0,0-10.19,1,9.23,9.23,0,0,0-3.79,2.16,6,6,0,0,0-1.69,3.47,5.49,5.49,0,0,0,.82,3.69,4.47,4.47,0,0,0,2.87,2.12,12.85,12.85,0,0,0,4.63,0c1.71-.24,3.52-.66,5.42-.93a103,103,0,0,1,22.66-1.3,94.35,94.35,0,0,1,42.89,12.53,113.53,113.53,0,0,0-43-8.63c-.91,0-1.83,0-2.74,0l-2.73.11c-1.82,0-3.63.24-5.45.36a108.87,108.87,0,0,0-10.8,1.57c-1.77.32-3.58.74-5.55,1a17.23,17.23,0,0,1-6.45,0,9.32,9.32,0,0,1-3.41-1.53,9.71,9.71,0,0,1-2.51-2.7,10.39,10.39,0,0,1-1.61-7,10.94,10.94,0,0,1,3.17-6.33A14,14,0,0,1,655.1,556a33.65,33.65,0,0,1,11.9-1l5.61.42c1.89.16,3.77.38,5.65.62a97.83,97.83,0,0,1,11.14,2.17C704.06,561.83,718,568.93,728.7,579.35Z"/><path class="cls-1" d="M670.37,747.32a51.14,51.14,0,0,0-6.71-1.9c-2.26-.52-4.53-.95-6.81-1.34-4.58-.74-9.16-1.38-13.76-1.83a219.58,219.58,0,0,0-27.36-3.3,45.63,45.63,0,0,0-6.56.13l-.68.11c-.25,0-.34.1-.53.13s0,0-.05,0,.05-.08-.14.06l-.8.53a15.17,15.17,0,0,1-3.75,1.79,8.92,8.92,0,0,1-4.78.19,8.82,8.82,0,0,1-2.24-.93l-1.49-.92a4.6,4.6,0,0,0-1-.45l-.22,0s0,0-.09,0l-.46,0a15.59,15.59,0,0,0-2.88.75c-2.06.7-4.31,1.59-6.45,2.39s-4.34,1.68-6.56,2.5a72.24,72.24,0,0,1-6.91,2.18,44.38,44.38,0,0,1-7.29,1.22l1.68-4.14a66.62,66.62,0,0,0,23.08,16.58,64,64,0,0,0,27.87,5.35,132.75,132.75,0,0,0,14.55-1.2A78.63,78.63,0,0,0,644.1,762a63.39,63.39,0,0,0,13.58-4.84l3.21-1.73,3.1-2,3-2.17,2.86-2.39-2.35,2.92-2.58,2.76-2.8,2.56-3,2.36a61.06,61.06,0,0,1-13.47,7.35,113.27,113.27,0,0,1-30,4.52,68.9,68.9,0,0,1-30-5.76,71.57,71.57,0,0,1-24.83-17.86,2.49,2.49,0,0,1,1.67-4.14h0a48.05,48.05,0,0,0,12.88-3.12c2.14-.78,4.3-1.63,6.49-2.47s4.3-1.65,6.65-2.46a20.22,20.22,0,0,1,3.87-1,8.72,8.72,0,0,1,1.28,0c.24,0,.53,0,.78.08l.63.15a9,9,0,0,1,2.19,1l1.48.91a4.17,4.17,0,0,0,1,.42,4.11,4.11,0,0,0,2.11-.13,10.83,10.83,0,0,0,2.52-1.24l.65-.43s.38-.23.63-.36a4.23,4.23,0,0,1,.74-.32,12,12,0,0,1,2.21-.48,49.89,49.89,0,0,1,7.39-.16c4.77.19,9.45.67,14.13,1.24q3.5.45,7,1a65.14,65.14,0,0,1,7,1.21c4.56,1.22,9.09,2.53,13.54,4.1A67,67,0,0,1,670.37,747.32Z"/><path class="cls-1" d="M670.46,748.29a240,240,0,0,1-26.32,4.15c-8.82,1-17.67,1.61-26.53,2a158,158,0,0,1-26.79-.89,93.31,93.31,0,0,1-25.88-6.76,193.23,193.23,0,0,0,26.21,2.87c8.74.34,17.48.17,26.25-.21s17.64-.69,26.48-.88S661.55,748.17,670.46,748.29Z"/><path class="cls-1" d="M540,567.48a44.52,44.52,0,0,1,10.48-4.33,32.83,32.83,0,0,1,5.76-1,22,22,0,0,1,6,.46c3.9.76,7.51,2.53,10.67,3.43a8.64,8.64,0,0,0,2.13.35,2.77,2.77,0,0,0,1.35-.28c.19-.13.26-.2.34-.58a3.37,3.37,0,0,0-.18-1.52,6.51,6.51,0,0,0-2.35-3.16,6.35,6.35,0,0,0-1.82-1,23,23,0,0,0-2.4-.72,30,30,0,0,0-10.28-.65,34.72,34.72,0,0,0-10.26,2.71,53.29,53.29,0,0,0-9.58,5.45,35.89,35.89,0,0,1,8.44-7.6,32.56,32.56,0,0,1,10.78-4.42,30.35,30.35,0,0,1,11.9-.11,22.35,22.35,0,0,1,3,.77,11.57,11.57,0,0,1,3.13,1.55,11.33,11.33,0,0,1,4.22,5.62,8,8,0,0,1,.31,4,5.84,5.84,0,0,1-.88,2.19,5.44,5.44,0,0,1-1.81,1.7,7.31,7.31,0,0,1-4,.9,12.85,12.85,0,0,1-3.34-.65,55.78,55.78,0,0,1-5.35-2.22,47.58,47.58,0,0,0-4.94-1.94c-.83-.25-1.66-.48-2.5-.65-.42-.09-.83-.14-1.25-.2a10.88,10.88,0,0,0-1.28-.13,30.73,30.73,0,0,0-5.33.09A77.65,77.65,0,0,0,540,567.48Z"/><path class="cls-3" d="M653.17,612.22S660.87,592.33,687,600c11,3.2,22.24,9.78,22,12.26s-16.5-1.5-25.11-3.46c-7.45-1.69-15.26-2.35-23.67,1.57C655.26,612.15,652.13,614.57,653.17,612.22Z"/><path class="cls-3" d="M577.87,611.91s-4.65-17.51-26.5-11c-10.92,3.5-15.33,9.83-13,11s9.79-3,15.65-4.13,11.7-1.35,19,2.15C576.86,611.82,578.68,614.34,577.87,611.91Z"/></g><g id="Layer_4" data-name="Layer 4"><path class="cls-1" d="M162.69,306.67c.43,2,1.52,1.89,2.44,1.94a52.68,52.68,0,0,1,6.42,2.2,4.91,4.91,0,0,0,2.55.24,13,13,0,0,0,1.66-.28l3.69-.3c1.18-.07,2.35-.15,3.52-.15s2.15,0,3.23.14a23.5,23.5,0,0,1,4,.48c1.93.49,3.83,1.59,5.8.37,1.18-.74,2.32-.07,3.47,0,1.92.11,3.82.39,5.69.63.08,0,.17.11.26-.14s.18-.85.27-1.3c0-.61,0-1.68,0-1.76-.74-1.16-1.54-1.82-2.38-1.53a2.44,2.44,0,0,1-1.44.29c-1.93-.59-3.92.88-5.81-.49-.12-.09-.26.06-.39.05a39.85,39.85,0,0,1-4.5-.3c-1.58-.27-3.12-1.44-4.7-1.7a13.43,13.43,0,0,0-5.26.35c-.9.22-1.77-.35-2.64-.59-.5-.14-1-.53-1.49-.49-1.95.16-4.07,1.91-5.86.43-1.1-.89-2.11-1.73-3.43-.65-.34.27-.65.39-.87,0-.77-1.3-1.85-.51-3,0A3,3,0,0,0,162.69,306.67Z"/><path class="cls-1" d="M196.49,217.09c1.16,2.07,2.85,2.06,4.42,2.16a21.72,21.72,0,0,1,2.49.48c1.07.22,2.3.51,3.5.8,2.39.56,4.63,1.09,5.08,1.24,2.2.72,7,.11,7.17.09l6.28-.21c2-.05,4-.11,6-.09s3.72.07,5.57.18c2.3.13,4.6.18,6.89.54,3.33.51,6.64,1.64,10,.43,2-.72,4,0,6,0,3.32.13,6.64.45,9.92.74.15,0,.3.11.45-.14a9.71,9.71,0,0,0,.38-1.29,14,14,0,0,0-.14-1.77c-1.34-1.17-2.73-1.86-4.16-1.58a6.77,6.77,0,0,1-2.47.26c-3.33-.62-6.71.82-10-.57-.22-.09-.44.06-.67.05-2.59-.1-5.18-.09-7.77-.36s-5.43-1.48-8.16-1.75a39.64,39.64,0,0,0-9.1.26c-1.55.2-3.07-.39-4.6-.65a14.32,14.32,0,0,0-2.62-.53c-3.39.11-6.91,1.81-10.17.24-2-.93-3.9-1.84-6.06-.82a1.3,1.3,0,0,1-1.52,0,3.15,3.15,0,0,0-2.51-.79,18,18,0,0,0-2.69.53C196.86,214.82,196.06,216.32,196.49,217.09Z"/><path class="cls-1" d="M450.05,145.09c1.16,2.07,2.86,2.06,4.43,2.16a22.57,22.57,0,0,1,2.49.48c1.06.22,2.29.51,3.49.8,2.39.56,4.64,1.09,5.08,1.24,2.2.72,7,.11,7.17.09l6.29-.21c2-.05,4-.11,6-.09s3.71.07,5.57.18c2.29.13,4.59.18,6.89.54,3.32.51,6.63,1.64,10,.43,2-.72,4,0,6,0,3.32.13,6.63.45,9.92.74.14,0,.29.11.44-.14a7.4,7.4,0,0,0,.38-1.29,10.92,10.92,0,0,0-.14-1.77c-1.33-1.17-2.73-1.86-4.16-1.58a6.7,6.7,0,0,1-2.46.26c-3.33-.62-6.71.82-10-.57-.22-.09-.45.06-.67.05-2.59-.1-5.19-.09-7.77-.36-2.74-.28-5.44-1.48-8.17-1.75a39.56,39.56,0,0,0-9.09.26c-1.55.2-3.08-.39-4.61-.65a14.32,14.32,0,0,0-2.62-.53c-3.38.11-6.91,1.81-10.16.24-2-.93-3.9-1.84-6.07-.82a1.3,1.3,0,0,1-1.52,0,3.14,3.14,0,0,0-2.5-.79,18.11,18.11,0,0,0-2.7.53C450.43,142.82,449.63,144.32,450.05,145.09Z"/><path class="cls-1" d="M176.75,294.15c.22,1.93,1.06,1.78,1.79,1.84a28.83,28.83,0,0,1,4.94,2.2,3.15,3.15,0,0,0,2,.27,7.36,7.36,0,0,0,1.33-.26l2.93-.27c.93-.06,1.86-.13,2.78-.13a21.68,21.68,0,0,1,2.55.15,14.77,14.77,0,0,1,3.13.49c1.5.5,3,1.6,4.53.37.94-.73,1.82-.06,2.72,0,1.5.11,3,.39,4.46.62.06,0,.13.1.2-.15s.16-.85.24-1.3c0-.61.05-1.68,0-1.76-.55-1.15-1.16-1.79-1.83-1.51-.38.17-.77.44-1.14.29-1.5-.58-3.08.89-4.54-.48-.1-.1-.21.06-.31.05a25.86,25.86,0,0,1-3.52-.31c-1.24-.27-2.42-1.45-3.64-1.7a8.13,8.13,0,0,0-4.1.33c-.71.2-1.36-.36-2-.61-.39-.14-.74-.54-1.14-.5-1.5.15-3.25,1.87-4.56.39-.8-.9-1.51-1.74-2.63-.66-.28.26-.54.38-.68,0-.52-1.26-1.44-.49-2.38.05A3.66,3.66,0,0,0,176.75,294.15Z"/><path class="cls-1" d="M226.12,202.2c.59,2,1.75,1.93,2.82,2.05a67.36,67.36,0,0,1,7.38,2.52,6.37,6.37,0,0,0,3,.36,17.94,17.94,0,0,0,1.94-.2l4.3-.18c1.37,0,2.74-.09,4.1-.06s2.52.08,3.77.2a33.29,33.29,0,0,1,4.65.54c2.24.53,4.46,1.65,6.75.45,1.38-.72,2.7,0,4.05.05,2.24.13,4.46.45,6.67.71.1,0,.2.1.31-.14a11.13,11.13,0,0,0,.29-1.3c0-.61,0-1.69,0-1.77-.87-1.16-1.8-1.82-2.77-1.55a3.24,3.24,0,0,1-1.68.27c-2.24-.62-4.56.83-6.76-.57-.14-.09-.3.06-.45,0-1.75-.11-3.5-.09-5.24-.37s-3.64-1.48-5.46-1.76a18.09,18.09,0,0,0-6.13.23c-1.05.19-2.05-.4-3.06-.66-.58-.16-1.14-.58-1.73-.55-2.26.1-4.74,1.75-6.82.18-1.26-.94-2.44-1.86-4-.84-.39.24-.76.34-1,0-.93-1.33-2.22-.63-3.53-.16A2.65,2.65,0,0,0,226.12,202.2Z"/><path class="cls-1" d="M524.23,270.28c.19,1.92.94,1.73,1.61,1.8a10,10,0,0,1,2.41,1.08c1,.53,1.87,1.06,2,1.21.88.72,3.13.13,3.19.11.95-.05,1.9-.18,2.83-.25s1.78-.16,2.66-.2a21.3,21.3,0,0,1,2.4,0,12.54,12.54,0,0,1,2.92.35c1.4.43,2.76,1.48,4.17.23.86-.75,1.67-.11,2.5,0,1.39.09,2.77.37,4.15.57.06,0,.12.1.19-.15s.14-.85.22-1.3c0-.61,0-1.68,0-1.76-.52-1.14-1.09-1.78-1.71-1.48-.36.17-.72.43-1.06.29-1.4-.57-2.87.9-4.26-.43-.09-.09-.19.07-.29.06a26.26,26.26,0,0,1-3.31-.2c-1.17-.23-2.34-1.34-3.48-1.54a7.15,7.15,0,0,0-3.72.5c-.64.21-1.23-.32-1.81-.58-.34-.15-.65-.53-1-.5-1.34.13-3,1.81-4.19.28-.68-.92-1.34-1.77-2.44-.73-.28.25-.53.37-.66,0-.45-1.29-1.38-.52-2.28,0A3.79,3.79,0,0,0,524.23,270.28Z"/><path class="cls-1" d="M527.36,283.58c.19,1.93.94,1.73,1.61,1.8a10,10,0,0,1,2.41,1.09,22.59,22.59,0,0,1,2,1.2c.88.73,3.13.13,3.2.11.94,0,1.89-.17,2.82-.25s1.79-.16,2.66-.2a24,24,0,0,1,2.4,0,12.54,12.54,0,0,1,2.92.35c1.41.43,2.76,1.49,4.17.23.86-.75,1.67-.1,2.5,0,1.39.09,2.77.37,4.15.57.06,0,.12.1.19-.14s.14-.86.22-1.31c0-.61,0-1.68,0-1.76-.52-1.14-1.09-1.78-1.71-1.48-.36.17-.72.43-1.06.29-1.4-.56-2.87.91-4.26-.43-.09-.09-.19.07-.29.06a24.51,24.51,0,0,1-3.31-.2c-1.17-.22-2.34-1.33-3.48-1.53a7.15,7.15,0,0,0-3.72.49c-.63.22-1.23-.32-1.81-.58-.34-.14-.65-.52-1-.49-1.34.12-3,1.8-4.19.27-.68-.91-1.34-1.77-2.44-.73-.28.26-.53.38-.66,0-.45-1.28-1.38-.51-2.28.05A3.74,3.74,0,0,0,527.36,283.58Z"/><path class="cls-1" d="M496.9,221c.59,2,1.76,1.92,2.82,2a67.36,67.36,0,0,1,7.38,2.52,6.37,6.37,0,0,0,3,.37,19.12,19.12,0,0,0,1.94-.21l4.3-.18c1.37,0,2.74-.08,4.1-.06s2.52.08,3.77.2a31.85,31.85,0,0,1,4.66.55c2.24.52,4.45,1.64,6.75.44,1.38-.72,2.7,0,4,.05,2.24.14,4.46.45,6.68.71.1,0,.19.1.3-.14a13.19,13.19,0,0,0,.3-1.3c0-.61,0-1.69,0-1.76-.87-1.17-1.79-1.83-2.77-1.55a3.22,3.22,0,0,1-1.68.26c-2.23-.62-4.55.83-6.75-.57-.15-.09-.31.06-.46.06-1.75-.11-3.5-.1-5.24-.37s-3.63-1.49-5.46-1.77a18.56,18.56,0,0,0-6.12.23c-1,.19-2-.4-3.07-.66a6.26,6.26,0,0,0-1.72-.55c-2.27.1-4.75,1.75-6.82.18-1.26-.94-2.45-1.86-4-.84-.38.24-.76.35-1,0-.93-1.33-2.22-.62-3.53-.16A2.65,2.65,0,0,0,496.9,221Z"/><path class="cls-1" d="M457,129.42c.59,2,1.75,1.93,2.82,2a67.22,67.22,0,0,1,7.38,2.53,6.51,6.51,0,0,0,3,.36,14.43,14.43,0,0,0,1.94-.21l4.3-.18c1.37,0,2.74-.08,4.1-.06s2.52.09,3.77.2a33.31,33.31,0,0,1,4.65.55c2.24.52,4.46,1.65,6.75.45,1.38-.73,2.7,0,4.05,0,2.24.14,4.46.45,6.67.71.1,0,.2.11.31-.14s.19-.85.29-1.3c0-.61,0-1.68,0-1.76-.88-1.16-1.8-1.82-2.77-1.55a3.24,3.24,0,0,1-1.68.27c-2.24-.62-4.56.82-6.76-.57-.14-.09-.3.06-.45,0-1.75-.11-3.51-.09-5.24-.37s-3.64-1.49-5.46-1.76a18.09,18.09,0,0,0-6.13.23c-1,.19-2-.4-3.06-.67-.58-.15-1.14-.57-1.73-.54-2.26.1-4.74,1.75-6.82.17-1.26-.94-2.45-1.85-4-.83-.39.24-.76.34-1,0-.93-1.33-2.22-.63-3.53-.17A2.66,2.66,0,0,0,457,129.42Z"/><path class="cls-1" d="M251.89,189.28c.21,1.9,1,1.7,1.6,1.73a20.91,20.91,0,0,1,4.39,2,2.48,2.48,0,0,0,1.79.21,7.09,7.09,0,0,0,1.17-.3l2.59-.34c.82-.08,1.64-.17,2.45-.18a16.72,16.72,0,0,1,2.24.11,11.46,11.46,0,0,1,2.77.46c1.32.48,2.62,1.56,4,.32.83-.74,1.6-.08,2.4,0,1.32.1,2.63.36,3.93.55.06,0,.12.1.19-.15s.13-.85.2-1.3c0-.61,0-1.68,0-1.76-.49-1.14-1-1.77-1.62-1.48-.34.18-.68.45-1,.31-1.33-.57-2.73.92-4-.44-.09-.08-.19.07-.27.06a19,19,0,0,1-3.11-.27c-1.09-.26-2.14-1.42-3.22-1.66a6.43,6.43,0,0,0-3.62.39c-.63.22-1.2-.33-1.8-.56-.34-.14-.65-.53-1-.48-1.33.19-2.87,2-4,.52-.7-.86-1.35-1.66-2.33-.54-.24.27-.47.4-.61.05-.46-1.24-1.27-.41-2.1.18A4.07,4.07,0,0,0,251.89,189.28Z"/><path class="cls-1" d="M514.85,212.75c.21,1.91.95,1.71,1.6,1.74a20.91,20.91,0,0,1,4.39,2,2.41,2.41,0,0,0,1.78.2,7.61,7.61,0,0,0,1.18-.29l2.58-.34c.83-.08,1.64-.17,2.46-.18a16.72,16.72,0,0,1,2.24.11,11.44,11.44,0,0,1,2.76.45c1.33.48,2.63,1.57,4,.33.82-.75,1.6-.08,2.39,0,1.33.09,2.64.35,3.94.55.06,0,.12.1.18-.15s.14-.85.21-1.3c0-.61,0-1.69,0-1.76-.5-1.14-1-1.78-1.62-1.48-.34.18-.68.45-1,.31-1.32-.57-2.72.92-4-.44-.08-.09-.18.07-.27.06a19.11,19.11,0,0,1-3.11-.27c-1.09-.26-2.13-1.42-3.21-1.66a6.42,6.42,0,0,0-3.62.39c-.63.22-1.21-.33-1.8-.57-.34-.13-.65-.52-1-.47-1.34.19-2.87,2-4,.52-.71-.86-1.35-1.67-2.34-.54-.24.27-.47.4-.6,0-.47-1.24-1.27-.41-2.1.18A4.06,4.06,0,0,0,514.85,212.75Z"/><path class="cls-1" d="M436,176.26c.77,1.89,1.82,1.63,2.78,1.58a39.8,39.8,0,0,1,6.81,1.58c1.36.58,4.28-.29,4.36-.3,1.28-.15,2.55-.34,3.82-.46s2.44-.22,3.66-.25a31.72,31.72,0,0,1,3.38.08,23.51,23.51,0,0,1,4.17.5c2,.52,3.92,1.67,6,.53,1.25-.66,2.4.06,3.56.23a26.47,26.47,0,0,1,2.87.55c.47.12.94.23,1.39.36l1.31.42c.07,0,.13.12.27-.1s.35-.8.53-1.23c.12-.59.37-1.63.34-1.72-.54-1.25-1.35-2.13-2.29-1.93a2.77,2.77,0,0,1-1.58.08,7.59,7.59,0,0,0-3.11-.23,4.29,4.29,0,0,1-3-.72c-.13-.09-.28.06-.42,0-1.6-.16-3.2-.17-4.78-.45s-3.32-1.48-5-1.72a14.45,14.45,0,0,0-5.61.44c-.95.24-1.89-.29-2.84-.5-.54-.12-1.08-.49-1.62-.42-2.08.25-4.2,2.13-6.23.79-1.24-.8-2.44-1.54-3.74-.34-.33.3-.65.46-.93.11-1-1.2-2.09-.29-3.19.36A2.85,2.85,0,0,0,436,176.26Z"/><path class="cls-1" d="M718.84,943.19A31.11,31.11,0,0,0,728,941a87.74,87.74,0,0,0,8.51-4l3.71-1.93,2.46-1.26,2.7-1.49,2.94-1.62,3-1.8c1-.62,2.09-1.22,3.12-1.88l3.07-2c4.09-2.64,7.91-5.42,10.88-7.68s5.07-4,5.8-4.57a103.74,103.74,0,0,0,12.46-12.37c2-2.26,3.65-4.42,4.92-6l2.09-2.79a212.47,212.47,0,0,0,14.14-20.79c4.16-6.92,7.94-14,11.43-21.29q4.83-10.08,9-20.45c3.44-8.57,6.34-17.33,9.22-26.09,4.15-12.72,8.18-25.65,9.23-39.08.63-8,2.38-15.87,3.34-23.84A393.9,393.9,0,0,0,852.92,700a4.17,4.17,0,0,0-.17-1.79c-.22-.46-.87-.84-1.33-1.25-.6.35-1.67.64-1.74,1a84.23,84.23,0,0,0-1.78,16.7,80.58,80.58,0,0,1-.27,9.71c-1.52,13.14-1.65,26.54-5.26,39.38-.24.85-.23,1.75-.4,2.62a308.33,308.33,0,0,1-7,30.06c-3.08,10.44-7.5,20.38-11.6,30.37-4.57,11.07-9.31,22-14.76,32.7-2.76,5.45-6.42,10.41-10,15.32-1,1.42-2.12,2.77-3.22,4.12s-2.16,2.73-3.2,4.12c-3.93,5.39-7.8,10.87-12.18,16a76.9,76.9,0,0,1-14.71,13.61c-6.76,4.61-13.67,8.68-20,14a18.62,18.62,0,0,1-5.17,3.16c-6.64,2.37-12.46,6.14-18.66,9.44C717.58,941.21,716.48,943.38,718.84,943.19Z"/><path class="cls-1" d="M768.76,507.21c.79,6.39,3.25,12.07,5.37,17.95,1.43,3.91,4.3,13.75,6.48,23.14s3.8,18.3,4.08,20.06c.37,2.19.88,5,1.49,8s1.27,6.12,1.87,9c.31,1.45.61,2.83.88,4.1l.68,3.41c.39,2,.65,3.23.68,3.38l.56,3.07.5,3.09,1,6.17c.62,4.12,1.17,8.26,1.72,12.39s.9,8,1.29,12,.69,8,.95,12l.56,11.17.2,11.17c0,4.62,0,9.24-.08,13.86s-.37,9.23-.63,13.84c-.25,3.34-.61,6.68-.92,10l-.48,5-.56,5c-.36,3.33-.62,6.67-.86,10s-.47,6.67-.51,10a81.7,81.7,0,0,1-1.18,12l-1,6c-.32,2-.74,4-1.06,5.94l-1.7,9.91c-.63,3.29-1.33,6.57-2,9.85-1.27,6.59-2.93,13.08-4.44,19.61a4,4,0,0,0-.23,1.77,5.48,5.48,0,0,0,1,1.53c.66-.17,1.77-.2,1.92-.55a65.24,65.24,0,0,0,5.06-16.33c.44-3.28.8-6.58,1.55-9.79.38-1.65.74-3.3,1.06-5s.55-3.33.8-5l1.42-10c.4-3.36.79-6.71,1.3-10,.25-1.67.53-3.34.84-5s.58-3.33.93-5c.18-.88.12-1.8.22-2.69l.86-7.83.65-7.85c.21-2.62.48-5.23.64-7.85l.54-7.86c.48-5.53.86-11.07,1.38-16.61.27-2.78.38-5.55.54-8.33s.3-5.57.29-8.35a294,294,0,0,0-2.33-36.93c-.42-3.12-.65-6.26-.83-9.41s-.42-6.29-.67-9.44c-.27-3.6-.48-7.22-1-10.78-2.27-13.72-6.67-26.92-8.58-40.64-1.18-8.35-2.69-16.73-6.32-24.46a22.65,22.65,0,0,1-2-6c-1.11-7.25-4.44-13.81-7.84-20.2C770.69,505.74,768.43,504.84,768.76,507.21Z"/><path class="cls-1" d="M838.65,610.33c1.42-3.94.53-7.68-.13-11.39-.44-2.48-1.18-8.64-2-14.43s-1.73-11.21-1.87-12.29c-.65-5.41-4.53-16.3-4.7-16.62l-1.17-3.6-1.24-3.59c-.81-2.39-1.69-4.76-2.55-7.13-1.66-4.58-3.41-9.12-5.19-13.64-1.66-4.19-3.33-8.37-5.08-12.52-2.14-5.17-4.54-10.21-6.77-15.35-3.29-7.42-6.39-15.12-11.84-21.33a43.56,43.56,0,0,1-4.33-5.92c-1.29-2.07-2.64-4.12-4-6.12-1.15-1.68-2.43-3.27-3.65-4.91s-2.44-3.27-3.76-4.83l-3.89-4.74-4.09-4.57c-.24-.27-.44-.62-.85-.69A5,5,0,0,0,770,447c-.31.57-1,1.44-.87,1.65a30.64,30.64,0,0,0,2.53,4.55,23.13,23.13,0,0,0,1.53,2,20.17,20.17,0,0,0,1.7,1.88,33.11,33.11,0,0,1,4,4.26c4.59,6.52,10.48,12.21,13.69,19.68a9.91,9.91,0,0,0,.9,1.32l2.43,4c.8,1.33,1.54,2.69,2.31,4,1.57,2.69,3,5.47,4.34,8.26.73,1.47,1.36,3,1.95,4.53s1.19,3.07,1.75,4.62c1,3.13,2.18,6.2,3.34,9.27,2.71,6.73,5.56,13.38,8.46,20.07,1.5,3.41,2.15,7.12,3.11,10.71.51,2.07.79,4.2,1.48,6.21,2.57,7.71,6.48,15.18,7,23.45.34,5,.61,10,2.73,14.64a7,7,0,0,1,.78,3.62c-.42,4.38,1.16,8.41,2.41,12.52C836.41,610.86,838.1,611.77,838.65,610.33Z"/><path class="cls-1" d="M506,574.92c-3.89,6.55-5.13,14-6.36,21.27-.83,4.87-3,16.85-4.05,28.27-.61,5.7-1,11.24-1.24,15.63s-.36,7.61-.41,8.67a167.26,167.26,0,0,0,.74,20.64c.65,7,1.51,12.79,1.57,13.13q1.86,14.76,5.07,29.26c2,9.31,4.35,18.56,7.12,27.68l.92,3.17c.32,1.05.67,2.1,1,3.15l2,6.3c1.42,4.16,2.86,8.34,4.34,12.47,3.7,10.22,7.51,20.4,11.05,30.68,5.12,14.93,9.75,30,16.24,44.39,3.87,8.64,6.31,17.78,8.59,26.79,1.88,7.52,3.16,15.15,2.81,22.67s-2.39,14.86-5.2,22a5.5,5.5,0,0,0-.61,2,5.88,5.88,0,0,0,.69,1.84c.7-.12,1.81,0,2-.4a54.12,54.12,0,0,0,4.52-9,37.31,37.31,0,0,0,2.39-9.94,99.82,99.82,0,0,0,.16-11.85c-.18-8.09-2.28-15.89-4.59-23.46s-5-15-7-22.7c-.27-1-.78-2-1.13-2.95-4.13-11.57-8.54-23-12.64-34.57-4.35-12.21-7.84-24.71-12.13-36.94-4.75-13.46-9.25-26.91-13-40.67A173.44,173.44,0,0,1,505,700.94c-.27-2.06-.55-4.12-.73-6.2s-.41-4.13-.74-6.18c-1.13-7.9-2.49-15.79-3.25-23.75a121.33,121.33,0,0,1-.29-23.95c1-9.7,2.36-19.25,2.26-29a25.17,25.17,0,0,1,.81-7.19c2.36-8.06,3-16.33,4.34-24.52a14.34,14.34,0,0,0,.2-5.4C507.29,573.77,506.7,573.71,506,574.92Z"/><path class="cls-1" d="M778.23,820.29c-2.23,2.51-2.39,5.32-2.87,8.13a92.33,92.33,0,0,1-3,10.54c-1.41,4.17-2.9,8-3.25,8.74a57.42,57.42,0,0,0-2.38,7.49c-.71,2.6-1.22,4.77-1.27,4.9-1.13,3.61-2.27,7.23-3.61,10.78-.62,1.71-1.29,3.41-2,5.1s-1.42,3.37-2.18,5-1.44,3.06-2.22,4.56l-1.16,2.26-1.24,2.2-1.55,2.74-1.63,2.68a60.8,60.8,0,0,1-3.52,5.2c-3.68,4.86-8,9.1-10.85,14.53-1.74,3.27-4.64,5.57-7.2,8.11-1,1.1-2.16,2.1-3.28,3.11s-2.21,2.05-3.4,3l-3.51,2.82-3.64,2.64c-.22.16-.49.26-.54.61a6.06,6.06,0,0,0,.32,1.41c.47.4,1.2,1.2,1.38,1.15a18.33,18.33,0,0,0,3.85-1.37,12.66,12.66,0,0,0,1.71-1,11.62,11.62,0,0,0,1.46-1.35,27.54,27.54,0,0,1,3.24-3.24,39.53,39.53,0,0,0,3.45-3.14c1.1-1.11,2.07-2.34,3.11-3.49l1.54-1.75c.5-.59,1-1.17,1.55-1.74a36,36,0,0,1,3.44-3.18c.33-.27.46-.7.73-1l2.29-2.81,2.17-2.91c1.48-1.91,2.82-3.92,4.29-5.84,3-4.14,6.63-7.93,9.25-12.38a78.5,78.5,0,0,0,7-15.55,34.24,34.24,0,0,1,1.76-4c.66-1.29,1.41-2.56,2-3.88a35.75,35.75,0,0,0,2.15-4.51c2-6.12,2.1-12.71,5.06-18.43,1.81-3.49,3.45-7.11,3.12-11.17a4.65,4.65,0,0,1,.49-2.85c1.84-3,1.55-6.48,1.35-9.86C780.56,820.37,779.05,819.35,778.23,820.29Z"/></g></svg>