<svg id="Layer_1" data-name="Layer 1" xmlns="http://www.w3.org/2000/svg" viewBox="0 0 500 500"><defs><style>.cls-1{fill:#658378;}.cls-2{fill:none;stroke:#658378;stroke-miterlimit:10;}</style></defs><path class="cls-1" d="M228.59,217.34c-2.2,4.91-2.11,9.85-2.49,14.83-.13,1.65-.49,4.51-1.09,7.86a70,70,0,0,1-2.65,10.61,16.06,16.06,0,0,1-1,2.3,6.41,6.41,0,0,1-.5.84.67.67,0,0,1-.26.22c-.26.05-.55.16-1.43.42s-1.42.42-2.14.58c-2.8.7-4.92,1.14-5.63,1.27-7,1.34-21.56,5.92-22,6-6.48,1.73-13,3.45-19.49,5-3.14.74-6.28,1.45-9.43,2.11-1.55.29-3.15.64-4.67.86l-1.14.18-.56.08-.39,0a3.65,3.65,0,0,1-.69,0c-.22,0-.62-.15-1-.25-5.52-1.71-11.17-4-16.69-6.19-6.87-2.8-13.75-5.62-20.43-8.85-9.71-4.72-19-10.16-29.1-13.75a32.81,32.81,0,0,1-8.25-4.39c-.28-.22-.58-.45-.82-.67a5,5,0,0,1-.56-.54.81.81,0,0,1-.23-.71s0-.19,0-.36v-.55l0-1.11.11-2.31c.29-5.22,1-10.55,1.84-15.82s1.84-10.55,3-15.68a2.25,2.25,0,0,0,.13-1.38c-.15-.41-.81-.87-1.24-1.32-.74.08-2,0-2.14.27a32.4,32.4,0,0,0-4.17,13.19,72.49,72.49,0,0,1-.74,7.95,75.1,75.1,0,0,0-1.08,16.4c0,.36,0,.68.09,1.11a5.61,5.61,0,0,0,.23,1.32A5.18,5.18,0,0,0,73.65,239a33.21,33.21,0,0,0,3.44,2.53c2.31,1.53,4.62,3,6.86,4.59a15.6,15.6,0,0,0,2,.94c7.54,3.87,15.25,7.26,22.88,10.85,8.06,3.78,15.78,8.38,24,11.88,4.57,1.94,9.18,3.71,13.95,5.28,1.2.39,2.39.76,3.71,1.12.34.09.67.17,1.11.26a8.19,8.19,0,0,0,.82.14c.25,0,.48,0,.72,0,.47,0,.93,0,1.39-.08s.69-.11,1.05-.16c1.31-.22,2.58-.47,3.79-.76s2.46-.56,3.66-.87c4.93-1.24,10-1.73,15-2.6,2.85-.5,5.76-.73,8.55-1.47,5.38-1.41,10.62-3.32,15.89-5.07a109.15,109.15,0,0,1,16.17-4.26c.84-.12,1.73-.32,2.62-.52.46-.11.85-.17,1.38-.34s1.22-.48,1.88-.78a8.39,8.39,0,0,0,2.92-3.15,19.18,19.18,0,0,0,1.31-2.79,26.87,26.87,0,0,0,1.65-10.58,13.21,13.21,0,0,1,.57-5.09c2-5.68,1.41-11.66.78-17.48C231.28,216.93,229.39,215.51,228.59,217.34Z"/><path class="cls-2" d="M228.59,217.34c-2.2,4.91-2.11,9.85-2.49,14.83-.13,1.65-.49,4.51-1.09,7.86a70,70,0,0,1-2.65,10.61,16.06,16.06,0,0,1-1,2.3,6.41,6.41,0,0,1-.5.84.67.67,0,0,1-.26.22c-.26.05-.55.16-1.43.42s-1.42.42-2.14.58c-2.8.7-4.92,1.14-5.63,1.27-7,1.34-21.56,5.92-22,6-6.48,1.73-13,3.45-19.49,5-3.14.74-6.28,1.45-9.43,2.11-1.55.29-3.15.64-4.67.86l-1.14.18-.56.08-.39,0a3.65,3.65,0,0,1-.69,0c-.22,0-.62-.15-1-.25-5.52-1.71-11.17-4-16.69-6.19-6.87-2.8-13.75-5.62-20.43-8.85-9.71-4.72-19-10.16-29.1-13.75a32.81,32.81,0,0,1-8.25-4.39c-.28-.22-.58-.45-.82-.67a5,5,0,0,1-.56-.54.81.81,0,0,1-.23-.71s0-.19,0-.36v-.55l0-1.11.11-2.31c.29-5.22,1-10.55,1.84-15.82s1.84-10.55,3-15.68a2.25,2.25,0,0,0,.13-1.38c-.15-.41-.81-.88-1.24-1.32-.74.08-2,0-2.14.27a32.4,32.4,0,0,0-4.17,13.19,72.49,72.49,0,0,1-.74,7.95,75.1,75.1,0,0,0-1.08,16.4c0,.36,0,.68.09,1.11a5.61,5.61,0,0,0,.23,1.32A5.18,5.18,0,0,0,73.65,239a33.21,33.21,0,0,0,3.44,2.53c2.31,1.53,4.62,3,6.86,4.59a15.6,15.6,0,0,0,2,.94c7.54,3.87,15.25,7.26,22.88,10.85,8.06,3.78,15.78,8.38,24,11.88,4.57,1.94,9.18,3.71,13.95,5.28,1.2.39,2.39.76,3.71,1.12.34.09.67.17,1.11.26a8.19,8.19,0,0,0,.82.14c.25,0,.48,0,.72,0,.47,0,.93,0,1.39-.08s.69-.11,1.05-.16c1.31-.22,2.58-.47,3.79-.76s2.46-.56,3.66-.87c4.93-1.24,10-1.73,15-2.6,2.85-.5,5.76-.73,8.55-1.47,5.38-1.41,10.62-3.32,15.89-5.07a109.15,109.15,0,0,1,16.17-4.26c.84-.12,1.73-.32,2.62-.52.46-.11.85-.17,1.38-.34s1.22-.48,1.88-.78a8.39,8.39,0,0,0,2.92-3.15,19.18,19.18,0,0,0,1.31-2.79,26.87,26.87,0,0,0,1.65-10.58,13.21,13.21,0,0,1,.57-5.09c2-5.68,1.41-11.66.78-17.48C231.28,216.93,229.39,215.51,228.59,217.34Z"/><path class="cls-1" d="M50.27,180.58c-4.41-3.41-9.37-6.06-14-8.79-.57-.34-1.13-.69-1.67-1a9,9,0,0,1-.78-.54c-.25-.18-.55-.39-.59-.44a2.17,2.17,0,0,1-.54-.59.58.58,0,0,1,.06-.74,3.17,3.17,0,0,1,.62-.52c.38-.25,1-.62,1.57-.91,1.15-.61,2.39-1.16,3.62-1.69a158.91,158.91,0,0,1,16.56-5.56c7.25-2.1,15.76-4.27,24.05-6.22,16.57-3.91,32.27-6.91,35.37-7.45,7.73-1.39,19.78-3.86,30.05-5.62,5.14-.89,9.83-1.6,13.27-2s5.61-.48,5.84-.47c.44,0,.84,0,1.25,0a5.46,5.46,0,0,1,.95.13,21.57,21.57,0,0,1,2.37.67c1.65.55,3.32,1.22,5,1.92,3.33,1.41,6.64,3,9.93,4.58,6.58,3.22,13.09,6.66,19.55,10.19q18.66,10.22,36.81,21.4c5.59,3.46,11.13,7,16.59,10.62S267,194.87,272,198.94c.64.53,1.27,1.07,1.88,1.62a9.06,9.06,0,0,1,.76.75c.2.26.5.52.44.87-.23.25-.63.21-.93.33l-8.3,2.17-9.36,2.52-18.71,5.06q-17.19,4.59-34.39,8.87c-5.73,1.43-11.46,2.83-17.17,4.14s-11.45,2.56-17.11,3.24a27.13,27.13,0,0,1-5,.2,14.07,14.07,0,0,1-2.28-.32l-2.54-.72c-3.4-.92-6.76-2-10.1-3.17-6.67-2.32-13.26-4.9-19.84-7.52-21.95-8.73-43.39-18.81-64.65-29.23a14.55,14.55,0,0,0-2.89-1.24,9,9,0,0,0-2.48.05c.28.73.32,1.78.89,2.12a208.21,208.21,0,0,0,26.55,13.95c5.34,2.27,10.74,4.44,16,6.87,10.78,5,21.84,9.36,33,13.41,5.58,2.05,11.21,4,16.85,5.83,2.82.95,5.68,1.78,8.52,2.71a32.07,32.07,0,0,0,9.25.68,44.92,44.92,0,0,0,4.78-.61,268.23,268.23,0,0,0,27.17-5.84c9-2.3,17.84-4.76,26.74-7.18q11.77-3.21,23.61-6.13L278,206.22l1.44-.9.73-.45a1.67,1.67,0,0,0,.43-.61,3.74,3.74,0,0,0-.26-3.3,13.23,13.23,0,0,0-2.73-3.3l-1.18-1.09-.95-.83c-4.3-3.6-8.75-6.71-13.24-9.79s-9.06-6-13.65-8.88c-9.19-5.74-18.52-11.21-28-16.49-9.64-5.38-19.06-11.22-28.8-16.54a191.18,191.18,0,0,0-17.07-8.7c-1.44-.6-2.9-1.17-4.44-1.69a18.5,18.5,0,0,0-5.28-1.13,67.83,67.83,0,0,0-9.47.78c-6.1.86-12.08,2-18.05,3.2-11.92,2.39-23.76,5-35.71,7.05-14.53,2.58-29.07,5.5-43,10.63a92.72,92.72,0,0,1-10.54,3.33A82.73,82.73,0,0,0,39,160.28c-1.52.56-3,1.17-4.54,1.89-.75.35-1.5.73-2.26,1.17-.38.21-.76.44-1.16.7a21.11,21.11,0,0,0-1.72,1.31A6.24,6.24,0,0,0,28.09,167a4.38,4.38,0,0,0-.38,1.89,7.41,7.41,0,0,0,.56,1.86,9.56,9.56,0,0,0,.6.82,3.55,3.55,0,0,0,.69.76,13.58,13.58,0,0,0,2.58,1.92c.74.44,1.47.83,2.2,1.2,2.91,1.47,5.8,2.7,8.66,4C50.15,182.65,53.48,183.14,50.27,180.58Z"/><path class="cls-2" d="M50.27,180.58c-4.41-3.41-9.37-6.06-14-8.79-.57-.34-1.13-.69-1.67-1a9,9,0,0,1-.78-.54c-.25-.18-.55-.39-.59-.44a2.17,2.17,0,0,1-.54-.59.58.58,0,0,1,.06-.74,3.17,3.17,0,0,1,.62-.52c.38-.25,1-.62,1.57-.91,1.15-.61,2.39-1.16,3.62-1.69a158.91,158.91,0,0,1,16.56-5.56c7.25-2.1,15.76-4.27,24.05-6.22,16.57-3.91,32.27-6.91,35.37-7.45,7.73-1.39,19.78-3.86,30.05-5.62,5.14-.89,9.83-1.6,13.27-2s5.61-.48,5.84-.47c.44,0,.84,0,1.25,0a5.46,5.46,0,0,1,.95.13,21.57,21.57,0,0,1,2.37.67c1.65.55,3.32,1.22,5,1.92,3.33,1.41,6.64,3,9.93,4.58,6.58,3.22,13.09,6.66,19.55,10.19q18.66,10.22,36.81,21.4c5.59,3.46,11.13,7,16.59,10.62S267,194.87,272,198.94c.64.53,1.27,1.07,1.88,1.62a9.06,9.06,0,0,1,.76.75c.2.26.5.52.44.87-.23.25-.63.21-.93.33l-8.3,2.17-9.36,2.52-18.71,5.06q-17.19,4.59-34.39,8.87c-5.73,1.43-11.46,2.83-17.17,4.14s-11.45,2.56-17.11,3.24a27.13,27.13,0,0,1-5,.2,14.07,14.07,0,0,1-2.28-.32l-2.54-.72c-3.4-.92-6.76-2-10.1-3.17-6.67-2.32-13.26-4.9-19.84-7.52-21.95-8.73-43.39-18.81-64.65-29.23a14.55,14.55,0,0,0-2.89-1.24,9,9,0,0,0-2.48.05c.28.73.32,1.78.89,2.12a208.21,208.21,0,0,0,26.55,13.95c5.34,2.27,10.74,4.44,16,6.87,10.78,5,21.84,9.36,33,13.41,5.58,2.05,11.21,4,16.85,5.83,2.82.95,5.68,1.78,8.52,2.71a32.07,32.07,0,0,0,9.25.68,44.92,44.92,0,0,0,4.78-.61,268.23,268.23,0,0,0,27.17-5.84c9-2.3,17.84-4.76,26.74-7.18q11.77-3.21,23.61-6.13L278,206.22l1.44-.9.73-.45a1.67,1.67,0,0,0,.43-.61,3.74,3.74,0,0,0-.26-3.3,13.23,13.23,0,0,0-2.73-3.3l-1.18-1.09-.95-.83c-4.3-3.6-8.75-6.71-13.24-9.79s-9.06-6-13.65-8.88c-9.19-5.74-18.52-11.21-28-16.49-9.64-5.38-19.06-11.22-28.8-16.54a191.18,191.18,0,0,0-17.07-8.7c-1.44-.6-2.9-1.17-4.44-1.69a18.5,18.5,0,0,0-5.28-1.13,67.83,67.83,0,0,0-9.47.78c-6.1.86-12.08,2-18.05,3.2-11.92,2.39-23.76,5-35.71,7.05-14.53,2.58-29.07,5.5-43,10.63a92.72,92.72,0,0,1-10.54,3.33A82.73,82.73,0,0,0,39,160.28c-1.52.56-3,1.17-4.54,1.89-.75.35-1.5.73-2.26,1.17-.38.21-.76.44-1.16.7a21.11,21.11,0,0,0-1.72,1.31A6.24,6.24,0,0,0,28.09,167a4.38,4.38,0,0,0-.38,1.89,7.41,7.41,0,0,0,.56,1.86,9.56,9.56,0,0,0,.6.82,3.55,3.55,0,0,0,.69.76,13.58,13.58,0,0,0,2.58,1.92c.74.44,1.47.83,2.2,1.2,2.91,1.47,5.8,2.7,8.66,4C50.15,182.65,53.48,183.14,50.27,180.58Z"/><path class="cls-1" d="M167.87,233.68a27.76,27.76,0,0,1-7.06-.78L157,231.69c-1.59-.5-3.19-1-4.77-1.53-6.82-2.25-12-4-16.89-5.84-12.51-4.54-23.35-8.95-33.12-13.45-3.81-1.76-7.77-3.42-11.6-5L86.23,204a208.69,208.69,0,0,1-26.76-14,3.36,3.36,0,0,1-1.34-2.27,4.27,4.27,0,0,0-.16-.57l-.78-2,2.11-.09c.23,0,.45,0,.67-.06a6.26,6.26,0,0,1,2.23.05,12.35,12.35,0,0,1,2.68,1.09l.52.26c18.8,9.21,41.16,19.88,64.55,29.18,6.26,2.5,13,5.14,19.78,7.51,3.17,1.08,6.59,2.21,10,3.13l2.56.72a12.29,12.29,0,0,0,1.93.27A26,26,0,0,0,169,227c5.68-.69,11.67-2,16.95-3.22,5.7-1.31,11.41-2.7,17.14-4.13,12.18-3,23.43-5.94,34.36-8.86l35.15-9.43c-.48-.43-1-.86-1.5-1.28-5-4.09-10.54-7.85-15.76-11.35-5-3.35-10.44-6.82-16.54-10.59-11.95-7.37-24.31-14.56-36.74-21.37-7.25-3.95-13.63-7.28-19.49-10.15-3.95-1.93-7-3.33-9.85-4.55-2-.84-3.5-1.42-4.88-1.88a19.9,19.9,0,0,0-2.19-.62,5.47,5.47,0,0,0-.67-.1h-.4c-.25,0-.5,0-.77,0h0c-.36,0-2.44.07-5.71.47s-8,1.08-13.19,2c-6.05,1-12.7,2.32-18.73,3.48-4.22.81-8.13,1.57-11.31,2.13-3,.53-18.68,3.52-35.3,7.45-8.9,2.09-17.19,4.23-24,6.19a159.86,159.86,0,0,0-16.39,5.5c-1.19.52-2.39,1-3.5,1.64-.34.18-.73.39-1,.58.36.27.57.42.79.56.56.37,1.11.7,1.66,1l2.82,1.65a100.4,100.4,0,0,1,11.31,7.24h0c.74.59,2.46,2,1.55,3.45-.56.92-1.26,2.06-10.37-2.07l-2.28-1c-2.13-.95-4.28-1.91-6.44-3-.76-.39-1.52-.8-2.29-1.25a14.91,14.91,0,0,1-2.82-2.1,3.78,3.78,0,0,1-.77-.83l-.3-.39a4.32,4.32,0,0,1-.53-.76,8.94,8.94,0,0,1-.73-2.37,5.91,5.91,0,0,1,.5-2.72,7.23,7.23,0,0,1,1.35-1.86l.84-.73a11.27,11.27,0,0,1,1.34-1c.39-.26.79-.5,1.21-.73a26.06,26.06,0,0,1,2.35-1.21c1.42-.68,2.95-1.31,4.66-1.94a82.19,82.19,0,0,1,9.4-2.82,93,93,0,0,0,10.36-3.28c14.72-5.4,30.06-8.35,43.3-10.69,8.55-1.51,17.2-3.28,25.57-5L137.21,135c6.11-1.21,12.09-2.36,18.13-3.21A69.11,69.11,0,0,1,165,131a18,18,0,0,1,5.16,1l.56.17c1.6.54,3.09,1.13,4.57,1.74a159.84,159.84,0,0,1,14.57,7.33l2.64,1.44c5.33,2.92,10.64,6,15.77,9,4.33,2.54,8.66,5.07,13,7.52,10.11,5.65,19.28,11.06,28,16.53,5.05,3.16,9.53,6.07,13.69,8.9,4.33,3,8.92,6.17,13.36,9.89l2.19,2a14.21,14.21,0,0,1,3.05,3.74,5.25,5.25,0,0,1,.32,4.52,3.1,3.1,0,0,1-.93,1.26l-2.72,1.61-25.25,6.15C244.41,216,236.7,218,229.53,220l-5.34,1.46c-7.13,1.94-14.26,3.88-21.42,5.72A265,265,0,0,1,175.44,233l-1.16.19a30.53,30.53,0,0,1-3.78.44C169.68,233.66,168.79,233.68,167.87,233.68Zm-9.79-4.79c1.19.37,2.39.74,3.58,1.13a30.09,30.09,0,0,0,8.74.61,28.07,28.07,0,0,0,3.4-.41L175,230a265.14,265.14,0,0,0,27-5.81c7.14-1.83,14.26-3.77,21.37-5.71l5.34-1.46c7.19-2,14.92-4,23.63-6.14l25-6.09,1.77-1.11a2.23,2.23,0,0,0-.19-2.09,11.71,11.71,0,0,0-2.41-2.87l-2.09-1.87c-4.32-3.62-8.84-6.77-13.1-9.69s-8.57-5.7-13.6-8.84c-8.71-5.45-17.84-10.83-27.9-16.46-4.4-2.45-8.75-5-13.1-7.55-5.11-3-10.4-6.09-15.69-9l-2.65-1.44a155,155,0,0,0-14.28-7.2c-1.41-.58-2.84-1.14-4.34-1.65l-.54-.17A14.69,14.69,0,0,0,165,134a68,68,0,0,0-9.22.76c-6,.84-11.89,2-17.95,3.18-3.37.67-6.74,1.37-10.1,2.06-8.39,1.72-17.06,3.5-25.65,5-13.11,2.31-28.3,5.23-42.78,10.55A94.74,94.74,0,0,1,48.56,159a83.73,83.73,0,0,0-9.06,2.72c-1.62.6-3.06,1.2-4.41,1.84-.73.34-1.44.69-2.16,1.11-.38.21-.72.42-1.09.66a8.19,8.19,0,0,0-1,.76l-.6.49a5.23,5.23,0,0,0-.76,1,3,3,0,0,0-.25,1.28,9.3,9.3,0,0,0,.45,1.3s.08.06.17.17l.26.34a2.67,2.67,0,0,0,.37.44,12.69,12.69,0,0,0,2.32,1.75c.84.5,1.54.87,2.24,1.23,2.11,1.07,4.22,2,6.3,2.94l2.3,1,1,.47c-2.07-1.32-4.2-2.55-6.29-3.76l-2.85-1.66c-.6-.37-1.19-.73-1.75-1.1-.27-.17-.55-.37-.83-.58a4,4,0,0,1-.88-.72,2.26,2.26,0,0,1-.68-.8,2,2,0,0,1,.34-2.54,3.8,3.8,0,0,1,.82-.68c.42-.28,1.13-.69,1.71-1,1.19-.63,2.46-1.19,3.73-1.74a161.46,161.46,0,0,1,16.73-5.62c6.83-2,15.17-4.13,24.12-6.24,16.69-3.94,32.45-6.94,35.46-7.47,3.17-.57,7.07-1.32,11.27-2.13,6.05-1.17,12.73-2.45,18.79-3.49,5.31-.92,9.92-1.62,13.35-2,3.58-.43,5.8-.45,6-.49H165a8,8,0,0,1,1.24.15,23.1,23.1,0,0,1,2.54.72c1.87.62,3.7,1.37,5.1,2,2.92,1.24,6,2.66,10,4.62,5.91,2.89,12.32,6.24,19.61,10.22,12.48,6.83,24.88,14,36.88,21.44,6.13,3.8,11.57,7.28,16.63,10.65,5.28,3.54,10.86,7.35,16,11.52.67.56,1.31,1.11,1.94,1.67.39.36.59.56.87.86a2.62,2.62,0,0,1,.8,2.13l-.07.44-.31.33a2.4,2.4,0,0,1-1.41.7l-17.89,4.75-18.71,5.06c-10.95,2.93-22.21,5.83-34.42,8.88-5.74,1.43-11.47,2.83-17.2,4.14-5.35,1.2-11.42,2.57-17.26,3.27a29.09,29.09,0,0,1-5.26.21,15.42,15.42,0,0,1-2.48-.35l-2.65-.74Zm-95.66-40.6a207.9,207.9,0,0,0,25,13l4.34,1.83c3.86,1.62,7.84,3.29,11.7,5.07,9.69,4.47,20.45,8.84,32.89,13.36,2.43.9,4.95,1.79,7.73,2.75-5.24-1.92-10.37-3.94-15.22-5.88-23.48-9.33-45.91-20-64.76-29.27l-.56-.28C63.14,188.63,62.77,188.44,62.42,188.29ZM34,169.35l0,0Z"/><path class="cls-2" d="M167.87,233.68a27.76,27.76,0,0,1-7.06-.78L157,231.69c-1.59-.5-3.19-1-4.77-1.53-6.82-2.25-12-4-16.89-5.84-12.51-4.54-23.35-8.95-33.12-13.45-3.81-1.76-7.77-3.42-11.6-5L86.23,204a208.69,208.69,0,0,1-26.76-14,3.36,3.36,0,0,1-1.34-2.27,4.27,4.27,0,0,0-.16-.57l-.78-2,2.11-.09c.23,0,.45,0,.67-.06a6.26,6.26,0,0,1,2.23.05,12.35,12.35,0,0,1,2.68,1.09l.52.26c18.8,9.21,41.16,19.88,64.55,29.18,6.26,2.5,13,5.14,19.78,7.51,3.17,1.08,6.59,2.21,10,3.13l2.56.72a12.29,12.29,0,0,0,1.93.27A26,26,0,0,0,169,227c5.68-.69,11.67-2,16.95-3.22,5.7-1.31,11.41-2.7,17.14-4.13,12.18-3,23.43-5.94,34.36-8.86l35.15-9.43c-.48-.43-1-.86-1.5-1.28-5-4.09-10.54-7.85-15.76-11.35-5-3.35-10.44-6.82-16.54-10.59-11.95-7.37-24.31-14.56-36.74-21.37-7.25-3.95-13.63-7.28-19.49-10.15-3.95-1.93-7-3.33-9.85-4.55-2-.84-3.5-1.42-4.88-1.88a19.9,19.9,0,0,0-2.19-.62,5.47,5.47,0,0,0-.67-.1h-.4c-.25,0-.5,0-.77,0h0c-.36,0-2.44.07-5.71.47s-8,1.08-13.19,2c-6.05,1-12.7,2.32-18.73,3.48-4.22.81-8.13,1.57-11.31,2.13-3,.53-18.68,3.52-35.3,7.45-8.9,2.09-17.19,4.23-24,6.19a159.86,159.86,0,0,0-16.39,5.5c-1.19.52-2.39,1-3.5,1.64-.34.18-.73.39-1,.58.36.27.57.42.79.56.56.37,1.11.7,1.66,1l2.82,1.65a100.4,100.4,0,0,1,11.31,7.24h0c.74.59,2.46,2,1.55,3.45-.56.92-1.26,2.06-10.37-2.07l-2.28-1c-2.13-.95-4.28-1.91-6.44-3-.76-.39-1.52-.8-2.29-1.25a14.91,14.91,0,0,1-2.82-2.1,3.78,3.78,0,0,1-.77-.83l-.3-.39a4.32,4.32,0,0,1-.53-.76,8.94,8.94,0,0,1-.73-2.37,5.91,5.91,0,0,1,.5-2.72,7.23,7.23,0,0,1,1.35-1.86l.84-.73a11.27,11.27,0,0,1,1.34-1c.39-.26.79-.5,1.21-.73a26.06,26.06,0,0,1,2.35-1.21c1.42-.68,2.95-1.31,4.66-1.94a82.19,82.19,0,0,1,9.4-2.82,93,93,0,0,0,10.36-3.28c14.72-5.4,30.06-8.35,43.3-10.69,8.55-1.51,17.2-3.28,25.57-5L137.21,135c6.11-1.21,12.09-2.36,18.13-3.21A69.11,69.11,0,0,1,165,131a18,18,0,0,1,5.16,1l.56.17c1.6.54,3.09,1.13,4.57,1.74a159.84,159.84,0,0,1,14.57,7.33l2.64,1.44c5.33,2.92,10.64,6,15.77,9,4.33,2.54,8.66,5.07,13,7.52,10.11,5.65,19.28,11.06,28,16.53,5.05,3.16,9.53,6.07,13.69,8.9,4.33,3,8.92,6.17,13.36,9.89l2.19,2a14.21,14.21,0,0,1,3.05,3.74,5.25,5.25,0,0,1,.32,4.52,3.1,3.1,0,0,1-.93,1.26l-2.72,1.61-25.25,6.15C244.41,216,236.7,218,229.53,220l-5.34,1.46c-7.13,1.94-14.26,3.88-21.42,5.72A265,265,0,0,1,175.44,233l-1.16.19a30.53,30.53,0,0,1-3.78.44C169.68,233.66,168.79,233.68,167.87,233.68Z"/><path class="cls-2" d="M158.08,228.89c1.19.37,2.39.74,3.58,1.13a30.09,30.09,0,0,0,8.74.61,28.07,28.07,0,0,0,3.4-.41L175,230a265.14,265.14,0,0,0,27-5.81c7.14-1.83,14.26-3.77,21.37-5.71l5.34-1.46c7.19-2,14.92-4,23.63-6.14l25-6.09,1.77-1.11a2.23,2.23,0,0,0-.19-2.09,11.71,11.71,0,0,0-2.41-2.87l-2.09-1.87c-4.32-3.62-8.84-6.77-13.1-9.69s-8.57-5.7-13.6-8.84c-8.71-5.45-17.84-10.83-27.9-16.46-4.4-2.45-8.75-5-13.1-7.55-5.11-3-10.4-6.09-15.69-9l-2.65-1.44a155,155,0,0,0-14.28-7.2c-1.41-.58-2.84-1.14-4.34-1.65l-.54-.17A14.69,14.69,0,0,0,165,134a68,68,0,0,0-9.22.76c-6,.84-11.89,2-17.95,3.18-3.37.67-6.74,1.37-10.1,2.06-8.39,1.72-17.06,3.5-25.65,5-13.11,2.31-28.3,5.23-42.78,10.55A94.74,94.74,0,0,1,48.56,159a83.73,83.73,0,0,0-9.06,2.72c-1.62.6-3.06,1.2-4.41,1.84-.73.34-1.44.69-2.16,1.11-.38.21-.72.42-1.09.66a8.19,8.19,0,0,0-1,.76l-.6.49a5.23,5.23,0,0,0-.76,1,3,3,0,0,0-.25,1.28,9.3,9.3,0,0,0,.45,1.3s.08.06.17.17l.26.34a2.67,2.67,0,0,0,.37.44,12.69,12.69,0,0,0,2.32,1.75c.84.5,1.54.87,2.24,1.23,2.11,1.07,4.22,2,6.3,2.94l2.3,1,1,.47c-2.07-1.32-4.2-2.55-6.29-3.76l-2.85-1.66c-.6-.37-1.19-.73-1.75-1.1-.27-.17-.55-.37-.83-.58a4,4,0,0,1-.88-.72,2.26,2.26,0,0,1-.68-.8,2,2,0,0,1,.34-2.54,3.8,3.8,0,0,1,.82-.68c.42-.28,1.13-.69,1.71-1,1.19-.63,2.46-1.19,3.73-1.74a161.46,161.46,0,0,1,16.73-5.62c6.83-2,15.17-4.13,24.12-6.24,16.69-3.94,32.45-6.94,35.46-7.47,3.17-.57,7.07-1.32,11.27-2.13,6.05-1.17,12.73-2.45,18.79-3.49,5.31-.92,9.92-1.62,13.35-2,3.58-.43,5.8-.45,6-.49H165a8,8,0,0,1,1.24.15,23.1,23.1,0,0,1,2.54.72c1.87.62,3.7,1.37,5.1,2,2.92,1.24,6,2.66,10,4.62,5.91,2.89,12.32,6.24,19.61,10.22,12.48,6.83,24.88,14,36.88,21.44,6.13,3.8,11.57,7.28,16.63,10.65,5.28,3.54,10.86,7.35,16,11.52.67.56,1.31,1.11,1.94,1.67.39.36.59.56.87.86a2.62,2.62,0,0,1,.8,2.13l-.07.44-.31.33a2.4,2.4,0,0,1-1.41.7l-17.89,4.75-18.71,5.06c-10.95,2.93-22.21,5.83-34.42,8.88-5.74,1.43-11.47,2.83-17.2,4.14-5.35,1.2-11.42,2.57-17.26,3.27a29.09,29.09,0,0,1-5.26.21,15.42,15.42,0,0,1-2.48-.35l-2.65-.74Z"/><path class="cls-2" d="M62.42,188.29a207.9,207.9,0,0,0,25,13l4.34,1.83c3.86,1.62,7.84,3.29,11.7,5.07,9.69,4.47,20.45,8.84,32.89,13.36,2.43.9,4.95,1.79,7.73,2.75-5.24-1.92-10.37-3.94-15.22-5.88-23.48-9.33-45.91-20-64.76-29.27l-.56-.28C63.14,188.63,62.77,188.44,62.42,188.29Z"/><path class="cls-2" d="M34,169.35l0,0Z"/><path class="cls-1" d="M158,178.89c-3-2.58-6.46-2.57-9.82-2.83-2.25-.16-7.74-1-12.92-1.68l-11-1.45c-4.81-.84-15.11.15-15.42.18-4.51.22-9,.54-13.52.88-4.33.32-8.67.71-13,1.14-4,.4-8,.82-12.07,1.38-2.5.34-5,.78-7.52,1.34A39.23,39.23,0,0,0,55,180.24a11.92,11.92,0,0,0-1.52.81,8.62,8.62,0,0,0-1.44,1.1,17.5,17.5,0,0,0-2.27,2.38A16.82,16.82,0,0,0,48,187.14a18.87,18.87,0,0,0-1.39,2.72,26.29,26.29,0,0,0-2.23,11.24c.14,4.5-1.06,8.71-1.55,13-.8,7.17-1.68,14.26-2.94,21.18-.06.31-.21.62,0,.95a7.43,7.43,0,0,0,1.39.91c.72,0,2,0,2.08-.18a16.36,16.36,0,0,0,2.85-8.81,29.29,29.29,0,0,1,.19-5.31c1.36-7.08.19-14.48,2.89-21.24a7.24,7.24,0,0,0,.17-1.4c.23-1.36.59-2.65.88-4s.68-2.61,1.19-3.82A16,16,0,0,1,55.38,186a4.33,4.33,0,0,1,1.37-1,10.5,10.5,0,0,1,1.77-.66,27.49,27.49,0,0,1,4-.8c2.78-.36,5.64-.5,8.48-.83,6.31-.72,12.7-1.57,19.13-2.52,3.28-.48,6.62,0,9.94.12,1.89.1,3.79.46,5.68.37,7.25-.41,14.62-2.48,21.84-.69,4.39,1.09,8.72,2.16,13.24,1.07a5,5,0,0,1,3.3.11c3.65,1.66,7.49,1,11.35.62C157.89,181.55,159.12,179.83,158,178.89Z"/><path class="cls-2" d="M158,178.89c-3-2.58-6.46-2.57-9.82-2.83-2.25-.16-7.74-1-12.92-1.68l-11-1.45c-4.81-.84-15.11.15-15.42.18-4.51.22-9,.54-13.52.88-4.33.32-8.67.71-13,1.14-4,.4-8,.82-12.07,1.38-2.5.34-5,.78-7.52,1.34A39.23,39.23,0,0,0,55,180.24a11.92,11.92,0,0,0-1.52.81,8.62,8.62,0,0,0-1.44,1.1,17.5,17.5,0,0,0-2.27,2.38A16.82,16.82,0,0,0,48,187.14a18.87,18.87,0,0,0-1.39,2.72,26.29,26.29,0,0,0-2.23,11.24c.14,4.5-1.06,8.71-1.55,13-.8,7.17-1.68,14.26-2.94,21.18-.06.31-.21.62,0,.95a7.43,7.43,0,0,0,1.39.91c.72,0,2,0,2.08-.18a16.36,16.36,0,0,0,2.85-8.81,29.29,29.29,0,0,1,.19-5.31c1.36-7.08.19-14.48,2.89-21.24a7.24,7.24,0,0,0,.17-1.4c.23-1.36.59-2.65.88-4s.68-2.61,1.19-3.82A16,16,0,0,1,55.38,186a4.33,4.33,0,0,1,1.37-1,10.5,10.5,0,0,1,1.77-.66,27.49,27.49,0,0,1,4-.8c2.78-.36,5.64-.5,8.48-.83,6.31-.72,12.7-1.57,19.13-2.52,3.28-.48,6.62,0,9.94.12,1.89.1,3.79.46,5.68.37,7.25-.41,14.62-2.48,21.84-.69,4.39,1.09,8.72,2.16,13.24,1.07a5,5,0,0,1,3.3.11c3.65,1.66,7.49,1,11.35.62C157.89,181.55,159.12,179.83,158,178.89Z"/><path class="cls-1" d="M50.57,259.32a35.5,35.5,0,0,1,2.22,6c.44,1.73,2.8,8.63,4.53,15.5.87,3.44,1.66,6.85,2.09,9.57a50.75,50.75,0,0,1,.65,5.09c0,.5.08,1,.09,1.51l-.06,1.59,0,.8-.14.89a13.13,13.13,0,0,1-.38,1.84,15.29,15.29,0,0,1-.93,2.26A10.24,10.24,0,0,1,56,307.2a20.38,20.38,0,0,1-6.86,3.32,31.5,31.5,0,0,1-10.89,1.23,32,32,0,0,1-7-1.47,16.08,16.08,0,0,1-3.95-2A11,11,0,0,1,25,306.08a7,7,0,0,1-.75-1.07,7.54,7.54,0,0,1-.56-1.08A15.19,15.19,0,0,1,23,302a24.49,24.49,0,0,1-.74-3.66,32,32,0,0,1-.09-6.42,74.31,74.31,0,0,1,1.51-10A159.75,159.75,0,0,1,28.13,266a16.75,16.75,0,0,1,1.79-3.31l1.14-1.76,1-1.68c.19-.28.88.21,1.46.7s1.27,1.09,1.29,1.43a3.72,3.72,0,0,1-.59,2c-1,1.61-2.71,7.45-3.77,13.13a94.55,94.55,0,0,0-1.51,12,24,24,0,0,0-.37,2.9,27.47,27.47,0,0,0,1,6.74,9.93,9.93,0,0,0,1.1,2.57,1,1,0,0,0,.27.31c0,.07.18.12.24.2a8.23,8.23,0,0,0,.77.43,9.74,9.74,0,0,0,2.06.74,21.86,21.86,0,0,0,5,.51,35.42,35.42,0,0,0,5.45-.48,30.22,30.22,0,0,1,3.13-.5,1.17,1.17,0,0,0,.41,0,8.46,8.46,0,0,0,3.33-1.78l.1-.11s0-.07,0-.15.15-.16.2-.57l.23-1,.15-1.21a9.55,9.55,0,0,0,.14-1.41c.07-.71.12-1.68.12-2.83a80.4,80.4,0,0,0-.37-8.21c-.5-5.93-1.51-11.76-1.63-12.21-.26-1-.36-2-.61-2.93a71.08,71.08,0,0,0-2.48-8.47C46.51,259.19,49.88,257.75,50.57,259.32Z"/><path class="cls-2" d="M50.57,259.32a35.5,35.5,0,0,1,2.22,6c.44,1.73,2.8,8.63,4.53,15.5.87,3.44,1.66,6.85,2.09,9.57a50.75,50.75,0,0,1,.65,5.09c0,.5.08,1,.09,1.51l-.06,1.59,0,.8-.14.89a13.13,13.13,0,0,1-.38,1.84,15.29,15.29,0,0,1-.93,2.26A10.24,10.24,0,0,1,56,307.2a20.38,20.38,0,0,1-6.86,3.32,31.5,31.5,0,0,1-10.89,1.23,32,32,0,0,1-7-1.47,16.08,16.08,0,0,1-3.95-2A11,11,0,0,1,25,306.08a7,7,0,0,1-.75-1.07,7.54,7.54,0,0,1-.56-1.08A15.19,15.19,0,0,1,23,302a24.49,24.49,0,0,1-.74-3.66,32,32,0,0,1-.09-6.42,74.31,74.31,0,0,1,1.51-10A159.75,159.75,0,0,1,28.13,266a16.75,16.75,0,0,1,1.79-3.31l1.14-1.76,1-1.68c.19-.28.88.21,1.46.7s1.27,1.09,1.29,1.43a3.72,3.72,0,0,1-.59,2c-1,1.61-2.71,7.45-3.77,13.13a94.55,94.55,0,0,0-1.51,12,24,24,0,0,0-.37,2.9,27.47,27.47,0,0,0,1,6.74,9.93,9.93,0,0,0,1.1,2.57,1,1,0,0,0,.27.31c0,.07.18.12.24.2a8.23,8.23,0,0,0,.77.43,9.74,9.74,0,0,0,2.06.74,21.86,21.86,0,0,0,5,.51,35.42,35.42,0,0,0,5.45-.48,30.22,30.22,0,0,1,3.13-.5,1.17,1.17,0,0,0,.41,0,8.46,8.46,0,0,0,3.33-1.78l.1-.11s0-.07,0-.15.15-.16.2-.57l.23-1,.15-1.21a9.55,9.55,0,0,0,.14-1.41c.07-.71.12-1.68.12-2.83a80.4,80.4,0,0,0-.37-8.21c-.5-5.93-1.51-11.76-1.63-12.21-.26-1-.36-2-.61-2.93a71.08,71.08,0,0,0-2.48-8.47C46.51,259.19,49.88,257.75,50.57,259.32Z"/><path class="cls-1" d="M186.6,239.18c1,.46,1.22,0,1.51-.35a14.39,14.39,0,0,1,2.81-1.71c.67-.23,1.26-1.57,1.28-1.61l1-1.5c.34-.47.69-.94,1.06-1.38s.71-.79,1.1-1.16a10.42,10.42,0,0,1,1.49-1.32c.83-.54,1.93-.87,2-2.09.05-.73.7-.92,1.09-1.36l2-2.16s.09,0,0-.16a7.17,7.17,0,0,0-.54-.52c-.3-.2-.8-.56-.85-.56-.76-.08-1.26,0-1.36.44-.06.25-.08.53-.28.67-.82.54-.76,1.83-2,2.05-.08,0-.06.13-.1.17a13.6,13.6,0,0,1-1.55,1.58c-.61.5-1.61.63-2.22,1.12a5.54,5.54,0,0,0-1.54,2.1c-.2.42-.72.53-1.1.77-.22.14-.55.17-.69.38-.56.81-.46,2.28-1.66,2.44-.73.1-1.43.22-1.34,1.15,0,.23,0,.4-.26.37-.82-.12-.79.63-.85,1.29A1.88,1.88,0,0,0,186.6,239.18Z"/><path class="cls-2" d="M186.6,239.18c1,.46,1.22,0,1.51-.35a14.39,14.39,0,0,1,2.81-1.71c.67-.23,1.26-1.57,1.28-1.61l1-1.5c.34-.47.69-.94,1.06-1.38s.71-.79,1.1-1.16a10.42,10.42,0,0,1,1.49-1.32c.83-.54,1.93-.87,2-2.09.05-.73.7-.92,1.09-1.36l2-2.16s.09,0,0-.16a7.17,7.17,0,0,0-.54-.52c-.3-.2-.8-.56-.85-.56-.76-.08-1.26,0-1.36.44-.06.25-.08.53-.28.67-.82.54-.76,1.83-2,2.05-.08,0-.06.13-.1.17a13.6,13.6,0,0,1-1.55,1.58c-.61.5-1.61.63-2.22,1.12a5.54,5.54,0,0,0-1.54,2.1c-.2.42-.72.53-1.1.77-.22.14-.55.17-.69.38-.56.81-.46,2.28-1.66,2.44-.73.1-1.43.22-1.34,1.15,0,.23,0,.4-.26.37-.82-.12-.79.63-.85,1.29A1.88,1.88,0,0,0,186.6,239.18Z"/><path class="cls-1" d="M193.5,241.47a1.31,1.31,0,0,0,1.77-.62,22.36,22.36,0,0,1,3.41-2.33c.79-.36,1.62-2,1.65-2l1.36-1.84c.45-.59.9-1.16,1.38-1.72s.91-1,1.39-1.47a17.8,17.8,0,0,1,1.87-1.7c1-.73,2.28-1.23,2.54-2.63.16-.85.92-1.15,1.41-1.7.82-.92,1.71-1.76,2.55-2.74,0,0,.11-.06,0-.19s-.35-.36-.53-.55-.81-.54-.86-.54c-.83,0-1.39.18-1.57.69a1.56,1.56,0,0,1-.4.8c-1,.72-1.13,2.22-2.5,2.61-.09,0-.08.15-.14.21a24.77,24.77,0,0,1-2,2c-.77.65-1.91.93-2.68,1.58a9.08,9.08,0,0,0-2,2.62c-.28.5-.88.71-1.35,1-.27.19-.64.28-.83.54-.74,1-.82,2.65-2.21,3-.84.22-1.65.46-1.67,1.5,0,.26-.07.46-.34.46-.92,0-1,.82-1.14,1.57A1.59,1.59,0,0,0,193.5,241.47Z"/><path class="cls-2" d="M193.5,241.47a1.31,1.31,0,0,0,1.77-.62,22.36,22.36,0,0,1,3.41-2.33c.79-.36,1.62-2,1.65-2l1.36-1.84c.45-.59.9-1.16,1.38-1.72s.91-1,1.39-1.47a17.8,17.8,0,0,1,1.87-1.7c1-.73,2.28-1.23,2.54-2.63.16-.85.92-1.15,1.41-1.7.82-.92,1.71-1.76,2.55-2.74,0,0,.11-.06,0-.19s-.35-.36-.53-.55-.81-.54-.86-.54c-.83,0-1.39.18-1.57.69a1.56,1.56,0,0,1-.4.8c-1,.72-1.13,2.22-2.5,2.61-.09,0-.08.15-.14.21a24.77,24.77,0,0,1-2,2c-.77.65-1.91.93-2.68,1.58a9.08,9.08,0,0,0-2,2.62c-.28.5-.88.71-1.35,1-.27.19-.64.28-.83.54-.74,1-.82,2.65-2.21,3-.84.22-1.65.46-1.67,1.5,0,.26-.07.46-.34.46-.92,0-1,.82-1.14,1.57A1.59,1.59,0,0,0,193.5,241.47Z"/><path class="cls-1" d="M203.08,241.31c1.25.27,1.63-.39,2.1-.92a35,35,0,0,1,4.18-3.06,8.83,8.83,0,0,0,2.17-2.46l1.81-2.26c.59-.71,1.19-1.42,1.82-2.1s1.17-1.24,1.79-1.83a25.42,25.42,0,0,1,2.37-2.14c1.24-.93,2.75-1.63,3.27-3.27.31-1,1.2-1.41,1.85-2.08,1.06-1.15,2.18-2.19,3.26-3.44.05-.06.13-.09.06-.23a4.49,4.49,0,0,0-.51-.57c-.3-.18-.81-.53-.87-.53-.91.11-1.55.36-1.84,1a2.27,2.27,0,0,1-.58,1c-1.23.93-1.62,2.66-3.22,3.26-.11,0-.11.18-.18.25-.83.85-1.63,1.74-2.54,2.52s-2.3,1.27-3.26,2.09a14.66,14.66,0,0,0-2.7,3.21,6,6,0,0,1-1.69,1.34,5,5,0,0,0-1,.71c-1,1.22-1.33,3.11-3,3.69-1,.35-1.94.73-2.12,1.91,0,.3-.14.53-.44.56-1.05.1-1.24,1.07-1.52,1.94A1.34,1.34,0,0,0,203.08,241.31Z"/><path class="cls-2" d="M203.08,241.31c1.25.27,1.63-.39,2.1-.92a35,35,0,0,1,4.18-3.06,8.83,8.83,0,0,0,2.17-2.46l1.81-2.26c.59-.71,1.19-1.42,1.82-2.1s1.17-1.24,1.79-1.83a25.42,25.42,0,0,1,2.37-2.14c1.24-.93,2.75-1.63,3.27-3.27.31-1,1.2-1.41,1.85-2.08,1.06-1.15,2.18-2.19,3.26-3.44.05-.06.13-.09.06-.23a4.49,4.49,0,0,0-.51-.57c-.3-.18-.81-.53-.87-.53-.91.11-1.55.36-1.84,1a2.27,2.27,0,0,1-.58,1c-1.23.93-1.62,2.66-3.22,3.26-.11,0-.11.18-.18.25-.83.85-1.63,1.74-2.54,2.52s-2.3,1.27-3.26,2.09a14.66,14.66,0,0,0-2.7,3.21,6,6,0,0,1-1.69,1.34,5,5,0,0,0-1,.71c-1,1.22-1.33,3.11-3,3.69-1,.35-1.94.73-2.12,1.91,0,.3-.14.53-.44.56-1.05.1-1.24,1.07-1.52,1.94A1.34,1.34,0,0,0,203.08,241.31Z"/><path class="cls-1" d="M206.71,247.1c1.25.27,1.63-.38,2.1-.92a36,36,0,0,1,4.18-3.05,9,9,0,0,0,2.17-2.47l1.81-2.25c.59-.71,1.19-1.42,1.82-2.1s1.17-1.24,1.79-1.83a25.42,25.42,0,0,1,2.37-2.14c1.24-.94,2.75-1.64,3.27-3.28.31-1,1.2-1.41,1.85-2.08,1.06-1.14,2.18-2.19,3.26-3.44,0,0,.13-.08.06-.22a6.19,6.19,0,0,0-.5-.58,9.08,9.08,0,0,0-.88-.52c-.91.11-1.55.35-1.84,1a2.27,2.27,0,0,1-.58,1c-1.23.94-1.62,2.67-3.22,3.27-.1,0-.11.17-.18.25-.83.85-1.63,1.74-2.54,2.51s-2.3,1.28-3.26,2.1a14.43,14.43,0,0,0-2.7,3.21,6,6,0,0,1-1.69,1.34,4.61,4.61,0,0,0-1,.7c-1,1.23-1.33,3.12-3,3.69-1,.35-1.94.74-2.12,1.92,0,.29-.14.53-.44.56-1.05.09-1.24,1.06-1.52,1.93A1.34,1.34,0,0,0,206.71,247.1Z"/><path class="cls-2" d="M206.71,247.1c1.25.27,1.63-.38,2.1-.92a36,36,0,0,1,4.18-3.05,9,9,0,0,0,2.17-2.47l1.81-2.25c.59-.71,1.19-1.42,1.82-2.1s1.17-1.24,1.79-1.83a25.42,25.42,0,0,1,2.37-2.14c1.24-.94,2.75-1.64,3.27-3.28.31-1,1.2-1.41,1.85-2.08,1.06-1.14,2.18-2.19,3.26-3.44,0,0,.13-.08.06-.22a6.19,6.19,0,0,0-.5-.58,9.08,9.08,0,0,0-.88-.52c-.91.11-1.55.35-1.84,1a2.27,2.27,0,0,1-.58,1c-1.23.94-1.62,2.67-3.22,3.27-.1,0-.11.17-.18.25-.83.85-1.63,1.74-2.54,2.51s-2.3,1.28-3.26,2.1a14.43,14.43,0,0,0-2.7,3.21,6,6,0,0,1-1.69,1.34,4.61,4.61,0,0,0-1,.7c-1,1.23-1.33,3.12-3,3.69-1,.35-1.94.74-2.12,1.92,0,.29-.14.53-.44.56-1.05.09-1.24,1.06-1.52,1.93A1.34,1.34,0,0,0,206.71,247.1Z"/><path class="cls-1" d="M210.38,254.73c1.17.3,1.45-.28,1.84-.75a23.81,23.81,0,0,1,3.58-2.57c.84-.39,1.76-2.09,1.79-2.14l1.49-2c.49-.62,1-1.23,1.51-1.82s1-1.07,1.51-1.57a19.4,19.4,0,0,1,2-1.83c1.08-.78,2.43-1.33,2.77-2.81.2-.88,1-1.22,1.54-1.81.89-1,1.85-1.9,2.74-2.95,0,0,.12-.07,0-.2a7.52,7.52,0,0,0-.52-.55,9.53,9.53,0,0,0-.87-.54c-.84,0-1.43.23-1.64.77a1.75,1.75,0,0,1-.45.85c-1.06.79-1.27,2.35-2.71,2.8-.09,0-.08.16-.14.22a29.07,29.07,0,0,1-2.14,2.16c-.82.69-2,1-2.85,1.71a10.51,10.51,0,0,0-2.23,2.79c-.31.54-1,.77-1.45,1.12-.29.21-.68.31-.89.59-.82,1.07-1,2.79-2.42,3.23-.89.26-1.74.56-1.79,1.65,0,.26-.09.48-.37.49-1,0-1,.92-1.22,1.72A1.48,1.48,0,0,0,210.38,254.73Z"/><path class="cls-2" d="M210.38,254.73c1.17.3,1.45-.28,1.84-.75a23.81,23.81,0,0,1,3.58-2.57c.84-.39,1.76-2.09,1.79-2.14l1.49-2c.49-.62,1-1.23,1.51-1.82s1-1.07,1.51-1.57a19.4,19.4,0,0,1,2-1.83c1.08-.78,2.43-1.33,2.77-2.81.2-.88,1-1.22,1.54-1.81.89-1,1.85-1.9,2.74-2.95,0,0,.12-.07,0-.2a7.52,7.52,0,0,0-.52-.55,9.53,9.53,0,0,0-.87-.54c-.84,0-1.43.23-1.64.77a1.75,1.75,0,0,1-.45.85c-1.06.79-1.27,2.35-2.71,2.8-.09,0-.08.16-.14.22a29.07,29.07,0,0,1-2.14,2.16c-.82.69-2,1-2.85,1.71a10.51,10.51,0,0,0-2.23,2.79c-.31.54-1,.77-1.45,1.12-.29.21-.68.31-.89.59-.82,1.07-1,2.79-2.42,3.23-.89.26-1.74.56-1.79,1.65,0,.26-.09.48-.37.49-1,0-1,.92-1.22,1.72A1.48,1.48,0,0,0,210.38,254.73Z"/><path class="cls-1" d="M175.94,240.3c1,.46,1.22,0,1.51-.36a13.84,13.84,0,0,1,2.81-1.7c.67-.23,1.26-1.58,1.28-1.61l1-1.5c.34-.47.69-.94,1.06-1.38a15.07,15.07,0,0,1,1.1-1.16,10.49,10.49,0,0,1,1.49-1.33c.84-.54,1.93-.86,2-2.08.05-.73.7-.93,1.09-1.37l2-2.15s.09,0,0-.16a6.94,6.94,0,0,0-.54-.53c-.29-.19-.8-.55-.85-.56-.76-.07-1.26,0-1.36.45-.06.25-.08.53-.28.66-.82.54-.76,1.84-2,2.06-.08,0-.06.12-.1.17a13.6,13.6,0,0,1-1.55,1.58c-.61.49-1.61.63-2.22,1.11a5.66,5.66,0,0,0-1.54,2.11c-.2.42-.72.53-1.1.77-.22.13-.55.17-.69.38-.56.81-.46,2.27-1.66,2.44-.73.1-1.43.22-1.34,1.15,0,.23,0,.4-.26.37-.82-.13-.79.62-.85,1.28A1.88,1.88,0,0,0,175.94,240.3Z"/><path class="cls-2" d="M175.94,240.3c1,.46,1.22,0,1.51-.36a13.84,13.84,0,0,1,2.81-1.7c.67-.23,1.26-1.58,1.28-1.61l1-1.5c.34-.47.69-.94,1.06-1.38a15.07,15.07,0,0,1,1.1-1.16,10.49,10.49,0,0,1,1.49-1.33c.84-.54,1.93-.86,2-2.08.05-.73.7-.93,1.09-1.37l2-2.15s.09,0,0-.16a6.94,6.94,0,0,0-.54-.53c-.29-.19-.8-.55-.85-.56-.76-.07-1.26,0-1.36.45-.06.25-.08.53-.28.66-.82.54-.76,1.84-2,2.06-.08,0-.06.12-.1.17a13.6,13.6,0,0,1-1.55,1.58c-.61.49-1.61.63-2.22,1.11a5.66,5.66,0,0,0-1.54,2.11c-.2.42-.72.53-1.1.77-.22.13-.55.17-.69.38-.56.81-.46,2.27-1.66,2.44-.73.1-1.43.22-1.34,1.15,0,.23,0,.4-.26.37-.82-.13-.79.62-.85,1.28A1.88,1.88,0,0,0,175.94,240.3Z"/><path class="cls-1" d="M167.8,239.88c.95.55,1,.19,1.22-.06a6.58,6.58,0,0,1,2.13-.91c.53-.06.89-1.08.91-1.1l.73-1.06q.38-.51.78-1a7.58,7.58,0,0,1,.84-.76,5.88,5.88,0,0,1,1.16-.85c.66-.3,1.59-.4,1.51-1.42,0-.61.49-.68.78-1,.47-.51,1-1,1.47-1.49,0,0,.08,0,0-.13a6.47,6.47,0,0,0-.56-.51c-.29-.2-.79-.56-.84-.57-.68-.17-1.12-.17-1.14.16s0,.42-.14.5c-.63.32-.39,1.4-1.4,1.38-.06,0,0,.09-.06.12a6.17,6.17,0,0,1-1.12,1c-.46.29-1.29.2-1.75.48a2.79,2.79,0,0,0-1.1,1.44c-.13.32-.55.3-.86.42s-.44,0-.55.19c-.4.57-.18,1.85-1.18,1.76-.61-.05-1.2-.07-1,.76,0,.2,0,.34-.17.27-.72-.24-.6.43-.57,1A2.6,2.6,0,0,0,167.8,239.88Z"/><path class="cls-2" d="M167.8,239.88c.95.55,1,.19,1.22-.06a6.58,6.58,0,0,1,2.13-.91c.53-.06.89-1.08.91-1.1l.73-1.06q.38-.51.78-1a7.58,7.58,0,0,1,.84-.76,5.88,5.88,0,0,1,1.16-.85c.66-.3,1.59-.4,1.51-1.42,0-.61.49-.68.78-1,.47-.51,1-1,1.47-1.49,0,0,.08,0,0-.13a6.47,6.47,0,0,0-.56-.51c-.29-.2-.79-.56-.84-.57-.68-.17-1.12-.17-1.14.16s0,.42-.14.5c-.63.32-.39,1.4-1.4,1.38-.06,0,0,.09-.06.12a6.17,6.17,0,0,1-1.12,1c-.46.29-1.29.2-1.75.48a2.79,2.79,0,0,0-1.1,1.44c-.13.32-.55.3-.86.42s-.44,0-.55.19c-.4.57-.18,1.85-1.18,1.76-.61-.05-1.2-.07-1,.76,0,.2,0,.34-.17.27-.72-.24-.6.43-.57,1A2.6,2.6,0,0,0,167.8,239.88Z"/><path class="cls-1" d="M254,194.92c-1.39-1.23-2.22-.65-3.13-.29a36.23,36.23,0,0,1-7,.85c-1.46-.08-4.09,1.47-4.18,1.5-1.21.49-2.41,1-3.63,1.46s-2.36.87-3.56,1.23-2.24.63-3.37.88a32,32,0,0,1-4.26.8c-2.12.16-4.38-.18-6.12,1.43-1,1-2.4.77-3.62,1.07-2,.52-4.1.91-6.16,1.37-.09,0-.2,0-.23.21a11.26,11.26,0,0,0,.12,1.15,12.51,12.51,0,0,0,.56,1.42c1.1.69,2.09.95,2.86.44a3.25,3.25,0,0,1,1.4-.7c2.12-.13,3.8-2,6.11-1.39.15,0,.25-.13.39-.16,1.57-.39,3.13-.86,4.75-1.1s3.61.26,5.32,0a17.71,17.71,0,0,0,5.41-1.93,7.51,7.51,0,0,1,2.93-.38,6.38,6.38,0,0,0,1.7-.11c2-.81,3.64-3,6-2.5,1.43.29,2.86.51,3.81-.91.23-.35.51-.59.9-.41,1.36.64,2.19-.5,3.06-1.45A2.09,2.09,0,0,0,254,194.92Z"/><path class="cls-2" d="M254,194.92c-1.39-1.23-2.22-.65-3.13-.29a36.23,36.23,0,0,1-7,.85c-1.46-.08-4.09,1.47-4.18,1.5-1.21.49-2.41,1-3.63,1.46s-2.36.87-3.56,1.23-2.24.63-3.37.88a32,32,0,0,1-4.26.8c-2.12.16-4.38-.18-6.12,1.43-1,1-2.4.77-3.62,1.07-2,.52-4.1.91-6.16,1.37-.09,0-.2,0-.23.21a11.26,11.26,0,0,0,.12,1.15,12.51,12.51,0,0,0,.56,1.42c1.1.69,2.09.95,2.86.44a3.25,3.25,0,0,1,1.4-.7c2.12-.13,3.8-2,6.11-1.39.15,0,.25-.13.39-.16,1.57-.39,3.13-.86,4.75-1.1s3.61.26,5.32,0a17.71,17.71,0,0,0,5.41-1.93,7.51,7.51,0,0,1,2.93-.38,6.38,6.38,0,0,0,1.7-.11c2-.81,3.64-3,6-2.5,1.43.29,2.86.51,3.81-.91.23-.35.51-.59.9-.41,1.36.64,2.19-.5,3.06-1.45A2.09,2.09,0,0,0,254,194.92Z"/><path class="cls-1" d="M41.29,231.22c-2.19-1.09-4,0-5.55,1A22.74,22.74,0,0,0,30,237a20.77,20.77,0,0,0-3.29,5.75,10.18,10.18,0,0,0-.6,2.55A21.47,21.47,0,0,0,26,248.2c.08.93.22,1.79.32,2.41s.27,1,.27,1.08A14.35,14.35,0,0,0,30.33,259a13.33,13.33,0,0,0,6.91,3.59,18.46,18.46,0,0,0,6.91,0A18.16,18.16,0,0,0,52,258.93a14.74,14.74,0,0,0,4.27-5,9.92,9.92,0,0,0,1-6.37c-.5-2.66-.74-5.39-2.23-7.68a17.39,17.39,0,0,0-4.53-4.56,17.94,17.94,0,0,0-5.87-2.74.74.74,0,0,0-.72,0,3,3,0,0,0-.58,1.08c.12.54.15,1.47.23,1.55,1.29,1.14,2.3,2.17,3.71,2.58a5.48,5.48,0,0,1,2.27,1.11,21.72,21.72,0,0,1,3.39,3.74,5.27,5.27,0,0,1,.61,4.82c-.1.22,0,.46,0,.69a12.08,12.08,0,0,1-3,7.08c-2,2-4.81,2.43-7.19,2.74a16.07,16.07,0,0,1-8-.64,4.73,4.73,0,0,1-2.37-3c-.25-.72-.25-1.5-.49-2.23a21.5,21.5,0,0,1-1.29-4.77,6.37,6.37,0,0,1,1-4.89c1.34-1.68,2.71-2.65,3.34-4.74.18-.51.45-1,1-1.05,1.91-.2,2.87-1.67,4.39-2.85C41.8,233.1,42.06,231.65,41.29,231.22Z"/><path class="cls-2" d="M41.29,231.22c-2.19-1.09-4,0-5.55,1A22.74,22.74,0,0,0,30,237a20.77,20.77,0,0,0-3.29,5.75,10.18,10.18,0,0,0-.6,2.55A21.47,21.47,0,0,0,26,248.2c.08.93.22,1.79.32,2.41s.27,1,.27,1.08A14.35,14.35,0,0,0,30.33,259a13.33,13.33,0,0,0,6.91,3.59,18.46,18.46,0,0,0,6.91,0A18.16,18.16,0,0,0,52,258.93a14.74,14.74,0,0,0,4.27-5,9.92,9.92,0,0,0,1-6.37c-.5-2.66-.74-5.39-2.23-7.68a17.39,17.39,0,0,0-4.53-4.56,17.94,17.94,0,0,0-5.87-2.74.74.74,0,0,0-.72,0,3,3,0,0,0-.58,1.08c.12.54.15,1.47.23,1.55,1.29,1.14,2.3,2.17,3.71,2.58a5.48,5.48,0,0,1,2.27,1.11,21.72,21.72,0,0,1,3.39,3.74,5.27,5.27,0,0,1,.61,4.82c-.1.22,0,.46,0,.69a12.08,12.08,0,0,1-3,7.08c-2,2-4.81,2.43-7.19,2.74a16.07,16.07,0,0,1-8-.64,4.73,4.73,0,0,1-2.37-3c-.25-.72-.25-1.5-.49-2.23a21.5,21.5,0,0,1-1.29-4.77,6.37,6.37,0,0,1,1-4.89c1.34-1.68,2.71-2.65,3.34-4.74.18-.51.45-1,1-1.05,1.91-.2,2.87-1.67,4.39-2.85C41.8,233.1,42.06,231.65,41.29,231.22Z"/><path class="cls-1" d="M38.07,269.3c-1.3.34-1.4,1.21-1.62,2-.34,1-2.16,4.95-2.36,5.41a9.86,9.86,0,0,0-.55,3.71c-.08,1.09-.16,2.18-.2,3.28s-.11,2.09-.14,3.14l-.19,2.9c-.08,1.2-.13,2.4-.25,3.6-.26,1.74-.74,3.56.14,5.25a8.5,8.5,0,0,1,.42,3.12c.15,1.74.45,3.47.68,5.21,0,.08,0,.17.13.21a4.86,4.86,0,0,0,.77,0,6.45,6.45,0,0,0,1-.34,2.4,2.4,0,0,0,.38-2.26,2.89,2.89,0,0,1-.42-1.18c0-1.71-1.08-3.29-.47-5,0-.12-.06-.22-.06-.33a27.3,27.3,0,0,1-.11-3.94c.08-1.39.75-2.76.92-4.12a21.71,21.71,0,0,0,0-4.56,7,7,0,0,1,.55-2.28,6.22,6.22,0,0,0,.45-1.27c.09-1.69-.62-3.62.52-5.1.68-.91,1.35-1.76,1-3a.62.62,0,0,1,.15-.75c.91-.63.67-1.62.59-2.6A1.29,1.29,0,0,0,38.07,269.3Z"/><path class="cls-2" d="M38.07,269.3c-1.3.34-1.4,1.21-1.62,2-.34,1-2.16,4.95-2.36,5.41a9.86,9.86,0,0,0-.55,3.71c-.08,1.09-.16,2.18-.2,3.28s-.11,2.09-.14,3.14l-.19,2.9c-.08,1.2-.13,2.4-.25,3.6-.26,1.74-.74,3.56.14,5.25a8.5,8.5,0,0,1,.42,3.12c.15,1.74.45,3.47.68,5.21,0,.08,0,.17.13.21a4.86,4.86,0,0,0,.77,0,6.91,6.91,0,0,0,1-.34,2.4,2.4,0,0,0,.38-2.26,2.89,2.89,0,0,1-.42-1.18c0-1.71-1.08-3.29-.47-5,0-.12-.06-.22-.06-.33a27.3,27.3,0,0,1-.11-3.94c.08-1.39.75-2.76.92-4.12a21.71,21.71,0,0,0,0-4.56,7,7,0,0,1,.55-2.28,6.22,6.22,0,0,0,.45-1.27c.09-1.69-.62-3.62.52-5.1.68-.91,1.35-1.76,1-3a.62.62,0,0,1,.15-.75c.91-.63.67-1.62.59-2.6A1.29,1.29,0,0,0,38.07,269.3Z"/><path class="cls-1" d="M40.79,278.55c-1.19.41-1.14,1.17-1.23,1.86-.15.91-1.35,4.41-1.49,4.8a7.62,7.62,0,0,0-.06,3.2c.05.93.1,1.86.18,2.79s.11,1.79.17,2.67l.06,2.47c0,1,.07,2.05,0,3.08-.14,1.5-.54,3.07.41,4.44a6,6,0,0,1,.52,2.63c.21,1.48.49,2.94.75,4.42,0,.06,0,.14.13.17A6.73,6.73,0,0,0,41,311a8.53,8.53,0,0,0,1-.35c.48-.76.69-1.42.36-2a2.29,2.29,0,0,1-.43-1c0-1.46-1.15-2.73-.61-4.27,0-.11-.07-.19-.08-.28a22.05,22.05,0,0,1-.3-3.34c0-1.19.56-2.41.63-3.58a15,15,0,0,0-.4-3.87,5.19,5.19,0,0,1,.3-2,4.63,4.63,0,0,0,.29-1.12c-.09-1.44-1.06-3-.15-4.38.55-.83,1.08-1.61.51-2.6-.14-.24-.2-.48,0-.66.79-.62.39-1.44.14-2.27A1.44,1.44,0,0,0,40.79,278.55Z"/><path class="cls-2" d="M40.79,278.55c-1.19.41-1.14,1.17-1.23,1.86-.15.91-1.35,4.41-1.49,4.8a7.62,7.62,0,0,0-.06,3.2c.05.93.1,1.86.18,2.79s.11,1.79.17,2.67l.06,2.47c0,1,.07,2.05,0,3.08-.14,1.5-.54,3.07.41,4.44a6,6,0,0,1,.52,2.63c.21,1.48.49,2.94.75,4.42,0,.06,0,.14.13.17A6.73,6.73,0,0,0,41,311a8.53,8.53,0,0,0,1-.35c.48-.76.69-1.42.36-2a2.29,2.29,0,0,1-.43-1c0-1.46-1.15-2.73-.61-4.27,0-.11-.07-.19-.08-.28a22.05,22.05,0,0,1-.3-3.34c0-1.19.56-2.41.63-3.58a15,15,0,0,0-.4-3.87,5.19,5.19,0,0,1,.3-2,4.63,4.63,0,0,0,.29-1.12c-.09-1.44-1.06-3-.15-4.38.55-.83,1.08-1.61.51-2.6-.14-.24-.2-.48,0-.66.79-.62.39-1.44.14-2.27A1.44,1.44,0,0,0,40.79,278.55Z"/><path class="cls-1" d="M47.24,286.49c-1.18,0-1.22.58-1.36,1.07s-1.73,3-1.89,3.29a2.52,2.52,0,0,0-.35,1.42,6.52,6.52,0,0,0,0,1c0,.71,0,1.41,0,2.11s0,1.34,0,2,0,1.23,0,1.84,0,1.52-.06,2.29c-.16,1.12-.55,2.36.41,3.31.54.56.41,1.27.56,1.92.24,1.09.59,2.14.89,3.22,0,0,0,.12.14.11a7.18,7.18,0,0,0,.73-.2c.32-.16.88-.42.91-.46.44-.66.62-1.18.29-1.52-.19-.19-.43-.38-.46-.63,0-1-1.18-1.83-.65-3,0-.07-.07-.12-.08-.19a10.36,10.36,0,0,1-.28-2.36c0-.85.61-1.71.71-2.52a8.15,8.15,0,0,0-.25-2.71c-.1-.48.22-.91.39-1.35.11-.26.35-.48.35-.75,0-1-.85-2.27.14-3.07.6-.48,1.15-.91.68-1.73-.11-.2-.15-.38.08-.46.8-.24.48-.91.31-1.57A1.89,1.89,0,0,0,47.24,286.49Z"/><path class="cls-2" d="M47.24,286.49c-1.18,0-1.22.58-1.36,1.07s-1.73,3-1.89,3.29a2.52,2.52,0,0,0-.35,1.42,6.52,6.52,0,0,0,0,1c0,.71,0,1.41,0,2.11s0,1.34,0,2,0,1.23,0,1.84,0,1.52-.06,2.29c-.16,1.12-.55,2.36.41,3.31.54.56.41,1.27.56,1.92.24,1.09.59,2.14.89,3.22,0,0,0,.12.14.11a7.18,7.18,0,0,0,.73-.2c.32-.16.88-.42.91-.46.44-.66.62-1.18.29-1.52-.19-.19-.43-.38-.46-.63,0-1-1.18-1.83-.65-3,0-.07-.07-.12-.08-.19a10.36,10.36,0,0,1-.28-2.36c0-.85.61-1.71.71-2.52a8.15,8.15,0,0,0-.25-2.71c-.1-.48.22-.91.39-1.35.11-.26.35-.48.35-.75,0-1-.85-2.27.14-3.07.6-.48,1.15-.91.68-1.73-.11-.2-.15-.38.08-.46.8-.24.48-.91.31-1.57A1.89,1.89,0,0,0,47.24,286.49Z"/><path class="cls-1" d="M159.32,229.34c-2.18.69-1.85,1.62-1.83,2.53,0,1.21-1.85,5.73-2.17,6.21-.76,1.2,0,4,0,4.12.05,1.21.14,2.43.16,3.64s0,2.33-.08,3.49a28.45,28.45,0,0,1-.45,3.17,19.4,19.4,0,0,1-1,3.86c-.81,1.82-2.31,3.47-1.21,5.61.68,1.3-.29,2.26-.55,3.37a41.1,41.1,0,0,1-1.77,5.26c0,.07-.15.12.11.28s.91.41,1.39.63c.68.18,1.87.52,2,.49,1.45-.39,2.36-1,2.23-2-.09-.53-.29-1.08,0-1.51,1.05-1.81-.3-4.08,1.55-5.71.12-.11,0-.27,0-.4.34-1.49.51-3,1-4.46s2-2.93,2.49-4.5a11.4,11.4,0,0,0,.08-5.39c-.17-.93.53-1.76.86-2.63.19-.5.67-1,.64-1.5-.08-2-2-4.25-.37-6.06,1-1.11,1.94-2.23.63-3.59-.33-.34-.49-.66-.09-.92,1.42-.9.41-2.05-.36-3.17A3.67,3.67,0,0,0,159.32,229.34Z"/><path class="cls-2" d="M159.32,229.34c-2.18.69-1.85,1.62-1.83,2.53,0,1.21-1.85,5.73-2.17,6.21-.76,1.2,0,4,0,4.12.05,1.21.14,2.43.16,3.64s0,2.33-.08,3.49a28.45,28.45,0,0,1-.45,3.17,19.4,19.4,0,0,1-1,3.86c-.81,1.82-2.31,3.47-1.21,5.61.68,1.3-.29,2.26-.55,3.37a41.1,41.1,0,0,1-1.77,5.26c0,.07-.15.12.11.28s.91.41,1.39.63c.68.18,1.87.52,2,.49,1.45-.39,2.36-1,2.23-2-.09-.53-.29-1.08,0-1.51,1.05-1.81-.3-4.08,1.55-5.71.12-.11,0-.27,0-.4.34-1.49.51-3,1-4.46s2-2.93,2.49-4.5a11.4,11.4,0,0,0,.08-5.39c-.17-.93.53-1.76.86-2.63.19-.5.67-1,.64-1.5-.08-2-2-4.25-.37-6.06,1-1.11,1.94-2.23.63-3.59-.33-.34-.49-.66-.09-.92,1.42-.9.41-2.05-.36-3.17A3.67,3.67,0,0,0,159.32,229.34Z"/><path class="cls-1" d="M440.17,211.92c.41,5.83,3.4,10,5.93,14.56a87,87,0,0,1,4.85,11,63.07,63.07,0,0,1,2.13,6.92,19.12,19.12,0,0,1,.43,2.89,1.22,1.22,0,0,1,0,.66.74.74,0,0,1-.17.24c-.06.06-.1.05-.17.14s-.38.45-.55.65l-1.2,1.4c-.85.89-1.56,1.65-2.17,2.28-1.22,1.27-2,2-2.37,2.34-5.42,5-15.35,17.55-15.7,17.92-4.62,5.25-9.27,10.5-14,15.61-2.3,2.45-4.62,4.89-7,7.26-1.17,1.15-2.37,2.38-3.55,3.43-.53.46-1.31,1.22-1.6,1.39-.41.39-.52.41-1.4.69-5.73,1.65-12,2.93-18.07,4.12-7.6,1.46-15.22,2.93-22.91,3.83-11.2,1.29-22.47,1.56-33.24,4.56a29.39,29.39,0,0,1-9.6,1,8,8,0,0,1-1.06-.12,2.25,2.25,0,0,1-.5-.12,1,1,0,0,1-.61-.52l-.9-1.48-1.2-2.06a213.92,213.92,0,0,1-13.59-30.24c-.16-.45-.2-1-.71-1.26a8.54,8.54,0,0,0-2.21-.3c-.77.54-2.22,1.3-2.21,1.63a28.36,28.36,0,0,0,3.52,14.08,60.17,60.17,0,0,1,4,7.35,71.83,71.83,0,0,0,8.51,15,11.34,11.34,0,0,0,1.83,2,6,6,0,0,0,2.55,1,17.86,17.86,0,0,0,2.42.21c.75.05,1.47,0,2.2.06,2.91,0,5.78,0,8.67.25a12.58,12.58,0,0,0,2.27-.34c8.82-.91,17.5-2.38,26.24-3.55,9.22-1.23,18.66-1.3,27.88-2.88,5.11-.88,10.16-2,15.24-3.37,1.29-.36,2.53-.72,3.94-1.2.43-.16.6-.19,1.23-.45a5.64,5.64,0,0,0,1.49-.82l1.26-.93c.42-.33.56-.51.85-.77,2.08-2,3.79-3.84,5.55-5.8,3.56-4,7.81-7.18,11.72-10.75,2.23-2.05,4.72-3.84,6.73-6.1,7.73-8.75,13.48-19,22.52-26.72.7-.58,1.41-1.27,2.11-2a13.66,13.66,0,0,0,1.1-1.14c.44-.57.92-1.35,1.38-2a10.64,10.64,0,0,0,.74-3.65,14.51,14.51,0,0,0-.16-2.83,23.19,23.19,0,0,0-1.09-4.45,24.43,24.43,0,0,0-4-7.36,11,11,0,0,1-2.47-4.78c-1.17-6.31-5.4-11.08-9.5-15.7C442.86,209.66,440,209.75,440.17,211.92Z"/><path class="cls-2" d="M440.17,211.92c.41,5.83,3.4,10,5.93,14.56a87,87,0,0,1,4.85,11,63.07,63.07,0,0,1,2.13,6.92,19.12,19.12,0,0,1,.43,2.89,1.22,1.22,0,0,1,0,.66.74.74,0,0,1-.17.24c-.06.06-.1.05-.17.14s-.38.45-.55.65l-1.2,1.4c-.85.89-1.56,1.65-2.17,2.28-1.22,1.27-2,2-2.37,2.34-5.42,5-15.35,17.55-15.7,17.92-4.62,5.25-9.27,10.5-14,15.61-2.3,2.45-4.62,4.89-7,7.26-1.17,1.15-2.37,2.38-3.55,3.43-.53.46-1.31,1.22-1.6,1.39-.41.39-.52.41-1.4.69-5.73,1.65-12,2.93-18.07,4.12-7.6,1.46-15.22,2.93-22.91,3.83-11.2,1.29-22.47,1.56-33.24,4.56a29.39,29.39,0,0,1-9.6,1,8,8,0,0,1-1.06-.12,2.25,2.25,0,0,1-.5-.12,1,1,0,0,1-.61-.52l-.9-1.48-1.2-2.06a213.92,213.92,0,0,1-13.59-30.24c-.16-.45-.2-1-.71-1.26a8.54,8.54,0,0,0-2.21-.3c-.77.54-2.22,1.3-2.21,1.63a28.36,28.36,0,0,0,3.52,14.08,60.17,60.17,0,0,1,4,7.35,71.83,71.83,0,0,0,8.51,15,11.34,11.34,0,0,0,1.83,2,5.83,5.83,0,0,0,2.55,1,17.86,17.86,0,0,0,2.42.21c.75.05,1.47,0,2.2.06,2.91,0,5.78,0,8.67.25a12.58,12.58,0,0,0,2.27-.34c8.82-.91,17.5-2.38,26.24-3.55,9.22-1.23,18.66-1.3,27.88-2.88,5.11-.88,10.16-2,15.24-3.37,1.29-.36,2.53-.72,3.94-1.2.43-.16.6-.19,1.23-.45a5.64,5.64,0,0,0,1.49-.82l1.26-.93c.42-.33.56-.51.85-.77,2.08-2,3.79-3.84,5.55-5.8,3.56-4,7.81-7.18,11.72-10.75,2.23-2.05,4.72-3.84,6.73-6.1,7.73-8.75,13.48-19,22.52-26.72.7-.58,1.41-1.27,2.11-2a13.66,13.66,0,0,0,1.1-1.14c.44-.57.92-1.35,1.38-2a10.64,10.64,0,0,0,.74-3.65,14.51,14.51,0,0,0-.16-2.83,23.19,23.19,0,0,0-1.09-4.45,24.43,24.43,0,0,0-4-7.36,11,11,0,0,1-2.47-4.78c-1.17-6.31-5.4-11.08-9.5-15.7C442.86,209.66,440,209.75,440.17,211.92Z"/><path class="cls-1" d="M263.44,281.19a56.79,56.79,0,0,0-8.78-.71c-1.45,0-2.89,0-4.32,0l-4,.12a15.29,15.29,0,0,1-1.72-.09c-.48-.05-1.31-.22-1.18-.88a5,5,0,0,1,.58-1.57l.41-.74,1.09-1.72c4-6.26,16.47-20.47,28.88-33.15s24.51-24.17,26.94-26.36c6.07-5.5,15.13-14.57,23-22,3.93-3.74,7.55-7.06,10.26-9.37s4.47-3.61,4.65-3.73c1.71-1.49,5.62-2.14,9.2-2.9s7.43-1.24,11.2-1.74c7.55-1,15.18-1.76,22.83-2.41q22.1-1.87,44.33-2.53c6.85-.19,13.7-.28,20.53-.22,3.42,0,6.83.1,10.23.23l5.07.27c1.62.1,3.7.29,4.11.35a11.79,11.79,0,0,1,2.46.49c.19.08.41.16.48.37s-.2.36-.32.52l-.86.92-24.14,26.75c-8.36,9.13-16.88,18.12-25.3,27.08s-16.71,18.11-25.27,26.06c-.64.63-1.31,1-2,1.59a12.46,12.46,0,0,1-2,1.38l-1.95,1-2.61.86c-3.47,1.16-7,2.1-10.58,3-7.14,1.74-14.37,3.15-21.6,4.6-24.13,4.89-48.61,8.22-73.14,11.19a9.38,9.38,0,0,0-3.22.65c-.81.43-1.37,1.48-2,2.26.71.83,1.43,2.36,2.13,2.38a137.4,137.4,0,0,0,31.3-2.17c6-1.18,11.9-2.53,17.9-3.34a361.44,361.44,0,0,0,36.54-7.25c6-1.45,12.06-3,18.09-4.6l9-2.42a39.32,39.32,0,0,0,8.83-4.66,35.3,35.3,0,0,0,3.86-3.34,283.76,283.76,0,0,0,20.51-20.69l19.35-21.51c5.45-6.07,11-12,16.68-17.87l8.5-8.76,4.25-4.37,6.58-6.91,1.43-3.57c.19-.61.6-1.2.39-1.75a5.25,5.25,0,0,0-.81-1.8,7.29,7.29,0,0,0-3.1-2.4,21.26,21.26,0,0,0-5.12-1.32c-1.33-.24-2.59-.36-3.86-.5l-2.44-.23-4.34-.3c-2.88-.15-5.75-.24-8.6-.29-5.71-.1-11.39,0-17.06.1-11.35.29-22.65,1-33.94,1.9-11.52,1-23.11,1-34.72,1.75-6.65.49-13.33.65-20.09,1.94-1.63.32-3.27.68-5,1.14a21.76,21.76,0,0,0-5.79,2.32,69.11,69.11,0,0,0-8,6.39c-4.83,4.38-9.31,8.92-13.79,13.45-8.93,9.09-17.75,18.17-27.29,26.59-11.58,10.24-22.95,20.87-31.7,33.87a53.34,53.34,0,0,1-7.27,9,64.74,64.74,0,0,0-6.78,7.6c-.52.68-1,1.39-1.52,2.1l-.73,1.1-.94,1.5c-1.57,2.67-2.9,5.51-2.87,7.9a7,7,0,0,0,1.07,3.34,8,8,0,0,0,2.87,2.09c2.27.89,5.4.85,8.16.53,2.1-.25,3.5-.54,5.21-.86l4.86-.94C264.59,284.45,267.74,282,263.44,281.19Z"/><path class="cls-2" d="M263.44,281.19a55.58,55.58,0,0,0-8.78-.71c-1.45,0-2.89,0-4.32,0l-4,.12a15.29,15.29,0,0,1-1.72-.09c-.48-.05-1.31-.22-1.18-.88a5,5,0,0,1,.58-1.57l.41-.74,1.09-1.72c4-6.26,16.47-20.47,28.88-33.15s24.51-24.17,26.94-26.36c6.07-5.5,15.13-14.57,23-22,3.93-3.74,7.55-7.06,10.26-9.37s4.47-3.61,4.65-3.73c1.71-1.49,5.62-2.14,9.2-2.9s7.43-1.24,11.2-1.74c7.55-1,15.18-1.76,22.83-2.41q22.1-1.87,44.33-2.53c6.85-.19,13.7-.28,20.53-.22,3.42,0,6.83.1,10.23.23l5.07.27c1.62.1,3.7.29,4.11.35a11.79,11.79,0,0,1,2.46.49c.19.08.41.16.48.37s-.2.36-.32.52l-.86.92-24.14,26.75c-8.36,9.13-16.88,18.12-25.3,27.08s-16.71,18.11-25.27,26.06c-.64.63-1.31,1-2,1.59a12.46,12.46,0,0,1-2,1.38l-1.95,1-2.61.86c-3.47,1.16-7,2.1-10.58,3-7.14,1.74-14.37,3.15-21.6,4.6-24.13,4.89-48.61,8.22-73.14,11.19a9.38,9.38,0,0,0-3.22.65c-.81.43-1.37,1.48-2,2.26.71.83,1.43,2.36,2.13,2.38a137.4,137.4,0,0,0,31.3-2.17c6-1.18,11.9-2.53,17.9-3.34a361.44,361.44,0,0,0,36.54-7.25c6-1.45,12.06-3,18.09-4.6l9-2.42a39.32,39.32,0,0,0,8.83-4.66,35.3,35.3,0,0,0,3.86-3.34,283.76,283.76,0,0,0,20.51-20.69l19.35-21.51c5.45-6.07,11-12,16.68-17.87l8.5-8.76,4.25-4.37,6.58-6.91,1.43-3.57c.19-.61.6-1.2.39-1.75a5.25,5.25,0,0,0-.81-1.8,7.29,7.29,0,0,0-3.1-2.4,21.26,21.26,0,0,0-5.12-1.32c-1.33-.24-2.59-.36-3.86-.5l-2.44-.23-4.34-.3c-2.88-.15-5.75-.24-8.6-.29-5.71-.1-11.39,0-17.06.1-11.35.29-22.65,1-33.94,1.9-11.52,1-23.11,1-34.72,1.75-6.65.49-13.33.65-20.09,1.94-1.63.32-3.27.68-5,1.14a21.76,21.76,0,0,0-5.79,2.32,69.11,69.11,0,0,0-8,6.39c-4.83,4.38-9.31,8.92-13.79,13.45-8.93,9.09-17.75,18.17-27.29,26.59-11.58,10.24-22.95,20.87-31.7,33.87a53.34,53.34,0,0,1-7.27,9,64.74,64.74,0,0,0-6.78,7.6c-.52.68-1,1.39-1.52,2.1l-.73,1.1-.94,1.5c-1.57,2.67-2.9,5.51-2.87,7.9a7,7,0,0,0,1.07,3.34,8,8,0,0,0,2.87,2.09c2.27.89,5.4.85,8.16.53,2.1-.25,3.5-.54,5.21-.86l4.86-.94C264.59,284.45,267.74,282,263.44,281.19Z"/><path class="cls-1" d="M356.74,218.67c-4-.2-7,1.72-10.1,3.4L324,233.28c-4.64,2.1-13.18,8.71-13.44,8.92-3.85,2.74-7.63,5.57-11.39,8.42s-7.22,5.55-10.78,8.4c-3.28,2.65-6.55,5.32-9.75,8.13-2,1.74-3.91,3.55-5.77,5.5a37.09,37.09,0,0,0-5.25,6.57,12.13,12.13,0,0,0-1.32,3.19c-.28,1-.56,1.94-.76,2.91a47.34,47.34,0,0,0-1,5.83,38.34,38.34,0,0,0,.3,11.57c.87,4.56.5,9.12.82,13.67.57,7.57,1.23,15.13,2.14,22.65,0,.33,0,.7.29,1a5.43,5.43,0,0,0,1.4.52c.58-.27,1.62-.57,1.67-.79a22.68,22.68,0,0,0,.16-9.59,29.57,29.57,0,0,1-1-5.43c-.27-7.48-2.39-14.9-1.22-22.41a8.4,8.4,0,0,0-.09-1.5c0-5.76.12-11.63,1.47-17.09l.28-1.07.36-.81a11.43,11.43,0,0,1,1.11-1.66,25.54,25.54,0,0,1,3-3.11c2.18-2,4.57-3.83,6.86-5.78l15.42-13.13c2.64-2.27,5.78-3.87,8.75-5.69,1.7-1,3.54-1.86,5.15-3,6.17-4.48,11.65-10.19,18.89-13,4.4-1.7,8.74-3.38,12.22-6.7a6.29,6.29,0,0,1,3-1.78c4-.84,7.12-3.48,10.38-5.87C358,220.64,358.19,218.73,356.74,218.67Z"/><path class="cls-2" d="M356.74,218.67c-4-.2-7,1.72-10.1,3.4L324,233.28c-4.64,2.1-13.18,8.71-13.44,8.92-3.85,2.74-7.63,5.57-11.39,8.42s-7.22,5.55-10.78,8.4c-3.28,2.65-6.55,5.32-9.75,8.13-2,1.74-3.91,3.55-5.77,5.5a37.09,37.09,0,0,0-5.25,6.57,12.13,12.13,0,0,0-1.32,3.19c-.28,1-.56,1.94-.76,2.91a47.34,47.34,0,0,0-1,5.83,38.34,38.34,0,0,0,.3,11.57c.87,4.56.5,9.12.82,13.67.57,7.57,1.23,15.13,2.14,22.65,0,.33,0,.7.29,1a5.43,5.43,0,0,0,1.4.52c.58-.27,1.62-.57,1.67-.79a22.68,22.68,0,0,0,.16-9.59,29.57,29.57,0,0,1-1-5.43c-.27-7.48-2.39-14.9-1.22-22.41a8.4,8.4,0,0,0-.09-1.5c0-5.76.12-11.63,1.47-17.09l.28-1.07.36-.81a11.43,11.43,0,0,1,1.11-1.66,25.54,25.54,0,0,1,3-3.11c2.18-2,4.57-3.83,6.86-5.78l15.42-13.13c2.64-2.27,5.78-3.87,8.75-5.69,1.7-1,3.54-1.86,5.15-3,6.17-4.48,11.65-10.19,18.89-13,4.4-1.7,8.74-3.38,12.22-6.7a6.29,6.29,0,0,1,3-1.78c4-.84,7.12-3.48,10.38-5.87C358,220.64,358.19,218.73,356.74,218.67Z"/><path class="cls-1" d="M262,364.82c-2.75,1.91-3.08,4.59-3.69,7.13-.4,1.71-1.71,5.8-2.79,9.74s-1.94,7.7-2.14,8.45a27.82,27.82,0,0,0-.58,7.49,36.14,36.14,0,0,0,.55,4.93,26,26,0,0,0,1.36,5.66,12.46,12.46,0,0,0,1.48,2.87c.39.49.78,1,1.2,1.42l1.38,1c3.69,2.24,7.4,2.37,10.94,2.43a39.84,39.84,0,0,0,9.71-1.31,21.65,21.65,0,0,0,5.85-2.4A11.55,11.55,0,0,0,288,410a8.86,8.86,0,0,0,1.82-3.52,29.85,29.85,0,0,0,.72-9.16,23.25,23.25,0,0,0-2-8.36c-1.44-3.16-1.66-6.54-2.52-9.81-1.48-5.43-2.94-10.83-5-16.19-.09-.24-.11-.53-.43-.65a5.62,5.62,0,0,0-1.41,0c-.51.36-1.46.89-1.47,1.06a13.35,13.35,0,0,0,1.12,7,15.73,15.73,0,0,1,1.59,3.71c1.14,5.37,4.06,10.34,3.92,16a5.42,5.42,0,0,0,.28,1.05c.77,4.15,1.53,8.43,1.22,12.43a7,7,0,0,1-.26,1.49c-.06.23-.11.48-.18.69l-.29.52c-.33.69-1,1-1.69,1.43a26.7,26.7,0,0,1-5.48,1.71,41.65,41.65,0,0,1-13.38,1.15,10.07,10.07,0,0,1-1.52-.42c-.45-.22-.84-.5-1.24-.74a8.13,8.13,0,0,1-.76-.91c-.1-.36-.28-.46-.42-1a34.54,34.54,0,0,1-.62-3.44c-1.07-4.71-2.49-10.64-.43-15.92,1.26-3.21,2.57-6.32,2.09-9.89a3.42,3.42,0,0,1,.44-2.49c1.81-2.52,1.62-5.55,1.8-8.46a2.43,2.43,0,0,0-.63-2c0-.21-.5.1-.58-.18s.06-.29.07-.4-.28-.21-.45-.09A.94.94,0,0,0,262,364.82Z"/><path class="cls-2" d="M262,364.82c-2.75,1.91-3.08,4.59-3.69,7.13-.4,1.71-1.71,5.8-2.79,9.74s-1.94,7.7-2.14,8.45a27.82,27.82,0,0,0-.58,7.49,36.14,36.14,0,0,0,.55,4.93,26,26,0,0,0,1.36,5.66,12.46,12.46,0,0,0,1.48,2.87c.39.49.78,1,1.2,1.42l1.38,1c3.69,2.24,7.4,2.37,10.94,2.43a39.84,39.84,0,0,0,9.71-1.31,21.65,21.65,0,0,0,5.85-2.4A11.55,11.55,0,0,0,288,410a8.86,8.86,0,0,0,1.82-3.52,29.85,29.85,0,0,0,.72-9.16,23.25,23.25,0,0,0-2-8.36c-1.44-3.16-1.66-6.54-2.52-9.81-1.48-5.43-2.94-10.83-5-16.19-.09-.24-.11-.53-.43-.65a5.62,5.62,0,0,0-1.41,0c-.51.36-1.46.89-1.47,1.06a13.35,13.35,0,0,0,1.12,7,15.73,15.73,0,0,1,1.59,3.71c1.14,5.37,4.06,10.34,3.92,16a5.42,5.42,0,0,0,.28,1.05c.77,4.15,1.53,8.43,1.22,12.43a7,7,0,0,1-.26,1.49c-.06.23-.11.48-.18.69l-.29.52c-.33.69-1,1-1.69,1.43a26.7,26.7,0,0,1-5.48,1.71,41.65,41.65,0,0,1-13.38,1.15,10.07,10.07,0,0,1-1.52-.42c-.45-.22-.84-.5-1.24-.74a8.13,8.13,0,0,1-.76-.91c-.1-.36-.28-.46-.42-1a34.54,34.54,0,0,1-.62-3.44c-1.07-4.71-2.49-10.64-.43-15.92,1.26-3.21,2.57-6.32,2.09-9.89a3.42,3.42,0,0,1,.44-2.49c1.81-2.52,1.62-5.55,1.8-8.46a2.43,2.43,0,0,0-.63-2c0-.21-.5.1-.58-.18s.06-.29.07-.4-.28-.21-.45-.09A.94.94,0,0,0,262,364.82Z"/><path class="cls-1" d="M416.06,254.89c1-.24.93-.74,1-1.21a17.13,17.13,0,0,1,1.35-3.12,4.39,4.39,0,0,0,.23-2.13c0-.63.07-1.28.1-1.89s.09-1.2.17-1.8.18-1.1.3-1.64a11.88,11.88,0,0,1,.52-2c.37-1,1-1.88.54-3-.3-.66.1-1.21.18-1.81.16-1,.32-2,.49-3,0,0,.05-.09-.07-.14a4.42,4.42,0,0,0-.65-.14,7.4,7.4,0,0,0-.88,0c-.6.37-.92.75-.8,1.18a1.21,1.21,0,0,1,.1.74c-.35.94.28,2-.51,2.92-.05.06,0,.14,0,.2a19.33,19.33,0,0,1-.43,2.27c-.24.79-.92,1.5-1.16,2.28a7,7,0,0,0-.2,2.71c0,.47-.3.88-.48,1.31-.1.25-.33.47-.34.74-.06,1,.68,2.21-.16,3.06-.5.52-1,1-.49,1.78.12.18.17.36,0,.47-.67.38-.31,1-.06,1.6A1.41,1.41,0,0,0,416.06,254.89Z"/><path class="cls-2" d="M416.06,254.89c1-.24.93-.74,1-1.21a17.13,17.13,0,0,1,1.35-3.12,4.39,4.39,0,0,0,.23-2.13c0-.63.07-1.28.1-1.89s.09-1.2.17-1.8.18-1.1.3-1.64a11.88,11.88,0,0,1,.52-2c.37-1,1-1.88.54-3-.3-.66.1-1.21.18-1.81.16-1,.32-2,.49-3,0,0,.05-.09-.07-.14a4.42,4.42,0,0,0-.65-.14,7.4,7.4,0,0,0-.88,0c-.6.37-.92.75-.8,1.18a1.21,1.21,0,0,1,.1.74c-.35.94.28,2-.51,2.92-.05.06,0,.14,0,.2a19.33,19.33,0,0,1-.43,2.27c-.24.79-.92,1.5-1.16,2.28a7,7,0,0,0-.2,2.71c0,.47-.3.88-.48,1.31-.1.25-.33.47-.34.74-.06,1,.68,2.21-.16,3.06-.5.52-1,1-.49,1.78.12.18.17.36,0,.47-.67.38-.31,1-.06,1.6A1.41,1.41,0,0,0,416.06,254.89Z"/><path class="cls-1" d="M423.4,252.94c1-.36,1-1,1.07-1.58a28.22,28.22,0,0,1,1.51-4,7,7,0,0,0,.34-2.69c.06-.79.12-1.61.18-2.38s.15-1.52.26-2.28.23-1.39.38-2.08a20.74,20.74,0,0,1,.62-2.56c.42-1.21,1.15-2.39.7-3.75-.27-.82.16-1.53.28-2.28.18-1.28.45-2.52.62-3.84,0-.06.05-.12-.07-.18s-.42-.11-.64-.17a8.63,8.63,0,0,0-.89,0c-.61.49-.94,1-.84,1.51a1.87,1.87,0,0,1,.07.93c-.41,1.21.17,2.58-.67,3.73-.05.07,0,.17,0,.25-.17,1-.29,1.94-.55,2.89s-1,1.93-1.29,2.93a11.37,11.37,0,0,0-.33,3.45,4.68,4.68,0,0,1-.55,1.68,3.56,3.56,0,0,0-.38,1c-.11,1.29.58,2.74-.3,3.88-.54.69-1,1.38-.59,2.27.12.22.16.44,0,.59-.71.53-.37,1.28-.16,2A1.21,1.21,0,0,0,423.4,252.94Z"/><path class="cls-2" d="M423.4,252.94c1-.36,1-1,1.07-1.58a28.22,28.22,0,0,1,1.51-4,7,7,0,0,0,.34-2.69c.06-.79.12-1.61.18-2.38s.15-1.52.26-2.28.23-1.39.38-2.08a20.74,20.74,0,0,1,.62-2.56c.42-1.21,1.15-2.39.7-3.75-.27-.82.16-1.53.28-2.28.18-1.28.45-2.52.62-3.84,0-.06.05-.12-.07-.18s-.42-.11-.64-.17a8.63,8.63,0,0,0-.89,0c-.61.49-.94,1-.84,1.51a1.87,1.87,0,0,1,.07.93c-.41,1.21.17,2.58-.67,3.73-.05.07,0,.17,0,.25-.17,1-.29,1.94-.55,2.89s-1,1.93-1.29,2.93a11.37,11.37,0,0,0-.33,3.45,4.68,4.68,0,0,1-.55,1.68,3.56,3.56,0,0,0-.38,1c-.11,1.29.58,2.74-.3,3.88-.54.69-1,1.38-.59,2.27.12.22.16.44,0,.59-.71.53-.37,1.28-.16,2A1.21,1.21,0,0,0,423.4,252.94Z"/><path class="cls-1" d="M431.69,247.32c1.06-.51,1.05-1.3,1.17-2a45.63,45.63,0,0,1,1.78-5.08,10.56,10.56,0,0,0,.52-3.38c.12-1,.24-2,.35-3s.28-1.92.42-2.86.33-1.76.53-2.63a30.45,30.45,0,0,1,.8-3.23c.51-1.53,1.33-3,1-4.73a7.35,7.35,0,0,1,.44-2.87c.27-1.6.63-3.16.85-4.85,0-.08.06-.15-.06-.23a3.26,3.26,0,0,0-.64-.2,5.58,5.58,0,0,0-.89.05,2.44,2.44,0,0,0-.92,1.91,2.77,2.77,0,0,1,0,1.18c-.49,1.53,0,3.24-.93,4.7-.06.1,0,.22,0,.32-.24,1.23-.43,2.46-.76,3.66s-1.15,2.45-1.51,3.73a17.94,17.94,0,0,0-.58,4.34,7.28,7.28,0,0,1-.67,2.14,6.34,6.34,0,0,0-.45,1.21c-.19,1.64.41,3.44-.56,4.9-.59.89-1.14,1.79-.74,2.89a.63.63,0,0,1-.09.74c-.74.71-.45,1.64-.28,2.55A1.06,1.06,0,0,0,431.69,247.32Z"/><path class="cls-2" d="M431.69,247.32c1.06-.51,1.05-1.3,1.17-2a45.63,45.63,0,0,1,1.78-5.08,10.56,10.56,0,0,0,.52-3.38c.12-1,.24-2,.35-3s.28-1.92.42-2.86.33-1.76.53-2.63a30.45,30.45,0,0,1,.8-3.23c.51-1.53,1.33-3,1-4.73a7.35,7.35,0,0,1,.44-2.87c.27-1.6.63-3.16.85-4.85,0-.08.06-.15-.06-.23a3.26,3.26,0,0,0-.64-.2,5.58,5.58,0,0,0-.89.05,2.44,2.44,0,0,0-.92,1.91,2.77,2.77,0,0,1,0,1.18c-.49,1.53,0,3.24-.93,4.7-.06.1,0,.22,0,.32-.24,1.23-.43,2.46-.76,3.66s-1.15,2.45-1.51,3.73a17.94,17.94,0,0,0-.58,4.34,7.28,7.28,0,0,1-.67,2.14,6.34,6.34,0,0,0-.45,1.21c-.19,1.64.41,3.44-.56,4.9-.59.89-1.14,1.79-.74,2.89a.63.63,0,0,1-.09.74c-.74.71-.45,1.64-.28,2.55A1.06,1.06,0,0,0,431.69,247.32Z"/><path class="cls-1" d="M438.18,250.31c1.06-.52,1.05-1.3,1.17-2a43,43,0,0,1,1.78-5.08,11.18,11.18,0,0,0,.52-3.38c.12-1,.23-2,.35-3s.28-1.93.42-2.86.32-1.76.52-2.63a33.15,33.15,0,0,1,.81-3.23c.51-1.54,1.32-3,1-4.73a7.34,7.34,0,0,1,.43-2.87c.28-1.6.64-3.16.85-4.85,0-.08.06-.15-.06-.23a3.67,3.67,0,0,0-.64-.21,6.91,6.91,0,0,0-.89.06,2.46,2.46,0,0,0-.91,1.91,2.76,2.76,0,0,1,0,1.18c-.49,1.53,0,3.24-.92,4.7-.06.1,0,.22,0,.32-.24,1.22-.44,2.46-.77,3.66s-1.15,2.45-1.5,3.72a18.09,18.09,0,0,0-.58,4.35,7.59,7.59,0,0,1-.67,2.14,6.34,6.34,0,0,0-.45,1.21c-.2,1.63.4,3.44-.57,4.9a3.14,3.14,0,0,0-.74,2.89.64.64,0,0,1-.08.74c-.75.71-.45,1.64-.28,2.55A1.05,1.05,0,0,0,438.18,250.31Z"/><path class="cls-2" d="M438.18,250.31c1.06-.52,1.05-1.3,1.17-2a43,43,0,0,1,1.78-5.08,11.18,11.18,0,0,0,.52-3.38c.12-1,.23-2,.35-3s.28-1.93.42-2.86.32-1.76.52-2.63a33.15,33.15,0,0,1,.81-3.23c.51-1.54,1.32-3,1-4.73a7.34,7.34,0,0,1,.43-2.87c.28-1.6.64-3.16.85-4.85,0-.08.06-.15-.06-.23a3.67,3.67,0,0,0-.64-.21,6.91,6.91,0,0,0-.89.06,2.46,2.46,0,0,0-.91,1.91,2.76,2.76,0,0,1,0,1.18c-.49,1.53,0,3.24-.92,4.7-.06.1,0,.22,0,.32-.24,1.22-.44,2.46-.77,3.66s-1.15,2.45-1.5,3.72a18.09,18.09,0,0,0-.58,4.35,7.59,7.59,0,0,1-.67,2.14,6.34,6.34,0,0,0-.45,1.21c-.2,1.63.4,3.44-.57,4.9a3.14,3.14,0,0,0-.74,2.89.64.64,0,0,1-.08.74c-.75.71-.45,1.64-.28,2.55A1.05,1.05,0,0,0,438.18,250.31Z"/><path class="cls-1" d="M445.74,254.88c1-.44,1-1.1,1-1.73a29.87,29.87,0,0,1,1.54-4.32,8.08,8.08,0,0,0,.38-2.88c.08-.85.16-1.73.23-2.56s.18-1.63.31-2.45.26-1.49.43-2.23a22.08,22.08,0,0,1,.68-2.75c.45-1.31,1.2-2.58.79-4a5.41,5.41,0,0,1,.32-2.46c.21-1.36.5-2.71.67-4.13,0-.06.06-.13-.06-.19a4.46,4.46,0,0,0-.64-.18,6,6,0,0,0-.89,0,1.84,1.84,0,0,0-.86,1.63,2,2,0,0,1,.06,1c-.43,1.3.13,2.76-.74,4-.05.08,0,.19,0,.27-.19,1-.33,2.09-.62,3.12s-1.05,2.07-1.35,3.15a13.13,13.13,0,0,0-.42,3.71,5.53,5.53,0,0,1-.58,1.82,4.52,4.52,0,0,0-.41,1c-.13,1.39.54,3-.36,4.18-.55.76-1.05,1.52-.6,2.48.11.23.15.46,0,.63-.71.6-.38,1.41-.15,2.19A1.15,1.15,0,0,0,445.74,254.88Z"/><path class="cls-2" d="M445.74,254.88c1-.44,1-1.1,1-1.73a29.87,29.87,0,0,1,1.54-4.32,8.08,8.08,0,0,0,.38-2.88c.08-.85.16-1.73.23-2.56s.18-1.63.31-2.45.26-1.49.43-2.23a22.08,22.08,0,0,1,.68-2.75c.45-1.31,1.2-2.58.79-4a5.41,5.41,0,0,1,.32-2.46c.21-1.36.5-2.71.67-4.13,0-.06.06-.13-.06-.19a4.46,4.46,0,0,0-.64-.18,6,6,0,0,0-.89,0,1.84,1.84,0,0,0-.86,1.63,2,2,0,0,1,.06,1c-.43,1.3.13,2.76-.74,4-.05.08,0,.19,0,.27-.19,1-.33,2.09-.62,3.12s-1.05,2.07-1.35,3.15a13.13,13.13,0,0,0-.42,3.71,5.53,5.53,0,0,1-.58,1.82,4.52,4.52,0,0,0-.41,1c-.13,1.39.54,3-.36,4.18-.55.76-1.05,1.52-.6,2.48.11.23.15.46,0,.63-.71.6-.38,1.41-.15,2.19A1.15,1.15,0,0,0,445.74,254.88Z"/><path class="cls-1" d="M407.38,262c1-.24.93-.74,1-1.21a17.13,17.13,0,0,1,1.35-3.12,4.56,4.56,0,0,0,.24-2.13c0-.63.06-1.28.09-1.89s.1-1.2.17-1.8.18-1.1.3-1.64a12,12,0,0,1,.52-2c.37-1,1-1.87.54-3-.3-.66.1-1.21.18-1.81.16-1,.32-2,.49-3,0-.05.05-.09-.07-.14a5.41,5.41,0,0,0-.65-.15c-.31,0-.84,0-.88,0-.59.37-.92.75-.8,1.18a1.19,1.19,0,0,1,.1.73c-.35.95.28,2-.51,2.93-.05.06,0,.13,0,.2a19.33,19.33,0,0,1-.43,2.27c-.24.79-.92,1.5-1.16,2.28a7.21,7.21,0,0,0-.2,2.71c0,.47-.3.88-.48,1.31-.1.25-.33.47-.34.74-.06,1,.68,2.2-.16,3.06-.5.52-1,1-.49,1.78.12.18.17.35,0,.47-.67.38-.31,1-.06,1.6A1.43,1.43,0,0,0,407.38,262Z"/><path class="cls-2" d="M407.38,262c1-.24.93-.74,1-1.21a17.13,17.13,0,0,1,1.35-3.12,4.56,4.56,0,0,0,.24-2.13l.09-1.89c.05-.6.1-1.2.17-1.8s.18-1.1.3-1.64a12,12,0,0,1,.52-2c.37-1,1-1.87.54-3-.3-.66.1-1.21.18-1.81.16-1,.32-2,.49-3,0-.05.05-.09-.07-.14a5.41,5.41,0,0,0-.65-.15c-.31,0-.84,0-.88,0-.59.37-.92.75-.8,1.18a1.19,1.19,0,0,1,.1.73c-.35.95.28,2-.51,2.93-.05.06,0,.13,0,.2a19.33,19.33,0,0,1-.43,2.27c-.24.79-.92,1.5-1.16,2.28a7.21,7.21,0,0,0-.2,2.71c0,.47-.3.88-.48,1.31-.1.25-.33.47-.34.74-.06,1,.68,2.2-.16,3.06-.5.52-1,1-.49,1.78.12.18.17.35,0,.47-.67.38-.31,1-.06,1.6A1.43,1.43,0,0,0,407.38,262Z"/><path class="cls-1" d="M400,266.24c1-.1.87-.45.9-.78a8,8,0,0,1,1.21-2c.39-.37.21-1.45.21-1.48,0-.44.06-.91.09-1.33s.09-.85.17-1.27a11.15,11.15,0,0,1,.28-1.14,8.07,8.07,0,0,1,.5-1.4c.36-.65,1-1.29.49-2.11-.31-.48.05-.86.13-1.29.12-.68.26-1.42.39-2.14,0,0,.05-.06-.07-.1s-.43-.08-.65-.11-.85,0-.89,0c-.58.25-.9.5-.76.81s.2.35.13.51c-.33.65.35,1.44-.41,2-.05,0,0,.1,0,.14a8.33,8.33,0,0,1-.37,1.55c-.22.53-.89.95-1.12,1.47a3.49,3.49,0,0,0-.18,1.88c0,.35-.29.59-.47.88s-.33.29-.34.48c0,.73.69,1.67-.12,2.19-.48.32-.94.66-.43,1.25.12.14.17.27,0,.33-.65.23-.27.72,0,1.17A1.89,1.89,0,0,0,400,266.24Z"/><path class="cls-2" d="M400,266.24c1-.1.87-.45.9-.78a8,8,0,0,1,1.21-2c.39-.37.21-1.45.21-1.48,0-.44.06-.91.09-1.33s.09-.85.17-1.27a11.15,11.15,0,0,1,.28-1.14,8.07,8.07,0,0,1,.5-1.4c.36-.65,1-1.29.49-2.11-.31-.48.05-.86.13-1.29.12-.68.26-1.42.39-2.14,0,0,.05-.06-.07-.1s-.43-.08-.65-.11-.85,0-.89,0c-.58.25-.9.5-.76.81s.2.35.13.51c-.33.65.35,1.44-.41,2-.05,0,0,.1,0,.14a8.33,8.33,0,0,1-.37,1.55c-.22.53-.89.95-1.12,1.47a3.49,3.49,0,0,0-.18,1.88c0,.35-.29.59-.47.88s-.33.29-.34.48c0,.73.69,1.67-.12,2.19-.48.32-.94.66-.43,1.25.12.14.17.27,0,.33-.65.23-.27.72,0,1.17A1.89,1.89,0,0,0,400,266.24Z"/><path class="cls-1" d="M444.55,186.05c-1.36.19-1.86,1.09-2.48,1.9a66.13,66.13,0,0,1-5.21,5.07,21.17,21.17,0,0,0-2.92,3.6l-2.51,3.21c-.82,1-1.65,2-2.51,3s-1.61,1.82-2.44,2.7c-1,1.09-2,2.21-3.16,3.22-1.63,1.47-3.49,2.74-4.47,4.8a13.11,13.11,0,0,1-2.59,3l-4.48,4.8c-.07.08-.17.12-.13.27a3.22,3.22,0,0,0,.36.59,4.5,4.5,0,0,0,.77.46,4,4,0,0,0,2.34-1.62,5.82,5.82,0,0,1,.92-1.31c1.64-1.47,2.52-3.61,4.47-4.79.13-.08.17-.24.27-.35,1.15-1.24,2.26-2.53,3.48-3.72s2.9-2.2,4.18-3.46a32.54,32.54,0,0,0,3.8-4.62,13.87,13.87,0,0,1,2.2-2.13,11.37,11.37,0,0,0,1.32-1.17c1.38-1.77,2.13-4.08,4.08-5.35a5.57,5.57,0,0,0,2.74-3,1.16,1.16,0,0,1,.6-.82c1.2-.52,1.57-1.73,2-2.87C445.49,186.72,445.05,186,444.55,186.05Z"/><path class="cls-2" d="M444.55,186.05c-1.36.19-1.86,1.09-2.48,1.9a66.13,66.13,0,0,1-5.21,5.07,21.17,21.17,0,0,0-2.92,3.6l-2.51,3.21c-.82,1-1.65,2-2.51,3s-1.61,1.82-2.44,2.7c-1,1.09-2,2.21-3.16,3.22-1.63,1.47-3.49,2.74-4.47,4.8a13.11,13.11,0,0,1-2.59,3l-4.48,4.8c-.07.08-.17.12-.13.27a3.22,3.22,0,0,0,.36.59,4.5,4.5,0,0,0,.77.46,4,4,0,0,0,2.34-1.62,5.82,5.82,0,0,1,.92-1.31c1.64-1.47,2.52-3.61,4.47-4.79.13-.08.17-.24.27-.35,1.15-1.24,2.26-2.53,3.48-3.72s2.9-2.2,4.18-3.46a32.54,32.54,0,0,0,3.8-4.62,13.87,13.87,0,0,1,2.2-2.13,11.37,11.37,0,0,0,1.32-1.17c1.38-1.77,2.13-4.08,4.08-5.35a5.57,5.57,0,0,0,2.74-3,1.16,1.16,0,0,1,.6-.82c1.2-.52,1.57-1.73,2-2.87C445.49,186.72,445.05,186,444.55,186.05Z"/><path class="cls-1" d="M269.28,334.3c-2.4-1.21-4.26.07-5.84,1.24a24.6,24.6,0,0,0-5.92,5.27,22.58,22.58,0,0,0-3.27,6.22,13.55,13.55,0,0,0-.45,5.77,17.76,17.76,0,0,0,.83,3.66A15.32,15.32,0,0,0,259,364a14.26,14.26,0,0,0,7.51,3.45A18.95,18.95,0,0,0,281.93,363c3.57-2.78,6.32-7.73,5.05-12.26-.72-2.8-1.05-5.7-2.74-8.07a18.64,18.64,0,0,0-5-4.63,18.86,18.86,0,0,0-6.34-2.64.8.8,0,0,0-.78.07,3.67,3.67,0,0,0-.57,1.3c.15.61.23,1.69.31,1.77,1.38,1.24,2.43,2.32,3.92,2.65a5.22,5.22,0,0,1,2.42,1,25.66,25.66,0,0,1,3.68,3.69,5.17,5.17,0,0,1,.8,4.94c-.1.23,0,.47,0,.71a12.35,12.35,0,0,1-2.83,7.43c-1.95,2.13-4.91,2.59-7.32,3a17.53,17.53,0,0,1-8.19-.22,4.53,4.53,0,0,1-2.47-3c-.28-.72-.26-1.52-.54-2.25-1.14-2.59-3-7-.82-9.89,1.39-1.75,2.78-2.71,3.22-5,.13-.55.38-1.08,1-1.13,2-.18,2.87-1.82,4.36-3.19C270,336.46,270.12,334.78,269.28,334.3Z"/><path class="cls-2" d="M269.28,334.3c-2.4-1.21-4.26.07-5.84,1.24a24.6,24.6,0,0,0-5.92,5.27,22.58,22.58,0,0,0-3.27,6.22,13.55,13.55,0,0,0-.45,5.77,17.76,17.76,0,0,0,.83,3.66A15.32,15.32,0,0,0,259,364a14.26,14.26,0,0,0,7.51,3.45A18.95,18.95,0,0,0,281.93,363c3.57-2.78,6.32-7.73,5.05-12.26-.72-2.8-1.05-5.7-2.74-8.07a18.64,18.64,0,0,0-5-4.63,18.86,18.86,0,0,0-6.34-2.64.8.8,0,0,0-.78.07,3.67,3.67,0,0,0-.57,1.3c.15.61.23,1.69.31,1.77,1.38,1.24,2.43,2.32,3.92,2.65a5.22,5.22,0,0,1,2.42,1,25.66,25.66,0,0,1,3.68,3.69,5.17,5.17,0,0,1,.8,4.94c-.1.23,0,.47,0,.71a12.35,12.35,0,0,1-2.83,7.43c-1.95,2.13-4.91,2.59-7.32,3a17.53,17.53,0,0,1-8.19-.22,4.53,4.53,0,0,1-2.47-3c-.28-.72-.26-1.52-.54-2.25-1.14-2.59-3-7-.82-9.89,1.39-1.75,2.78-2.71,3.22-5,.13-.55.38-1.08,1-1.13,2-.18,2.87-1.82,4.36-3.19C270,336.46,270.12,334.78,269.28,334.3Z"/><path class="cls-1" d="M268.6,374.54c-2,.17-2,1.17-2.12,2a47.86,47.86,0,0,1-2.75,5.74,4.32,4.32,0,0,0-.43,2.39,11.29,11.29,0,0,0,.17,1.6c0,1.18.08,2.35.16,3.51l.11,3.34c0,1,0,2-.06,3.06a35.44,35.44,0,0,1-.23,3.83c-.36,1.85-1.19,3.86.32,5.55.88,1,.5,2.17.64,3.27.23,1.85.54,3.68.83,5.53,0,.08-.05.19.21.2s.86-.11,1.31-.17,1.61-.51,1.67-.58c.91-1,1.33-1.85.84-2.5-.28-.37-.66-.73-.63-1.17.16-1.8-1.68-3.29-.61-5.22.08-.13-.1-.22-.11-.34a20.47,20.47,0,0,1-.21-4.07c.1-1.45,1.18-2.9,1.38-4.29a12.37,12.37,0,0,0-.43-4.69c-.2-.82.38-1.58.64-2.35.16-.44.58-.84.56-1.3-.1-1.73-1.69-3.83-.08-5.31,1-.89,1.89-1.7.94-3-.23-.33-.33-.64.06-.8,1.34-.55.67-1.65.25-2.74A3.29,3.29,0,0,0,268.6,374.54Z"/><path class="cls-2" d="M268.6,374.54c-2,.17-2,1.17-2.12,2a47.86,47.86,0,0,1-2.75,5.74,4.32,4.32,0,0,0-.43,2.39,11.29,11.29,0,0,0,.17,1.6c0,1.18.08,2.35.16,3.51s.08,2.24.11,3.34,0,2-.06,3.06a35.44,35.44,0,0,1-.23,3.83c-.36,1.85-1.19,3.86.32,5.55.88,1,.5,2.17.64,3.27.23,1.85.54,3.68.83,5.53,0,.08-.05.19.21.2s.86-.11,1.31-.17,1.61-.51,1.67-.58c.91-1,1.33-1.85.84-2.5-.28-.37-.66-.73-.63-1.17.16-1.8-1.68-3.29-.61-5.22.08-.13-.1-.22-.11-.34a20.47,20.47,0,0,1-.21-4.07c.1-1.45,1.18-2.9,1.38-4.29a12.37,12.37,0,0,0-.43-4.69c-.2-.82.38-1.58.64-2.35.16-.44.58-.84.56-1.3-.1-1.73-1.69-3.83-.08-5.31,1-.89,1.89-1.7.94-3-.23-.33-.33-.64.06-.8,1.34-.55.67-1.65.25-2.74A3.29,3.29,0,0,0,268.6,374.54Z"/><path class="cls-1" d="M275.84,390.86c-1.9-.25-1.8.48-1.9,1a21.61,21.61,0,0,1-2.35,3.51,1.88,1.88,0,0,0-.32,1.57,5.84,5.84,0,0,0,.24,1.06c.1.77.18,1.54.31,2.29l.27,2.15c.07.65,0,1.31.06,2a13.82,13.82,0,0,1-.09,2.48c-.28,1.22-1,2.7.53,3.56.89.51.56,1.33.74,2,.3,1.17.65,2.32,1,3.49,0,.05,0,.14.21.08s.81-.3,1.23-.46,1.51-.77,1.56-.83c.83-.89,1.23-1.52.75-1.8-.28-.16-.64-.29-.63-.57.13-1.14-1.7-1.7-.69-3.08.06-.08-.11-.11-.12-.18a7.54,7.54,0,0,1-.32-2.41c.05-.88,1.09-1.83,1.24-2.63a4.38,4.38,0,0,0-.62-2.7c-.23-.48.29-.92.53-1.35.14-.26.52-.47.48-.74-.19-1-1.88-2.4-.4-3.14.91-.43,1.71-.78.7-1.73-.25-.24-.36-.45,0-.49,1.26-.11.5-.89,0-1.66A5.6,5.6,0,0,0,275.84,390.86Z"/><path class="cls-2" d="M275.84,390.86c-1.9-.25-1.8.48-1.9,1a21.61,21.61,0,0,1-2.35,3.51,1.88,1.88,0,0,0-.32,1.57,5.84,5.84,0,0,0,.24,1.06c.1.77.18,1.54.31,2.29s.18,1.46.27,2.15,0,1.31.06,2a13.82,13.82,0,0,1-.09,2.48c-.28,1.22-1,2.7.53,3.56.89.51.56,1.33.74,2,.3,1.17.65,2.32,1,3.49,0,.05,0,.14.21.08s.81-.3,1.23-.46,1.51-.77,1.56-.83c.83-.89,1.23-1.52.75-1.8-.28-.16-.64-.29-.63-.57.13-1.14-1.7-1.7-.69-3.08.06-.08-.11-.11-.12-.18a7.54,7.54,0,0,1-.32-2.41c.05-.88,1.09-1.83,1.24-2.63a4.38,4.38,0,0,0-.62-2.7c-.23-.48.29-.92.53-1.35.14-.26.52-.47.48-.74-.19-1-1.88-2.4-.4-3.14.91-.43,1.71-.78.7-1.73-.25-.24-.36-.45,0-.49,1.26-.11.5-.89,0-1.66A5.6,5.6,0,0,0,275.84,390.86Z"/><path class="cls-1" d="M386.47,262c-2,2.11-1.07,2.68-.51,3.44.75,1,1.36,6.22,1.3,6.84-.13,1.56,2.37,3.49,2.43,3.56.79,1,1.62,2,2.37,3a35.37,35.37,0,0,1,2,3,23.17,23.17,0,0,1,1.42,3,16.42,16.42,0,0,1,1.23,4c.22,2.1-.44,4.51,2.1,5.59,1.54.66,1.07,2.12,1.47,3.23a38.86,38.86,0,0,1,1.33,5.58c0,.08-.09.2.3.17s1.28-.23,1.95-.35c.87-.29,2.42-.75,2.51-.84,1.36-1.26,2-2.42,1.22-3.12-.44-.4-1-.74-1-1.27,0-2.25-2.88-3.3-1.83-5.93.06-.18-.21-.21-.26-.34a37.08,37.08,0,0,1-1.65-4.49c-.37-1.68.45-3.89,0-5.56a9.75,9.75,0,0,0-3.17-4.69c-.76-.69-.48-1.88-.64-2.86-.09-.56.16-1.29-.18-1.73-1.32-1.69-4.82-2.26-4.05-5,.47-1.66.81-3.27-1.45-3.53-.56-.07-.94-.24-.64-.74,1-1.76-.78-2.05-2.29-2.48C389.49,260.3,387.2,261.21,386.47,262Z"/><path class="cls-2" d="M386.47,262c-2,2.11-1.07,2.68-.51,3.44.75,1,1.36,6.22,1.3,6.84-.13,1.56,2.37,3.49,2.43,3.56.79,1,1.62,2,2.37,3a35.37,35.37,0,0,1,2,3,23.17,23.17,0,0,1,1.42,3,16.42,16.42,0,0,1,1.23,4c.22,2.1-.44,4.51,2.1,5.59,1.54.66,1.07,2.12,1.47,3.23a38.86,38.86,0,0,1,1.33,5.58c0,.08-.09.2.3.17s1.28-.23,1.95-.35c.87-.29,2.42-.75,2.51-.84,1.36-1.26,2-2.42,1.22-3.12-.44-.4-1-.74-1-1.27,0-2.25-2.88-3.3-1.83-5.93.06-.18-.21-.21-.26-.34a37.08,37.08,0,0,1-1.65-4.49c-.37-1.68.45-3.89,0-5.56a9.75,9.75,0,0,0-3.17-4.69c-.76-.69-.48-1.88-.64-2.86-.09-.56.16-1.29-.18-1.73-1.32-1.69-4.82-2.26-4.05-5,.47-1.66.81-3.27-1.45-3.53-.56-.07-.94-.24-.64-.74,1-1.76-.78-2.05-2.29-2.48C389.49,260.3,387.2,261.21,386.47,262Z"/><path class="cls-1" d="M281.29,127.28c-.18-3.86-2.52-6.9-5.61-9.3a15.31,15.31,0,0,0-5.75-2.91,14.33,14.33,0,0,0-9.12,1,16.54,16.54,0,0,0-6.68,5.53,22.86,22.86,0,0,0-2.31,4.2,19.65,19.65,0,0,0-.92,11,24.64,24.64,0,0,0,2.24,6.56,27.65,27.65,0,0,0,9.92,11.32,70.51,70.51,0,0,0,12.25,6.2l2.91,1.21a8.88,8.88,0,0,0,3.91.71c3.11-.36,4.85-2.16,6.46-3.28a142.08,142.08,0,0,0,11.72-10.23c2.67-2.53,5.87-5.58,7.22-10a21.22,21.22,0,0,0,.9-6.16,30.7,30.7,0,0,0-.49-5.76c-.47-2.36-.81-5-2.2-7.46a11,11,0,0,0-6.43-5.13,13.8,13.8,0,0,0-6.51-.36,14.29,14.29,0,0,0-5.95,2.61,20.55,20.55,0,0,0-7.08,10l5.35-.35-.28-.6c-.13-.29-.21-.64-.56-.81a5.4,5.4,0,0,0-1.49-.05c-.47.42-1.37,1-1.35,1.24.06.63.14,1.25.24,1.87l.31,1.87,1.4-2c1.45-2,2.8-3.81,4.05-5.68a8.41,8.41,0,0,1,3.5-3.27,11,11,0,0,1,9.33,0,6.39,6.39,0,0,1,3.08,3.52,10.13,10.13,0,0,1,.3,5,9.85,9.85,0,0,0,.07,1.42,40.07,40.07,0,0,1-.68,8.19,14.9,14.9,0,0,1-3.79,6.74c-4,4.29-9.15,7.55-13.84,11a17,17,0,0,1-3.29,2.13,1.52,1.52,0,0,1-.81.1,7.94,7.94,0,0,1-1.67-.5c-3.08-1.21-6.17-2.33-9.09-3.62a21.75,21.75,0,0,1-7.38-5.81,35.24,35.24,0,0,1-2.79-4.21,23.33,23.33,0,0,1-3.82-9c-.55-3.27,0-7,2.24-9.35,2.72-2.85,5.77-3.82,9-5a2.45,2.45,0,0,1,2.47.37c1.14,1.09,2.22,2,3.51,3a45.17,45.17,0,0,1,4,3.66C279.46,128.66,281.36,128.72,281.29,127.28Z"/><path class="cls-2" d="M281.29,127.28c-.18-3.86-2.52-6.9-5.61-9.3a15.31,15.31,0,0,0-5.75-2.91,14.33,14.33,0,0,0-9.12,1,16.54,16.54,0,0,0-6.68,5.53,22.86,22.86,0,0,0-2.31,4.2,19.65,19.65,0,0,0-.92,11,24.64,24.64,0,0,0,2.24,6.56,27.65,27.65,0,0,0,9.92,11.32,70.51,70.51,0,0,0,12.25,6.2l2.91,1.21a8.88,8.88,0,0,0,3.91.71c3.11-.36,4.85-2.16,6.46-3.28a142.08,142.08,0,0,0,11.72-10.23c2.67-2.53,5.87-5.58,7.22-10a21.22,21.22,0,0,0,.9-6.16,30.7,30.7,0,0,0-.49-5.76c-.47-2.36-.81-5-2.2-7.46a11,11,0,0,0-6.43-5.13,13.8,13.8,0,0,0-6.51-.36,14.29,14.29,0,0,0-5.95,2.61,20.55,20.55,0,0,0-7.08,10l5.35-.35-.28-.6c-.13-.29-.21-.64-.56-.81a5.4,5.4,0,0,0-1.49-.05c-.47.42-1.37,1-1.35,1.24.06.63.14,1.25.24,1.87l.31,1.87,1.4-2c1.45-2,2.8-3.81,4.05-5.68a8.41,8.41,0,0,1,3.5-3.27,11,11,0,0,1,9.33,0,6.39,6.39,0,0,1,3.08,3.52,10.13,10.13,0,0,1,.3,5,9.85,9.85,0,0,0,.07,1.42,40.07,40.07,0,0,1-.68,8.19,14.9,14.9,0,0,1-3.79,6.74c-4,4.29-9.15,7.55-13.84,11a17,17,0,0,1-3.29,2.13,1.52,1.52,0,0,1-.81.1,7.94,7.94,0,0,1-1.67-.5c-3.08-1.21-6.17-2.33-9.09-3.62a21.75,21.75,0,0,1-7.38-5.81,35.24,35.24,0,0,1-2.79-4.21,23.33,23.33,0,0,1-3.82-9c-.55-3.27,0-7,2.24-9.35,2.72-2.85,5.77-3.82,9-5a2.45,2.45,0,0,1,2.47.37c1.14,1.09,2.22,2,3.51,3a45.17,45.17,0,0,1,4,3.66C279.46,128.66,281.36,128.72,281.29,127.28Z"/></svg>