<svg id="Layer_1" data-name="Layer 1" xmlns="http://www.w3.org/2000/svg" height="1024" width="1024" viewBox="0 0 500 500"><defs><style>.cls-1{fill:#658378;}</style></defs><path class="cls-1" d="M63.43,299.35a200.18,200.18,0,0,0-2,47.64c.13,1.36.29,3,.62,4.84q.12.71.3,1.47a17.26,17.26,0,0,0,.51,1.82,6.69,6.69,0,0,0,2.7,3.82,4.94,4.94,0,0,0,2.44.53l2.35-.05,3.64-.08,7.9-.11c11-.11,23.82-.09,36.23,0,24.83.19,48.14.64,52.73.77,22.92.65,71.8-.39,73.33-.41l64.43-.6c20.71-.22,41.41-.39,62.15-.88,4.81-.13,9.61-.27,14.47-.56l1.82-.11.48,0,.66-.09,1.34-.18c.89-.13,1.77-.2,2.68-.39l1.35-.28a2.93,2.93,0,0,0,.65-.17l0-.67c0-.9.13-1.76.12-2.7v-2.72l0-3.54,0-28.32V295.08a3.16,3.16,0,0,0-.44,0h-8.16l-8.92.07c-11.88.09-23.76.17-35.64.14-34.5-.08-69-1-103.48,1-20.69,1.19-41.37.62-62.06.76q-51.74.36-103.47,0a21.44,21.44,0,0,0-4.56.19,13.46,13.46,0,0,0-3.23,1.64c.83.76,1.54,2.1,2.5,2.19a336.9,336.9,0,0,0,43.59,1.7c8.43-.28,16.88-.68,25.3-.57,34.51.42,69-1.83,103.51-.58,2.29.08,4.6-.14,6.9-.16,26.82-.26,53.65-.69,80.46-.78,14.18-.05,28.34.17,42.5.4l10.62.18,5.3.08,1.33,0H387l.18,0,.42.06c.05,0,.13,0,.17,0l0,.22-.06.38-.09,4.85-.11,10.47q0,11.63,0,23.23l.07,9.8c.07.18-.07.16-.46.22l-2.4.16c-1,.07-1.9.13-2.88.17-15.51.73-31.25,1-46.92,1.45-16,.4-32.08-.23-48.13-.48-9.18-.15-18.37-.61-27.54-.53-35.28.3-70.51,2.6-105.73,1.09-21.41-.91-42.87-1.68-64.34.26a115.71,115.71,0,0,1-16,.55l-3.47-.14h-.22l-.08,0-.14,0A.28.28,0,0,1,69,353a.7.7,0,0,1-.08-.27v-.12a.92.92,0,0,0-.05-.29c-.2-.88-.35-1.89-.48-2.92-.49-4.15-.67-8.62-.87-13.05-.35-8.9-.59-17.92-.79-26.94-.12-5.68-.71-9.69-1.43-11.51S63.86,296.47,63.43,299.35Z"/><path class="cls-1" d="M114.77,425.46c-.14,2.33-.3,4.65-.6,7.09l-.12.93-.22,1.23a9.23,9.23,0,0,1-.51,1.48c-.1.24-.24.46-.35.7s-.37.36-.55.55a5.52,5.52,0,0,1-1.28.89,4.68,4.68,0,0,1-1.45.66,15,15,0,0,1-2.17.5,38.35,38.35,0,0,1-7.6.28c-1.25-.06-2.49-.18-3.74-.35a21.73,21.73,0,0,1-4-.91,8.41,8.41,0,0,1-2-1c-.29-.22-.55-.47-.83-.7a5.29,5.29,0,0,1-.48-.95,7.59,7.59,0,0,1-.56-2c-.1-.58-.13-.93-.2-1.41-.21-1.75-.33-3.45-.41-5.16-.46-12-.28-23.82-.16-35.7.06-5.27,0-10.57,0-15.8,0-6.72-.3-13.48.5-20.19.51-4.17,5.12,1.33,5,9-.19,13.63-.39,27.29-.84,41.07a250.76,250.76,0,0,0,.75,25.1c.08,1.06.25,2.48.29,2.66a.56.56,0,0,0,.35.47,3.38,3.38,0,0,0,.78.29,32.73,32.73,0,0,0,6.5.82,29.59,29.59,0,0,0,6.53-.41,4.4,4.4,0,0,0,.65-.16,1.69,1.69,0,0,0,.36-.12.85.85,0,0,0,.54-.49,5.92,5.92,0,0,0,.2-1c.07-.54.15-1.08.2-1.65.55-5.56.73-11.31.89-17,.21-8.64.37-17.33.27-25.92-.08-6.68-.48-13.22-.77-19.82-.06-1.45-.17-2.87-.21-4.34-.15-5.43.17-7.16,1.5-8.34a6.33,6.33,0,0,1,.91-.79c1-.53,1.93,1.67,2.28,5.65,1.05,11.8,1.29,24.26,1.29,36.79,0,9.31-.17,18.64-.6,28Z"/><path class="cls-1" d="M89.43,455c1.74,2.26,3.43,1.75,5.1,1.59,2.26-.24,11,1.07,11.93,1.38a7.4,7.4,0,0,0,2,.23l1.11,0s0-.06.06-.11a1.18,1.18,0,0,1,.6-.42l0,0a1.11,1.11,0,0,1,.39.5,3.86,3.86,0,0,1,.09.63l.08.79.12,1.6a43.54,43.54,0,0,1,0,6.05,2,2,0,0,1-.29,1.15,3.18,3.18,0,0,1-1.22.31,31,31,0,0,1-7.11.33c-1.76-.17-3.52-.56-5.22-.75a13.28,13.28,0,0,0-2.51-.08l-.27,0s0,0-.06.06l-.12.14a3.09,3.09,0,0,1-.47.42c-.42.33-1,.34-.92,0a1.9,1.9,0,0,1,.13-.74,1.9,1.9,0,0,0,.11-.4c0-.31.05-.62.06-.94.09-3.48.51-7,.72-10.66,0-.16.11-.34-.2-.49a11.6,11.6,0,0,0-1.66-.35,18.27,18.27,0,0,0-2.23.26c-1.42,1.46-2.22,2.91-1.85,4.42a6.18,6.18,0,0,1,.37,2.63,12.79,12.79,0,0,0,0,4l.24,2.3c.07.88.17,1.71.31,2.54a5.32,5.32,0,0,0,.22.78,4,4,0,0,0,.51.64,11,11,0,0,0,1.33,1c.28.17.7.07,1,.11s1,.14,1.5.18l.73.05.55,0,2.18,0c1.44,0,2.87,0,4.31.09,3,.12,6.14,1.3,9.47,1a11.78,11.78,0,0,0,4.34-1.28,3,3,0,0,0,.84-.7c.14-.11.2-.32.42-.37l.29-.45a4.53,4.53,0,0,0,.48-1,4.11,4.11,0,0,0,.32-1.08,14.35,14.35,0,0,0,.32-2.29,13.44,13.44,0,0,0,0-1.41c0-.88-.11-1.74-.22-2.59-.23-1.74.48-3.41.73-5.16a6.58,6.58,0,0,1,.14-.75,10.81,10.81,0,0,0,.15-1.28c0-.47.08-.95.09-1.42a10.11,10.11,0,0,0-.17-1.36,8.14,8.14,0,0,0-1.38-2.54,9.63,9.63,0,0,0-1.7-.85,6.26,6.26,0,0,0-2-.25c-.7,0-1.41.05-2.09.12s-1.42.13-1.72.19a8.4,8.4,0,0,1-4.75-.36c-2.28-.94-4.57-1.75-6.78-.12-.55.4-1.11.63-1.67.23-2-1.37-3.86-.1-5.72.89A2.8,2.8,0,0,0,89.43,455Z"/><path class="cls-1" d="M360.78,356.26c-1.66,3.73-1.27,7.44-1.15,11.17.17,5-.84,24.47-1,26.61-.48,5.32.58,16.67.61,17q.4,7.49,1,15c.19,2.41.39,4.83.7,7.29.08.61.16,1.23.27,1.87.05.32.11.62.19,1a5,5,0,0,0,.44,1.36,4.36,4.36,0,0,0,.72,1.21,5.57,5.57,0,0,0,1.18.8,6.06,6.06,0,0,0,1.29.57,9.08,9.08,0,0,0,1,.29,28.8,28.8,0,0,0,7.27.64,28.23,28.23,0,0,0,3.63-.31,16.09,16.09,0,0,0,1.86-.37,9.75,9.75,0,0,0,1-.3,5,5,0,0,0,1.15-.52,5.77,5.77,0,0,0,1.34-.94,5.59,5.59,0,0,0,.77-1.42,13.88,13.88,0,0,0,.59-2.51c.22-1.44.39-2.84.53-4.23l.78-8.32c.79-8,1.94-16,.8-24.07-.68-4.82-.06-9.61-.05-14.42,0-8,.11-16,0-24.08a1.66,1.66,0,0,0-.19-1.06,4.78,4.78,0,0,0-1.27-.7c-.57.21-1.58.41-1.65.63a26.56,26.56,0,0,0-1,10.12,37.13,37.13,0,0,1,.41,5.85c-.38,8,1.07,16-.25,24a10.69,10.69,0,0,0,0,1.6c-.11,6.21-.17,12.42-.61,18.6-.23,3.27-.71,6.52-1.26,9.73-.28,1.6-.58,3.19-.9,4.72-.16.75-.34,1.54-.52,2.12a.27.27,0,0,1-.21.13c.17-.06-.73.22-1.39.35s-1.54.23-2.36.29a33.94,33.94,0,0,1-4.94,0,17.28,17.28,0,0,1-2.3-.31c-.88-.23-.67-.11-.89-.2a.7.7,0,0,1-.13-.16.15.15,0,0,1,0-.07l-.08-.26-.12-.6c-.18-.81-.33-1.68-.46-2.55-.57-3.59-.23-7.33-.18-11,0-2.11.32-4.24.19-6.36-.47-8.13-2.37-16.28-1.24-24.45.7-5,1.32-9.93.09-14.9a7.66,7.66,0,0,1-.18-3.71c1-4.28.09-8.54-.7-12.77C363,355.9,361.4,354.88,360.78,356.26Z"/><path class="cls-1" d="M374.61,437.84c0,.13,0,.27,0,.41.05.29.14.58.18.87s-.05.37,0,.55a.52.52,0,0,0,.13.34c.16.19,0,.39,0,.59s.26.27.27.41.1.19-.1.3,0,.23.07.34.22.16.09.26.1.08.1.12a5.06,5.06,0,0,0,0,.55,1.78,1.78,0,0,0,.17.41c0,.1,0,6,0,6.25,0,.05.38.32.13.43s-.1.09-.05.12a.28.28,0,0,1,.08.42c-.12.2,0,.39-.05.59s-.14.56-.2.84a1.24,1.24,0,0,0-.05.6c.07.2.32.39.43.58a1.21,1.21,0,0,1,.05.46,4.5,4.5,0,0,1,.07.63,19.58,19.58,0,0,1-4,0c-.07,0-.26-.07-.22-.1s-.11-.11-.27-.16-.12-.12-.14-.19-.18-.21-.06-.33c.28-.27.09-1.14.12-1.32s-.83-10.79-.83-11-.05-.48-.09-.72-.23-1.41-.25-1.93a.8.8,0,0,1,.06-.4c0-.05.14-.09.31-.13a7.26,7.26,0,0,1,1.62,0,10.76,10.76,0,0,1,2.27.26s0,0,0,0Z"/><path class="cls-1" d="M306.71,383.3a3,3,0,0,0,0,.42c0,.29.14.58.17.87a5.21,5.21,0,0,1,0,.55.54.54,0,0,0,.13.34c.16.19,0,.39,0,.59s.27.27.28.41.1.19-.11.3,0,.23.08.34.22.16.09.26.1.08.1.12a4.87,4.87,0,0,0,0,.54,2.53,2.53,0,0,0,.18.42c0,.1.05,6,.05,6.25,0,.05.38.31.12.43-.1,0-.09.08,0,.12a.28.28,0,0,1,.07.42c-.11.2,0,.39,0,.58s-.14.57-.2.85a1.23,1.23,0,0,0-.05.6c.06.2.32.38.42.58a1,1,0,0,1,.06.46c0,.21.06.42.07.63a19.65,19.65,0,0,1-4-.05c-.07,0-.26-.06-.23-.1s-.1-.1-.27-.15-.11-.13-.13-.19-.18-.22-.06-.33c.28-.28.09-1.15.11-1.32s-.82-10.8-.82-11-.05-.48-.09-.72-.24-1.41-.26-1.93a1,1,0,0,1,.07-.41s.13-.09.31-.12a7.17,7.17,0,0,1,1.61,0,10.79,10.79,0,0,1,2.28.26s0,0,0,0Z"/><path class="cls-1" d="M103.25,437.84a2.84,2.84,0,0,0,0,.41c0,.29.14.58.17.87a5.07,5.07,0,0,1,0,.55.52.52,0,0,0,.13.34c.16.19,0,.39,0,.59s.26.27.27.41.1.19-.1.3,0,.23.07.34.22.16.09.26.1.08.1.12a3.37,3.37,0,0,0,0,.55,1.78,1.78,0,0,0,.17.41c0,.1,0,6,0,6.25,0,.05.38.32.13.43s-.1.09,0,.12a.29.29,0,0,1,.08.42c-.12.2,0,.39,0,.59s-.14.56-.2.84a1.24,1.24,0,0,0,0,.6c.07.2.32.39.42.58a1,1,0,0,1,.06.46c0,.21.06.42.07.63a19.58,19.58,0,0,1-4,0c-.07,0-.26-.07-.23-.1s-.1-.11-.27-.16-.11-.12-.13-.19-.18-.21-.06-.33c.28-.27.09-1.14.12-1.32s-.83-10.79-.83-11,0-.48-.09-.72a18,18,0,0,1-.25-1.93.8.8,0,0,1,.06-.4c0-.05.14-.09.31-.13a7.26,7.26,0,0,1,1.62,0,10.76,10.76,0,0,1,2.27.26s0,0,0,0Z"/><path class="cls-1" d="M360.59,456.66c1.67,1.69,3.31,1.22,4.88,1a77.39,77.39,0,0,1,11.25.28,10.23,10.23,0,0,0,2,.07l1.08-.07.51,0c.18,0,.36,0,.29-.05.08-.18.45-.27.44-.23a1,1,0,0,1,.19.21s0,0,.05.12l.09.32c.06.22.1.46.16.69.2.93.34,1.92.45,2.9s.17,1.91.2,2.85c0,.48,0,.95,0,1.41s-.06,1-.08,1.21c-.05.33-.09.86-.54.91l-.28.07-.4.09c-.42.09-.87.16-1.31.23a33.85,33.85,0,0,1-6.75.52c-3.26-.2-6.57-1.09-9-.65-.21,0-.22.09-.34.08a.52.52,0,0,1-.28-.06c-.18-.15-.16-.15-.3-.55a9,9,0,0,1-.2-2.29c-.11-2.87.87-6.05,1.15-9.77,0-.18.09-.36-.15-.52a6.78,6.78,0,0,0-1.24-.34,13.2,13.2,0,0,0-1.67.26c-1.07,1.35-1.8,2.56-1.66,4a7.44,7.44,0,0,1,0,2.49,11.61,11.61,0,0,0,.1,5.3,12.89,12.89,0,0,0,.93,2.72,5.78,5.78,0,0,0,2.3,2.48c.24.17.55.11.79.17,2.92.75,5.61.59,8.34.69s5.81.78,8.77.45c.41-.05.82-.11,1.24-.19l.64-.13,1.08-.27a6.79,6.79,0,0,0,1.94-.91,10.83,10.83,0,0,0,1.2-1.69,10.3,10.3,0,0,0,.51-2.09,10.7,10.7,0,0,0,.07-1.48,20.25,20.25,0,0,0-.19-2.49c-.21-1.64.22-3.26.27-5,0-.48.06-1,.09-1.48a5,5,0,0,0-.2-1.88,4.86,4.86,0,0,0-2.79-3.58,7,7,0,0,0-2.32-.3,10.47,10.47,0,0,0-1.14.06l-.72.11a12.29,12.29,0,0,1-5.39.12c-2.19-.57-4.37-1-6.36.35a1.5,1.5,0,0,1-1.54.28c-1.89-.91-3.56.15-5.25.93C360.46,454.53,360,456,360.59,456.66Z"/><path class="cls-1" d="M292.7,356.83c-1.63,1.62-1.12,3.12-.87,4.59.3,2,.28,9.88.23,10.76-.19,2.19,1.43,6.54,1.47,6.68l.74,2.77c.07.26.16.54.26.84a9.94,9.94,0,0,0,.45,1.07,5.44,5.44,0,0,0,1.51,1.82,5.21,5.21,0,0,0,.55.36,6.09,6.09,0,0,0,2.31.71,13.59,13.59,0,0,0,1.77,0l2.91-.09c1.81,0,3.59,0,5.4.07a6.61,6.61,0,0,0,4.52-1.19c1.44-1.11,1.88-3.38,2.12-4.31.86-3.1,2.3-6.13,1.53-9.44-.45-2,.42-3.8.71-5.69.49-3.15,1.13-6.28,1.7-9.42,0-.14.13-.28-.09-.44a7.38,7.38,0,0,0-1.19-.45,10.9,10.9,0,0,0-1.69,0,4.84,4.84,0,0,0-1.88,3.81,6.24,6.24,0,0,1,0,2.36c-.93,3.09.06,6.44-1.62,9.43-.11.2,0,.43,0,.64-.39,2.45-.67,4.91-1.22,7.34a11.32,11.32,0,0,1-.69,2.15.86.86,0,0,1-.8.49.85.85,0,0,1-.43-.17c-.08,0,0-.08-.22-.1l-.6-.07a38.47,38.47,0,0,0-8.77.42,1.45,1.45,0,0,1-.79,0,.41.41,0,0,1-.19-.3.66.66,0,0,1,.08-.37,4.74,4.74,0,0,0,0-1.93c-.83-3.13-3.15-6.05-2.43-9.43.43-2.05.81-4.07-.63-5.86a1.29,1.29,0,0,1-.33-1.43c.88-1.79-.22-3.32-1.08-4.91A2,2,0,0,0,292.7,356.83Z"/><path class="cls-1" d="M293.34,398.43c.68,0,1.37,0,2.05-.06l4.24-.29c.89-.05,1.78,0,2.66,0a9.35,9.35,0,0,0,1.67-.16,19.21,19.21,0,0,1,2.84-.06c.7,0,1.39-.26,2.09-.27a3,3,0,0,1,1.39.12,3,3,0,0,0,1.69,0,2.6,2.6,0,0,1,1.3,0c.2.08.44-.07.66-.06.9,0,1.81.16,2.8.29a6.48,6.48,0,0,1,3.19,1.08,4.74,4.74,0,0,1,1.29,2.18,10.91,10.91,0,0,1,.34,1.9c.06.64.08,1.31.08,2,0,1.42-.11,3-.19,4.61l0,.62,0,1.23a1.49,1.49,0,0,1-.08.57c-.08.16-.05.38-.22.49a1.76,1.76,0,0,1-.65.92,5.77,5.77,0,0,1-2.19,1.08c-.48.13-.7.18-.94.23l-.73.15a100.4,100.4,0,0,1-15.35,1c-.23,0-1.61.35-2.06.08a.79.79,0,0,0-.6-.07,4.9,4.9,0,0,1-2.05-.07c-.53-.11-.85-.14-1.6-.24a4.5,4.5,0,0,1-2.23-.81c-.17-.13-.35-.28-.51-.42a7.77,7.77,0,0,1-.57-1.37,11.86,11.86,0,0,1-.19-1.47c0-.64,0-1.24,0-1.83,0-.95.1-1.87,0-2.8s-.29-1.8-.36-2.7a20,20,0,0,1,0-2l0-2.7c0-.39,3.62-.56,3.95.33.06.17.25.35.21.51a1.13,1.13,0,0,0,.24.78,1.86,1.86,0,0,1,.1,1,5.94,5.94,0,0,1,0,1.63,35.71,35.71,0,0,0-.18,6.16l0,.53.06.81a.64.64,0,0,0,0,.23.26.26,0,0,0,.14.07h.06l.26,0,1,.1c1.5.11,3.53.14,5.84.09s4.94-.18,7.65-.42c1.36-.13,2.74-.29,4.09-.5.67-.11,1.34-.24,1.94-.39.16-.05.2-.05.27-.13,0,.41.05-1.83.1-3a27.35,27.35,0,0,0-.06-3.78,7.07,7.07,0,0,0-.11-.75.92.92,0,0,0-.07-.23.18.18,0,0,0-.16-.11,4.4,4.4,0,0,0-.55-.1l-.77-.1c-.52-.05-1-.08-1.55-.11-4.11-.16-7,0-7.2,0l-3.31.14c-.66,0-6.47.4-8.76.48a15.83,15.83,0,0,1-1.82,0,1,1,0,0,1-.57-.3,1.71,1.71,0,0,1-.18-1.59c.32-1.11.77-2.15,1.27-2.26h.22Z"/><path class="cls-1" d="M392.92,303.68c1.79-3.26,1.46-6.6,1.38-9.9-.08-4.43.85-21.72,1-23.62.45-4.73-.65-14.76-.67-15.08l-.87-13.23-.42-6.39-.21-3.21-.06-.8a6.32,6.32,0,0,0-.13-1.15l-.44-2.37-.19-.65-.13-.18-.06-.09c-.13.08-.1,0-.16,0l-.44-.18a6.24,6.24,0,0,0-.92-.29,7.08,7.08,0,0,0-2.16-.21l-3.2,0-5.76.09c-5,.07-9.92.25-14.88.13-7.21-.17-14.42-.91-21.57.51-4.29.85-8.61.38-12.92.46-7.17.12-14.36.08-21.49-.09a1.32,1.32,0,0,0-.95.14,5.19,5.19,0,0,0-.68,1.22c.16.58.3,1.58.5,1.65a20.2,20.2,0,0,0,9.1,1.3,32.37,32.37,0,0,1,5.28-.4c7.22.35,14.38-1.28,21.6-.27a8.73,8.73,0,0,0,1.44-.11c5.59-.13,11.18-.38,16.78-.37,5.91,0,11.84.86,17.74.88,1.94,0,3.88,0,5.8-.06l1.44,0c.41,0,1.17,0,1,0,.06,0,.19-.09.28-.06a.94.94,0,0,1,.11.18l0,.05a.73.73,0,0,1,0,.25l.11,1,.43,3.88c.38,3.26,0,6.57-.1,9.87,0,1.88-.34,3.77-.22,5.65.46,7.23,2.42,14.42,1.32,21.67-.68,4.4-1.28,8.8-.06,13.19a6,6,0,0,1,.17,3.27c-1.08,3.78-.15,7.53.51,11.27C390.73,303.91,392.26,304.88,392.92,303.68Z"/><path class="cls-1" d="M200.28,228.51c-3.93-1.75-7.91-1.47-11.88-1.45-5.31,0-26.08-1.51-28.36-1.76-5.66-.63-17.78,0-18.16,0l-16,.31c-5.14.1-10.27.21-15.44.4l-3.61.18-1.84.14a14.65,14.65,0,0,0-2.69.44,3.06,3.06,0,0,0-1.13.55,1.65,1.65,0,0,0-.74,1,7.19,7.19,0,0,0-.33,1.23l-.07,1.37c0,1.08,0,1.47.07,2.12l.11,1.79c.43,5.83,1,11.55,1,17.28a118,118,0,0,1-.71,12.29,60.66,60.66,0,0,1-2,11.26,17.28,17.28,0,0,1-3.83,5.87,44.3,44.3,0,0,1-5.56,4.53c-6.61,4.63-14.55,7.43-22.6,9.36a1.71,1.71,0,0,0-1,.41,4.82,4.82,0,0,0-.47,1.38c.33.5.74,1.44,1,1.45a22.91,22.91,0,0,0,10.81-1.88c1.93-.91,3.8-1.93,5.76-2.74a38,38,0,0,0,11-7,59.41,59.41,0,0,0,8.72-9.87,7.63,7.63,0,0,0,.68-1.71,36,36,0,0,0,2-10c.29-3.34.34-6.66.35-10,0-7,.35-14.05,0-20.87l-.13-2.77v-.28h0v-.12s.09,0,.14-.07l.43,0,.68-.06,1.4-.12,11.5-.74c4-.25,7.92.26,11.88.48,2.27.13,4.53.49,6.8.46,8.72-.15,17.47-1.77,26.16-.4,5.28.83,10.57,1.59,15.91.51a8.83,8.83,0,0,1,4-.07c4.54,1.15,9.1.31,13.64-.34C200.6,230.67,201.74,229.15,200.28,228.51Z"/><path class="cls-1" d="M114.19,230.15c13-5.81,23.86-14.63,35-23,14.86-11.24,74.47-53.32,81.08-57.8,16.47-11.21,49.63-37.63,50.69-38.43,14.8-11.3,29.57-22.64,44.45-33.84L347,60.94l10.84-8c3.63-2.7,7.52-5.27,10.87-9.44.38-.5.73-1.06,1.09-1.59s.64-1.21.92-1.86a9.46,9.46,0,0,0-.88-8.84,11.22,11.22,0,0,0-3.1-3.2,12,12,0,0,0-8.27-1.66,25.1,25.1,0,0,0-6.9,2A61.68,61.68,0,0,0,340.13,35L330,42.31c-16.77,12-33.4,24.22-50.3,36.05-24.53,17.19-49.6,33.73-72.31,53.31-13.62,11.76-28.55,21.79-42.81,32.71-10.82,8.28-21.65,16.55-32.37,25-5.39,4.18-10.7,8.5-16,12.81-2.66,2.15-5.26,4.46-7.89,6.68l-2,1.69-2.11,2c-2.19,2.14-4.48,4.28-6.57,6.4,1.73,1.8,3.67,3.63,5.21,5.49l3,3.66a12.28,12.28,0,0,0,3,3,9.5,9.5,0,0,0,3.84.74c-.12-1.31.61-2.92.13-3.58-1.23-1.67-2.32-3.46-3.47-5.25l-.84-1.32-.57-1c-.37-.61-.72-1.16-1.07-1.63,0,0-.06-.06,0-.09l.11-.08.22-.17.43-.33.81-.61.75-.57.37-.29.58-.49c1.5-1.33,3.23-2.57,4.8-3.9s3.18-2.64,4.75-4,3.19-2.7,4.75-4.09c5.39-4.89,10.87-9.75,16.68-14.16,23.94-17.89,46.34-37.85,71.5-54.2,1.67-1.08,3.13-2.48,4.73-3.67,18.64-13.91,37.27-27.85,56.18-41.4,20-14.31,40.85-27.41,60.95-41.59l8.33-5.91a91.16,91.16,0,0,1,8.05-5.39,29.41,29.41,0,0,1,7.81-3.36,6.92,6.92,0,0,1,2.7-.11,2,2,0,0,1,1.22.76c.4.65.41.72.41,1.06a5.14,5.14,0,0,1-1.15,2.2,38.32,38.32,0,0,1-6.6,6c-5.38,4-10.86,8.22-16.26,12.36-11,8.52-22.74,16.12-34.14,24.15-6.52,4.6-13.28,8.87-19.61,13.71-24.34,18.58-47,39.21-72.74,55.87-15.63,10.13-31.2,20.37-44.93,33.05a63.55,63.55,0,0,1-11,8.46c-13.91,8.11-25.76,18.82-37.82,29.12C111.14,228,109.39,232.27,114.19,230.15Z"/><path class="cls-1" d="M250.9,132.57c2.55.26,3.82-.92,5.5-1.84a30.9,30.9,0,0,1,6.91-2.32,51.74,51.74,0,0,1,6.19-1.1c2.73-.24,8.26-2.23,8.46-2.24,2.5-.62,5-1.22,7.58-1.68s4.93-.82,7.42-1.08c2.31-.24,4.63-.37,6.94-.4a63.42,63.42,0,0,1,8.61.24c4.17.49,8.15,1.71,12.36,1,2.54-.38,4.91.58,7.25,1.17a33.44,33.44,0,0,1,5.65,1.88,17.2,17.2,0,0,1,4.67,2.81c.11.1.17.25.44.16a11.66,11.66,0,0,0,1.11-.68c.34-.46,1-1.24.93-1.37a6.07,6.07,0,0,0-4-4.08,18.12,18.12,0,0,1-3.14-.89c-4.05-1.87-8.54-1.26-12.59-3-.27-.12-.58,0-.86,0-3.31-.45-6.63-.57-10-.88-3.49-.34-7-1.34-10.58-1.41a47.88,47.88,0,0,0-11.67,1.38,35.24,35.24,0,0,1-6,.34,19.92,19.92,0,0,0-3.46.17c-4.35,1-8.2,3.68-12.75,3.74-2.77,0-5.65.3-7.76,2.43a2.63,2.63,0,0,1-1.82.94c-2.63,0-4.43,2-6,3.89C249.39,131,249.94,132.48,250.9,132.57Z"/><path class="cls-1" d="M359.38,134.68a35,35,0,0,0,3.31,2.66,28.58,28.58,0,0,1,3.07,2.49,13.47,13.47,0,0,1,2.33,3.59,20.29,20.29,0,0,1,1.6,5.91,28,28,0,0,1,.06,5.84,12.48,12.48,0,0,1-.58,2.89,37.24,37.24,0,0,1-2.8,6.59,43.21,43.21,0,0,1-2.67,4.16c-.59.74-1.21,1.46-1.85,2.18l-1,1.08-.71.73-.94.94c-1.26,1.22-2.5,2.54-2.74,3.59a2.39,2.39,0,0,0,0,1.56c-.14.34.21.46.33.66a6.51,6.51,0,0,0,.61.54,13.85,13.85,0,0,0,4.25,1.4l3.58.78c1.91.4,3.8.83,5.68,1.31a96,96,0,0,1,10.21,3.2,52.18,52.18,0,0,1,11.62,5.81,30.4,30.4,0,0,1,6.37,6.16,25.75,25.75,0,0,1,3.75,7.08c1.18,3.52.32,7.19-.83,10.36-1.87,5.36-6.95,9.41-12.3,10.81-.21,0-.49,0-.6.29s-.13.83-.25,1.28c.16.55.41,1.53.62,1.57a10.31,10.31,0,0,0,8.37-2.32c1.32-1.11,2.36-2.46,3.59-3.61a16.83,16.83,0,0,0,4.58-9.09,90.77,90.77,0,0,0,.85-10.06,7.49,7.49,0,0,0-.33-1.38,17.76,17.76,0,0,0-3.55-7.31,32.74,32.74,0,0,0-5.76-5.53c-4.4-3.38-9-6.64-14.19-8.74a78.53,78.53,0,0,0-17.59-4.55l-1-.17a1.5,1.5,0,0,1-.29-.06,1.26,1.26,0,0,1-.42-.22c-.07-.1-.19-.14-.05-.3a2.86,2.86,0,0,1,.5-.27.63.63,0,0,1,.42,0c-.09.14.38-.26.71-.55s.66-.62,1-.95a33.8,33.8,0,0,0,5.68-9,46.12,46.12,0,0,0,3.09-10.47,22,22,0,0,0,.33-6.55,12.11,12.11,0,0,0-2.49-6.26,8.51,8.51,0,0,1-1.68-2.91c-1.19-3.93-5.28-6.45-9.27-7.07a3.14,3.14,0,0,0-2.68.58A.9.9,0,0,0,359.38,134.68Z"/><path class="cls-1" d="M403.51,205.08c-1,3.23-.5,6.39-.13,9.6.51,4.29.06,21.28-.13,23.14-.35,4.64.78,14.48.79,14.8l.79,13c.22,4.18.41,8.36.52,12.55q.16,5.81.15,11.62c0,4.8.06,9.61-.19,14.41-.18,3.49-.52,7-.66,10.46A62.63,62.63,0,0,0,405,325c.48,4.19-.48,8.25-1.33,12.12a28.23,28.23,0,0,1-3.57,9,28.61,28.61,0,0,1-6.52,7.08c-.23.18-.52.32-.57.67a5.29,5.29,0,0,0,.29,1.36c.48.35,1.22,1,1.42,1a13.36,13.36,0,0,0,7.36-5.57c.93-1.58,1.65-3.22,2.52-4.78a27,27,0,0,0,3-10.36,90.4,90.4,0,0,1,1.48-10.51,7.35,7.35,0,0,0,0-1.41c.14-5.55,0-10.91.19-16.36.17-5.74,1.18-11.47,1.3-17.22a166.64,166.64,0,0,0-.81-19.07,75.64,75.64,0,0,1,.24-9.75c.07-1.86.36-3.73.25-5.59-.44-7.14-2.46-14.21-1.51-21.38.58-4.37,1.05-8.75-.37-13.05a6,6,0,0,1-.34-3.24c.84-3.82-.32-7.51-1.58-11.23a5.66,5.66,0,0,0-.78-1.46,2.44,2.44,0,0,0-1-.78A.9.9,0,0,0,403.51,205.08Z"/><path class="cls-1" d="M360.31,227.56a14.25,14.25,0,0,0,2.53-7.58,16.41,16.41,0,0,0-1.83-8.37,12.82,12.82,0,0,0-2.52-3.39,13.84,13.84,0,0,0-2.2-1.7l-1.88-1.29a19,19,0,0,1-6.24-7.43c-1.32-3-1.64-6.38-2.61-9.73a17,17,0,0,0-3.43-6.61,18.86,18.86,0,0,0-6.34-4.91,31.4,31.4,0,0,0-8-2.66,58.85,58.85,0,0,0-9.53-1l-10.14-.47L298,171.81c-6.5-.41-13-.81-19.55-1.13-6.05-.3-12.12-.56-18.24-.56a105.78,105.78,0,0,0-11.47.58c-1.92.14-3.88.54-5.84.87l-3,.74c-1,.28-1.92.69-2.89,1a93.87,93.87,0,0,0-15,7.74,69.45,69.45,0,0,0-12.79,10.21c-4.55,4.74-10.12,8.15-15.14,12.26q-12.58,10.22-25,20.58c-.36.31-.82.56-.94,1.08a6.06,6.06,0,0,0,.33,1.89c.7.4,1.77,1.26,2.06,1.14A35.54,35.54,0,0,0,182,220.68a51.42,51.42,0,0,1,5.72-5.43c8.62-6.43,15.7-14.77,25.25-20a15.37,15.37,0,0,0,1.65-1.37c6.67-5,13.39-10,20.64-13.78l2.91-1.35c1-.37,1.95-.67,2.91-1s2-.39,3-.59,2.08-.19,3.1-.29c4.21-.22,8.5-.09,12.84,0l29.19.64c5,.09,10,1.2,15,1.89,2.86.39,5.71,1.1,8.64,1.22s5.39.08,8.05.2a42.78,42.78,0,0,1,7.66.92,17.2,17.2,0,0,1,6.67,2.85,9.18,9.18,0,0,1,2.32,2.43,8,8,0,0,1,1.12,3c.51,2.76.57,6.4,2.15,10.13a17.85,17.85,0,0,0,3.21,5.12,17.16,17.16,0,0,0,4.71,3.57,18.13,18.13,0,0,1,4.65,2.94,14.12,14.12,0,0,1,1.39,2.22,18.89,18.89,0,0,1,1.15,2.66A28.94,28.94,0,0,1,357.3,224C357.46,227.37,359.09,229.23,360.31,227.56Z"/><path class="cls-1" d="M246.61,130.15c-2.33.8-1.89,1.68-1.79,2.55.13,1.16-1.46,5.67-1.74,6.16-.71,1.24.44,3.89.45,4,.22,1.16.48,2.32.67,3.48s.34,2.23.42,3.34a24.68,24.68,0,0,1,0,3.1,18.06,18.06,0,0,1-.39,3.86c-.52,1.86-1.8,3.77-.11,5.6,1,1.09.24,2.23.26,3.35,0,1.87-.15,3.75-.2,5.64,0,.08-.1.18.22.24s1.09.05,1.67.08c.76-.09,2.12-.21,2.21-.26,1.37-.85,2.09-1.66,1.63-2.42-.26-.43-.64-.87-.5-1.33.55-1.86-1.46-3.64.15-5.53.1-.13-.1-.25-.1-.37a26.87,26.87,0,0,1,.12-4.3c.24-1.53,1.64-3.05,1.87-4.57a9.69,9.69,0,0,0-.75-5c-.33-.86.32-1.72.57-2.58.14-.49.6-1,.5-1.46-.36-1.89-2.77-3.8-1.13-5.66,1-1.13,1.89-2.26.31-3.43-.38-.29-.6-.59-.18-.86,1.47-1,.26-2-.68-3A4.55,4.55,0,0,0,246.61,130.15Z"/><path class="cls-1" d="M356.86,178.42c-1.75.68-1.42,1.41-1.35,2.13.1,1-1.12,4.73-1.33,5.15-.53,1,.32,3.25.33,3.32.17,1,.33,1.94.5,2.91s.25,1.87.31,2.8a20.51,20.51,0,0,1,0,2.6,16,16,0,0,1-.27,3.22c-.38,1.57-1.32,3.17,0,4.69.77.91.21,1.86.22,2.8,0,1.56-.07,3.12-.1,4.69,0,.07-.08.15.16.2s.82,0,1.26.07,1.59-.16,1.66-.2c1-.71,1.55-1.39,1.2-2-.2-.37-.48-.73-.39-1.12.4-1.56-1.12-3,.07-4.63.08-.11-.08-.21-.08-.31a24,24,0,0,1,.06-3.6c.17-1.27,1.21-2.55,1.38-3.81a9,9,0,0,0-.57-4.2c-.25-.72.24-1.43.42-2.15.11-.41.45-.82.39-1.23-.27-1.57-2.07-3.17-.84-4.73.76-.94,1.43-1.88.25-2.87-.29-.24-.44-.49-.13-.72,1.11-.8.2-1.64-.5-2.48A3.15,3.15,0,0,0,356.86,178.42Z"/><path class="cls-1" d="M202,259.73c1.74-6.52,1.44-13.08,1.43-19.64,0-4.37.38-15.15,1-25.23l.28-3.71.16-1.8.09-.87a.87.87,0,0,1,0-.25l0-.12c.07-.25.08-.49.36-.39l.28,0h1.4c3.91,0,6.81.13,7.76.16,9.48.38,29.72-.55,30.36-.56l26.68-.5c8.57-.1,17.15-.19,25.7-.09l3,.06,1,0,.61,0a.76.76,0,0,1,.3,0,1.36,1.36,0,0,1,.06.29l.05.6.13,2.49c.17,3.89.27,7.79.35,11.7.17,9.68.35,19.39,0,29l-.2,4.14-.07,1,0,.51,0,.13a1.76,1.76,0,0,1-.12.44c-.09.11-.32,0-.45,0a1.42,1.42,0,0,0-.26,0l-1,0-4.25,0-8.56.05c-5.72.07-11.44.28-17.16.82-8.56.82-17.14.28-25.7.29-14.29,0-28.6-.13-42.85-.39a5.11,5.11,0,0,0-1.88.12c-.5.19-.9.79-1.35,1.2.32.58.59,1.59,1,1.67a76.75,76.75,0,0,0,18.07,1.42c3.49-.17,7-.43,10.49-.32,14.3.46,28.6-1.05,42.91,0,.95.07,1.9-.09,2.86-.1l15.46-.23,7.74-.18,3.9-.13c.52,0,1.58-.07,2.5-.17a4.28,4.28,0,0,0,1.29-.3l.55-.24c.1,0,.16-.13.3-.13l.17-.25a10.06,10.06,0,0,0,.6-3.32q.42-8.76.83-17.53c.25-5.8.46-11.6.41-17.41q0-4.83-.22-9.66c-.07-1.66-.14-3.13-.26-5,0-.77-.14-1.53-.2-2.29a9,9,0,0,0-.73-1.86c-.16-.69-.94-.76-1.49-1a3.32,3.32,0,0,0-.95-.32l-1.13-.12-1.13-.12c-.18,0-.39,0-.57,0h-.35l-1.24,0h-2.46l-4.9,0-9.78.22c-6.65.2-13.32-.3-20-.48-3.81-.11-7.62-.44-11.43-.37-14.64.31-29.2,2.13-43.86,1.21l-1.68-.09a8.14,8.14,0,0,0-1.23,0l-1.48.06a5.4,5.4,0,0,0-1.33.28,3.47,3.47,0,0,0-.62.2l-.29.12c0,.15-.11.2-.16.3a4.81,4.81,0,0,0-1.13,2.4,14.3,14.3,0,0,0-.23,1.46l-.15,1.13L199,210c-.12,1.11-.21,2.21-.29,3.32a73.82,73.82,0,0,0,.25,13.21,24.21,24.21,0,0,1,0,6.53c-1.21,7.52-.36,15,.33,22.52C199.77,260.29,201.32,262.14,202,259.73Z"/><path class="cls-1" d="M215.25,258.09c1.89-3.22,1.53-6.59,1.41-9.87-.11-4.42.35-21.62.53-23.46.1-1.16.1-2.65.08-4.18v-.15h0l0,0s0-.08,0-.11.06,0,.18-.07a2.08,2.08,0,0,1,.52-.06l1.84-.14,1.83-.14,13.32-.47c4.28-.12,8.57-.21,12.85-.23,4,0,7.93,0,11.9.12,4.91.12,9.83.18,14.73.56l10.64,1,2.63.18.61,0h.06l.13,0c.13-.06.17,0,.28.12.08-.21.29,1.08.47,1.82.92,4.11.33,8.35.3,12.54-.05,7-.35,14.05-.68,21a1.22,1.22,0,0,0,.12.93,5,5,0,0,0,1.22.7c.58-.15,1.61-.26,1.69-.45a19.53,19.53,0,0,0,1.55-8.87,30.88,30.88,0,0,1-.25-5.17c.55-7.07-.83-14.07.11-21.21a7.72,7.72,0,0,0-.15-1.43,11.45,11.45,0,0,0-.44-2.82c-.09-.21-.17-.42-.27-.61s-.2-.44-.45-.48a7.56,7.56,0,0,0-1.3-.39l-1.46-.19-1.25-.08-2.1-.1-8.35-.39c-5.87-.34-11.71-1.47-17.59-1.72a177,177,0,0,0-19.54.35c-3.32.23-6.65-.27-10-.46-1.91-.11-3.81-.45-5.72-.37s-3.66.23-5.49.43l-1.37.15-2.05.18a12.55,12.55,0,0,0-2.11.44c-.3.11-.61.2-.89.33l-.16.13-.05,0c.08.1,0,.06,0,.09l-.06.11-.22.42c-.65,1-.54,2.7-.51,4.14l.12,2.81a34.06,34.06,0,0,1-.26,5.43c-.58,4.4-1.06,8.78.25,13.1a5.76,5.76,0,0,1,.23,3.23c-1,3.76,0,7.44.59,11.13C213.07,258.24,214.54,259.27,215.25,258.09Z"/><path class="cls-1" d="M253.79,173.25c-1.52-.23-2.16.58-2.91,1.27a61.21,61.21,0,0,1-6.11,4,16.11,16.11,0,0,0-3.41,3.14l-2.9,2.86c-.94.91-1.89,1.8-2.87,2.67s-1.83,1.58-2.77,2.33c-1.18.93-2.32,1.9-3.59,2.72-1.84,1.19-3.94,2.08-5.09,4.08-.69,1.2-1.95,1.73-3,2.54-1.7,1.36-3.46,2.65-5.19,4-.08.06-.19.08-.16.26a4.82,4.82,0,0,0,.38.76,5.74,5.74,0,0,0,.83.74,3.39,3.39,0,0,0,2.69-1.07,4.4,4.4,0,0,1,1.09-1.18c1.88-1.14,2.94-3.26,5.15-4,.14,0,.19-.22.31-.31,1.31-1.06,2.58-2.18,4-3.17s3.29-1.65,4.74-2.71A26.06,26.06,0,0,0,239.3,188a10.77,10.77,0,0,1,2.51-1.73,8.68,8.68,0,0,0,1.49-.93c1.59-1.56,2.51-3.89,4.74-4.69,1.36-.49,2.68-1,3.21-2.48a.93.93,0,0,1,.72-.71c1.36-.18,1.86-1.38,2.44-2.48A1.25,1.25,0,0,0,253.79,173.25Z"/><path class="cls-1" d="M283.52,173.25c-1.51-.23-2.15.58-2.9,1.27a60.11,60.11,0,0,1-6.12,4,16,16,0,0,0-3.4,3.14l-2.9,2.86c-.95.91-1.9,1.8-2.87,2.67s-1.83,1.58-2.78,2.33c-1.17.93-2.31,1.9-3.58,2.72-1.85,1.19-3.94,2.08-5.09,4.08-.69,1.2-1.95,1.73-3,2.54-1.7,1.36-3.46,2.65-5.19,4-.08.06-.19.08-.16.26a5.62,5.62,0,0,0,.37.76,6.23,6.23,0,0,0,.84.74,3.37,3.37,0,0,0,2.68-1.07,4.6,4.6,0,0,1,1.1-1.18c1.88-1.14,2.94-3.26,5.15-4,.14,0,.19-.22.3-.31,1.32-1.06,2.59-2.18,4-3.17s3.28-1.65,4.74-2.71A26.45,26.45,0,0,0,269,188a10.77,10.77,0,0,1,2.51-1.73,8.68,8.68,0,0,0,1.49-.93c1.59-1.56,2.51-3.89,4.74-4.69,1.35-.49,2.68-1,3.21-2.48a.93.93,0,0,1,.72-.71c1.36-.18,1.86-1.38,2.44-2.48A1.25,1.25,0,0,0,283.52,173.25Z"/><path class="cls-1" d="M311.28,173.25c-1.52-.23-2.16.58-2.9,1.27a61.23,61.23,0,0,1-6.12,4,16.11,16.11,0,0,0-3.41,3.14L296,184.5c-.94.91-1.89,1.8-2.87,2.67s-1.83,1.58-2.77,2.33c-1.17.93-2.32,1.9-3.59,2.72-1.84,1.19-3.94,2.08-5.08,4.08-.69,1.2-1.95,1.73-3,2.54-1.69,1.36-3.45,2.65-5.19,4-.07.06-.19.08-.15.26a4.62,4.62,0,0,0,.37.76,7.09,7.09,0,0,0,.83.74,3.38,3.38,0,0,0,2.69-1.07,4.4,4.4,0,0,1,1.09-1.18c1.89-1.14,2.94-3.26,5.15-4,.15,0,.2-.22.31-.31,1.32-1.06,2.59-2.18,4-3.17s3.29-1.65,4.74-2.71a25.67,25.67,0,0,0,4.31-4.09,11,11,0,0,1,2.51-1.73,8.68,8.68,0,0,0,1.49-.93c1.59-1.56,2.52-3.89,4.75-4.69,1.35-.49,2.67-1,3.21-2.48.13-.36.32-.65.71-.71,1.36-.18,1.86-1.38,2.45-2.48A1.26,1.26,0,0,0,311.28,173.25Z"/><path class="cls-1" d="M332.61,179.6c-1.37-.32-1.81.37-2.37,1a34.81,34.81,0,0,1-4.86,3.1,10.29,10.29,0,0,0-2.62,2.53l-2.25,2.3c-.74.73-1.48,1.44-2.26,2.12s-1.45,1.24-2.21,1.82a31.1,31.1,0,0,1-2.89,2.08c-1.51.89-3.27,1.48-4.08,3.19-.48,1-1.53,1.39-2.34,2-1.34,1.08-2.74,2.1-4.11,3.15-.06.05-.16.06-.11.23a5.75,5.75,0,0,0,.42.72,7.81,7.81,0,0,0,.82.75,2.35,2.35,0,0,0,2.23-.74,2.81,2.81,0,0,1,.82-1c1.52-.86,2.22-2.69,4.08-3.16.12,0,.15-.18.24-.25,1-.83,2.05-1.71,3.16-2.46s2.73-1.15,3.91-2a16.15,16.15,0,0,0,3.4-3.26,7.09,7.09,0,0,1,2-1.32,5.58,5.58,0,0,0,1.22-.69c1.24-1.27,1.8-3.32,3.67-3.86,1.13-.33,2.24-.7,2.52-2,.07-.32.21-.58.54-.6,1.18-.07,1.46-1.13,1.83-2.09A1.42,1.42,0,0,0,332.61,179.6Z"/><path class="cls-1" d="M343,193.05c-1.5-.21-2.07.6-2.78,1.28a47,47,0,0,1-5.86,3.88,15.59,15.59,0,0,0-3.3,3L328.21,204c-.92.87-1.86,1.72-2.82,2.54s-1.81,1.48-2.74,2.19c-1.16.87-2.29,1.79-3.54,2.55-1.82,1.11-3.89,1.93-5,3.88-.68,1.17-1.92,1.66-2.91,2.45l-5,3.89c-.08.05-.19.08-.15.25a5,5,0,0,0,.39.75,6.58,6.58,0,0,0,.84.73,3.18,3.18,0,0,0,2.6-1.05,4.14,4.14,0,0,1,1.05-1.15c1.82-1.1,2.84-3.16,5-3.86.15,0,.19-.21.3-.3,1.29-1,2.54-2.07,3.9-3s3.23-1.51,4.67-2.5a24.89,24.89,0,0,0,4.27-3.88,10.38,10.38,0,0,1,2.47-1.63,9.37,9.37,0,0,0,1.47-.88c1.56-1.5,2.45-3.78,4.63-4.55,1.33-.47,2.62-1,3.11-2.44.12-.36.3-.66.68-.71,1.34-.2,1.79-1.4,2.31-2.5A1.25,1.25,0,0,0,343,193.05Z"/><path class="cls-1" d="M353.67,205.48c-1.37-.32-1.82.38-2.38,1a33.07,33.07,0,0,1-4.88,3.11,10.39,10.39,0,0,0-2.65,2.53c-.76.76-1.52,1.53-2.27,2.3s-1.5,1.43-2.28,2.11-1.47,1.23-2.24,1.81a29.05,29.05,0,0,1-2.92,2.08c-1.52.88-3.29,1.47-4.11,3.19-.49,1-1.55,1.39-2.36,2-1.35,1.08-2.77,2.1-4.14,3.16-.06.05-.16.06-.11.23a5.75,5.75,0,0,0,.42.72,6.8,6.8,0,0,0,.82.75,2.35,2.35,0,0,0,2.23-.74,2.85,2.85,0,0,1,.83-1c1.53-.87,2.24-2.7,4.11-3.17.12,0,.15-.18.24-.25,1-.83,2.07-1.71,3.19-2.46s2.74-1.14,3.93-1.93a16.64,16.64,0,0,0,3.45-3.26,7.25,7.25,0,0,1,2.05-1.31,5.66,5.66,0,0,0,1.23-.69c1.26-1.27,1.83-3.32,3.71-3.86,1.14-.33,2.25-.7,2.54-2,.08-.32.21-.58.55-.6,1.18-.07,1.47-1.15,1.84-2.1A1.41,1.41,0,0,0,353.67,205.48Z"/><path class="cls-1" d="M202.13,358.79c-1.77,2.26-1.45,4.59-1.38,6.9.07,3.08-1,15.17-1.15,16.51-.48,3.31.58,10.33.6,10.54l.86,9.33a12.37,12.37,0,0,0,.58,2.67,7.62,7.62,0,0,0,1.58,2.64,8.78,8.78,0,0,0,5.17,2.63,18.73,18.73,0,0,0,4.71.12,32.62,32.62,0,0,0,4.48-.68,5.34,5.34,0,0,0,4.38-4.66,8,8,0,0,0,.06-1.37l0-1c0-1.29,0-2.58,0-3.87.13-4.94.89-9.92-.56-14.8-.87-2.94-.41-5.93-.53-8.9-.21-4.95-.29-9.92-.54-14.89,0-.22,0-.46-.2-.65a5.72,5.72,0,0,0-1.28-.37,7.5,7.5,0,0,0-1.64.48,10.52,10.52,0,0,0-.89,6.31,14.27,14.27,0,0,1,.55,3.59c-.21,5,1.47,9.83.46,14.83a4.09,4.09,0,0,0,.11,1c.14,3.85.4,7.69.41,11.55,0,1.64-.12,3.3-.27,5l-.11,1.24a5.35,5.35,0,0,1-.13,1c-.14.45-.33.52-.46.54h-.18s0,0-.08,0l-.29.06c-.33.07-.86.15-1.38.23l-1.52.21a27,27,0,0,1-2.87.21,9.53,9.53,0,0,1-2.4-.26,3.24,3.24,0,0,1-1.57-.85c-1-.79-.45-3.1-.36-5.44a30.89,30.89,0,0,0,.23-3.95c-.44-5-2.37-10-1.22-15.08.7-3.07,1.34-6.12.14-9.18a3,3,0,0,1-.14-2.29c1.09-2.63.19-5.25-.5-7.87C204.31,358.62,202.78,358,202.13,358.79Z"/><path class="cls-1" d="M251.62,401c-.1.72-.18,1.44-.3,2.16l-.4,2.52a5.69,5.69,0,0,1-1.72,3.31,5.44,5.44,0,0,1-3.5,1.26l-9.07-.1a6.06,6.06,0,0,1-4.81-1.79,5.54,5.54,0,0,1-1.2-2.35,8.56,8.56,0,0,1-.21-1.33c0-.35,0-.64,0-.93.05-7.29.22-14.55.5-21.84.12-3.23.15-6.48.2-9.69.07-4.12,0-8.3.9-12.37.59-2.52,5.09,1.18,4.81,5.79-.49,8.24-.83,16.49-1.43,24.9-.18,2.51-.18,5.08-.14,7.66l.09,3.89.05,1.87,0,.47a1.25,1.25,0,0,0,.07.31.83.83,0,0,0,.49.5,2.09,2.09,0,0,0,.36.08h.73l4.32,0,3.7.05a.92.92,0,0,0,.8-.38,2.32,2.32,0,0,0,.28-.94,103,103,0,0,0,1.13-10.27c.34-5.23.51-10.53.38-15.76-.11-4.07-.58-8-.95-12.06-.08-.89-.21-1.75-.27-2.64-.22-3.31.08-4.38,1.4-5.15a6.25,6.25,0,0,1,.9-.51c1-.36,1.94,1,2.35,3.38a137.16,137.16,0,0,1,1.58,22.56,163.78,163.78,0,0,1-.93,17.35Z"/><path class="cls-1" d="M181.91,410.15c4.49,1.31,8.81.69,13.19.38,2.92-.21,10.12-.27,16.9-.12s13.15.44,14.4.54c6.25.43,19.57-.21,20-.18,5.83,0,11.71,0,17.43.4l2,.19,1.53.21a.65.65,0,0,1,.59.38,2.46,2.46,0,0,1,.14.36,7.42,7.42,0,0,1,.21.82,30.44,30.44,0,0,1,.45,7.79,20.59,20.59,0,0,1-.3,2.53,10.41,10.41,0,0,1-.23,1.07,2.66,2.66,0,0,1-.21.53c0,.18-.25.23-.41.28l-.59.12c-.76.13-1.58.23-2.39.32-1.64.18-3.3.31-5,.42-6.44.42-12.92.7-19.41.63-9.43-.1-18.84-.92-28.24.27-5.65.71-11.3.06-16.89-.19-2.14-.11-4.27-.23-6.36-.44-1-.1-2.15-.24-2.94-.39-.24-.07-.63-.09-.6-.43,0,.06-.18-1.52-.22-2.65s-.09-2.44-.1-3.68l0-7.55a2.15,2.15,0,0,0-.18-1.25c-.21-.33-.84-.57-1.28-.85-.57.25-1.58.48-1.64.74a32.57,32.57,0,0,0-1,11.82c.1.81.23,1.63.38,2.45l.23,1.26c.09.55.24,1.08.36,1.61a2.29,2.29,0,0,0,1.76,1.81,8.76,8.76,0,0,0,1.17.33c.43.11.78.17,1.06.22.61.1,1.21.18,1.81.25,1.2.13,2.4.21,3.59.26,2.38.1,4.76.1,7.13.1a106.88,106.88,0,0,1,14.19.61,15.09,15.09,0,0,0,1.9-.07l22.06-.17c7.78,0,15.57.75,23.43.37,1.75-.09,3.51-.22,5.3-.41.89-.1,1.79-.21,2.75-.38.16,0,.66-.13,1.05-.22a9.08,9.08,0,0,0,1.19-.34,3,3,0,0,0,1-.58c.16-.11.26-.3.48-.35l.38-.44a14.18,14.18,0,0,0,.8-1.61,8.75,8.75,0,0,0,.49-1.54,20.25,20.25,0,0,0,.35-2.19,30.39,30.39,0,0,0,.18-4.13,32.94,32.94,0,0,0-.3-4.08c-.08-.68-.21-1.38-.34-2.07a19.32,19.32,0,0,0-.64-2.32,5.9,5.9,0,0,0-1.43-2.33,5.62,5.62,0,0,0-2.45-1.16l-.66-.18-.45-.08-.88-.17-1.71-.28c-2.25-.36-4.46-.67-6.68-.9-2.54-.25-5.06-.69-7.6-.7-9.75-.05-19.4,1.7-29.07.6-5.88-.67-11.81-1.19-17.66.19a11.05,11.05,0,0,1-4.39.31c-5.1-.85-10.13.33-15.09,1.44C181.33,408,180.25,409.67,181.91,410.15Z"/><path class="cls-1" d="M189.75,250a18.25,18.25,0,0,1-2.46-.58c-.82-.21-1.65-.34-2.47-.48-.55-.09-1.5-.27-2.63-.56a12.92,12.92,0,0,0-3.7-.72c-2.54-.28-4.92-.61-5.39-.71-2.35-.51-7.34.36-7.5.37l-6.58.5c-2.11.14-4.23.25-6.35.31-1.95,0-3.91,0-5.87,0-2.43-.06-4.86-.06-7.28-.34-3.53-.42-7-1.42-10.57-.24-2.12.71-4.23.1-6.34.06a8.35,8.35,0,0,0-1.32-.07c-.44.06-.88.15-1.32.23l-2.65.5c-1.76.36-3.53.76-5.31,1.25l-.47.14a1.44,1.44,0,0,1-.33.08,1.1,1.1,0,0,1,.25,0c1.48.14,3,.83,4.44.95a20.51,20.51,0,0,1,2.59.19,17.25,17.25,0,0,0,2.64.42c.88,0,1.77-.17,2.65-.2a12.54,12.54,0,0,1,5.29.46c.23.08.47-.07.71-.06,2.74.06,5.48,0,8.23.2s5.78,1.28,8.68,1.46a44.54,44.54,0,0,0,9.64-.52,19.58,19.58,0,0,1,4.93.42,16,16,0,0,0,2.81.37c3.61-.28,7.21-2.08,10.82-.89a15.09,15.09,0,0,0,3.28.8,7,7,0,0,0,1.65,0,5.85,5.85,0,0,0,1.64-.94,2.09,2.09,0,0,1,1.63-.51,5.05,5.05,0,0,0,2.82-.53c.94-.37,1.87-.77,2.81-1.06C189.89,249.88,190.35,250,189.75,250Z"/><path class="cls-1" d="M319.42,266.08c-1.39-.06-2.78-.24-4.17-.38s-2.79-.22-4.19-.31c-.93-.06-2.54-.18-4.46-.37a53.58,53.58,0,0,0-6.29-.48c-4.32-.18-8.36-.4-9.16-.47a124.77,124.77,0,0,0-12.73.25l-11.18.33-10.78.2c-3.33,0-6.65,0-10,0-4.12,0-8.25,0-12.37-.24-6-.28-12-1-18-.17-3.6.47-7.18.06-10.77,0-.75,0-1.5-.08-2.25-.05l-2.24.16-4.5.32c-3,.23-6,.49-9,.78l-.8.08a3.87,3.87,0,0,1-.56.05,3.24,3.24,0,0,1,.43,0c2.51.13,5,.59,7.56.69,1.46.06,2.93,0,4.39.14s3,.24,4.49.29,3-.11,4.5-.13a54,54,0,0,1,9,.32c.4.05.8-.05,1.2,0,4.66,0,9.31,0,14,.15,4.92.14,9.83.85,14.75,1,5.46.14,10.91,0,16.36-.34a80.62,80.62,0,0,1,8.36.28c1.59.06,3.19.29,4.78.24,6.13-.18,12.24-1.38,18.35-.59,1.86.24,3.72.46,5.58.53.93,0,1.86.09,2.79,0a18.66,18.66,0,0,0,2.79-.63,7.81,7.81,0,0,1,2.78-.34,20.79,20.79,0,0,0,4.78-.36c1.6-.25,3.19-.52,4.77-.72C319.66,266,320.45,266.1,319.42,266.08Z"/><path class="cls-1" d="M385.42,250a6.19,6.19,0,0,1-1.18-.59,7,7,0,0,0-1.17-.44,8,8,0,0,1-1.25-.58c-.54-.28-1.17-.83-1.77-.74a25.33,25.33,0,0,1-2.56-.71c-1.11-.5-3.47.37-3.55.38-1,.17-2.07.37-3.11.5s-2,.25-3,.31-1.86,0-2.79,0a18.17,18.17,0,0,1-3.44-.35c-1.67-.43-3.31-1.43-5-.26-1,.71-2,.1-3,0-.21,0-.41-.12-.62-.07s-.43.17-.64.25l-1.26.53a18.16,18.16,0,0,0-2.56,1.24l-.23.14a.38.38,0,0,1-.16.09.25.25,0,0,1,.12,0c.7.11,1.38.79,2.09.88a4,4,0,0,1,1.22.2,4.45,4.45,0,0,0,1.25.44c.42,0,.85-.17,1.27-.2a3.08,3.08,0,0,1,2.51.47c.11.08.22-.07.33-.06a34.21,34.21,0,0,1,3.92.22c1.37.22,2.74,1.28,4.12,1.47a10.4,10.4,0,0,0,4.6-.52c.78-.24,1.56.24,2.34.42.45.1.89.44,1.34.37,1.72-.28,3.42-2.08,5.14-.9a4.59,4.59,0,0,0,1.57.8c.26,0,.53.14.79,0a3.35,3.35,0,0,0,.77-1c.25-.4.52-.62.77-.53.45.15.9-.17,1.34-.52s.88-.74,1.32-1S385.71,250,385.42,250Z"/><path class="cls-1" d="M342.32,250a4.81,4.81,0,0,1-1-.59,6.72,6.72,0,0,0-1-.45,6.14,6.14,0,0,1-1.08-.57c-.46-.29-1-.83-1.51-.74a18.17,18.17,0,0,1-2.18-.71c-1-.5-3,.37-3,.38-.89.17-1.77.37-2.66.5s-1.71.25-2.57.31a20.82,20.82,0,0,1-2.37,0,13.36,13.36,0,0,1-2.94-.36c-1.42-.42-2.82-1.43-4.27-.26-.87.71-1.7.09-2.56,0-.17,0-.35-.12-.53-.07s-.36.17-.54.25l-1.09.52a15.5,15.5,0,0,0-2.19,1.26l-.2.14a.28.28,0,0,1-.14.09s.07,0,.11,0c.59.11,1.17.78,1.77.87a3,3,0,0,1,1.05.2,3.29,3.29,0,0,0,1.06.43,10.18,10.18,0,0,0,1.08-.19,2.28,2.28,0,0,1,2.14.47c.1.08.2-.07.29-.06a25,25,0,0,1,3.35.22c1.17.23,2.34,1.29,3.52,1.48a7.68,7.68,0,0,0,3.93-.52c.67-.24,1.34.24,2,.42.38.1.77.44,1.15.37,1.47-.28,2.92-2.08,4.39-.9a3.84,3.84,0,0,0,1.35.8c.22,0,.45.14.67,0a3.45,3.45,0,0,0,.66-1c.21-.4.43-.63.65-.53.39.15.77-.18,1.14-.52a14.87,14.87,0,0,1,1.13-1C342.37,249.88,342.56,250,342.32,250Z"/><path class="cls-1" d="M311.12,85.55c.87,3.41,2.91,6.08,4.8,8.85,2.52,3.69,11.52,18.72,12.46,20.4,2.34,4.18,8.43,12.36,8.61,12.62l7.67,11,1.83,2.67a17.5,17.5,0,0,0,2.15,2.72,9.59,9.59,0,0,0,6.79,3,7.17,7.17,0,0,0,3.59-.94,10,10,0,0,0,1.36-1.1,8.41,8.41,0,0,0,1.19-1.25,5.67,5.67,0,0,0,1.25-3.55,11.45,11.45,0,0,0-.62-3.34c-1.82-5-4.95-8.95-7.41-13.21-3.72-6.15-7.1-12.51-11.72-18.07-2.78-3.34-4.8-7.16-7.15-10.76L324.29,76.46a1.83,1.83,0,0,0-.61-.74,3.41,3.41,0,0,0-1.07-.13c-.23.35-.72.83-.65,1a30.3,30.3,0,0,0,4.24,8.06A49.26,49.26,0,0,1,329.28,89c3.67,6.18,8.43,11.67,11.68,18.12a11.84,11.84,0,0,0,.82,1.18c3.05,4.68,6.15,9.33,9.11,14.07,1.56,2.5,3,5.09,4.43,7.65a48.86,48.86,0,0,1,3.59,7.58,5.22,5.22,0,0,1,.29,3.32,3.55,3.55,0,0,1-.93,1.23l-.85.77a1.82,1.82,0,0,1-.48.3,4.84,4.84,0,0,1-3.35.08,7.74,7.74,0,0,1-3.25-2.21,13.43,13.43,0,0,1-1.39-1.92L347.63,137l-2.55-4.33c-1-1.63-1.86-3.35-2.95-4.92-4.2-6-9.24-11.48-12.6-18-2-4-4.14-8-7.26-11.25a9.17,9.17,0,0,1-1.91-2.72c-1.51-3.6-4.12-6.45-6.61-9.37C312.18,84.52,310.8,84.29,311.12,85.55Z"/><path class="cls-1" d="M388,71.39c-1,1.38-.73,2.67-.58,4a79.69,79.69,0,0,1-.24,9.37,29.77,29.77,0,0,0,.5,5.92l.21,2.53a7.13,7.13,0,0,1,.14.89c0,.13,0,.42-.14.35a2.15,2.15,0,0,1-.58-.21,8.05,8.05,0,0,1-1-.55c-1.4-.79-2.8-1.62-4.34-2.33a10.23,10.23,0,0,0-3.29-1,7.91,7.91,0,0,0-3.64.56,5.61,5.61,0,0,0-3.68,4.56,5.27,5.27,0,0,0,.63,3,4.6,4.6,0,0,0,2.31,2.09,19.18,19.18,0,0,0,3.09.86,12.27,12.27,0,0,0,2.87.29,23,23,0,0,0,4.61-.68,13.31,13.31,0,0,0,4.55-2c.14-.12.32-.22.33-.44a2.24,2.24,0,0,0-.34-.81c-.36-.19-.9-.61-1-.59a9.64,9.64,0,0,0-3.34.86,4.65,4.65,0,0,1-1.84.76c-1.36.15-2.68.49-4,.56s-2.83-.15-3.5-1.13c-.08-.13-.26-.12-.37-.21s-.24-.29-.36-.44-.24-.4-.31-.6a3.33,3.33,0,0,1-.28-1.21,2.5,2.5,0,0,1,1.07-2,3.37,3.37,0,0,1,2.59-.48,10.77,10.77,0,0,1,2.49,1.07l3.2,1.67,1.95,1a15.78,15.78,0,0,0,1.54.77c.25.11.5.23.74.31l.64.08c.37,0,.67,0,1,.06.11-.05.33,0,.4-.2s.24-.2.35-.29a2.45,2.45,0,0,0,.61-.63,5.75,5.75,0,0,0,.57-2.39l.1-1c0-.31.07-.71.1-.84a4.47,4.47,0,0,0,.06-1.15c-.24-2.94-1.59-5.75-.94-8.68.39-1.77.72-3.56-.19-5.26a1.48,1.48,0,0,1-.19-1.3c.62-1.55-.1-3-.69-4.47C389.47,71.17,388.42,70.88,388,71.39Z"/><path class="cls-1" d="M389.33,72.81a6.24,6.24,0,0,0,.6-1,6.17,6.17,0,0,0,.06-.67A1.8,1.8,0,0,1,391.36,70a.51.51,0,0,1,.54.19,3,3,0,0,1,.27.3,5.71,5.71,0,0,0,1.44,1.06,11.45,11.45,0,0,0,1,.53l.49.2a12.84,12.84,0,0,0,3.56,1,14.9,14.9,0,0,0,1.76.14,2.34,2.34,0,0,0,.5,0l.32,0,.29-.05c.07,0,.18-.07.2,0l0,.22a1.61,1.61,0,0,1-.05.44,2,2,0,0,1-.26.64,3.48,3.48,0,0,1-.88,1,6,6,0,0,1-1.77.81,5.06,5.06,0,0,0-1.65.84c-.78.58-1.67.1-2.46-.12A9.12,9.12,0,0,1,391,75c-.05,0-.07-.13-.22,0s-.42.35-.65.53a7.57,7.57,0,0,0-.65.9,2.09,2.09,0,0,0,1.31,2,4.25,4.25,0,0,1,1.3.44,5.37,5.37,0,0,0,2.64.76,12.22,12.22,0,0,1,2.81.38c.14,0,.26-.07.38-.09A8.79,8.79,0,0,0,402,78,16.66,16.66,0,0,0,404,76.33a5.27,5.27,0,0,0,.92-1.44,6,6,0,0,0,.51-1.83,9.18,9.18,0,0,0-.12-1.83,11.46,11.46,0,0,0-.3-1.66l-2.66.54a11.11,11.11,0,0,1-1.19.18c-.38,0-.4,0-.62.07a3,3,0,0,1-1.85-.68c-.32-.19-.57-.52-.9-.64a16.41,16.41,0,0,1-2.18-.65c-.87-.37-1.64-1-2.86-1.65a3.5,3.5,0,0,0-2.76-.27,2.57,2.57,0,0,0-1.77,1.76,1.36,1.36,0,0,1-.57,1c-1.32.77-1.08,2.75-.11,3.82A1.15,1.15,0,0,0,389.33,72.81Z"/><path class="cls-1" d="M101.9,125.54c2.06,0,3.37-1.1,4.77-2.07,1.88-1.32,9.8-5.53,10.7-5.93a28.23,28.23,0,0,0,4-2.51c1.29-1,2.36-1.74,2.43-1.78l.34-.29c.11-.07.19.06.3.12s0,0,.13.11l.28.3.58.61,1.15,1.25c1.45,1.63,2.89,3.28,4.28,5s2.53,3.16,3.73,4.78a69.9,69.9,0,0,1,4.24,6.14c.23.39.43.78.63,1.17a3.75,3.75,0,0,1,.39,1,2.14,2.14,0,0,1-.15,1.37,6.7,6.7,0,0,1-2.53,2.45,2.33,2.33,0,0,1-2.24.09,3.69,3.69,0,0,1-1.41-1.7,3.09,3.09,0,0,1,.34-3.49,7,7,0,0,1,3.62-2.31c.13,0,.29,0,.36-.2a5.7,5.7,0,0,0,.09-.88c-.17-.35-.41-1-.53-1a5.13,5.13,0,0,0-4.75,1.58,13.71,13.71,0,0,0-1.6,2.62,4.59,4.59,0,0,0-.36,3.16,6.72,6.72,0,0,0,1.45,2.73,6,6,0,0,0,2.69,1.71,9.77,9.77,0,0,0,3.2.22,4.09,4.09,0,0,0,.79-.32,6.67,6.67,0,0,0,3.61-3.33,5.25,5.25,0,0,0-.51-5c-1.56-2.66-2.81-5.46-4.54-8a62.37,62.37,0,0,0-6.5-7.66,36,36,0,0,1-3.07-4.13l-.43-.62c-.26-.34-.57-.75-.87-1.11a11.55,11.55,0,0,0-1-.83c-.36-.25-.78-.06-1.18-.05a3.21,3.21,0,0,0-1.18.26l-1.1.69a5.85,5.85,0,0,0-.71.5l-.57.45-2.2,1.81a17.77,17.77,0,0,1-4.81,3c-2.19.82-4.34,1.7-5.83,3.6a2.45,2.45,0,0,1-1.37,1c-2,.47-3.34,2-4.71,3.49C101,124.42,101.14,125.53,101.9,125.54Z"/><path class="cls-1" d="M130.71,118.72a1.47,1.47,0,0,0-2,.3,24.58,24.58,0,0,1-4.13,1.79c-.93.21-2.14,1.74-2.18,1.78l-1.85,1.65c-.6.52-1.21,1-1.85,1.49s-1.2.83-1.83,1.21a15.23,15.23,0,0,1-2.39,1.28c-1.26.48-2.71.59-3.41,1.94-.42.81-1.3.86-2,1.21a32.16,32.16,0,0,1-3.53,1.53c-.05,0-.13,0-.11.17a7.89,7.89,0,0,0,.23.79c.19.33.5.93.55,1,.8.39,1.49.49,1.91.05.24-.25.45-.56.78-.64,1.36-.34,2-1.83,3.6-1.79.11,0,.13-.13.21-.18.91-.51,1.77-1.08,2.71-1.52s2.31-.48,3.3-1a9.52,9.52,0,0,0,2.83-2.31c.42-.48,1.11-.56,1.69-.81.33-.14.75-.15,1-.39,1-.91,1.44-2.66,3-2.75,1-.07,1.87-.16,2.1-1.26.06-.27.17-.48.45-.42,1,.21,1.22-.67,1.55-1.44A1.71,1.71,0,0,0,130.71,118.72Z"/><path class="cls-1" d="M101.13,125.69c-.42,1.52.43,2.33,1.11,3.17.9,1.15,3.78,6,4,6.54a20.27,20.27,0,0,0,3.08,3.67,36.33,36.33,0,0,1,2.53,3.24,14,14,0,0,1,1.73,3.34,4,4,0,0,1,0,2.85,5.06,5.06,0,0,1-2.43,2.81,1.87,1.87,0,0,1-1.76-.23c-.44-.31-.89-.67-1.63-1.24a1.22,1.22,0,0,1-.46-1.2,4.22,4.22,0,0,1,.55-1.31,7.77,7.77,0,0,1,4.41-3.23c.08,0,.17,0,.2-.16s0-.55,0-.85a5.87,5.87,0,0,0-.45-1,3.1,3.1,0,0,0-3.17.53,12.55,12.55,0,0,1-1.32,1.31,5.6,5.6,0,0,0-2.08,3.15,8.74,8.74,0,0,0,0,4c0,.18.21.3.29.45a5.54,5.54,0,0,0,2.34,2.2,4.93,4.93,0,0,0,3.38.35,8.32,8.32,0,0,0,5.35-4.22,7,7,0,0,0,.58-2.14,8.16,8.16,0,0,0-.84-3.82,9,9,0,0,0-.87-1.52,27,27,0,0,1-1.43-3.1,8.57,8.57,0,0,0-.84-1.72c-1.55-1.91-4-3-4.77-5.35-.5-1.42-1-2.78-2.52-3.42a1,1,0,0,1-.71-.77c-.13-1.38-1.32-2-2.34-2.68C102.34,124.89,101.28,125.14,101.13,125.69Z"/><path class="cls-1" d="M397.34,237c1.11.42,1.1.05,1.23-.22a5.66,5.66,0,0,1,1.94-1.19c.53-.12.63-1.17.65-1.2.16-.38.31-.76.5-1.13a6.35,6.35,0,0,1,.59-1,5,5,0,0,1,.7-.82,4.27,4.27,0,0,1,1.05-.87c.63-.31,1.56-.38,1.37-1.4-.12-.61.45-.64.71-.93.45-.48,1-.89,1.46-1.34,0,0,.08,0,0-.13s-.39-.38-.6-.58-.83-.65-.88-.67c-.71-.24-1.18-.28-1.2.07,0,.19,0,.43-.14.5-.67.29-.36,1.4-1.41,1.36-.07,0,0,.09-.06.13a7.73,7.73,0,0,1-1.07,1.07c-.46.31-1.35.26-1.8.59a2.53,2.53,0,0,0-.89,1.59c-.07.34-.52.37-.81.53s-.46.09-.53.26c-.3.64.23,1.91-.82,1.95-.64,0-1.25.11-.86.91.1.2.12.34-.1.3-.8-.14-.51.51-.33,1.07A3,3,0,0,0,397.34,237Z"/><path class="cls-1" d="M235.26,154.48c1.12.42,1.11.05,1.24-.22a5.55,5.55,0,0,1,1.94-1.2c.52-.12.63-1.17.64-1.19.17-.38.32-.77.5-1.13a8.34,8.34,0,0,1,.59-1,5.57,5.57,0,0,1,.71-.82,4.41,4.41,0,0,1,1-.87c.64-.31,1.57-.38,1.38-1.4-.12-.61.44-.65.71-.93.45-.48,1-.89,1.45-1.34,0,0,.09,0,0-.13s-.39-.38-.59-.58S244,143,244,143c-.72-.24-1.19-.28-1.21.06s0,.44-.14.51c-.66.28-.35,1.4-1.41,1.36-.07,0,0,.09-.05.12a7.35,7.35,0,0,1-1.08,1.08c-.45.31-1.34.26-1.79.59a2.53,2.53,0,0,0-.89,1.59c-.07.34-.52.37-.81.53s-.46.09-.54.26c-.29.64.24,1.91-.81,1.95-.64,0-1.25.11-.86.91.1.2.12.34-.11.3-.8-.14-.51.51-.32,1.07A3,3,0,0,0,235.26,154.48Z"/><path class="cls-1" d="M235.26,162.78c1.12.42,1.11.05,1.24-.22a5.66,5.66,0,0,1,1.94-1.19c.52-.12.63-1.17.64-1.2.17-.38.32-.76.5-1.13a8.34,8.34,0,0,1,.59-1,5.57,5.57,0,0,1,.71-.82,4.41,4.41,0,0,1,1-.87c.64-.31,1.57-.38,1.38-1.4-.12-.61.44-.64.71-.93.45-.48,1-.89,1.45-1.34,0,0,.09,0,0-.13s-.39-.38-.59-.57-.83-.66-.88-.68c-.72-.24-1.19-.28-1.21.07,0,.19,0,.43-.14.5-.66.29-.35,1.4-1.41,1.36-.07,0,0,.09-.05.13a7.81,7.81,0,0,1-1.08,1.07c-.45.31-1.34.26-1.79.59a2.53,2.53,0,0,0-.89,1.59c-.07.34-.52.37-.81.53s-.46.09-.54.26c-.29.64.24,1.91-.81,2-.64,0-1.25.11-.86.91.1.2.12.34-.11.3-.8-.14-.51.51-.32,1.07A3,3,0,0,0,235.26,162.78Z"/><path class="cls-1" d="M235.26,171.08c1.12.43,1.11,0,1.24-.22a5.66,5.66,0,0,1,1.94-1.19c.52-.12.63-1.17.64-1.2.17-.38.32-.76.5-1.13a9.19,9.19,0,0,1,.59-1,6.84,6.84,0,0,1,.71-.82,4.41,4.41,0,0,1,1-.87c.64-.31,1.57-.38,1.38-1.39-.12-.61.44-.65.71-.94.45-.48,1-.89,1.45-1.34,0,0,.09,0,0-.13s-.39-.37-.59-.57-.83-.66-.88-.67c-.72-.25-1.19-.28-1.21.06s0,.43-.14.5c-.66.29-.35,1.4-1.41,1.36-.07,0,0,.1-.05.13a7.81,7.81,0,0,1-1.08,1.07c-.45.32-1.34.27-1.79.59a2.56,2.56,0,0,0-.89,1.6c-.07.33-.52.36-.81.53s-.46.08-.54.25c-.29.65.24,1.91-.81,2-.64,0-1.25.1-.86.9.1.2.12.35-.11.31-.8-.14-.51.5-.32,1.06A3,3,0,0,0,235.26,171.08Z"/><path class="cls-1" d="M374.54,368.38c1.11.42,1.1.05,1.23-.23a5.66,5.66,0,0,1,1.94-1.19c.53-.12.63-1.17.65-1.2.16-.37.31-.76.5-1.12a8,8,0,0,1,.59-1,5.35,5.35,0,0,1,.7-.81,4.06,4.06,0,0,1,1.05-.87c.63-.32,1.56-.38,1.37-1.4-.11-.61.45-.65.71-.93.45-.48,1-.9,1.46-1.34,0,0,.08,0,0-.13s-.39-.38-.6-.58-.83-.65-.88-.67c-.71-.24-1.18-.28-1.2.06s0,.44-.14.51c-.67.28-.36,1.4-1.41,1.36-.07,0,0,.09-.05.12a7.87,7.87,0,0,1-1.08,1.08c-.46.31-1.35.26-1.79.59a2.5,2.5,0,0,0-.9,1.59c-.07.34-.52.37-.81.53s-.46.09-.53.25c-.3.65.23,1.92-.82,2-.64,0-1.25.11-.86.91.1.19.12.34-.1.3-.8-.14-.51.51-.33,1.07A3.08,3.08,0,0,0,374.54,368.38Z"/><path class="cls-1" d="M307.13,367.4c1.12.42,1.1.05,1.23-.22A5.86,5.86,0,0,1,310.3,366c.53-.12.64-1.17.65-1.2.16-.38.32-.76.5-1.13a8.34,8.34,0,0,1,.59-1,5.57,5.57,0,0,1,.71-.82,4.22,4.22,0,0,1,1-.87c.64-.31,1.57-.38,1.37-1.4-.11-.61.45-.64.72-.93.44-.48,1-.89,1.45-1.34,0,0,.08,0,0-.13s-.39-.38-.59-.57-.84-.66-.88-.68c-.72-.24-1.19-.28-1.21.07,0,.19,0,.43-.14.5-.67.29-.35,1.4-1.41,1.36-.07,0,0,.09-.05.13A7.81,7.81,0,0,1,312,359c-.45.31-1.34.26-1.79.59a2.54,2.54,0,0,0-.9,1.59c-.07.34-.51.37-.81.53s-.45.09-.53.26c-.3.64.24,1.91-.82,1.95-.64,0-1.24.11-.85.91.09.2.12.34-.11.3-.8-.14-.51.51-.33,1.07A3.07,3.07,0,0,0,307.13,367.4Z"/><path class="cls-1" d="M307.13,377.17c1.12.42,1.1.05,1.23-.23a5.86,5.86,0,0,1,1.94-1.19c.53-.12.64-1.17.65-1.2.16-.37.32-.76.5-1.12a9.33,9.33,0,0,1,.59-1,6.06,6.06,0,0,1,.71-.81,4,4,0,0,1,1-.87c.64-.32,1.57-.38,1.37-1.4-.11-.61.45-.65.72-.93.44-.48,1-.9,1.45-1.34,0,0,.08,0,0-.13s-.39-.38-.59-.58-.84-.65-.88-.67c-.72-.24-1.19-.28-1.21.06s0,.44-.14.51c-.67.28-.35,1.4-1.41,1.36-.07,0,0,.09-.05.12a7.35,7.35,0,0,1-1.08,1.08c-.45.31-1.34.26-1.79.59a2.54,2.54,0,0,0-.9,1.59c-.07.34-.51.37-.81.53s-.45.09-.53.25c-.3.65.24,1.92-.82,2-.64,0-1.24.11-.85.91.09.19.12.34-.11.3-.8-.14-.51.51-.33,1.07A3.14,3.14,0,0,0,307.13,377.17Z"/><path class="cls-1" d="M374.54,379.12c1.11.42,1.1.05,1.23-.22a5.66,5.66,0,0,1,1.94-1.19c.53-.12.63-1.17.65-1.2.16-.38.31-.76.5-1.13a7.21,7.21,0,0,1,.59-1,5,5,0,0,1,.7-.82,4.27,4.27,0,0,1,1.05-.87c.63-.31,1.56-.38,1.37-1.4-.11-.61.45-.64.71-.93.45-.48,1-.89,1.46-1.34,0,0,.08,0,0-.13s-.39-.38-.6-.57-.83-.66-.88-.68c-.71-.24-1.18-.28-1.2.07,0,.19,0,.43-.14.5-.67.29-.36,1.4-1.41,1.36-.07,0,0,.09-.05.13a8.4,8.4,0,0,1-1.08,1.07c-.46.31-1.35.26-1.79.59a2.5,2.5,0,0,0-.9,1.59c-.07.34-.52.37-.81.53s-.46.09-.53.26c-.3.65.23,1.91-.82,1.95-.64,0-1.25.11-.86.91.1.2.12.34-.1.3-.8-.14-.51.51-.33,1.07A3,3,0,0,0,374.54,379.12Z"/><path class="cls-1" d="M103.92,368.38c1.12.42,1.1.05,1.23-.23a5.86,5.86,0,0,1,1.94-1.19c.53-.12.64-1.17.65-1.2.16-.37.32-.76.5-1.12a9.33,9.33,0,0,1,.59-1,6,6,0,0,1,.7-.81,4.24,4.24,0,0,1,1-.87c.64-.32,1.57-.38,1.37-1.4-.11-.61.45-.65.72-.93.44-.48,1-.9,1.45-1.34,0,0,.08,0,0-.13s-.39-.38-.6-.58-.83-.65-.88-.67c-.71-.24-1.18-.28-1.2.06s0,.44-.14.51c-.67.28-.35,1.4-1.41,1.36-.07,0,0,.09-.05.12a7.35,7.35,0,0,1-1.08,1.08c-.46.31-1.34.26-1.79.59a2.54,2.54,0,0,0-.9,1.59c-.07.34-.51.37-.81.53s-.46.09-.53.25c-.3.65.24,1.92-.82,2-.64,0-1.25.11-.85.91.09.19.12.34-.11.3-.8-.14-.51.51-.33,1.07A3.14,3.14,0,0,0,103.92,368.38Z"/><path class="cls-1" d="M103.92,390.35c1.12.43,1.1,0,1.23-.22a5.86,5.86,0,0,1,1.94-1.19c.53-.12.64-1.17.65-1.2.16-.38.32-.76.5-1.13a9.19,9.19,0,0,1,.59-1,6.75,6.75,0,0,1,.7-.82,4.47,4.47,0,0,1,1-.87c.64-.31,1.57-.38,1.37-1.39-.11-.61.45-.65.72-.94.44-.48,1-.89,1.45-1.34,0,0,.08,0,0-.13s-.39-.37-.6-.57-.83-.66-.88-.67c-.71-.25-1.18-.28-1.2.06s0,.43-.14.5c-.67.29-.35,1.4-1.41,1.36-.07,0,0,.1-.05.13a7.81,7.81,0,0,1-1.08,1.07c-.46.32-1.34.27-1.79.59a2.57,2.57,0,0,0-.9,1.6c-.07.33-.51.36-.81.53s-.46.08-.53.25c-.3.65.24,1.91-.82,2-.64,0-1.25.1-.85.9.09.2.12.35-.11.31-.8-.14-.51.5-.33,1.06A3.07,3.07,0,0,0,103.92,390.35Z"/><path class="cls-1" d="M103.92,402.08c1.12.42,1.1.05,1.23-.23a5.86,5.86,0,0,1,1.94-1.19c.53-.12.64-1.17.65-1.2.16-.37.32-.76.5-1.13a9.19,9.19,0,0,1,.59-1,6,6,0,0,1,.7-.81,4.27,4.27,0,0,1,1-.88c.64-.31,1.57-.38,1.37-1.39-.11-.61.45-.65.72-.94.44-.47,1-.89,1.45-1.34,0,0,.08,0,0-.13s-.39-.37-.6-.57-.83-.66-.88-.67c-.71-.25-1.18-.28-1.2.06s0,.43-.14.5c-.67.29-.35,1.4-1.41,1.36-.07,0,0,.1-.05.13a7.29,7.29,0,0,1-1.08,1.07c-.46.32-1.34.27-1.79.59a2.57,2.57,0,0,0-.9,1.6c-.07.33-.51.37-.81.53s-.46.08-.53.25c-.3.65.24,1.91-.82,2-.64,0-1.25.1-.85.9.09.2.12.35-.11.31-.8-.14-.51.51-.33,1.06A3.16,3.16,0,0,0,103.92,402.08Z"/><path class="cls-1" d="M103.92,413.8c1.12.42,1.1.05,1.23-.23a5.86,5.86,0,0,1,1.94-1.19c.53-.12.64-1.17.65-1.2.16-.37.32-.76.5-1.13a9.19,9.19,0,0,1,.59-1,6,6,0,0,1,.7-.81,4.27,4.27,0,0,1,1-.88c.64-.31,1.57-.38,1.37-1.39-.11-.61.45-.65.72-.94.44-.47,1-.89,1.45-1.34,0,0,.08,0,0-.13s-.39-.37-.6-.57-.83-.66-.88-.67c-.71-.25-1.18-.28-1.2.06s0,.43-.14.5c-.67.29-.35,1.4-1.41,1.36-.07,0,0,.1-.05.13a7.29,7.29,0,0,1-1.08,1.07c-.46.32-1.34.27-1.79.59a2.57,2.57,0,0,0-.9,1.6c-.07.34-.51.37-.81.53s-.46.08-.53.25c-.3.65.24,1.91-.82,2-.64,0-1.25.1-.85.9.09.2.12.35-.11.31-.8-.14-.51.51-.33,1.06A3.16,3.16,0,0,0,103.92,413.8Z"/><path class="cls-1" d="M103.92,425.52c1.12.42,1.1.05,1.23-.23a5.86,5.86,0,0,1,1.94-1.19c.53-.12.64-1.17.65-1.2.16-.37.32-.76.5-1.13a9.19,9.19,0,0,1,.59-1,6,6,0,0,1,.7-.81,4,4,0,0,1,1-.87c.64-.32,1.57-.39,1.37-1.4-.11-.61.45-.65.72-.94.44-.47,1-.89,1.45-1.34,0,0,.08,0,0-.13s-.39-.37-.6-.57-.83-.66-.88-.67c-.71-.25-1.18-.28-1.2.06s0,.43-.14.5c-.67.29-.35,1.4-1.41,1.36-.07,0,0,.1-.05.13a7.29,7.29,0,0,1-1.08,1.07c-.46.32-1.34.27-1.79.59a2.59,2.59,0,0,0-.9,1.6c-.07.34-.51.37-.81.53s-.46.08-.53.25c-.3.65.24,1.91-.82,2-.64,0-1.25.1-.85.9.09.2.12.35-.11.31-.8-.14-.51.51-.33,1.06A3.16,3.16,0,0,0,103.92,425.52Z"/><path class="cls-1" d="M103.92,379.12c1.12.42,1.1.05,1.23-.22a5.86,5.86,0,0,1,1.94-1.19c.53-.12.64-1.17.65-1.2.16-.38.32-.76.5-1.13a8.34,8.34,0,0,1,.59-1,5.51,5.51,0,0,1,.7-.82,4.47,4.47,0,0,1,1-.87c.64-.31,1.57-.38,1.37-1.4-.11-.61.45-.64.72-.93.44-.48,1-.89,1.45-1.34,0,0,.08,0,0-.13s-.39-.38-.6-.57-.83-.66-.88-.68c-.71-.24-1.18-.28-1.2.07,0,.19,0,.43-.14.5-.67.29-.35,1.4-1.41,1.36-.07,0,0,.09-.05.13a7.81,7.81,0,0,1-1.08,1.07c-.46.31-1.34.26-1.79.59a2.54,2.54,0,0,0-.9,1.59c-.07.34-.51.37-.81.53s-.46.09-.53.26c-.3.65.24,1.91-.82,1.95-.64,0-1.25.11-.85.91.09.2.12.34-.11.3-.8-.14-.51.51-.33,1.07A3.07,3.07,0,0,0,103.92,379.12Z"/><path class="cls-1" d="M374.54,389.87c1.11.42,1.1.05,1.23-.23a5.66,5.66,0,0,1,1.94-1.19c.53-.12.63-1.17.65-1.2.16-.37.31-.76.5-1.13a7.83,7.83,0,0,1,.59-1,5.35,5.35,0,0,1,.7-.81,4.06,4.06,0,0,1,1.05-.87c.63-.32,1.56-.38,1.37-1.4-.11-.61.45-.65.71-.94.45-.47,1-.89,1.46-1.34,0,0,.08,0,0-.13s-.39-.37-.6-.57-.83-.66-.88-.67c-.71-.24-1.18-.28-1.2.06s0,.43-.14.5c-.67.29-.36,1.4-1.41,1.36-.07,0,0,.1-.05.13a7.8,7.8,0,0,1-1.08,1.07c-.46.32-1.35.27-1.79.59a2.55,2.55,0,0,0-.9,1.6c-.07.34-.52.37-.81.53s-.46.08-.53.25c-.3.65.23,1.91-.82,2-.64,0-1.25.1-.86.9.1.2.12.35-.1.31-.8-.14-.51.51-.33,1.06A3.1,3.1,0,0,0,374.54,389.87Z"/><path class="cls-1" d="M374.54,400.61c1.11.42,1.1.05,1.23-.22a5.55,5.55,0,0,1,1.94-1.2c.53-.12.63-1.17.65-1.19.16-.38.31-.77.5-1.13a7.21,7.21,0,0,1,.59-1,5,5,0,0,1,.7-.82,4.27,4.27,0,0,1,1.05-.87c.63-.31,1.56-.38,1.37-1.4-.11-.61.45-.65.71-.93.45-.48,1-.9,1.46-1.34,0,0,.08,0,0-.13s-.39-.38-.6-.58-.83-.65-.88-.67c-.71-.24-1.18-.28-1.2.06s0,.44-.14.51c-.67.28-.36,1.4-1.41,1.36-.07,0,0,.09-.05.12a7.87,7.87,0,0,1-1.08,1.08c-.46.31-1.35.26-1.79.59a2.5,2.5,0,0,0-.9,1.59c-.07.34-.52.37-.81.53s-.46.09-.53.26c-.3.64.23,1.91-.82,1.95-.64,0-1.25.11-.86.91.1.2.12.34-.1.3-.8-.14-.51.51-.33,1.07A3.08,3.08,0,0,0,374.54,400.61Z"/><path class="cls-1" d="M374.54,411.35c1.11.43,1.1,0,1.23-.22a5.66,5.66,0,0,1,1.94-1.19c.53-.12.63-1.17.65-1.2.16-.38.31-.76.5-1.13a7.83,7.83,0,0,1,.59-1,5,5,0,0,1,.7-.82,4.27,4.27,0,0,1,1.05-.87c.63-.31,1.56-.38,1.37-1.39-.11-.61.45-.65.71-.94.45-.48,1-.89,1.46-1.34,0,0,.08,0,0-.13s-.39-.37-.6-.57-.83-.66-.88-.68c-.71-.24-1.18-.27-1.2.07,0,.19,0,.43-.14.5-.67.29-.36,1.4-1.41,1.36-.07,0,0,.1-.05.13a8.4,8.4,0,0,1-1.08,1.07c-.46.32-1.35.26-1.79.59a2.52,2.52,0,0,0-.9,1.6c-.07.33-.52.36-.81.53s-.46.08-.53.25c-.3.65.23,1.91-.82,2-.64,0-1.25.1-.86.9.1.2.12.35-.1.31-.8-.14-.51.5-.33,1.06A3,3,0,0,0,374.54,411.35Z"/><path class="cls-1" d="M374.54,422.1c1.11.42,1.1,0,1.23-.23a5.66,5.66,0,0,1,1.94-1.19c.53-.12.63-1.17.65-1.2.16-.37.31-.76.5-1.12a7.32,7.32,0,0,1,.59-1,5.35,5.35,0,0,1,.7-.81,4.06,4.06,0,0,1,1.05-.87c.63-.32,1.56-.38,1.37-1.4-.11-.61.45-.65.71-.94.45-.47,1-.89,1.46-1.33,0,0,.08,0,0-.13s-.39-.38-.6-.58-.83-.66-.88-.67c-.71-.24-1.18-.28-1.2.06s0,.43-.14.5c-.67.29-.36,1.41-1.41,1.36-.07,0,0,.1-.05.13a7.87,7.87,0,0,1-1.08,1.08c-.46.31-1.35.26-1.79.59a2.5,2.5,0,0,0-.9,1.59c-.07.34-.52.37-.81.53s-.46.09-.53.25c-.3.65.23,1.91-.82,2-.64,0-1.25.11-.86.91.1.19.12.34-.1.3-.8-.14-.51.51-.33,1.06A3,3,0,0,0,374.54,422.1Z"/><path class="cls-1" d="M374.54,432.84c1.11.42,1.1.05,1.23-.22a5.66,5.66,0,0,1,1.94-1.19c.53-.12.63-1.18.65-1.2.16-.38.31-.77.5-1.13a7.21,7.21,0,0,1,.59-1,5,5,0,0,1,.7-.82,4.27,4.27,0,0,1,1.05-.87c.63-.31,1.56-.38,1.37-1.4-.11-.61.45-.64.71-.93.45-.48,1-.89,1.46-1.34,0,0,.08,0,0-.13s-.39-.38-.6-.58-.83-.65-.88-.67c-.71-.24-1.18-.28-1.2.07,0,.19,0,.43-.14.5-.67.28-.36,1.4-1.41,1.36-.07,0,0,.09-.05.12a7.87,7.87,0,0,1-1.08,1.08c-.46.31-1.35.26-1.79.59a2.5,2.5,0,0,0-.9,1.59c-.07.34-.52.37-.81.53s-.46.09-.53.26c-.3.64.23,1.91-.82,1.95-.64,0-1.25.11-.86.91.1.2.12.34-.1.3-.8-.14-.51.51-.33,1.07A3,3,0,0,0,374.54,432.84Z"/><path class="cls-1" d="M397.34,247.27c1.11.42,1.1,0,1.23-.23a5.66,5.66,0,0,1,1.94-1.19c.53-.12.63-1.17.65-1.2.16-.37.31-.76.5-1.12a6.44,6.44,0,0,1,.59-1,5.35,5.35,0,0,1,.7-.81,4.06,4.06,0,0,1,1.05-.87c.63-.32,1.56-.38,1.37-1.4-.12-.61.45-.65.71-.94.45-.47,1-.89,1.46-1.33,0,0,.08,0,0-.13s-.39-.38-.6-.58-.83-.66-.88-.67c-.71-.24-1.18-.28-1.2.06s0,.43-.14.5c-.67.29-.36,1.41-1.41,1.36-.07,0,0,.1-.06.13a7.28,7.28,0,0,1-1.07,1.08c-.46.31-1.35.26-1.8.59a2.53,2.53,0,0,0-.89,1.59c-.07.34-.52.37-.81.53s-.46.09-.53.25c-.3.65.23,1.91-.82,2-.64,0-1.25.11-.86.91.1.19.12.34-.1.3-.8-.14-.51.51-.33,1.06A3,3,0,0,0,397.34,247.27Z"/><path class="cls-1" d="M397.34,257.52c1.11.42,1.1.05,1.23-.22a5.66,5.66,0,0,1,1.94-1.19c.53-.12.63-1.17.65-1.2.16-.38.31-.76.5-1.13a6.83,6.83,0,0,1,.59-1,5,5,0,0,1,.7-.82,4.27,4.27,0,0,1,1.05-.87c.63-.31,1.56-.38,1.37-1.4-.12-.61.45-.64.71-.93.45-.48,1-.89,1.46-1.34,0,0,.08,0,0-.13s-.39-.38-.6-.57-.83-.66-.88-.68c-.71-.24-1.18-.27-1.2.07,0,.19,0,.43-.14.5-.67.29-.36,1.4-1.41,1.36-.07,0,0,.09-.06.13a7.73,7.73,0,0,1-1.07,1.07c-.46.32-1.35.26-1.8.59a2.53,2.53,0,0,0-.89,1.59c-.07.34-.52.37-.81.54s-.46.08-.53.25c-.3.65.23,1.91-.82,2-.64,0-1.25.11-.86.91.1.2.12.34-.1.3-.8-.13-.51.51-.33,1.07A3,3,0,0,0,397.34,257.52Z"/><path class="cls-1" d="M397.34,267.78c1.11.42,1.1.05,1.23-.23a5.66,5.66,0,0,1,1.94-1.19c.53-.12.63-1.17.65-1.2.16-.37.31-.76.5-1.12a6.92,6.92,0,0,1,.59-1,5.35,5.35,0,0,1,.7-.81,4.06,4.06,0,0,1,1.05-.87c.63-.32,1.56-.38,1.37-1.4-.12-.61.45-.65.71-.93.45-.48,1-.9,1.46-1.34,0,0,.08,0,0-.13s-.39-.38-.6-.58-.83-.66-.88-.67c-.71-.24-1.18-.28-1.2.06s0,.43-.14.5c-.67.29-.36,1.41-1.41,1.37-.07,0,0,.09-.06.12a7.28,7.28,0,0,1-1.07,1.08c-.46.31-1.35.26-1.8.59a2.53,2.53,0,0,0-.89,1.59c-.07.34-.52.37-.81.53s-.46.09-.53.25c-.3.65.23,1.91-.82,2-.64,0-1.25.11-.86.91.1.19.12.34-.1.3-.8-.14-.51.51-.33,1.06A3,3,0,0,0,397.34,267.78Z"/><path class="cls-1" d="M397.34,278c1.11.43,1.1.05,1.23-.22a5.66,5.66,0,0,1,1.94-1.19c.53-.12.63-1.17.65-1.2.16-.38.31-.76.5-1.13a6.83,6.83,0,0,1,.59-1,5,5,0,0,1,.7-.82,4.27,4.27,0,0,1,1.05-.87c.63-.31,1.56-.38,1.37-1.39-.12-.61.45-.65.71-.94.45-.48,1-.89,1.46-1.34,0,0,.08,0,0-.13s-.39-.38-.6-.57-.83-.66-.88-.68c-.71-.24-1.18-.27-1.2.07,0,.19,0,.43-.14.5-.67.29-.36,1.4-1.41,1.36-.07,0,0,.1-.06.13a7.73,7.73,0,0,1-1.07,1.07c-.46.32-1.35.26-1.8.59a2.56,2.56,0,0,0-.89,1.6c-.07.33-.52.36-.81.53s-.46.08-.53.25c-.3.65.23,1.91-.82,2-.64,0-1.25.1-.86.9.1.2.12.35-.1.31-.8-.14-.51.5-.33,1.06A3,3,0,0,0,397.34,278Z"/><path class="cls-1" d="M397.34,288.29c1.11.42,1.1,0,1.23-.23a5.66,5.66,0,0,1,1.94-1.19c.53-.12.63-1.17.65-1.2.16-.37.31-.76.5-1.12a6.92,6.92,0,0,1,.59-1,5.35,5.35,0,0,1,.7-.81,4.06,4.06,0,0,1,1.05-.87c.63-.32,1.56-.38,1.37-1.4-.12-.61.45-.65.71-.93.45-.48,1-.9,1.46-1.34,0,0,.08,0,0-.13s-.39-.38-.6-.58-.83-.65-.88-.67c-.71-.24-1.18-.28-1.2.06s0,.44-.14.51c-.67.28-.36,1.4-1.41,1.36-.07,0,0,.09-.06.12a7.28,7.28,0,0,1-1.07,1.08c-.46.31-1.35.26-1.8.59a2.53,2.53,0,0,0-.89,1.59c-.07.34-.52.37-.81.53s-.46.09-.53.25c-.3.65.23,1.92-.82,2-.64,0-1.25.11-.86.91.1.19.12.34-.1.3-.8-.14-.51.51-.33,1.07A3,3,0,0,0,397.34,288.29Z"/><path class="cls-1" d="M397.34,298.54c1.11.43,1.1,0,1.23-.22a5.66,5.66,0,0,1,1.94-1.19c.53-.12.63-1.17.65-1.2.16-.38.31-.76.5-1.13a6.83,6.83,0,0,1,.59-1,6,6,0,0,1,.7-.82,4.27,4.27,0,0,1,1.05-.87c.63-.31,1.56-.38,1.37-1.39-.12-.61.45-.65.71-.94.45-.48,1-.89,1.46-1.34,0,0,.08,0,0-.13s-.39-.37-.6-.57-.83-.66-.88-.67c-.71-.25-1.18-.28-1.2.06s0,.43-.14.5c-.67.29-.36,1.4-1.41,1.36-.07,0,0,.1-.06.13a7.73,7.73,0,0,1-1.07,1.07c-.46.32-1.35.27-1.8.59a2.56,2.56,0,0,0-.89,1.6c-.07.33-.52.36-.81.53s-.46.08-.53.25c-.3.65.23,1.91-.82,2-.64,0-1.25.1-.86.9.1.2.12.35-.1.31-.8-.14-.51.5-.33,1.06A3,3,0,0,0,397.34,298.54Z"/><path class="cls-1" d="M397.34,308.8c1.11.42,1.1.05,1.23-.22a5.55,5.55,0,0,1,1.94-1.2c.53-.12.63-1.17.65-1.2.16-.37.31-.76.5-1.12a6.92,6.92,0,0,1,.59-1,5.35,5.35,0,0,1,.7-.81,4.27,4.27,0,0,1,1.05-.87c.63-.31,1.56-.38,1.37-1.4-.12-.61.45-.65.71-.93.45-.48,1-.9,1.46-1.34,0,0,.08,0,0-.13s-.39-.38-.6-.58-.83-.65-.88-.67c-.71-.24-1.18-.28-1.2.06s0,.44-.14.51c-.67.28-.36,1.4-1.41,1.36-.07,0,0,.09-.06.12a7.28,7.28,0,0,1-1.07,1.08c-.46.31-1.35.26-1.8.59a2.53,2.53,0,0,0-.89,1.59c-.07.34-.52.37-.81.53s-.46.09-.53.26c-.3.64.23,1.91-.82,1.95-.64,0-1.25.11-.86.91.1.19.12.34-.1.3-.8-.14-.51.51-.33,1.07A3,3,0,0,0,397.34,308.8Z"/><path class="cls-1" d="M397.34,319.06c1.11.42,1.1.05,1.23-.23a5.66,5.66,0,0,1,1.94-1.19c.53-.12.63-1.17.65-1.2.16-.37.31-.76.5-1.13a6.83,6.83,0,0,1,.59-1,5.35,5.35,0,0,1,.7-.81,4.1,4.1,0,0,1,1.05-.88c.63-.31,1.56-.38,1.37-1.39-.12-.61.45-.65.71-.94.45-.47,1-.89,1.46-1.34,0,0,.08,0,0-.13s-.39-.37-.6-.57-.83-.66-.88-.67c-.71-.25-1.18-.28-1.2.06s0,.43-.14.5c-.67.29-.36,1.4-1.41,1.36-.07,0,0,.1-.06.13a7.22,7.22,0,0,1-1.07,1.07c-.46.32-1.35.27-1.8.59a2.56,2.56,0,0,0-.89,1.6c-.07.33-.52.37-.81.53s-.46.08-.53.25c-.3.65.23,1.91-.82,2-.64,0-1.25.1-.86.9.1.2.12.35-.1.31-.8-.14-.51.51-.33,1.06A3,3,0,0,0,397.34,319.06Z"/><path class="cls-1" d="M397.34,329.31c1.11.42,1.1.05,1.23-.22a5.55,5.55,0,0,1,1.94-1.2c.53-.11.63-1.17.65-1.19.16-.38.31-.77.5-1.13a6.35,6.35,0,0,1,.59-1,5,5,0,0,1,.7-.82,4.27,4.27,0,0,1,1.05-.87c.63-.31,1.56-.38,1.37-1.4-.12-.61.45-.65.71-.93.45-.48,1-.89,1.46-1.34,0,0,.08,0,0-.13s-.39-.38-.6-.58-.83-.65-.88-.67c-.71-.24-1.18-.28-1.2.06s0,.44-.14.51c-.67.28-.36,1.4-1.41,1.36-.07,0,0,.09-.06.12a7.28,7.28,0,0,1-1.07,1.08c-.46.31-1.35.26-1.8.59a2.53,2.53,0,0,0-.89,1.59c-.07.34-.52.37-.81.53s-.46.09-.53.26c-.3.64.23,1.91-.82,1.95-.64,0-1.25.11-.86.91.1.2.12.34-.1.3-.8-.14-.51.51-.33,1.07A3,3,0,0,0,397.34,329.31Z"/><path class="cls-1" d="M397.34,339.57c1.11.42,1.1.05,1.23-.23a5.66,5.66,0,0,1,1.94-1.19c.53-.12.63-1.17.65-1.2.16-.37.31-.76.5-1.13a6.83,6.83,0,0,1,.59-1,5.35,5.35,0,0,1,.7-.81,3.87,3.87,0,0,1,1.05-.87c.63-.32,1.56-.39,1.37-1.4-.12-.61.45-.65.71-.94.45-.47,1-.89,1.46-1.34,0,0,.08,0,0-.13s-.39-.37-.6-.57-.83-.66-.88-.67c-.71-.25-1.18-.28-1.2.06s0,.43-.14.5c-.67.29-.36,1.4-1.41,1.36-.07,0,0,.1-.06.13a7.22,7.22,0,0,1-1.07,1.07c-.46.32-1.35.27-1.8.59a2.58,2.58,0,0,0-.89,1.6c-.07.34-.52.37-.81.53s-.46.08-.53.25c-.3.65.23,1.91-.82,2-.64,0-1.25.1-.86.9.1.2.12.35-.1.31-.8-.14-.51.51-.33,1.06A3,3,0,0,0,397.34,339.57Z"/><path class="cls-1" d="M112.63,337.9c.37-1.21-.19-1.42-.65-1.75a16.52,16.52,0,0,1-2.31-3.3c-.33-.8-1.93-1.57-2-1.61-.6-.44-1.21-.88-1.8-1.35s-1.12-.92-1.64-1.42a18.65,18.65,0,0,1-1.36-1.45,14,14,0,0,1-1.52-2c-.61-1.07-.94-2.39-2.36-2.74-.86-.21-1.06-1-1.54-1.54-.81-.9-1.56-1.87-2.34-2.79,0,0,0-.12-.18-.05s-.45.31-.69.48a10.11,10.11,0,0,0-.74.82c-.16.84-.09,1.46.41,1.69.29.13.62.22.77.49.59,1.08,2.13,1.31,2.33,2.75,0,.09.14.08.2.14a26.68,26.68,0,0,1,1.82,2.14c.57.82.71,2,1.3,2.83a8,8,0,0,0,2.54,2.17c.51.3.67.92,1,1.41.18.28.24.67.5.87,1,.76,2.76.78,3.09,2.21.2.87.45,1.71,1.56,1.65.27,0,.48,0,.48.32,0,1,.88,1,1.68,1A1.79,1.79,0,0,0,112.63,337.9Z"/><path class="cls-1" d="M102.31,343.74c.41-1.15-.06-1.25-.43-1.47a10.08,10.08,0,0,1-1.76-2.59c-.21-.65-1.55-1.09-1.59-1.12-.49-.3-1-.6-1.46-.92a16.6,16.6,0,0,1-1.33-1,11,11,0,0,1-1.07-1.09A7.82,7.82,0,0,1,93.5,334c-.45-.85-.62-2-1.86-2.08-.74-.06-.85-.73-1.23-1.14-.64-.68-1.22-1.43-1.84-2.14,0,0,0-.1-.16,0s-.42.34-.64.52-.72.78-.74.83c-.21.76-.21,1.3.22,1.42.24.08.53.11.64.33.42.86,1.77.85,1.82,2.08,0,.08.12.06.16.1a14.57,14.57,0,0,1,1.42,1.62c.43.64.45,1.67.9,2.31a4.9,4.9,0,0,0,2.08,1.56c.42.19.51.72.75,1.11.13.23.15.56.37.7.85.54,2.37.3,2.55,1.53.11.74.28,1.46,1.25,1.24.24-.05.42,0,.4.21-.09.87.7.73,1.39.68A2.23,2.23,0,0,0,102.31,343.74Z"/><path class="cls-1" d="M380,296.65a42.47,42.47,0,0,0,.91-4.92c.1-.83.19-1.65.25-2.47s.12-1.82.15-1.95.76-1.17,1.2-1.9l1.41-2.4,3-5.23,4-6.85-7.85-.07-6.81-.13L362,270.36l-20.05-.65c-10.12-.51-31.71.36-32.38.37l-28.45.5-27.42.3q-12.69.09-25.39,0c-10.49-.06-21,0-31.47-.32-15.24-.4-30.47-1.38-45.7-.17-9.15.72-18.28.13-27.41.11l-20.49-.11L92.11,285.32l.93,10.8a5.36,5.36,0,0,0,.34,2c.25.5.9.86,1.37,1.28.54-.41,1.53-.81,1.56-1.23.15-2,.25-4.08.28-6.12,0-1,0-2,0-3.05l0-2.45.29-.33.4-.52,1-1.37c.67-.92,1.32-1.85,2-2.81l2.61-4,1.33-2,1-1.41,1,0c15.12.47,30.44-1,45.65.25,1,.08,2-.07,3-.06,11.85,0,23.69,0,35.54.15,12.51.21,25,1.25,37.53,1.44,13.88.2,27.74-.06,41.61-.54,7.07-.25,14.17.23,21.26.41,4.05.11,8.11.44,12.16.37,15.58-.27,31.13-2.07,46.68-.87,9.45.72,18.92,1.37,28.39.19,1.17-.14,2.35-.26,3.53-.29.54,0,.81,0,1,.15a.6.6,0,0,1,.15.26c-.32.32-.48.46-.59.59l-.07.09-.18.31-1,1.76c-.64,1.18-1.26,2.37-1.87,3.57l-.89,1.81-.44.91-.77,1.48c.08,1.88.17,2.38.25,3.37l.25,2.73C377.84,297.25,379.38,299.22,380,296.65Z"/><path class="cls-1" d="M94.32,286.72c5.94,1.71,11.92,1.37,17.89,1.28,8-.12,39.21,1,42.63,1.22,8.52.51,26.68-.36,27.25-.37,8-.16,16-.36,23.94-.5,7.69-.13,15.38-.25,23.08-.31q10.68-.07,21.36,0c8.83.06,17.66,0,26.49.33,12.82.4,25.64,1.38,38.45.17,7.7-.73,15.38-.13,23.07-.11,12.82,0,25.64.22,38.46.33a3.89,3.89,0,0,0,1.7-.15c.45-.2.8-.8,1.2-1.23-.31-.57-.58-1.57-.93-1.64a66,66,0,0,0-16.2-1.3c-3.13.18-6.27.45-9.4.33-12.82-.47-25.64,1-38.46-.25-.85-.08-1.71.07-2.56.06-10,0-19.94,0-29.9-.15-10.54-.21-21.05-1.25-31.59-1.44-11.68-.2-23.34.06-35,.54-6,.24-11.93-.23-17.89-.41-3.42-.11-6.83-.44-10.24-.37-13.11.27-26.2,2.06-39.28.87-8-.72-15.92-1.37-23.89-.19a19.75,19.75,0,0,1-5.94.14c-6.84-1.07-13.66-.16-20.46.55C93.81,284.57,92.13,286.09,94.32,286.72Z"/><path class="cls-1" d="M108.11,288.17l.08-1.06,0-.53,0-1,.5-.89.29-.48.58-1c.27-.46.46-1,.74-1.41l3-4.77a17.09,17.09,0,0,0,1.1-2.23,7.91,7.91,0,0,1,1.48-2.81c.5-.49,3,1.69,2.51,2.79a27.9,27.9,0,0,1-3.43,5.55,25.78,25.78,0,0,0-2,3.47l-.81,1.39c-.26.44-.61,1.05-.68,1.11l0,.27,0,.58-.16,2.7c0,1.36-.16,2.73-.11,4.08a30,30,0,0,0,.42,3.12,5.35,5.35,0,0,1,.11.68c.06.85-.16,1.13-1.06,1.31-.21,0-.41.1-.62.12a1.31,1.31,0,0,1-1.47-.89,18.38,18.38,0,0,1-.7-5.78c0-1.46.08-2.92.12-4.39Z"/><path class="cls-1" d="M125,288.17l.09-1.06,0-.53,0-1,.5-.89.29-.48.58-1c.27-.46.46-1,.74-1.41l3-4.77a17.09,17.09,0,0,0,1.1-2.23,7.91,7.91,0,0,1,1.48-2.81c.5-.49,3,1.69,2.51,2.79a27.9,27.9,0,0,1-3.43,5.55,25.78,25.78,0,0,0-2,3.47l-.81,1.39c-.26.44-.61,1.05-.68,1.11l0,.27,0,.58-.15,2.7c-.06,1.36-.16,2.73-.12,4.08a30,30,0,0,0,.42,3.12c0,.23.1.45.12.68,0,.85-.17,1.13-1.07,1.31-.21,0-.41.1-.62.12a1.32,1.32,0,0,1-1.47-.89,18.67,18.67,0,0,1-.7-5.78c0-1.46.08-2.92.13-4.39Z"/><path class="cls-1" d="M141.81,288.17l.09-1.06,0-.53,0-1,.5-.89.29-.48.58-1c.28-.46.46-1,.74-1.41l3-4.77a17.15,17.15,0,0,0,1.11-2.23,7.73,7.73,0,0,1,1.47-2.81c.5-.49,3,1.69,2.51,2.79a27.45,27.45,0,0,1-3.43,5.55,25.78,25.78,0,0,0-2,3.47l-.81,1.39c-.26.44-.61,1.05-.68,1.11l0,.27,0,.58-.15,2.7c-.06,1.36-.16,2.73-.11,4.08a27.49,27.49,0,0,0,.42,3.12c0,.23.09.45.11.68.06.85-.17,1.13-1.07,1.31-.2,0-.41.1-.61.12a1.33,1.33,0,0,1-1.48-.89,19,19,0,0,1-.7-5.78c0-1.46.08-2.92.13-4.39Z"/><path class="cls-1" d="M158.66,288.17l.09-1.06,0-.53,0-1,.5-.89.3-.48.58-1c.27-.46.45-1,.73-1.41l3-4.77a18.46,18.46,0,0,0,1.1-2.23,7.6,7.6,0,0,1,1.48-2.81c.49-.49,3,1.69,2.5,2.79a27.45,27.45,0,0,1-3.43,5.55,24.69,24.69,0,0,0-2,3.47l-.82,1.39c-.26.44-.61,1.05-.68,1.11l0,.27,0,.58-.16,2.7c-.06,1.36-.16,2.73-.11,4.08a27.49,27.49,0,0,0,.42,3.12c0,.23.09.45.11.68.06.85-.17,1.13-1.07,1.31-.2,0-.41.1-.61.12a1.33,1.33,0,0,1-1.48-.89,19,19,0,0,1-.7-5.78c0-1.46.08-2.92.13-4.39Z"/><path class="cls-1" d="M175.51,288.17l.09-1.06,0-.53.05-1,.49-.89.3-.48.58-1c.27-.46.45-1,.73-1.41l3-4.77a17.09,17.09,0,0,0,1.1-2.23,7.75,7.75,0,0,1,1.48-2.81c.5-.49,3,1.69,2.51,2.79a28,28,0,0,1-3.44,5.55,25.73,25.73,0,0,0-2,3.47l-.82,1.39c-.26.44-.61,1.05-.68,1.11l0,.27,0,.58c-.06.9-.11,1.8-.16,2.7-.06,1.36-.16,2.73-.11,4.08a30,30,0,0,0,.42,3.12c0,.23.1.45.11.68.06.85-.17,1.13-1.07,1.31-.2,0-.41.1-.61.12a1.31,1.31,0,0,1-1.47-.89,18.38,18.38,0,0,1-.7-5.78c0-1.46.08-2.92.12-4.39Z"/><path class="cls-1" d="M192.37,288.17l.08-1.06.05-.53,0-1,.5-.89.29-.48.58-1c.27-.46.45-1,.74-1.41l3-4.77a17.09,17.09,0,0,0,1.1-2.23,7.75,7.75,0,0,1,1.48-2.81c.5-.49,3,1.69,2.51,2.79a27.9,27.9,0,0,1-3.43,5.55,24.75,24.75,0,0,0-2,3.47l-.82,1.39a10,10,0,0,1-.68,1.11l0,.27,0,.58-.16,2.7c-.05,1.36-.16,2.73-.11,4.08a30,30,0,0,0,.42,3.12c0,.23.1.45.11.68.06.85-.17,1.13-1.07,1.31a6,6,0,0,1-.61.12,1.31,1.31,0,0,1-1.47-.89,18.38,18.38,0,0,1-.7-5.78c0-1.46.08-2.92.12-4.39Z"/><path class="cls-1" d="M209.22,288.17l.08-1.06,0-.53,0-1,.5-.89.29-.48.58-1c.27-.46.46-1,.74-1.41l3-4.77a17.09,17.09,0,0,0,1.1-2.23,7.91,7.91,0,0,1,1.48-2.81c.5-.49,3,1.69,2.51,2.79a27.9,27.9,0,0,1-3.43,5.55,25.78,25.78,0,0,0-2,3.47l-.81,1.39c-.26.44-.61,1.05-.68,1.11l0,.27,0,.58-.16,2.7c-.05,1.36-.16,2.73-.11,4.08a30,30,0,0,0,.42,3.12,5.35,5.35,0,0,1,.11.68c.06.85-.16,1.13-1.06,1.31-.21,0-.41.1-.62.12a1.31,1.31,0,0,1-1.47-.89,18.38,18.38,0,0,1-.7-5.78c0-1.46.08-2.92.12-4.39Z"/><path class="cls-1" d="M226.07,288.17l.09-1.06,0-.53,0-1,.5-.89.29-.48.58-1c.27-.46.46-1,.74-1.41l3-4.77a17.09,17.09,0,0,0,1.1-2.23,7.91,7.91,0,0,1,1.48-2.81c.5-.49,3,1.69,2.51,2.79A27.9,27.9,0,0,1,233,280.4a25.78,25.78,0,0,0-2,3.47l-.81,1.39c-.26.44-.61,1.05-.68,1.11l0,.27,0,.58-.16,2.7c0,1.36-.15,2.73-.11,4.08a30,30,0,0,0,.42,3.12c0,.23.1.45.12.68.05.85-.17,1.13-1.07,1.31-.21,0-.41.1-.62.12a1.31,1.31,0,0,1-1.47-.89,18.67,18.67,0,0,1-.7-5.78c0-1.46.08-2.92.13-4.39Z"/><path class="cls-1" d="M242.92,288.17l.09-1.06,0-.53,0-1,.5-.89.29-.48.58-1c.28-.46.46-1,.74-1.41l3-4.77a15.91,15.91,0,0,0,1.1-2.23,7.91,7.91,0,0,1,1.48-2.81c.5-.49,3,1.69,2.51,2.79a27.45,27.45,0,0,1-3.43,5.55,25.78,25.78,0,0,0-2,3.47l-.81,1.39c-.26.44-.61,1.05-.68,1.11l0,.27,0,.58-.15,2.7c-.06,1.36-.16,2.73-.11,4.08a27.49,27.49,0,0,0,.42,3.12c0,.23.09.45.11.68.06.85-.17,1.13-1.07,1.31-.21,0-.41.1-.61.12a1.33,1.33,0,0,1-1.48-.89,19,19,0,0,1-.7-5.78c0-1.46.08-2.92.13-4.39Z"/><path class="cls-1" d="M259.77,288.17l.09-1.06,0-.53,0-1,.5-.89.3-.48.58-1c.27-.46.45-1,.73-1.41l3-4.77a18.46,18.46,0,0,0,1.1-2.23,7.73,7.73,0,0,1,1.47-2.81c.5-.49,3,1.69,2.51,2.79a27.45,27.45,0,0,1-3.43,5.55,24.69,24.69,0,0,0-2,3.47l-.82,1.39c-.26.44-.61,1.05-.68,1.11l0,.27,0,.58c-.06.9-.11,1.8-.16,2.7-.06,1.36-.16,2.73-.11,4.08a27.49,27.49,0,0,0,.42,3.12c0,.23.09.45.11.68.06.85-.17,1.13-1.07,1.31-.2,0-.41.1-.61.12a1.33,1.33,0,0,1-1.48-.89,19,19,0,0,1-.7-5.78c0-1.46.08-2.92.13-4.39Z"/><path class="cls-1" d="M276.62,288.17l.09-1.06,0-.53.05-1,.49-.89.3-.48.58-1c.27-.46.45-1,.73-1.41l3-4.77a17.09,17.09,0,0,0,1.1-2.23,7.75,7.75,0,0,1,1.48-2.81c.5-.49,3,1.69,2.51,2.79a28,28,0,0,1-3.44,5.55,25.73,25.73,0,0,0-2,3.47l-.82,1.39c-.26.44-.61,1.05-.68,1.11l0,.27,0,.58-.16,2.7c-.06,1.36-.16,2.73-.11,4.08a30,30,0,0,0,.42,3.12c0,.23.1.45.11.68.06.85-.17,1.13-1.07,1.31-.2,0-.41.1-.61.12a1.31,1.31,0,0,1-1.47-.89,18.38,18.38,0,0,1-.7-5.78c0-1.46.08-2.92.12-4.39Z"/><path class="cls-1" d="M293.48,288.17l.08-1.06,0-.53,0-1,.5-.89.29-.48.58-1c.27-.46.45-1,.74-1.41,1-1.59,2-3.19,3-4.77a17.09,17.09,0,0,0,1.1-2.23,7.75,7.75,0,0,1,1.48-2.81c.5-.49,3,1.69,2.51,2.79a27.5,27.5,0,0,1-3.44,5.55,25.73,25.73,0,0,0-2,3.47l-.82,1.39a10,10,0,0,1-.68,1.11l0,.27,0,.58-.16,2.7c-.05,1.36-.16,2.73-.11,4.08a30,30,0,0,0,.42,3.12c0,.23.1.45.11.68.06.85-.17,1.13-1.07,1.31a6,6,0,0,1-.61.12,1.31,1.31,0,0,1-1.47-.89,18.38,18.38,0,0,1-.7-5.78c0-1.46.08-2.92.12-4.39Z"/><path class="cls-1" d="M310.33,288.17l.08-1.06,0-.53,0-1,.5-.89.29-.48.58-1c.27-.46.46-1,.74-1.41l3-4.77a17.09,17.09,0,0,0,1.1-2.23,7.91,7.91,0,0,1,1.48-2.81c.5-.49,3,1.69,2.51,2.79a27.9,27.9,0,0,1-3.43,5.55,25.78,25.78,0,0,0-2,3.47l-.81,1.39c-.26.44-.61,1.05-.68,1.11l0,.27,0,.58-.16,2.7c-.05,1.36-.16,2.73-.11,4.08a30,30,0,0,0,.42,3.12c0,.23.1.45.11.68.06.85-.17,1.13-1.06,1.31-.21,0-.41.1-.62.12a1.31,1.31,0,0,1-1.47-.89,18.38,18.38,0,0,1-.7-5.78c0-1.46.08-2.92.12-4.39Z"/><path class="cls-1" d="M327.18,288.17l.09-1.06,0-.53,0-1,.5-.89.29-.48.58-1c.27-.46.46-1,.74-1.41l3-4.77a17.09,17.09,0,0,0,1.1-2.23,7.91,7.91,0,0,1,1.48-2.81c.5-.49,3,1.69,2.51,2.79a27.9,27.9,0,0,1-3.43,5.55,25.78,25.78,0,0,0-2,3.47l-.81,1.39c-.26.44-.61,1.05-.68,1.11l0,.27,0,.58-.16,2.7c0,1.36-.15,2.73-.11,4.08a30,30,0,0,0,.42,3.12c0,.23.1.45.12.68.05.85-.17,1.13-1.07,1.31-.21,0-.41.1-.62.12a1.31,1.31,0,0,1-1.47-.89,18.67,18.67,0,0,1-.7-5.78c0-1.46.08-2.92.13-4.39Z"/><path class="cls-1" d="M344,288.17l.09-1.06,0-.53,0-1,.5-.89.29-.48.58-1c.28-.46.46-1,.74-1.41l3-4.77a17.09,17.09,0,0,0,1.1-2.23,7.91,7.91,0,0,1,1.48-2.81c.5-.49,3,1.69,2.51,2.79A27.45,27.45,0,0,1,351,280.4a25.78,25.78,0,0,0-2,3.47l-.81,1.39c-.26.44-.61,1.05-.68,1.11l0,.27,0,.58-.15,2.7c-.06,1.36-.16,2.73-.12,4.08a30,30,0,0,0,.43,3.12c0,.23.09.45.11.68.06.85-.17,1.13-1.07,1.31-.21,0-.41.1-.61.12a1.33,1.33,0,0,1-1.48-.89,19,19,0,0,1-.7-5.78c0-1.46.08-2.92.13-4.39Z"/><path class="cls-1" d="M360.88,288.17l.09-1.06,0-.53,0-1,.5-.89.29-.48.58-1c.28-.46.46-1,.74-1.41l3-4.77a18.46,18.46,0,0,0,1.1-2.23,7.73,7.73,0,0,1,1.47-2.81c.5-.49,3,1.69,2.51,2.79a27.45,27.45,0,0,1-3.43,5.55,24.69,24.69,0,0,0-2,3.47l-.82,1.39c-.26.44-.61,1.05-.68,1.11l0,.27,0,.58-.15,2.7c-.06,1.36-.16,2.73-.11,4.08a27.49,27.49,0,0,0,.42,3.12c0,.23.09.45.11.68.06.85-.17,1.13-1.07,1.31-.2,0-.41.1-.61.12a1.33,1.33,0,0,1-1.48-.89,19,19,0,0,1-.7-5.78c0-1.46.08-2.92.13-4.39Z"/><path class="cls-1" d="M180.91,97.9c.55-1.07.09-1.2-.23-1.43A10.33,10.33,0,0,1,179.22,94c-.17-.63-1.44-1-1.47-1l-1.39-.81c-.43-.27-.86-.55-1.26-.86a11.5,11.5,0,0,1-1-.93A7.61,7.61,0,0,1,172.91,89c-.45-.75-.66-1.8-1.84-1.74-.7,0-.83-.58-1.22-.92-.64-.56-1.21-1.19-1.9-1.78,0,0,0-.1-.16,0s-.36.4-.55.61-.6.87-.61.92c-.14.77-.11,1.25.29,1.31.23,0,.5,0,.61.2.43.76,1.7.55,1.79,1.71,0,.08.12,0,.16.07a11.72,11.72,0,0,1,1.39,1.34c.42.55.46,1.52.88,2.06a4,4,0,0,0,1.93,1.25c.4.14.46.63.66,1s.13.51.32.62c.75.44,2.2.15,2.26,1.3,0,.7.1,1.36,1,1.15.22,0,.4,0,.34.2-.19.81.55.68,1.2.65A2.53,2.53,0,0,0,180.91,97.9Z"/><path class="cls-1" d="M258.2,63.11c1-.65.7-1,.54-1.34a10,10,0,0,1,0-2.9c.18-.63-.72-1.6-.74-1.63l-.77-1.39a14,14,0,0,1-.64-1.37,10.78,10.78,0,0,1-.42-1.33,6.91,6.91,0,0,1-.32-1.7c0-.87.36-1.88-.69-2.41-.63-.32-.42-.93-.58-1.41-.27-.8-.43-1.63-.72-2.49,0,0,0-.1-.14-.07s-.52.16-.8.25-1,.46-1,.5c-.52.59-.74,1-.43,1.27s.43.26.43.47c0,.87,1.18,1.33.66,2.37,0,.07.08.09.1.15a11.49,11.49,0,0,1,.51,1.85c.08.68-.38,1.53-.3,2.21a4,4,0,0,0,1,2c.27.31.07.77.07,1.17,0,.23-.16.51-.05.7.42.75,1.82,1.22,1.28,2.25-.33.62-.61,1.22.29,1.5.23.07.37.17.2.34-.59.61.12.86.69,1.16A2.56,2.56,0,0,0,258.2,63.11Z"/><path class="cls-1" d="M409.67,115.7c.05-1.17-.3-1-.59-1.06a6,6,0,0,1-1.78-1.31c-.31-.43-1.3-.09-1.33-.09l-1.2.05a10.37,10.37,0,0,1-1.12-.06,5.82,5.82,0,0,1-1-.24,4.34,4.34,0,0,1-1.19-.49c-.54-.4-1-1.17-1.78-.51-.47.4-.75-.06-1.12-.15-.62-.14-1.2-.37-1.87-.54,0,0-.05-.06-.1.09s-.11.52-.17.8-.1,1-.09,1.1c.16.72.33,1.12.61,1s.34-.24.47-.14c.52.41,1.31-.41,1.73.51,0,.06.09,0,.13,0a6.53,6.53,0,0,1,1.35.4c.46.24.78,1,1.23,1.26a2.23,2.23,0,0,0,1.69,0c.31-.09.51.28.75.47s.24.36.41.35c.64,0,1.55-1,1.94-.11.23.56.48,1.07,1.05.41.14-.16.26-.24.29,0,.11.78.58.27,1-.09A3.36,3.36,0,0,0,409.67,115.7Z"/></svg>
