<svg id="Layer_1" data-name="Layer 1" xmlns="http://www.w3.org/2000/svg" viewBox="0 0 500 500"><defs><style>.cls-1{fill:#658378;}</style></defs><path class="cls-1" d="M337.7,271c-15-1.14-29.91.59-44.79,2-10,.95-34.43,2.87-57.48,4.82l-49,4.25c-10.65.85-27.25,2.93-41.36,5s-25.71,4.2-26.42,4.34c-5,.87-9.91,1.78-14.91,2.95-1.25.3-2.5.61-3.78,1-.64.18-1.28.37-2,.59l-.62.22c-.26.1-.52.18-.77.29a13.59,13.59,0,0,0-1.49.7,5.44,5.44,0,0,0-2.24,2.14c-.13.49-.21,1-.32,1.52l-.15.77,0,.82,0,2.37,0,1.92c.25,10.1.83,20.08,1.49,30.09.64,9.62,1.46,19.31,2.52,28.9s2.35,19.36,5.21,28.89c2.69,8.74,6.75,17.51,14,24.09a33.46,33.46,0,0,0,12.62,6.88A65.32,65.32,0,0,0,142,427.89c1.44.09,2.73.26,4.28.24s2.9,0,4.31-.09c2.8-.09,5.56-.25,8.33-.39l16.59-1,33.13-2.41c16-1.22,32.08-2.46,48.09-4.39,8-1,16-2.1,24-3.62a164.41,164.41,0,0,0,23.71-6c9.31-3.24,18.51-7,27-12.36A63.24,63.24,0,0,0,343,388a40.61,40.61,0,0,0,7.85-13.41,37.17,37.17,0,0,0,2-12.87c0-1.07,0-2.2-.1-3.23l-.25-3-.57-6c-.82-8-1.74-16-2.67-24l-5.67-47.82a18.92,18.92,0,0,0-.71-4.19,11.9,11.9,0,0,0-2-2.77c-.66.85-1.92,1.68-1.9,2.58a295.43,295.43,0,0,0,3.27,40.45c1.21,7.75,2.52,15.5,3.29,23.29l1.22,12c.38,4,.9,8,1.06,11.86a33.87,33.87,0,0,1-6.29,21.62,50.76,50.76,0,0,1-17.79,14.93,89.62,89.62,0,0,1-22.23,8.06c-2.05.45-4.07,1.13-6.12,1.66-12,2.8-24.35,4.67-36.67,6.37s-24.71,3.06-37.12,4.18c-13.11,1.19-26.25,1.94-39.39,2.53l-19.7.79-9.83.33-4.86.11-2.15,0-2.39-.18c-7.07-.56-13.86-1.66-19.25-4.84s-9.45-8.46-12.45-14.56A81.63,81.63,0,0,1,105.33,382c-1.4-7-2.28-14.12-3.13-21.37-1.74-14.71-1.91-29.67-2.21-44.51-.07-4.2,0-8.58.13-12.54,0-.05,0-.07.09-.07l.05,0c.06,0-.17.07.45-.12,1.79-.52,3.82-1,5.82-1.45,7.79-1.74,15.86-3.19,23.88-4.64s16.11-2.79,24.2-4.05c16.18-2.49,32.42-4.56,48.77-5.53,19.9-1.19,39.79-2.33,59.49-5.81a90.87,90.87,0,0,1,14.77-1.58c17.18-.15,34.06-2.86,50.93-5.17C339.19,273.73,343.25,271.39,337.7,271Z"/><path class="cls-1" d="M338,265.84c.73-11.79-1.27-23.27-2.93-34.79-2.22-15.38-8.81-75.89-9.43-82.53C324.1,132,318.25,97.07,318.09,96l-3.44-23.06L314.22,70,314,68.59l-.07-.41,0-.19a3.9,3.9,0,0,1-.11-.74l.73-.23,10.59-3c7.16-1.9,14.35-3.69,21.52-4.34a43.91,43.91,0,0,1,10.57.07,20.39,20.39,0,0,1,2.52.45l2.42.67,2.22,1a19.08,19.08,0,0,1,2,1.29c2.46,1.73,4.69,4.5,7.63,6.89a19.63,19.63,0,0,0,5.1,3.12c1.86.74,3.54,1.13,4.77,1.71a5.52,5.52,0,0,1,2.64,2.42,23,23,0,0,1,1.8,4.3l3.31,9.81A450.3,450.3,0,0,1,404.84,141c4.93,24.38,7.23,49.05,10.76,73.62a184.82,184.82,0,0,1,1.68,22.28c.09,3.71.2,7.53,0,10.95A18.69,18.69,0,0,1,414.5,257a13,13,0,0,1-2.31,2.78,15.87,15.87,0,0,1-3.32,1.84,50.16,50.16,0,0,1-8.41,2.45,152.12,152.12,0,0,1-18.15,2.48c-12.29,1-24.72,1.3-37.14,1.32a11.58,11.58,0,0,0-3.29.21,9.16,9.16,0,0,0-2.32,1.65c.6.76,1.12,2.11,1.81,2.2a137.43,137.43,0,0,0,31.67.86c6.11-.61,12.21-1.49,18.33-2.14s12.54-1.72,18.67-4.11a21.62,21.62,0,0,0,4.5-2.37,12.15,12.15,0,0,0,2.06-1.84,23.06,23.06,0,0,0,1.51-2,21.13,21.13,0,0,0,3.42-9.41,59.62,59.62,0,0,0,.17-9.61l-.33-9.38q-.33-9.37-.49-18.79c0-1.67-.33-3.33-.49-5-.85-9.71-2-19.39-3.36-29.05s-3-19.26-4.83-28.83c-3.82-20.23-7.74-40.54-14-60.3-.84-2.74-1.79-5.45-2.69-8.17-.47-1.38-.88-2.67-1.42-4.13a20.38,20.38,0,0,0-2.39-4.76,12.27,12.27,0,0,0-4.84-4.07,39,39,0,0,0-4.45-1.6,11.72,11.72,0,0,1-2.87-1.38,24.27,24.27,0,0,1-2.81-2.25l-3-2.89a24.29,24.29,0,0,0-3.73-3c-.72-.48-1.45-1-2.19-1.42l-2.33-1-1.16-.49-1.19-.32-2.37-.63c-6.33-1.23-12.4-.73-18.23.14S330.78,56,325,57.33l-8.55,2-4.83,1.15-4,1-1,.24-.5.13-.25.06-.13,0s0,.08,0,.12l.25,2,.56,4.67.28,2.75.48,5c.33,3.31.68,6.62,1.17,9.91,3.75,25.27,9.52,50.22,11.33,75.7,1.1,15.5,2.3,31,5.93,46.17a56.29,56.29,0,0,1,1.72,11.44c.35,13.42,3.33,26.42,6,39.41C335.26,267.23,337.71,270.19,338,265.84Z"/><path class="cls-1" d="M300.14,390.19a39.94,39.94,0,0,0,12.48-5.68,27.81,27.81,0,0,0,8.7-10.23,39.84,39.84,0,0,0,3-9.7,57.82,57.82,0,0,0,1-9.18A82.92,82.92,0,0,0,325,346l-1.71-19.59c-.52-5.79-1.24-11.59-2-17.31-1-7.35-2.28-14.69-2.4-22.13-.07-4.64,7,.49,8,8.95,1.81,15,3.21,30,4,45.28.22,4.48.84,9.39.77,14.26a54.2,54.2,0,0,1-1.85,14.71A37.46,37.46,0,0,1,322,384.72a36,36,0,0,1-13.42,9.47c-6.28,2.58-12.48,3.75-18.69,5.18-9.42,2-18.94,3.52-28.32,5.14-7.29,1.26-14.4,2.77-21.61,4.05-1.59.28-3.13.61-4.74.85-6,.88-7.93.65-9.42-1a7.58,7.58,0,0,1-1-1.11c-.72-1.3,1.56-2.7,5.86-3.64,12.73-2.8,26.24-4.94,39.72-7.34,10-1.82,20-3.7,29.7-6.32Z"/><path class="cls-1" d="M192.18,406.17c-1.05-2.17-2.27-1.62-3.32-1.41-1.47.27-7.43-.8-8.08-1-1.65-.56-5,.83-5.07.86-1.47.33-3,.69-4.43,1s-2.86.54-4.29.72-2.67.25-4,.28a28.84,28.84,0,0,1-5-.09c-2.43-.37-4.93-1.51-7.22.27-1.37,1.07-2.86.38-4.31.45-2.4.12-4.82,0-7.24.06-.1,0-.22-.1-.3.22a15.36,15.36,0,0,0-.11,1.66c.11.76.26,2.1.33,2.18,1.1,1.32,2.17,2,3.16,1.52a2.94,2.94,0,0,1,1.73-.56c2.44.46,4.71-1.63,7.22-.16.17.1.32-.11.48-.12a50,50,0,0,1,5.61-.18c2,.13,4.06,1.39,6,1.5a16.32,16.32,0,0,0,6.52-1.18c1.09-.4,2.25.16,3.39.32.65.09,1.32.49,1.95.35,2.43-.53,4.71-3.11,7.28-1.69,1.57.85,3.13,1.61,4.51-.08.34-.42.7-.66,1.1-.28,1.4,1.33,2.59,0,3.83-1.06a2.08,2.08,0,0,0,.49-.74,2.46,2.46,0,0,1,.26-.51c.17-.21-.05-.35-.1-.52A4.38,4.38,0,0,1,192.18,406.17Z"/><path class="cls-1" d="M126.42,400.12c.3-1.17.38-1.71.21-2.1a3,3,0,0,0-.86-.88,8.44,8.44,0,0,1-1.36-3.21,15.11,15.11,0,0,1-.48-3.14c0-1.42-2-3.7-2.06-3.8-.65-1.12-1.26-2.31-1.85-3.49a35.15,35.15,0,0,1-1.39-3.57,21.22,21.22,0,0,1-.81-3.46,17.08,17.08,0,0,1-.45-4.41c.13-2.21,1.06-4.49-.82-6.38-1.14-1.14-.55-2.52-.69-3.8-.19-2.15-.19-4.32-.27-6.47,0-.09.09-.21-.23-.26s-1.09,0-1.66,0c-.76.12-2.09.3-2.18.36-1.28,1-1.93,2-1.41,2.94.29.51.71,1,.61,1.55-.41,2.28,1.81,4.19.52,6.6-.09.16.13.28.14.42.18,1.71.57,3.39.63,5.12s-1,3.9-.81,5.77a12.63,12.63,0,0,0,2.17,5.82c.57.92.28,2.11.38,3.2,0,.62-.19,1.35.09,1.9,1.14,2.18,4.2,3.39,3.77,6.19a6.12,6.12,0,0,0,.08,2.5,2.33,2.33,0,0,0,1.9,1.55c.51.12.94.3.83.85-.39,2,1.64,2.43,3.41,2.66a2.25,2.25,0,0,0,1.77-.78A4.64,4.64,0,0,0,126.42,400.12Z"/><path class="cls-1" d="M113.26,293c4.65-2.63,7.16-6.76,10.11-10.57a65.58,65.58,0,0,1,5.09-5.68,39.89,39.89,0,0,1,3.76-3.31l1-.72c.32-.2.63-.34.93-.52s.46-.13.63-.23l.11-.05.33,0,.66-.08c7.34-.82,14.53-1.38,15.89-1.46,7-.34,21.55-3.6,22-3.68l19.31-3.4c6.21-1.05,12.42-2.08,18.65-3q8.66-1.29,17.33-2.35c7.17-.89,14.34-1.84,21.54-2.39,10.47-.76,21-.74,31.19-3.25a38.7,38.7,0,0,1,9.22-1,26.43,26.43,0,0,1,8.13,1,3.6,3.6,0,0,1,.94.51L301.5,254l2.92,2.61,5.81,5.25,11.6,10.52c.35.31.64.71,1.17.76a6.29,6.29,0,0,0,1.83-.59c.32-.73,1.05-1.88.89-2.14a33.77,33.77,0,0,0-8.86-10.08,50.23,50.23,0,0,1-6.09-4.75c-1.88-1.86-3.87-3.59-5.89-5.28l-1.52-1.25a8.9,8.9,0,0,0-1-.67c-.36-.2-.73-.36-1.1-.53a15.12,15.12,0,0,0-4.33-.84c-5.52-.27-10.71.29-16.06-.12a15.11,15.11,0,0,0-2.1.28c-8.17.71-16.27,1.77-24.42,2.51-8.61.79-17.33.53-25.93,1.44a285.68,285.68,0,0,0-28.33,4.6c-4.79,1-9.72,1-14.6,1.48-2.79.26-5.62.2-8.37.69-10.59,1.88-20.86,5.78-31.7,5.78a86,86,0,0,0-9.89.43l-1.31.19a7.19,7.19,0,0,0-1.6.39c-.37.12-.73.26-1.08.41a4.22,4.22,0,0,0-.91.46q-.7.46-1.38,1a20.59,20.59,0,0,0-2.12,2,24.13,24.13,0,0,0-1.61,2.19,12.68,12.68,0,0,1-3.33,3.85c-4.91,3.43-7.45,8.74-10,13.83C110.63,291.65,111.54,294,113.26,293Z"/><path class="cls-1" d="M127,294.67c2.23.77,2.16.05,2.4-.5.3-.74,3.3-2.33,3.71-2.41,1-.24,1.16-2.31,1.19-2.37.29-.74.58-1.48.92-2.2a14.65,14.65,0,0,1,1.11-1.93,8.65,8.65,0,0,1,1.37-1.46,5.33,5.33,0,0,1,2-1.32c.6-.21,1.28-.06,1.76-.22.24,0,.4-.07.51-.26a1.23,1.23,0,0,0,.12-.37,3.11,3.11,0,0,0,0-.48c0-.5.1-.64.57-.65a7.92,7.92,0,0,0,1.19,0c1.25-.24,2.55-.29,3.83-.44.06,0,.14.09.12-.23s-.17-1.07-.26-1.63c-.2-.73-.53-2-.59-2.12-.84-1.24-1.53-1.85-2-1.32-.25.3-.47.72-.81.64-.69-.16-1.24.3-1.82.64a2.24,2.24,0,0,1-2.24.07c-.15-.06-.19.17-.3.21a15.24,15.24,0,0,0-1.6.87,10,10,0,0,1-1.46.86c-1,.52-2.86.29-3.85,1a5,5,0,0,0-2,3.25c-.16.68-1,.75-1.62,1.08-.34.19-.92.19-1.06.53-.58,1.31.54,3.81-1.53,3.94-1.26.08-2.46.26-1.64,1.84.2.39.26.68-.19.61-1.58-.24-1,1-.57,2.15A6,6,0,0,0,127,294.67Z"/><path class="cls-1" d="M155.51,277.72c2.35,1.4,4.42.75,6.52.36,2.8-.52,14-1,15.26-1,3.08.07,9.39-1.71,9.59-1.75,2.8-.58,5.59-1.18,8.4-1.72s5.4-1,8.12-1.48q3.76-.63,7.56-1.09c3.13-.39,6.25-.86,9.42-1,4.59-.25,9.27.07,13.63-1.79,2.62-1.11,5.42-.91,8.15-1.28,4.54-.62,9.1-1.09,13.65-1.63.21,0,.43,0,.58-.24a6.14,6.14,0,0,0,.25-1.28,8.09,8.09,0,0,0-.56-1.58,9.06,9.06,0,0,0-5.92-.47,13,13,0,0,1-3.28.81c-4.6.18-8.93,2.27-13.65,1.7-.31,0-.59.16-.89.2-3.54.47-7.05,1.05-10.61,1.37-3.75.33-7.62-.17-11.38.18A77.4,77.4,0,0,0,198,268.36a31.68,31.68,0,0,1-6.39.5A26.52,26.52,0,0,0,188,269c-4.6.94-9,3.39-13.77,2.87-2.92-.31-5.83-.55-8.48,1a2.66,2.66,0,0,1-2.08.45c-2.58-.72-4.86.53-7.16,1.58C155,275.61,154.65,277.2,155.51,277.72Z"/><path class="cls-1" d="M259.51,263.1c.52,1.08.83.8,1.16.69a7.85,7.85,0,0,1,2.59.42c.55.26,1.51-.48,1.54-.49.44-.18.88-.38,1.33-.54a12.29,12.29,0,0,1,1.3-.42,10.31,10.31,0,0,1,1.24-.19,5.42,5.42,0,0,1,1.56,0c.78.15,1.62.68,2.24-.23.37-.55.87-.23,1.32-.28.74-.1,1.5-.09,2.26-.13,0,0,.07,0,.08-.11s0-.54-.06-.83-.19-1-.22-1.08c-.42-.64-.79-1-1.07-.71s-.32.35-.51.31c-.79-.2-1.38.87-2.25.17-.06,0-.09.06-.14.07a10.15,10.15,0,0,1-1.74.16c-.63,0-1.35-.63-2-.66a3.28,3.28,0,0,0-2,.67c-.32.21-.71,0-1.08-.11-.21,0-.44-.23-.63-.16-.73.3-1.3,1.61-2.18.93-.53-.4-1.06-.76-1.4.09-.08.21-.18.33-.32.15-.51-.65-.81,0-1.13.55A2.7,2.7,0,0,0,259.51,263.1Z"/><path class="cls-1" d="M333.31,141.4c-2.1,1.68-1.47,3-1.18,4.41.38,1.85-.2,9.36-.37,10.19-.44,2.09,1.24,6.2,1.27,6.33.45,1.85.94,3.69,1.36,5.53s.78,3.57,1.08,5.36.48,3.34.62,5a43.62,43.62,0,0,1,.34,6.27c-.16,3.07-1.08,6.24.9,9.05,1.18,1.68.62,3.58.81,5.39.33,3,.46,6,.68,9.07,0,.13-.08.29.25.37a14.25,14.25,0,0,0,1.67.08,17.49,17.49,0,0,0,2.15-.49c1.23-1.43,1.82-2.79,1.25-4a4.5,4.5,0,0,1-.71-2.15c.25-3.08-2-5.85-.78-9.06.09-.21-.14-.39-.16-.59-.24-2.34-.62-4.67-.66-7s1.05-5.14,1-7.64a25.34,25.34,0,0,0-1.73-8.12c-.5-1.36,0-2.84,0-4.27a8.58,8.58,0,0,0,.19-2.46c-.74-3-3.5-5.8-2.3-9.06.73-2,1.36-4-.44-5.64-.44-.41-.71-.86-.36-1.37,1.22-1.78-.19-3.23-1.33-4.7A3.07,3.07,0,0,0,333.31,141.4Z"/><path class="cls-1" d="M357.9,259.41c1.2,1.69,2.38,1.32,3.55,1.2a61.38,61.38,0,0,1,8.46.9c1.71.44,5.26-.64,5.36-.66L380,260c1.51-.26,3-.5,4.53-.73s2.81-.36,4.22-.5c1.77-.19,3.5-.44,5.35-.59a18.4,18.4,0,0,0,4.27-.5,5.91,5.91,0,0,0,3.42-2.46c.93-1.39,2.54-1.61,3.94-2.52a13.05,13.05,0,0,0,3.51-3.13,9.35,9.35,0,0,0,1.68-4.82c0-.14.1-.29-.13-.42a5.77,5.77,0,0,0-1.22-.29c-.58.07-1.59.11-1.66.17-1.06,1-1.76,1.64-1.77,2.44a1.67,1.67,0,0,1-.5,1.36c-1.65,1.15-3.22,3.54-6,3.79-.19,0-.26.23-.4.31a18.79,18.79,0,0,1-2.43,1.31,4.68,4.68,0,0,1-1.23.4,10,10,0,0,1-1.34.28c-2,.25-4.12-.44-6.12-.36a26.69,26.69,0,0,0-6.64,1.28,9.36,9.36,0,0,1-3.49-.13,7.71,7.71,0,0,0-2-.23c-2.51.44-5,2.38-7.58,1.3-1.59-.66-3.15-1.25-4.66,0-.38.3-.77.48-1.16.18-1.36-1-2.66-.08-4,.66A2.17,2.17,0,0,0,357.9,259.41Z"/><path class="cls-1" d="M410.6,237.06c1.1-.48.83-.81.73-1.16a8.61,8.61,0,0,1,.51-2.65c.29-.55-.41-1.57-.42-1.61-.17-.46-.35-.92-.5-1.39a13,13,0,0,1-.36-1.36,7.85,7.85,0,0,1-.15-1.28,6.22,6.22,0,0,1,0-1.61c.19-.8.75-1.64-.14-2.32-.54-.4-.2-.91-.24-1.37-.06-.77,0-1.55,0-2.33,0,0,.05-.08-.11-.09s-.54,0-.82,0-1,.15-1.09.18c-.66.4-1,.77-.75,1.07s.34.34.28.54c-.22.8.82,1.46.09,2.32,0,.06.06.1.07.15a10.81,10.81,0,0,1,.1,1.8c-.07.65-.69,1.36-.74,2a3.43,3.43,0,0,0,.6,2.06c.2.34-.08.73-.16,1.1,0,.22-.24.45-.17.65.27.76,1.55,1.41.85,2.28-.43.53-.81,1.06,0,1.45.21.09.33.2.14.34-.67.49,0,.83.51,1.19A2.62,2.62,0,0,0,410.6,237.06Z"/><path class="cls-1" d="M387.92,104.3c1.8-2.25.88-3.87.28-5.52-.39-1.11-.89-4-1.43-6.71s-1.12-5.39-1.23-5.92a12.42,12.42,0,0,0-2.41-4.82l-.89-1.09c-.29-.34-.63-.66-.89-.91a9.19,9.19,0,0,0-1-.88,16.41,16.41,0,0,0-3.63-2.35c-1.14-.58-2.3-1.13-3.49-1.6a49.52,49.52,0,0,0-6.87-2.11,17.91,17.91,0,0,1-5.19-2l-.69-.46-.36-.23-.53-.32a12.93,12.93,0,0,0-2.13-1.08c-.71-.33-1.42-.51-2.14-.79l-2.13-.6c-4-1.09-8.28-2.12-11.95,0-2.18,1.23-4.53.84-6.8,1.23-3.75.67-7.49,1.31-11.19,2.12-.16,0-.36,0-.43.31a12.19,12.19,0,0,0,.08,1.68,14.53,14.53,0,0,0,.83,2.06c1.86,1,3.53,1.3,4.94.55a6.11,6.11,0,0,1,2.53-1c3.69-.18,7-2.77,10.85-1.58.25.07.47-.16.71-.18a32.65,32.65,0,0,1,8.26,0,9.2,9.2,0,0,1,3.73,1.66,7.87,7.87,0,0,1,1.3,1.15,4.45,4.45,0,0,0,.58.59c.35.29.71.58,1.09.84a16.54,16.54,0,0,0,5.5,2.31c1.8.42,3.35.58,4.87.82s2.67,1.49,3.84,2.46c.68.58,1.16,1.42,1.93,1.86a2.21,2.21,0,0,0,.71.31c.19,0,.51.28.8.42a4.79,4.79,0,0,1,.94.68,8.31,8.31,0,0,1,.94.86,6.73,6.73,0,0,1,2.07,4.87c-.09,2.42-.2,4.73,2,6.39.53.42.91.9.68,1.55-.82,2.26.87,3.76,2.27,5.4A2.79,2.79,0,0,0,387.92,104.3Z"/><path class="cls-1" d="M388.22,114.8c-2.19.81-1.67,1.18-1.48,1.62s-.87,3.16-1.1,3.46c-.57.75.79,1.94.81,2,.31.56.67,1.12.95,1.7a10.84,10.84,0,0,1,.68,1.67,6.67,6.67,0,0,1,.25,1.61,5,5,0,0,1-.1,2.06c-.38,1-1.52,2.22.23,2.93,1.05.43.36,1.13.42,1.72a26.54,26.54,0,0,1,0,3c0,.05-.1.11.22.1s1.07-.11,1.64-.17c.75-.14,2.07-.37,2.16-.41,1.31-.63,2-1.15,1.52-1.5-.27-.19-.66-.38-.55-.63.47-1.07-1.58-1.73-.12-3,.1-.08-.11-.11-.12-.17a8.75,8.75,0,0,1-.15-2.29c.14-.84,1.4-1.85,1.52-2.68a3,3,0,0,0-1.13-2.52c-.4-.4.16-1,.33-1.44.1-.28.5-.6.37-.85-.52-.93-3-1.53-1.63-2.77.86-.75,1.62-1.49,0-1.84-.41-.09-.64-.21-.26-.42,1.33-.74.05-1.06-1-1.42A7.94,7.94,0,0,0,388.22,114.8Z"/><path class="cls-1" d="M259.31,249.33c1.6-3.7.81-7.42,0-11a90.66,90.66,0,0,0-3.69-13.76,60.18,60.18,0,0,0-3.31-7.23c-1.08-2-2-3.38-2.28-3.84a30.11,30.11,0,0,0-7.46-7.67,33.73,33.73,0,0,0-5.9-3.51,46.14,46.14,0,0,0-14.41-4.53,66.45,66.45,0,0,0-7.15-.67c-2.38,0-4.76,0-7.12.16A88,88,0,0,0,195,199a56.7,56.7,0,0,0-15.45,5.75,37.31,37.31,0,0,0-9.83,7.4,25.48,25.48,0,0,0-6.07,10.71c-1.26,4.73-3,9.22-3.56,14a67.85,67.85,0,0,0,1.25,23.86,1.83,1.83,0,0,0,.47,1.06,3.76,3.76,0,0,0,1.47.4c.44-.44,1.32-1,1.32-1.17a42.11,42.11,0,0,0-.55-9.57,22.92,22.92,0,0,1-.71-5.47c.15-3.76.13-7.51.61-11.24a24.7,24.7,0,0,1,3.54-10.58c.27-.41.3-.94.55-1.37a37.35,37.35,0,0,1,4.66-7.19,33.21,33.21,0,0,1,6.32-5.75c5.07-3.4,11.11-4.68,16.93-5.86a103.32,103.32,0,0,1,19.94-2.15c3.43,0,6.74,1.05,9.89,2.11,1.79.68,3.47,1.58,5.19,2.33a43.51,43.51,0,0,1,9.65,5.08,21.06,21.06,0,0,1,7,8.52c1.79,4.25,3,8.46,5.44,12.46a6.06,6.06,0,0,1,1.07,3.25c-.1,4.06,1.43,7.69,2.42,11.6C257.2,249.63,258.67,250.67,259.31,249.33Z"/><path class="cls-1" d="M244.57,251.42c1.46-2.72.67-5.29,0-7.77-.42-1.67-1.23-5.83-2.49-9.7a62.89,62.89,0,0,0-3.32-8.1,21.84,21.84,0,0,0-4.68-6,27.6,27.6,0,0,0-3.94-3,29.56,29.56,0,0,0-10.06-4.34,35.35,35.35,0,0,0-10.27-.75,53.67,53.67,0,0,0-9.27,1.43,37.24,37.24,0,0,0-10.86,4.7,26.41,26.41,0,0,0-6.76,5.78,16.72,16.72,0,0,0-3.64,8c-.51,3.47-1.75,6.63-2.12,10a59.17,59.17,0,0,0,.57,16.85c.05.25,0,.53.31.71a4.77,4.77,0,0,0,1.32.23c.53-.27,1.48-.62,1.52-.78a15.31,15.31,0,0,0,.25-6.77,13.12,13.12,0,0,1-.55-3.82c.17-2.62.08-5.23.3-7.85a15.43,15.43,0,0,1,2.27-7.43c.19-.29.16-.67.31-1a23,23,0,0,1,6.88-9.47,16.94,16.94,0,0,1,5.48-2.8c1.93-.67,4-1,5.91-1.5a62.94,62.94,0,0,1,13.43-1.65c2.32,0,4.45,1.1,6.43,2.07.55.32,1.08.69,1.61,1a10.67,10.67,0,0,0,1.57,1,34.32,34.32,0,0,1,6.25,4.05,13.36,13.36,0,0,1,4.29,6.37c.87,3.14,1.42,6.16,3.5,8.84a3.13,3.13,0,0,1,.8,2.25c-.32,2.92,1.1,5.35,2.16,8C242.46,251.79,244,252.4,244.57,251.42Z"/><path class="cls-1" d="M185.64,203c-1.21-3.22-3.75-4.86-6.13-6.7-1.4-1.09-4.39-3.8-7.3-6.51l-4.08-3.86c-.41-.38-.27-.3-.33-.39a.44.44,0,0,1,0-.14.15.15,0,0,1,.07-.14c.15-.11.19-.1.22-.1h.09c0,.06.12-.11.22-.22l.33-.36c.44-.49.89-1,1.36-1.6.92-1.14,1.86-2.37,2.7-3.52,1.7-2.3,3-4.26,3.11-4.37l1.68-2.23.84-1.12a3.27,3.27,0,0,0,.19-.32l.18-.06a1.43,1.43,0,0,1,.39-.08l1.59-.26,3.19-.51c3.82-.6,7.64-1.18,11.47-1.7,3.55-.48,7.1-.9,10.66-1.29,4.41-.47,8.81-1,13.25-1.27l1.43-.07a2.34,2.34,0,0,1,.38.06c.18.22,0,.12.67.75l1.5,1.42c1,.93,2,1.85,3.07,2.74a39.91,39.91,0,0,0,6.76,4.72,20.69,20.69,0,0,1,2.64,1.68l.34.25.22.18.39.36c-.2.28-.41.53-.59.75,0,0-.2.3-.3.45l-.36.57-.71,1.14c-3.29,5.54-6.71,11-10.07,16.5-.15.24-.37.46-.3.81a5,5,0,0,0,.76,1.14c.57.16,1.51.55,1.66.43A17,17,0,0,0,232,193.8a24.65,24.65,0,0,1,2.11-4.24A56.75,56.75,0,0,0,237.4,184l1.48-2.85,1-1.77,1-1.82-1.65-1.34-.81-.69-.71-.64a26.66,26.66,0,0,1-2.27-2.36,7.41,7.41,0,0,0-1.05-.76l-5.78-4.68-2.87-2.36-3.38-2.84-.2,0c-2.25.22-3.17.23-4.59.27l-4,0c-2.66,0-5.33,0-8,.25a151,151,0,0,0-17.4,2.65,63.79,63.79,0,0,1-9,.66l-1.32.06-2.31.15-1.79,2a12.92,12.92,0,0,0-.9,1.06c-1.9,2.51-3.52,5.23-5.26,7.87-.86,1.31-1.76,2.61-2.73,3.84l-.74.91L163,183c-.84,1-1.73,1.94-2.73,3l1,1,1.78,1.81,1,1a4.74,4.74,0,0,1,.36.38l.25.28c.68.74,1.38,1.47,2.12,2.14a17.87,17.87,0,0,0,5,3.34,5.06,5.06,0,0,1,2.4,1.78c2,3,5.2,4.48,8.29,6.1C184.46,204.84,186.09,204.2,185.64,203Z"/><path class="cls-1" d="M165.79,186.32c1.63,1.56,3.06,1.06,4.51.82a83.63,83.63,0,0,1,10.56.12c2.14.29,6.5-1,6.64-1.06,1.93-.37,3.87-.77,5.8-1.11s3.74-.65,5.62-.9,3.48-.42,5.23-.55a64.42,64.42,0,0,1,6.52-.36c3.18.07,6.42.72,9.43-.81,1.8-.93,3.75-.53,5.63-.71,3.14-.29,6.3-.44,9.45-.65.14,0,.3,0,.4-.19a8,8,0,0,0,.16-1.26,9.75,9.75,0,0,0-.4-1.62,4.75,4.75,0,0,0-4.1-.88,6.08,6.08,0,0,1-2.26.57c-3.19-.14-6.18,1.63-9.44.73-.22-.06-.41.11-.62.13-2.45.22-4.88.55-7.34.61s-5.28-.7-7.88-.61a35.91,35.91,0,0,0-8.51,1.43c-1.44.4-2.95.07-4.43,0a12,12,0,0,0-2.54-.11c-3.18.61-6.2,2.74-9.52,1.88-2-.52-4-1-5.87.42a1.33,1.33,0,0,1-1.44.3c-1.79-.9-3.36.19-4.95,1.07A1.92,1.92,0,0,0,165.79,186.32Z"/><path class="cls-1" d="M158,176.29c.59-1.8-.23-2.09-.87-2.57A25.67,25.67,0,0,1,153.8,169c-.48-1.15-2.84-2.16-2.91-2.2-.89-.61-1.8-1.19-2.67-1.81s-1.68-1.21-2.46-1.86a27.42,27.42,0,0,1-2.09-1.94,19.77,19.77,0,0,1-2.36-2.64c-1-1.46-1.56-3.34-3.64-3.62-1.24-.16-1.59-1.3-2.32-2-1.23-1.19-2.35-2.49-3.53-3.73,0-.06,0-.17-.26-.05s-.63.52-1,.8c-.36.44-1,1.21-1,1.29-.19,1.25,0,2.16.69,2.42.43.16.92.24,1.14.61.93,1.51,3.17,1.62,3.58,3.68,0,.14.21.11.29.19a34,34,0,0,1,2.81,2.82c.89,1.11,1.2,2.83,2.11,3.92a10.9,10.9,0,0,0,3.78,2.78c.75.36,1,1.26,1.46,1.93.26.39.37.94.75,1.2,1.46,1,4,.86,4.43,2.92.28,1.26.61,2.45,2.2,2.31.39,0,.69,0,.67.43-.06,1.41,1.23,1.36,2.38,1.46A2.84,2.84,0,0,0,158,176.29Z"/><path class="cls-1" d="M123.12,145.63c.61-1,.19-1.16-.1-1.4a8.92,8.92,0,0,1-1.14-2.51c-.09-.62-1.27-1.07-1.3-1.09-.41-.3-.84-.58-1.23-.89a12.42,12.42,0,0,1-1.11-.93,9.08,9.08,0,0,1-.87-1,6.13,6.13,0,0,1-.93-1.37c-.32-.77-.36-1.8-1.49-1.86-.68,0-.7-.65-1-1-.5-.61-.94-1.29-1.41-1.93,0,0,0-.09-.14,0s-.44.32-.67.49-.76.73-.78.77c-.3.72-.36,1.22,0,1.33.21.06.47.09.55.29.29.8,1.53.75,1.45,1.89,0,.07.1.05.14.09a10.94,10.94,0,0,1,1.15,1.45c.33.58.23,1.53.58,2.1a3.61,3.61,0,0,0,1.7,1.38c.37.16.38.65.53,1,.09.2.06.51.24.63.67.49,2.11.3,2,1.43,0,.69,0,1.35.88,1.19.23,0,.39,0,.32.21-.26.79.48.7,1.11.7A2.59,2.59,0,0,0,123.12,145.63Z"/><path class="cls-1" d="M238.67,170.77c1.79.4,1.88-.34,2.17-.94a18.13,18.13,0,0,1,3.64-3.27c1-.5,1.35-2.66,1.38-2.72.35-.83.68-1.67,1.06-2.49s.73-1.56,1.16-2.3a18.92,18.92,0,0,1,1.32-2,13.54,13.54,0,0,1,1.9-2.27c1.13-1,2.73-1.6,2.51-3.45-.13-1.12.84-1.5,1.33-2.2.82-1.16,1.77-2.25,2.65-3.37,0-.05.14-.06,0-.24s-.62-.52-.95-.79c-.5-.29-1.35-.83-1.43-.83-1.2-.09-2,.1-2.08.77-.05.39,0,.83-.31,1.06-1.18.92-.77,2.9-2.58,3.41-.12,0,0,.19-.11.27a24.27,24.27,0,0,1-2,2.68c-.82.86-2.34,1.25-3.14,2.12a7.68,7.68,0,0,0-1.71,3.53c-.16.69-.93,1-1.45,1.43-.3.25-.79.38-.94.74-.58,1.36.11,3.57-1.69,4.11-1.1.34-2.13.71-1.63,2.1.12.35.13.62-.25.63-1.32,0-1,1.18-.8,2.2A3.32,3.32,0,0,0,238.67,170.77Z"/><path class="cls-1" d="M182.31,161.37c1.25-1.35.65-1.79.28-2.35a18.24,18.24,0,0,1-1-4.8c0-1.07-1.61-2.51-1.65-2.56-.53-.72-1.1-1.44-1.61-2.17s-1-1.43-1.4-2.17a20.13,20.13,0,0,1-1-2.14,13.79,13.79,0,0,1-1-2.79c-.26-1.45,0-3.16-1.71-3.91-1-.45-.87-1.48-1.22-2.26-.59-1.3-1.05-2.66-1.56-4,0-.06,0-.15-.22-.1s-.77.27-1.17.42-1.4.74-1.44.81c-.68,1-.93,1.78-.38,2.19.31.23.7.43.75.79.2,1.49,2.12,2.14,1.63,4,0,.12.15.14.19.22a24.28,24.28,0,0,1,1.31,3.06c.32,1.14-.11,2.65.24,3.79a7.7,7.7,0,0,0,2.18,3.26c.51.49.37,1.29.49,2,.08.38-.06.87.17,1.18.88,1.19,3.14,1.71,2.69,3.54-.27,1.12-.46,2.2,1,2.48.36.07.6.2.42.53-.64,1.15.52,1.43,1.49,1.8A3.32,3.32,0,0,0,182.31,161.37Z"/><path class="cls-1" d="M259.06,135.85c1.14.3,1.08-.07,1.18-.35a6,6,0,0,1,1.73-1.43c.5-.19.43-1.25.44-1.28.09-.4.17-.8.28-1.19a10,10,0,0,1,.37-1.09,5.48,5.48,0,0,1,.52-.91,4,4,0,0,1,.82-1c.54-.41,1.42-.64,1-1.59-.24-.56.29-.7.49-1,.33-.54.74-1,1.12-1.54,0,0,.07,0,0-.12l-.69-.45c-.34-.18-.93-.49-1-.5-.74-.11-1.2-.06-1.15.27s.11.41,0,.51c-.58.39-.05,1.41-1.07,1.56-.07,0,0,.1,0,.13a7.26,7.26,0,0,1-.81,1.23c-.37.38-1.24.49-1.6.88a2.43,2.43,0,0,0-.52,1.68c0,.33-.42.43-.67.63s-.42.15-.46.31c-.16.65.58,1.8-.43,2-.62.1-1.19.23-.69,1,.12.18.17.32-.06.3-.79-.06-.42.53-.17,1.06A3.16,3.16,0,0,0,259.06,135.85Z"/><path class="cls-1" d="M221.54,157.91c1.75.22,1.59-.3,1.66-.73s2-2.25,2.23-2.41c.7-.38.36-1.91.36-2,.05-.59.07-1.19.15-1.78a13,13,0,0,1,.3-1.65,7.88,7.88,0,0,1,.55-1.42,5.67,5.67,0,0,1,1-1.65c.71-.72,2-1.22,1.15-2.51-.48-.78.27-1.07.49-1.58.36-.84.86-1.63,1.3-2.45,0,0,.11,0-.1-.16s-.73-.35-1.12-.53c-.54-.18-1.49-.53-1.56-.53-1.11,0-1.78.14-1.63.62.09.27.25.58.07.74-.78.69.24,2.06-1.23,2.48-.1,0,0,.14,0,.19a10.08,10.08,0,0,1-.91,1.94c-.46.63-1.71,1-2.15,1.59a3.39,3.39,0,0,0-.4,2.53c.08.49-.53.72-.85,1s-.59.3-.61.55c-.08,1,1.27,2.49-.19,2.94-.88.27-1.69.57-.79,1.52.22.24.32.43,0,.45-1.18.07-.5.85,0,1.56A4.83,4.83,0,0,0,221.54,157.91Z"/><path class="cls-1" d="M171.89,166.11c.8-1.57.26-1.59-.12-1.81s-1.46-2.6-1.51-2.92c-.12-.78-1.67-1-1.71-1-.54-.25-1.1-.47-1.62-.74a12.24,12.24,0,0,1-1.45-.85,7.86,7.86,0,0,1-1.15-1,5.93,5.93,0,0,1-1.22-1.49c-.43-.91-.47-2.25-2-1.93-.9.19-.92-.62-1.32-1-.67-.63-1.24-1.37-1.86-2.06,0,0,0-.12-.19,0s-.57.57-.87.87-1,1.22-1,1.29c-.4,1-.48,1.72,0,1.74.28,0,.63,0,.72.19.38,1,2,.47,1.91,2,0,.1.14,0,.18.07a9.87,9.87,0,0,1,1.51,1.52c.44.65.32,1.94.77,2.57a3.41,3.41,0,0,0,2.24,1.24c.48.09.49.73.69,1.15.12.24.08.65.31.76.89.41,2.78-.34,2.7,1.18-.05.92,0,1.78,1.16,1.26.3-.12.51-.15.42.17-.34,1.14.63.77,1.47.55A5,5,0,0,0,171.89,166.11Z"/><path class="cls-1" d="M196.64,159.57c1.62-.7,1.21-1.07,1.05-1.47s.54-2.94.7-3.21c.41-.69-.66-1.83-.68-1.86-.26-.54-.55-1.07-.78-1.61a11.53,11.53,0,0,1-.58-1.58,7.58,7.58,0,0,1-.25-1.5,5.63,5.63,0,0,1,0-1.92c.25-1,1.07-2-.28-2.75-.81-.42-.32-1.06-.39-1.6-.11-.91-.08-1.85-.12-2.77,0,0,.07-.1-.17-.1l-1.23.12c-.56.12-1.55.31-1.62.34-1,.56-1.46,1-1.09,1.36.21.19.51.37.44.61-.32,1,1.26,1.65.2,2.75-.07.08.09.11.1.17a9.53,9.53,0,0,1,.19,2.14c-.07.78-1,1.69-1,2.47a3.44,3.44,0,0,0,.95,2.38c.31.38-.09.88-.2,1.33-.06.25-.35.55-.24.78.42.88,2.35,1.5,1.33,2.62-.63.69-1.17,1.36.09,1.72.31.09.49.21.21.4-1,.66,0,1,.79,1.35A4.85,4.85,0,0,0,196.64,159.57Z"/><path class="cls-1" d="M210.66,156.88c1.79-.52,1.53-1.28,1.53-2a21.69,21.69,0,0,1,1.81-5c.63-1,0-3.25,0-3.32-.06-1-.14-2-.16-2.94s0-1.88,0-2.81a22,22,0,0,1,.31-2.57,15.7,15.7,0,0,1,.69-3.15c.59-1.5,1.74-2.93.72-4.61-.62-1,.08-1.87.21-2.79.22-1.54.58-3.06.88-4.59,0-.07.1-.13-.13-.22s-.79-.19-1.21-.29-1.58-.12-1.65-.08c-1.11.52-1.75,1.11-1.52,1.8.13.39.35.8.2,1.17-.66,1.48.6,3.2-.8,4.6-.1.09,0,.21,0,.31A29,29,0,0,1,211,134c-.35,1.25-1.55,2.39-1.88,3.64a9.08,9.08,0,0,0,0,4.27c.15.75-.41,1.41-.67,2.11-.15.4-.54.77-.51,1.19.08,1.61,1.69,3.39.31,4.83-.83.87-1.59,1.75-.53,2.85.26.27.4.53.06.73-1.16.7-.35,1.63.26,2.53A3.09,3.09,0,0,0,210.66,156.88Z"/><path class="cls-1" d="M232.82,135.36c1.69.33,1.44,0,1.43-.24s1.43-1.09,1.67-1.14c.59-.15,0-1.08,0-1.1-.06-.34-.15-.69-.19-1a3.64,3.64,0,0,1,0-.93,2.28,2.28,0,0,1,.26-.76,1.79,1.79,0,0,1,.62-.85c.54-.34,1.62-.49.63-1.33-.6-.51.05-.6.17-.87a9.43,9.43,0,0,1,.78-1.27s.09,0-.13-.11-.75-.28-1.15-.43c-.55-.17-1.51-.48-1.58-.49-1-.14-1.66-.12-1.43.17s.35.36.2.44c-.6.31.62,1.23-.7,1.3-.09,0,0,.09,0,.11a2.84,2.84,0,0,1-.51,1c-.32.31-1.44.36-1.74.68s-.22.86.09,1.43c.16.29-.36.35-.61.51s-.5.11-.47.25c.1.56,1.65,1.6.36,1.69-.79.06-1.5.14-.47.8.25.16.38.28.07.26-1.11-.1-.32.44.27.91A9.2,9.2,0,0,0,232.82,135.36Z"/><path class="cls-1" d="M154.86,151.21c1-1.39.63-1.3.41-1.4s-.36-1.76-.31-2c.13-.59-1-.45-1-.46-.34-.09-.69-.16-1-.27a3.66,3.66,0,0,1-.85-.38,2.25,2.25,0,0,1-.58-.57,1.74,1.74,0,0,1-.49-.93c-.07-.63.27-1.67-.93-1.14-.71.32-.51-.31-.7-.53a8.11,8.11,0,0,1-.81-1.25s0-.09-.15.06-.59.56-.9.86l-1.12,1.2c-.58.9-.83,1.44-.47,1.37s.48-.16.49,0c0,.67,1.37,0,.87,1.2,0,.08.09,0,.11,0a2.7,2.7,0,0,1,.7.9c.15.42-.3,1.45-.14,1.86s.68.58,1.33.54c.33,0,.16.48.2.77s-.13.5,0,.54c.54.15,2.16-.8,1.68.4-.29.74-.53,1.41.51.77.26-.15.42-.22.26.06-.56.95.26.47.94.14A9,9,0,0,0,154.86,151.21Z"/><path class="cls-1" d="M181.15,177.82a17.58,17.58,0,0,1-1.23-4.49,17.59,17.59,0,0,1,.87-4.57,9.37,9.37,0,0,1,2.25-.09,17.58,17.58,0,0,1,1.23,4.49,17.59,17.59,0,0,1-.87,4.57A9.57,9.57,0,0,1,181.15,177.82Z"/><path class="cls-1" d="M198.77,176.44a17.26,17.26,0,0,1-1.89-4.25,17.42,17.42,0,0,1,.17-4.65,9.53,9.53,0,0,1,2.2-.43,17.54,17.54,0,0,1,1.9,4.25A17.45,17.45,0,0,1,201,176,9.47,9.47,0,0,1,198.77,176.44Z"/><path class="cls-1" d="M213.12,175.33a17.6,17.6,0,0,1-1.9-4.24,17.42,17.42,0,0,1,.17-4.65,8.58,8.58,0,0,1,2.2-.43,17.14,17.14,0,0,1,1.9,4.25,17.36,17.36,0,0,1-.17,4.64A8.55,8.55,0,0,1,213.12,175.33Z"/><path class="cls-1" d="M186.91,192.14a14.2,14.2,0,0,1-3.5-2.38,14.66,14.66,0,0,1-1.93-3.77,10.41,10.41,0,0,1,1.68-1.49,14.7,14.7,0,0,1,3.51,2.38,14.66,14.66,0,0,1,1.93,3.78A10,10,0,0,1,186.91,192.14Z"/><path class="cls-1" d="M213.68,192.7a34.05,34.05,0,0,1,2-6.27,33.84,33.84,0,0,1,3.84-5.32,6.41,6.41,0,0,1,2,1,34.05,34.05,0,0,1-2,6.27,33.84,33.84,0,0,1-3.84,5.32A6.42,6.42,0,0,1,213.68,192.7Z"/><path class="cls-1" d="M201.38,191.46a20.16,20.16,0,0,1-1.41-4.82,20.24,20.24,0,0,1,.69-5,8.35,8.35,0,0,1,2.24-.17,20.18,20.18,0,0,1,1.41,4.81,20.26,20.26,0,0,1-.69,5A8.24,8.24,0,0,1,201.38,191.46Z"/><path class="cls-1" d="M392,163.69c1.29.07,1.4-.56,1.65-1.11a20.16,20.16,0,0,1,2.9-3.23,5.72,5.72,0,0,0,1.23-2.44l1-2.2c.34-.7.69-1.39,1.07-2.06a21.32,21.32,0,0,1,1.17-1.8,16.38,16.38,0,0,1,1.63-2.12c.93-.93,2.18-1.65,2.21-3.18,0-.91.76-1.34,1.2-2,.72-1.06,1.52-2.08,2.29-3.13,0,0,.11-.06,0-.19s-.41-.36-.63-.55-.92-.52-1-.52c-.87.08-1.48.33-1.61.9a1.62,1.62,0,0,1-.33.91c-1,.91-.85,2.52-2.24,3.15-.09.05-.06.17-.11.24a27.94,27.94,0,0,1-1.72,2.47c-.7.81-1.86,1.32-2.54,2.14a9.18,9.18,0,0,0-1.61,3.16c-.19.6-.78.93-1.21,1.38-.24.25-.62.42-.76.74-.56,1.23-.23,3-1.6,3.69-.83.43-1.62.9-1.36,2,.06.27.05.5-.23.57-1,.22-.79,1.13-.73,2A1.69,1.69,0,0,0,392,163.69Z"/><path class="cls-1" d="M328.93,286.3c1.19.23,1.2-.24,1.35-.62a11,11,0,0,1,2.15-2.13c.59-.35.68-1.71.69-1.75.17-.53.33-1.07.49-1.59a14.43,14.43,0,0,1,.57-1.47,9.59,9.59,0,0,1,.69-1.26,6.76,6.76,0,0,1,1.07-1.43c.66-.6,1.65-.94,1.43-2.07-.12-.69.49-.89.8-1.29a23,23,0,0,1,1.7-1.87s.09,0,0-.15-.39-.38-.59-.58-.85-.63-.9-.64c-.77-.15-1.3-.08-1.37.34,0,.24,0,.53-.21.65-.8.53-.51,1.8-1.69,2.08-.07,0,0,.12-.06.17a19.27,19.27,0,0,1-1.19,1.7c-.48.55-1.46.84-1.92,1.42a4.35,4.35,0,0,0-.84,2.27c0,.44-.52.64-.82.93s-.48.27-.55.49c-.26.86.36,2.22-.77,2.6-.68.23-1.33.47-.91,1.33.11.21.13.39-.11.4-.85,0-.55.74-.37,1.37A2.34,2.34,0,0,0,328.93,286.3Z"/><path class="cls-1" d="M282.84,263.26c1.19.23,1.2-.25,1.35-.63a11.33,11.33,0,0,1,2.15-2.13c.59-.34.68-1.71.69-1.75.16-.53.33-1.07.49-1.59a14.43,14.43,0,0,1,.57-1.47,9.59,9.59,0,0,1,.69-1.26,6.41,6.41,0,0,1,1.06-1.42c.67-.61,1.65-.94,1.44-2.08-.13-.69.49-.89.79-1.28a25.22,25.22,0,0,1,1.71-1.88s.09,0,0-.15-.39-.38-.59-.57-.85-.63-.9-.64c-.77-.15-1.3-.09-1.37.33,0,.25,0,.53-.22.66-.79.52-.5,1.8-1.68,2.07-.08,0,0,.12-.06.17a16.7,16.7,0,0,1-1.19,1.7c-.49.56-1.46.84-1.92,1.42A4.39,4.39,0,0,0,285,255c-.05.43-.52.63-.82.93s-.48.26-.55.49c-.26.86.36,2.21-.77,2.59-.69.23-1.33.48-.91,1.34.11.21.13.38-.11.39-.85,0-.56.74-.38,1.38A2.43,2.43,0,0,0,282.84,263.26Z"/><path class="cls-1" d="M220.06,210.81c1.12.36,1.05,0,1.13-.23s1.43-1.11,1.62-1.17c.48-.15.36-1.12.37-1.15.07-.35.13-.71.21-1.06a6.41,6.41,0,0,1,.3-1,3.94,3.94,0,0,1,.44-.78,1.79,1.79,0,0,1,.7-.74c.47-.21,1.31-.2,1-1.13-.17-.56.34-.56.56-.81.37-.41.81-.76,1.21-1.14,0,0,.08,0,0-.12L227,201c-.3-.23-.84-.64-.88-.65-.69-.26-1.13-.32-1.11,0s.06.39-.08.45c-.59.22-.18,1.25-1.17,1.16-.06,0,0,.09,0,.12a8.08,8.08,0,0,1-.9,1c-.4.31-1.29.42-1.62.78a1.83,1.83,0,0,0-.42,1.49c0,.3-.38.36-.61.52s-.39.11-.42.26c-.12.57.65,1.65-.32,1.73-.59.05-1.13.12-.62.81.13.17.18.3,0,.27-.76-.11-.38.44-.12.93A3.61,3.61,0,0,0,220.06,210.81Z"/><path class="cls-1" d="M211.73,208.85c1.11.36,1,0,1.12-.23s1.43-1.11,1.62-1.18c.48-.14.37-1.11.37-1.14.08-.35.13-.71.22-1.06a6.41,6.41,0,0,1,.3-1,3.77,3.77,0,0,1,.43-.79c.22-.3.37-.59.7-.73s1.31-.2,1-1.13c-.17-.56.35-.56.57-.81a16.42,16.42,0,0,1,1.21-1.14s.07,0,0-.12l-.6-.56c-.31-.23-.84-.64-.89-.66-.69-.25-1.12-.31-1.11,0s.07.39-.08.45c-.58.22-.18,1.25-1.16,1.16-.07,0,0,.09,0,.12a8.08,8.08,0,0,1-.9,1c-.4.31-1.28.42-1.62.78a1.82,1.82,0,0,0-.41,1.49c0,.3-.39.36-.61.52s-.4.11-.43.26c-.11.57.66,1.65-.31,1.73-.59.05-1.13.12-.62.81.12.17.17.3,0,.27-.77-.11-.39.44-.12.93A3.47,3.47,0,0,0,211.73,208.85Z"/><path class="cls-1" d="M226,212.77c1.11.36,1,0,1.12-.23s1.43-1.11,1.62-1.17c.48-.15.37-1.12.37-1.14.08-.36.13-.72.22-1.07a6.41,6.41,0,0,1,.3-1,3.46,3.46,0,0,1,.43-.78,1.86,1.86,0,0,1,.7-.74c.48-.21,1.31-.2,1-1.13-.17-.56.35-.56.57-.81a16.42,16.42,0,0,1,1.21-1.14s.07,0,0-.12l-.61-.56c-.3-.22-.83-.64-.88-.65-.69-.26-1.12-.32-1.11,0s.07.39-.08.45c-.58.22-.18,1.26-1.16,1.16-.07,0,0,.09,0,.12a8.08,8.08,0,0,1-.9,1c-.4.31-1.28.42-1.62.78a1.83,1.83,0,0,0-.41,1.49c0,.3-.39.37-.61.53s-.4.1-.43.25c-.11.57.66,1.65-.31,1.73-.59,0-1.13.13-.62.81.12.17.17.3,0,.27-.77-.11-.39.45-.12.94A3.55,3.55,0,0,0,226,212.77Z"/><path class="cls-1" d="M232.81,216.21c1.12.35,1.05,0,1.13-.23s1.43-1.12,1.62-1.18c.48-.15.36-1.12.37-1.14.07-.36.12-.72.21-1.07a6,6,0,0,1,.3-1,4.33,4.33,0,0,1,.44-.79,1.85,1.85,0,0,1,.7-.74c.47-.21,1.31-.2,1-1.13-.17-.56.34-.56.56-.81.37-.41.81-.76,1.21-1.14,0,0,.08,0,0-.12l-.61-.55-.88-.66c-.69-.26-1.13-.32-1.11,0s.06.4-.08.45c-.59.23-.19,1.26-1.17,1.17-.06,0,0,.08,0,.11a7.4,7.4,0,0,1-.9,1c-.4.31-1.29.43-1.63.78a1.88,1.88,0,0,0-.41,1.49c0,.3-.38.37-.61.53s-.4.11-.43.25c-.11.57.66,1.65-.31,1.73-.59.05-1.13.13-.62.82.13.17.18.29,0,.26-.77-.11-.38.45-.12.94A3.71,3.71,0,0,0,232.81,216.21Z"/><path class="cls-1" d="M238.7,222.09c1.11.36,1,0,1.12-.23s1.43-1.12,1.62-1.18c.48-.14.37-1.11.37-1.14.07-.35.13-.72.21-1.06a10,10,0,0,1,.3-1,4.33,4.33,0,0,1,.44-.79,1.76,1.76,0,0,1,.7-.73c.48-.21,1.31-.2,1-1.13-.17-.56.35-.57.57-.81a16.42,16.42,0,0,1,1.21-1.14s.07,0,0-.12l-.61-.56c-.3-.23-.83-.64-.88-.66-.69-.25-1.12-.31-1.11,0s.07.39-.08.45c-.59.22-.18,1.25-1.16,1.16-.07,0,0,.09,0,.11a7.46,7.46,0,0,1-.9,1c-.4.31-1.28.42-1.62.78a1.82,1.82,0,0,0-.41,1.49c0,.3-.39.36-.61.52s-.4.11-.43.26c-.11.57.66,1.64-.31,1.73-.59.05-1.13.12-.62.81.12.17.17.3-.05.27-.76-.11-.38.44-.12.93A3.57,3.57,0,0,0,238.7,222.09Z"/><path class="cls-1" d="M243.11,228c1.11.36,1,0,1.12-.23s1.43-1.11,1.62-1.17c.49-.15.37-1.12.37-1.14.08-.36.13-.72.22-1.07a6,6,0,0,1,.3-1,3.33,3.33,0,0,1,.43-.79,1.86,1.86,0,0,1,.7-.74c.48-.21,1.32-.2,1-1.13-.17-.56.34-.56.56-.81a16.42,16.42,0,0,1,1.21-1.14s.07,0,0-.12l-.61-.55c-.31-.23-.84-.65-.89-.66-.68-.26-1.12-.32-1.1,0s.06.39-.08.45c-.59.23-.19,1.26-1.17,1.17-.07,0,0,.08,0,.11a7.4,7.4,0,0,1-.9,1c-.4.31-1.28.43-1.62.78a1.83,1.83,0,0,0-.41,1.49c0,.3-.38.37-.61.53s-.4.1-.43.25c-.11.57.66,1.65-.31,1.73-.59.05-1.13.13-.62.81.13.17.18.3,0,.27-.77-.11-.39.45-.12.94A3.62,3.62,0,0,0,243.11,228Z"/><path class="cls-1" d="M247,235.33c1.12.36,1.05,0,1.13-.23s1.42-1.12,1.62-1.18c.48-.15.36-1.11.37-1.14.07-.35.12-.72.21-1.06a6.08,6.08,0,0,1,.3-1,4.33,4.33,0,0,1,.44-.79,1.76,1.76,0,0,1,.7-.73c.47-.21,1.31-.2,1-1.13-.17-.56.34-.57.56-.81.37-.41.81-.76,1.21-1.15,0,0,.08,0,0-.11l-.61-.56c-.31-.23-.84-.64-.88-.66-.69-.26-1.13-.31-1.11,0s.06.39-.08.45c-.59.22-.19,1.25-1.17,1.16-.06,0,0,.09,0,.11a6.83,6.83,0,0,1-.9,1c-.41.31-1.29.43-1.63.79a1.86,1.86,0,0,0-.41,1.49c0,.3-.38.36-.61.52s-.4.11-.43.26c-.11.57.66,1.64-.31,1.73-.59,0-1.13.12-.62.81.13.17.18.3,0,.27-.77-.11-.38.44-.12.93A3.61,3.61,0,0,0,247,235.33Z"/><path class="cls-1" d="M250.46,244.65c1.12.35,1,0,1.13-.23s1.43-1.12,1.62-1.18c.48-.15.36-1.12.37-1.14.07-.36.13-.72.21-1.07a9,9,0,0,1,.3-1,4,4,0,0,1,.44-.79,1.85,1.85,0,0,1,.7-.74c.47-.21,1.31-.2,1-1.13-.17-.56.34-.56.56-.81.37-.41.81-.76,1.21-1.14,0,0,.08,0,0-.12l-.61-.55c-.3-.23-.84-.64-.88-.66-.69-.26-1.13-.32-1.11,0s.06.4-.08.45c-.59.23-.18,1.26-1.17,1.17-.06,0,0,.08,0,.11a7.4,7.4,0,0,1-.9,1c-.4.31-1.29.43-1.62.78a1.85,1.85,0,0,0-.42,1.49c0,.3-.38.37-.61.53s-.39.1-.42.25c-.11.57.65,1.65-.32,1.73-.59,0-1.13.13-.61.82.12.16.17.29-.05.26-.76-.11-.38.45-.12.94A3.82,3.82,0,0,0,250.46,244.65Z"/><path class="cls-1" d="M291.17,268.65c1.19.23,1.2-.24,1.36-.62a11.37,11.37,0,0,1,2.14-2.14c.59-.34.68-1.71.7-1.74.16-.53.33-1.08.48-1.6s.36-1,.57-1.47a10.35,10.35,0,0,1,.7-1.26,6.57,6.57,0,0,1,1.06-1.42c.66-.6,1.65-.94,1.43-2.08-.12-.68.49-.88.8-1.28a23.12,23.12,0,0,1,1.7-1.87s.1,0,0-.15-.39-.38-.6-.58-.84-.63-.9-.64c-.76-.15-1.3-.08-1.36.34,0,.24,0,.52-.22.65-.8.52-.51,1.8-1.68,2.07-.08,0,0,.13-.06.18-.4.56-.73,1.17-1.19,1.7s-1.46.84-1.93,1.42a4.26,4.26,0,0,0-.83,2.27c0,.43-.53.64-.83.93s-.48.26-.54.49c-.27.86.35,2.22-.78,2.6-.68.23-1.32.47-.9,1.33.1.21.13.38-.12.4-.85,0-.55.74-.37,1.37A2.34,2.34,0,0,0,291.17,268.65Z"/><path class="cls-1" d="M301,270.14c1.14.32,1.09-.05,1.19-.34a6.21,6.21,0,0,1,1.78-1.41c.5-.18.47-1.25.48-1.28.1-.39.19-.79.32-1.18a7,7,0,0,1,.42-1.05,4,4,0,0,1,.56-.85,3.08,3.08,0,0,1,.9-.86c.59-.3,1.49-.35,1.28-1.37-.12-.6.43-.65.69-.93.43-.49.93-.91,1.4-1.37,0,0,.08,0,0-.12s-.39-.37-.6-.57-.84-.63-.89-.65c-.71-.23-1.17-.26-1.18.08,0,.19,0,.43-.12.5-.65.29-.31,1.39-1.35,1.35-.07,0,0,.1-.05.13a7.61,7.61,0,0,1-1,1.09c-.44.34-1.35.37-1.78.78a2.48,2.48,0,0,0-.7,1.73c0,.35-.46.44-.72.63s-.43.15-.47.32c-.19.66.51,1.84-.51,2-.62.1-1.2.22-.72,1,.12.18.16.32-.06.3-.8-.07-.44.53-.2,1.07A3.13,3.13,0,0,0,301,270.14Z"/><path class="cls-1" d="M330.4,299.3c1.19.23,1.2-.25,1.35-.63a11.33,11.33,0,0,1,2.15-2.13c.59-.34.68-1.71.69-1.75.17-.53.33-1.07.49-1.59a14.43,14.43,0,0,1,.57-1.47,9.59,9.59,0,0,1,.69-1.26,6.46,6.46,0,0,1,1.07-1.42c.66-.61,1.65-.94,1.43-2.08-.12-.69.49-.89.8-1.28a23.07,23.07,0,0,1,1.7-1.88s.09,0,0-.15-.38-.38-.59-.57-.85-.63-.9-.64c-.77-.15-1.3-.09-1.37.33,0,.25,0,.53-.21.66-.8.52-.51,1.8-1.68,2.07-.08,0,0,.12-.07.17a16.7,16.7,0,0,1-1.19,1.7c-.48.56-1.46.84-1.92,1.42a4.39,4.39,0,0,0-.84,2.28c-.05.43-.52.63-.82.93s-.48.26-.55.49c-.26.86.36,2.21-.77,2.59-.68.23-1.33.48-.9,1.34.1.21.12.38-.12.39-.85,0-.55.74-.37,1.38A2.38,2.38,0,0,0,330.4,299.3Z"/><path class="cls-1" d="M331.87,312.29c1.19.23,1.2-.24,1.35-.62a11.4,11.4,0,0,1,2.15-2.14c.59-.34.68-1.71.69-1.74.17-.53.33-1.08.49-1.6a15.4,15.4,0,0,1,.57-1.47,10.27,10.27,0,0,1,.69-1.26,7,7,0,0,1,1.07-1.42c.66-.6,1.65-.94,1.43-2.08-.12-.68.49-.88.8-1.28a23.12,23.12,0,0,1,1.7-1.87s.09,0,0-.15-.38-.38-.59-.58-.85-.63-.9-.64c-.77-.15-1.3-.08-1.37.34,0,.24,0,.52-.21.65-.8.52-.51,1.8-1.68,2.07-.08,0,0,.13-.07.18a17.36,17.36,0,0,1-1.19,1.7c-.48.55-1.45.84-1.92,1.42a4.26,4.26,0,0,0-.83,2.27c-.05.43-.53.64-.83.93s-.48.27-.55.49c-.26.86.36,2.22-.77,2.6-.68.23-1.32.47-.9,1.33.1.21.13.38-.12.4-.85,0-.55.74-.37,1.37A2.34,2.34,0,0,0,331.87,312.29Z"/><path class="cls-1" d="M333.34,325.29c1.19.22,1.2-.25,1.36-.63a11,11,0,0,1,2.14-2.13c.59-.34.68-1.71.7-1.75l.48-1.59a14.43,14.43,0,0,1,.57-1.47,9.65,9.65,0,0,1,.7-1.26,6.12,6.12,0,0,1,1.06-1.42c.66-.61,1.65-.94,1.43-2.08-.12-.69.49-.89.8-1.28a23.25,23.25,0,0,1,1.7-1.88s.1,0,0-.15-.38-.38-.59-.58-.84-.63-.9-.64c-.77-.14-1.3-.08-1.36.34,0,.25,0,.53-.22.65-.8.53-.51,1.8-1.68,2.08-.08,0,0,.12-.06.17a18.46,18.46,0,0,1-1.19,1.7c-.49.56-1.46.84-1.93,1.42a4.29,4.29,0,0,0-.83,2.27c-.05.44-.53.64-.83.94s-.48.26-.55.48c-.26.86.36,2.22-.77,2.6-.68.23-1.32.48-.9,1.33.1.22.13.39-.12.4-.85,0-.55.74-.37,1.38A2.38,2.38,0,0,0,333.34,325.29Z"/><path class="cls-1" d="M334.81,338.28c1.19.23,1.2-.24,1.36-.62a11.08,11.08,0,0,1,2.14-2.14c.59-.34.68-1.71.7-1.75.16-.53.33-1.07.49-1.59s.35-1,.56-1.47a9.65,9.65,0,0,1,.7-1.26,6.57,6.57,0,0,1,1.06-1.42c.66-.6,1.65-.94,1.43-2.08-.12-.69.49-.88.8-1.28a25.08,25.08,0,0,1,1.7-1.88s.1,0,0-.15-.39-.37-.6-.57-.84-.63-.89-.64c-.77-.15-1.31-.09-1.37.34,0,.24,0,.52-.22.65-.8.52-.51,1.8-1.68,2.07-.08,0,0,.13-.06.17a20.08,20.08,0,0,1-1.19,1.71c-.49.55-1.46.84-1.92,1.41a4.22,4.22,0,0,0-.84,2.28c-.05.43-.53.63-.83.93s-.48.26-.54.49c-.27.86.35,2.22-.78,2.59-.68.23-1.32.48-.9,1.34.1.21.13.38-.12.39-.85,0-.55.74-.37,1.38A2.38,2.38,0,0,0,334.81,338.28Z"/><path class="cls-1" d="M336.28,351.27c1.19.23,1.2-.24,1.36-.62a10.77,10.77,0,0,1,2.15-2.13c.58-.35.68-1.72.69-1.75.16-.53.33-1.07.49-1.59s.35-1,.56-1.47a9.65,9.65,0,0,1,.7-1.26,6.39,6.39,0,0,1,1.06-1.43c.67-.6,1.65-.94,1.43-2.07-.12-.69.49-.89.8-1.29a23.09,23.09,0,0,1,1.71-1.87s.09,0,0-.15-.39-.38-.6-.58-.84-.63-.89-.64c-.77-.15-1.3-.08-1.37.34,0,.24,0,.53-.22.65-.79.53-.51,1.8-1.68,2.08-.08,0,0,.12-.06.17-.4.56-.73,1.17-1.19,1.7s-1.46.84-1.92,1.42a4.27,4.27,0,0,0-.84,2.27c-.05.44-.53.64-.83.93s-.47.27-.54.49c-.27.86.35,2.22-.77,2.6-.69.23-1.33.47-.91,1.33.1.21.13.39-.12.4-.85,0-.55.74-.37,1.37A2.34,2.34,0,0,0,336.28,351.27Z"/><path class="cls-1" d="M337.76,364.27c1.19.23,1.19-.25,1.35-.63a11,11,0,0,1,2.15-2.13c.58-.34.68-1.71.69-1.75.16-.53.33-1.07.49-1.59s.35-1,.56-1.47a9.65,9.65,0,0,1,.7-1.26,6.12,6.12,0,0,1,1.06-1.42c.67-.61,1.65-.94,1.43-2.08-.12-.69.5-.89.8-1.28a23.21,23.21,0,0,1,1.71-1.88s.09,0,0-.15-.39-.38-.6-.57-.84-.63-.89-.64c-.77-.15-1.3-.09-1.37.33,0,.25,0,.53-.22.66-.79.52-.51,1.8-1.68,2.07-.08,0,0,.12-.06.17a18.46,18.46,0,0,1-1.19,1.7c-.49.56-1.46.84-1.92,1.42a4.3,4.3,0,0,0-.84,2.28c-.05.43-.53.63-.82.93s-.48.26-.55.49c-.27.86.36,2.21-.77,2.59-.69.23-1.33.48-.91,1.34.1.21.13.38-.11.39-.86,0-.56.74-.38,1.38A2.43,2.43,0,0,0,337.76,364.27Z"/><path class="cls-1" d="M339.23,377.26c1.19.23,1.19-.24,1.35-.62a11.4,11.4,0,0,1,2.15-2.14c.58-.34.68-1.71.69-1.74l.49-1.6a15.4,15.4,0,0,1,.57-1.47,10.27,10.27,0,0,1,.69-1.26,6.57,6.57,0,0,1,1.06-1.42c.67-.6,1.65-.94,1.44-2.08-.13-.68.49-.88.79-1.28a21.52,21.52,0,0,1,1.71-1.87s.09,0,0-.15-.39-.38-.59-.58-.85-.63-.9-.64c-.77-.15-1.3-.08-1.37.34,0,.24,0,.52-.22.65-.79.52-.51,1.8-1.68,2.07-.08,0,0,.13-.06.18-.4.56-.73,1.17-1.19,1.7s-1.46.84-1.92,1.42a4.35,4.35,0,0,0-.84,2.27c-.05.43-.52.64-.82.93s-.48.27-.55.49c-.27.86.36,2.22-.77,2.6-.69.23-1.33.47-.91,1.33.1.21.13.38-.11.4-.86,0-.56.74-.38,1.37A2.39,2.39,0,0,0,339.23,377.26Z"/><path class="cls-1" d="M396.36,177c1.24.2,1.35-.39,1.58-.86a18.09,18.09,0,0,1,2.64-2.8c.67-.47,1-2.13,1-2.17.26-.66.51-1.32.76-2s.53-1.24.83-1.83a15.89,15.89,0,0,1,1-1.59,11.57,11.57,0,0,1,1.37-1.84c.81-.8,1.94-1.37,1.86-2.72,0-.83.66-1.15,1-1.68.64-.88,1.38-1.69,2.09-2.49,0,0,.11,0,0-.18s-.38-.38-.59-.58a10.81,10.81,0,0,0-.91-.62c-.83-.06-1.43.1-1.55.61-.07.3-.09.63-.31.8-.93.74-.76,2.21-2.05,2.7-.09,0-.05.15-.09.21a24.48,24.48,0,0,1-1.5,2.16c-.6.71-1.68,1.14-2.26,1.87a7,7,0,0,0-1.25,2.82c-.12.53-.66.82-1,1.21-.21.22-.56.36-.67.64-.41,1.08.06,2.67-1.21,3.24-.76.34-1.48.7-1.16,1.69.08.24.08.45-.19.48-.91.12-.7.92-.62,1.66A2,2,0,0,0,396.36,177Z"/><path class="cls-1" d="M398.32,191.26c1.24.2,1.35-.39,1.58-.86a18.09,18.09,0,0,1,2.64-2.8c.67-.47,1-2.13,1-2.17l.75-2c.26-.62.53-1.24.84-1.83a14.12,14.12,0,0,1,.94-1.59,11.57,11.57,0,0,1,1.37-1.84c.81-.8,1.94-1.37,1.87-2.72-.05-.83.65-1.15,1-1.68a31.62,31.62,0,0,1,2.09-2.49s.11,0,0-.18-.38-.38-.59-.58a9.36,9.36,0,0,0-.91-.62c-.83-.06-1.43.1-1.55.61-.07.3-.09.63-.31.8-.93.74-.76,2.21-2.05,2.7-.09,0,0,.15-.09.21a24.48,24.48,0,0,1-1.5,2.16c-.6.71-1.68,1.14-2.26,1.87a7,7,0,0,0-1.25,2.82c-.12.53-.66.82-1,1.21-.21.22-.56.36-.66.64-.42,1.08.05,2.67-1.22,3.24-.76.34-1.48.7-1.16,1.69.08.24.08.45-.18.48-.92.12-.71.92-.63,1.66A2,2,0,0,0,398.32,191.26Z"/><path class="cls-1" d="M402.73,204c1.24.2,1.36-.39,1.58-.86a18.58,18.58,0,0,1,2.64-2.8c.67-.47,1-2.13,1-2.18l.76-2a20.09,20.09,0,0,1,.83-1.83,15.81,15.81,0,0,1,.94-1.59,11.57,11.57,0,0,1,1.37-1.84c.81-.8,1.94-1.37,1.87-2.72,0-.83.65-1.15,1-1.68a29.7,29.7,0,0,1,2.1-2.49s.1-.05,0-.18-.38-.38-.58-.59-.86-.61-.92-.61c-.83-.06-1.42.1-1.55.61-.07.29-.08.62-.31.8-.92.74-.75,2.21-2.05,2.7-.09,0,0,.15-.09.21-.5.72-.92,1.49-1.49,2.16s-1.68,1.13-2.26,1.87a6.74,6.74,0,0,0-1.25,2.82c-.13.53-.66.82-1,1.21-.21.22-.55.36-.66.64-.41,1.08.05,2.67-1.21,3.23-.77.35-1.49.71-1.17,1.7.08.24.08.45-.18.48-.92.12-.7.92-.62,1.66A2,2,0,0,0,402.73,204Z"/></svg>