<svg id="Layer_1" data-name="Layer 1" xmlns="http://www.w3.org/2000/svg" height="1024" width="1024" viewBox="0 0 500 500"><defs><style>.cls-1{fill:#658378;}</style></defs><path class="cls-1" d="M313,233.06q-22,5.58-44.12,10.6-11.06,2.53-22.15,4.91l-11,2.34c-3.65.78-7.65,1.93-12.38,1.24a12.49,12.49,0,0,1-5-1.94,17.39,17.39,0,0,1-3.65-3.47,44.31,44.31,0,0,1-4.72-7.52,70.42,70.42,0,0,1-3.44-7.92c-1-2.75-1.74-5.31-2.57-8-5.66-18.64-11.06-37.28-15.66-56.26a124.53,124.53,0,0,1-2.79-14.67,31.27,31.27,0,0,1,.38-7.89,23.43,23.43,0,0,1,2.89-7.53,24.75,24.75,0,0,1,12.18-10,36.17,36.17,0,0,1,3.68-1.24l3.51-1,7-1.9c16.67-4.45,33.44-8.8,50-13.08,21.27-5.49,42.58-11.15,64-15.92,13.36-3-2.07,6.77-26.63,12.92l-65.23,16.34L221,127.36l-8.14,2.14-4.06,1.09c-1.32.37-2.79.73-3.91,1.09A19.81,19.81,0,0,0,193.45,140c-2.47,4-3,9.14-2.26,14.27,1,6.42,2.64,13.08,4.32,19.69s3.56,13.27,5.48,19.92,3.92,13.3,5.95,19.93l3.09,9.91,1.58,4.9c.53,1.54,1.14,3.1,1.8,4.62a48.49,48.49,0,0,0,5.2,9.41,11.12,11.12,0,0,0,3.29,3.15,8.7,8.7,0,0,0,4.26.92c3.28,0,6.86-1.07,10.72-1.88L248,242.51q22.25-4.86,44.41-10.24c18.15-4.46,36.31-9,54.17-14.37,6.77-2,13.48-4.19,20-6.64l4.82-2a40.7,40.7,0,0,0,4.39-2.51,32.08,32.08,0,0,0,4-3,6.47,6.47,0,0,0,2.23-3.65,30.81,30.81,0,0,0,.94-4.92,26.64,26.64,0,0,0,.2-4.89c-.57-3.3-1.23-6.89-1.9-10.31q-2.06-10.38-4.42-20.64c-2.46-10.64-5.14-21.11-8-31.51q-2.13-7.8-4.39-15.54c-.76-2.55-1.52-5.2-2.34-7.63a21.36,21.36,0,0,0-3.31-6.41,8.84,8.84,0,0,0-4.5-3.08,11.55,11.55,0,0,0-2.87-.36c-1.09,0-2.21,0-3.34.07a73.23,73.23,0,0,0-10.65,1.56c-3,.62-5.38,1.17-7.41,1.55-4.05.77-6.52.88-8.57.54a14.76,14.76,0,0,1-2.69-.52c-.95-.43.31-1.19,3.3-2.34a143.15,143.15,0,0,1,14.18-4.53,60.91,60.91,0,0,1,15.17-2.11,16.89,16.89,0,0,1,4.42.56,13.76,13.76,0,0,1,4.33,2,18.57,18.57,0,0,1,5.68,6.88,44,44,0,0,1,2.85,7.53c.71,2.41,1.41,4.81,2.13,7.23q2.07,7.23,4,14.55c5.16,19.54,9.95,39.46,13.64,59.77l.26,1.41c0,.24.12.82.14,1.1s0,.66,0,.93c0,1.16,0,2.2-.11,3.24a41.89,41.89,0,0,1-1,6.25,19.2,19.2,0,0,1-1.11,3.41,9.33,9.33,0,0,1-1.14,2,8.71,8.71,0,0,1-.67.82c-.22.25-.44.49-.65.69a32.74,32.74,0,0,1-5.13,4,47.82,47.82,0,0,1-5.48,3.14l-5.5,2.27c-3.66,1.32-7.32,2.66-11,3.81-14.66,4.73-29.43,8.68-44.22,12.52Z"/><path class="cls-1" d="M324.88,95.43a6,6,0,0,1-.29-.84,7.52,7.52,0,0,1-.42-1.86,7,7,0,0,1,.11-1.21,2.88,2.88,0,0,0,0-.78,3.3,3.3,0,0,1,.43-1.22c.13-.28.06-.67.23-.94s.16-.39.42-.47.32-.37.4-.62.09-.41.31-.46.07-.19.13-.26c.26-.27.55-.51.83-.76s.38-.44.6-.63a10.44,10.44,0,0,1,1.67-1,13.5,13.5,0,0,1,3.92-1.24,10.36,10.36,0,0,1,4.3.27,11.39,11.39,0,0,1,2,.82c.08,0,.75,0,.8.34a.19.19,0,0,0,.18.17,1,1,0,0,1,.71.44,10.34,10.34,0,0,0,.84.78,11.56,11.56,0,0,1,.94,1.3,6.7,6.7,0,0,0,.63.94c.25.26.61.47.88.74a4.2,4.2,0,0,1,.43.74,10.78,10.78,0,0,1,.51,1,8.78,8.78,0,0,1-3.21,1.18c-.08,0-.25,0-.24-.07s-.15-.11-.31-.13-.16-.13-.22-.21-.29-.22-.27-.41c.05-.48-.78-1.46-.93-1.63a7.59,7.59,0,0,0-1.86-1.64,6.47,6.47,0,0,0-4.69-.8,9.31,9.31,0,0,0-4.47,2.33,5.12,5.12,0,0,0-1.19,1.75,5.62,5.62,0,0,0-.17.77,3.64,3.64,0,0,0,0,.86,6.91,6.91,0,0,0,.31,1.15,1.31,1.31,0,0,1,.12.44s-.07.14-.19.25a4.74,4.74,0,0,1-1.25.64c-.91.32-1.82.5-2,.33a.36.36,0,0,1,0-.09Z"/><path class="cls-1" d="M200.62,127.16a9,9,0,0,1-.09-.91,8,8,0,0,1,0-1.9,7.5,7.5,0,0,1,.31-1.15,2.48,2.48,0,0,0,.13-.73,3.37,3.37,0,0,1,.52-1.14c.13-.27.11-.63.26-.9s.17-.38.43-.44.3-.37.4-.61.09-.39.3-.45.06-.2.12-.27l.81-.77c.21-.2.38-.44.58-.66a11.45,11.45,0,0,1,1.66-1.09,13.12,13.12,0,0,1,1.79-.83,11.14,11.14,0,0,1,2.28-.63,9.49,9.49,0,0,1,4.52.52,11.92,11.92,0,0,1,2,.93c.08.05.75.06.78.36a.18.18,0,0,0,.18.18,1,1,0,0,1,.71.45c.22.32.58.48.83.78a12.26,12.26,0,0,1,1,1.29,7,7,0,0,0,.67.94c.27.26.64.47.93.75a4.2,4.2,0,0,1,.47.76,9.11,9.11,0,0,1,.55,1.08,8.64,8.64,0,0,1-3.21,1.19c-.08,0-.25,0-.24-.07s-.15-.11-.31-.13-.16-.13-.22-.21-.3-.21-.28-.41c0-.48-.86-1.48-1-1.66a9.06,9.06,0,0,0-2-1.76,6.67,6.67,0,0,0-4.76-1.14,9.66,9.66,0,0,0-4.52,2.63,7.29,7.29,0,0,0-1.4,2,7,7,0,0,0-.3.88,5.27,5.27,0,0,0-.16,1,9.83,9.83,0,0,0,.06,1.32,1.29,1.29,0,0,1,0,.48c0,.06-.1.13-.24.21a4.55,4.55,0,0,1-1.35.35c-1,.11-1.89.08-2-.13a.18.18,0,0,1,0-.1Z"/><path class="cls-1" d="M202.61,120.17c-.08-.18-.14-.37-.2-.55a6,6,0,0,1-.4-1.17c0-.25,0-.51,0-.77a1,1,0,0,0-.09-.48c-.13-.28.05-.55.07-.82s-.14-.44-.1-.64,0-.29.2-.38.14-.3.11-.49-.09-.3.08-.37,0-.15,0-.21a7.8,7.8,0,0,1,.38-.7l.24-.61a6.39,6.39,0,0,1,3.93-2.46,6.16,6.16,0,0,1,3.2.28,7.82,7.82,0,0,1,1.35.67c.05,0,.56,0,.55.23,0,.11,0,.14.1.14a.5.5,0,0,1,.48.3c.12.25.37.35.53.56a7.4,7.4,0,0,1,.56.93,3,3,0,0,0,.4.64c.18.17.49.26.69.44a1.93,1.93,0,0,1,.31.49,5.83,5.83,0,0,1,.37.7,13.56,13.56,0,0,1-3.2,1.21c-.07,0-.23,0-.22,0s-.12,0-.26,0-.13,0-.17-.09-.22-.09-.17-.22c.12-.32-.4-.85-.48-1a4.45,4.45,0,0,0-1-1,2.85,2.85,0,0,0-2.24-.51,2.7,2.7,0,0,0-1.65,1.48,3.06,3.06,0,0,0-.3,1.15,4,4,0,0,0,0,.49,5.36,5.36,0,0,0,.38,1.21.44.44,0,0,1,.05.26.76.76,0,0,1-.22.19,8.45,8.45,0,0,1-1.25.62,4.89,4.89,0,0,1-1.91.5s0,0,0-.06Z"/><path class="cls-1" d="M311.05,99c.86-2.68-.42-4.33-1.52-6.1a72.75,72.75,0,0,0-4.23-7.22A20.58,20.58,0,0,0,301.8,82a16.56,16.56,0,0,0-2.57-1.69,11.31,11.31,0,0,0-7.22-1,21.7,21.7,0,0,0-3.94,1.15L280.32,83c-2.49.78-5,1.54-7.49,2.22q-3.48,1-7,1.74c-2.92.65-5.81,1.39-8.79,1.79a51.26,51.26,0,0,0-6.77,1.05c-8.31,1.16-4.77,1.83-6.4,4.09-1,1.32-2,2.52-2.85,3.81a14.58,14.58,0,0,0-2.12,4.13c-1.39,4.91-1.13,9.66-.72,14.09,0,.19,0,.41.25.56a7.66,7.66,0,0,0,1.48.21,10.68,10.68,0,0,0,1.86-.57,7.89,7.89,0,0,0,1-5.5,7.31,7.31,0,0,1-.42-3,50.76,50.76,0,0,1,1-5.92,5.93,5.93,0,0,1,3.7-4.26c.25-.08.34-.37.56-.51a23.08,23.08,0,0,1,8.84-3.24c3.5-.63,7.25-.3,10.76-1a59.1,59.1,0,0,0,11.34-3.46c1.89-.76,4-.7,6-1a20,20,0,0,0,3.47-.42c2.14-.69,3.87-1.76,5.64-2.18a4.44,4.44,0,0,1,4.75,1.44c1.3,1.9,2,3.82,4.52,5.1A1.7,1.7,0,0,1,304,93.69c0,2.48,2,3.92,3.78,5.6C308.9,100.35,310.73,100,311.05,99Z"/><path class="cls-1" d="M276.63,101.2a11.55,11.55,0,0,0-4.92.29,15.92,15.92,0,0,0-1.68.78,14.18,14.18,0,0,0-5.51,4.07,7.86,7.86,0,0,0-1.39,2.79c-.37,1.31-.24,2.6-1,3.82-.23.38-1.73.3-3.15-.24s-2.74-1.63-2.53-2.74a14.6,14.6,0,0,1,6-9.39c1.84-1.24,3.47-2.8,5.55-3.72a17,17,0,0,1,7.12-1.47,20.12,20.12,0,0,1,4.34.51,25.37,25.37,0,0,1,6,2.33,30.15,30.15,0,0,1,4.48,2.44,5.75,5.75,0,0,1,.93.69c1.05,1,1,1.7-.13,2.79-.25.26-.5.52-.77.75a2.69,2.69,0,0,1-2.73.59c-2.2-1-3.95-2.1-6-2.93a14.87,14.87,0,0,0-4.72-1.21Z"/><path class="cls-1" d="M194.27,178.21c14.84-3.56,29.87-7,44.43-11.56,4-1.27,2.3-7.61-1.75-6.34-14.56,4.6-29.58,8-44.42,11.57-4.11,1-2.37,7.31,1.74,6.33Z"/><path class="cls-1" d="M206.05,216.53c13.11-4.17,26.28-8.14,39.39-12.31,4-1.28,2.3-7.62-1.74-6.33-13.11,4.16-26.29,8.14-39.4,12.31-4,1.27-2.29,7.62,1.75,6.33Z"/><path class="cls-1" d="M246.7,236.73a4.89,4.89,0,0,0-3-.22c-.36.17-.7.37-1.06.57a7.71,7.71,0,0,0-3.56,3.41,8.51,8.51,0,0,0-.48,1.13,10.91,10.91,0,0,0-.15,1.25c-.17,1.06.3,2.17-.43,3.23-.21.33-1.71.31-3.15,0s-2.83-1.09-2.8-1.94a12,12,0,0,1,3.64-8.34c.67-.67,1.42-1.32,2-2.06a12.44,12.44,0,0,1,2.36-1.77,10.75,10.75,0,0,1,6.3-1.13,18.21,18.21,0,0,1,1.9.41l1.77.71a15.81,15.81,0,0,1,4.24,3.49,38.14,38.14,0,0,1,2.86,3.07c.16.26.38.49.51.76.51,1,.27,1.51-1.13,2.19-.32.15-.63.32-1,.45a3,3,0,0,1-2.75-.05c-1.54-1.36-2.59-2.49-3.64-3.46a6.39,6.39,0,0,0-2.5-1.52Z"/><path class="cls-1" d="M361.06,208.11a7,7,0,0,0-3.4.13c-.42.11-.66.5-1.07.63a6.28,6.28,0,0,0-3.06,3.48,8.82,8.82,0,0,0-.22,1.14,5.46,5.46,0,0,0,.14,1.2c.08,1,.86,1.93.46,3.14-.12.37-1.55.82-3,.9s-3-.26-3.24-1.12a11.06,11.06,0,0,1-.26-1.14l-.06-1.23a8.53,8.53,0,0,1,.14-2.46,13.54,13.54,0,0,1,.72-2.45,15.79,15.79,0,0,1,1.37-2.21c.77-.73,1.25-1.62,2-2.32l1.08-1.08a7,7,0,0,1,1.24-.86,11.55,11.55,0,0,1,3-1.22,13.69,13.69,0,0,1,1.56-.25,6.72,6.72,0,0,1,1.55-.08,16.63,16.63,0,0,1,1.88.14l1.82.41a17.65,17.65,0,0,1,2.57,1.08,22.65,22.65,0,0,1,2.3,1.49c.53.45,1.22.75,1.76,1.22s1.13.9,1.69,1.39a6.13,6.13,0,0,1,.63.72c.67,1,.5,1.53-.81,2.36a9.55,9.55,0,0,1-.9.56,3.21,3.21,0,0,1-2.74.31c-1.66-1.07-2.8-1.9-4.06-2.62a7.79,7.79,0,0,0-3-1.11Z"/><path class="cls-1" d="M367.66,129.48c-13.1,3.05-26,6.81-39.1,9.86-4.12.95-2.38,7.28,1.74,6.33,13.1-3,26-6.81,39.1-9.85,4.12-1,2.38-7.29-1.74-6.34Z"/><path class="cls-1" d="M377.94,165.77c-14.32,3.31-28.65,6.55-43,9.86-4.11,1-2.37,7.28,1.75,6.33,14.31-3.31,28.64-6.55,42.95-9.86,4.12-.95,2.37-7.28-1.74-6.33Z"/><path class="cls-1" d="M297.74,127.61a21.32,21.32,0,0,0-9.09-2.76,49.13,49.13,0,0,0-9.47.25,84,84,0,0,0-10,1.61,45.92,45.92,0,0,0-13.56,5.44c-1.06.71-2.16,1.47-3.11,2.23s-1.85,1.53-2.71,2.32a50.2,50.2,0,0,0-4.48,4.61,53.18,53.18,0,0,0-4.57,6.16,37,37,0,0,0-3.75,7.71,48.91,48.91,0,0,0-2.3,9.39,48.21,48.21,0,0,0-.21,11.65A48.1,48.1,0,0,0,243,200.53c4.72,7,12,11.93,19.32,15.2a64.83,64.83,0,0,0,21.7,6.13,49.24,49.24,0,0,0,14.16-1,52.27,52.27,0,0,0,13.31-5,68.51,68.51,0,0,0,8.69-5.5,40,40,0,0,0,7.65-7.34A39.23,39.23,0,0,0,336,183.9a119.54,119.54,0,0,0,1.15-12.32,43.52,43.52,0,0,0-10.89-30.83,42,42,0,0,0-17.5-11.51,3.83,3.83,0,0,0-1.81-.38c-.54.08-1.1.65-1.63,1,.14.74.08,1.95.4,2.13,2.45,1.32,4.75,2.77,7,4.21s4.38,2.91,6.51,4.46a24.84,24.84,0,0,1,6.51,6.42,47.8,47.8,0,0,1,7.12,17.4,36.62,36.62,0,0,1,.49,9.53,32.65,32.65,0,0,1-2,9.32c-.28.79-.33,1.65-.61,2.45A46.65,46.65,0,0,1,324.28,199a40.71,40.71,0,0,1-10.61,10,42.7,42.7,0,0,1-14,6.15,48.27,48.27,0,0,1-14.9.88,59.25,59.25,0,0,1-16.2-4c-2.68-.9-5.21-2.26-7.82-3.42l-3.62-2c-1.15-.76-2.25-1.58-3.39-2.37-4.48-3.5-7.34-8.61-9.28-13.81a62.44,62.44,0,0,1-2.22-9.36,68,68,0,0,1-1.11-9.27,40.21,40.21,0,0,1,0-4.66c.12-1.57.31-3.16.58-4.72,1.11-6.23,3.71-12.33,8.17-16.86a55,55,0,0,1,4.2-3.89c1.46-1.18,3-2.46,4.43-3.39a98.71,98.71,0,0,1,9.55-5.53,20.23,20.23,0,0,1,2.66-1.13,11.88,11.88,0,0,1,2.84-.47c6.7,0,13.15-1.33,19.9-1.25a10.1,10.1,0,0,0,4.45-.6C298.72,128.85,298.77,128.22,297.74,127.61Z"/><path class="cls-1" d="M295.23,139.23c-3.85-2.91-8.74-3-13.27-2.34a41.11,41.11,0,0,0-7.25,1.45,36.36,36.36,0,0,0-9.51,4.47,41.08,41.08,0,0,0-7.55,6.4,37.47,37.47,0,0,0-3.49,4.36,24.16,24.16,0,0,0-2.91,5.57,30,30,0,0,0-1.64,7,28.5,28.5,0,0,0,.3,8.64,34.34,34.34,0,0,0,7.93,17,49.22,49.22,0,0,0,13.82,10.8,43.74,43.74,0,0,0,7.56,3.2,39.17,39.17,0,0,0,8.11,1.5,35.33,35.33,0,0,0,19.81-4.72c1.13-.57,2.14-1.31,3.22-2s2.07-1.48,3-2.26a45.49,45.49,0,0,0,5.38-5.12,29.11,29.11,0,0,0,4.26-6.38,21.38,21.38,0,0,0,2-7.54,69.47,69.47,0,0,0,.14-9.1,36,36,0,0,0-1.45-8.85,34.52,34.52,0,0,0-7.85-12.84,38.35,38.35,0,0,0-12.22-8.77,2.09,2.09,0,0,0-1.34-.34c-.43.1-.92.67-1.36,1,0,.72-.18,1.89,0,2.06,3.17,2.44,5.84,4.92,8.93,7a19,19,0,0,1,4.81,4.34,56.26,56.26,0,0,1,3.53,5.58,29.9,29.9,0,0,1,2.39,6.12c1.07,4.34,1.44,9.05-.28,13.12-.19.54-.23,1.13-.38,1.68-2,6.42-6.77,11.95-12.21,16.15a24.92,24.92,0,0,1-9.66,4.31,34.77,34.77,0,0,1-10.2.56A36.25,36.25,0,0,1,277,198.62c-.87-.37-1.72-.79-2.6-1.2s-1.78-.91-2.62-1.42a56.39,56.39,0,0,1-5-3.2,23.55,23.55,0,0,1-7.09-9.28,46.87,46.87,0,0,1-2-6.22,33.92,33.92,0,0,1-1.35-6.06,25.25,25.25,0,0,1,.05-6.38,19,19,0,0,1,5.84-11.45,57.4,57.4,0,0,1,6.26-4.76c2.14-1.45,4.19-2.86,6.33-4.49a6,6,0,0,1,3.62-1.39,46.12,46.12,0,0,0,6.69-.46,60.85,60.85,0,0,1,6.9-.6C295,141.7,296.63,140.33,295.23,139.23Z"/><path class="cls-1" d="M279.74,150.3a2,2,0,0,0-1.52-1.31,2.8,2.8,0,0,0-1.21.46c-.28.11-.7.26-1.25.42s-1.19.32-1.78.52c-1.25.35-2.33.82-2.6.86-.66.11-1.22.82-1.64,1.46a6.13,6.13,0,0,0-.64,1.3,28.93,28.93,0,0,0-1.49,2.72c-.48.84-.82,1.77-1.29,2.6s-.77,1.6-1.23,2.36a31.22,31.22,0,0,1-1.5,3c-.93,1.38-2.36,3-1.1,4.83.84,1,0,2,.12,3l.11,2.5.36,2.5c0,.07-.06.18.22.17s.92-.18,1.41-.28,1.75-.6,1.81-.66c1-.94,1.56-1.59,1.07-2.06-.27-.27-.68-.54-.56-.89a3.12,3.12,0,0,0-.39-2,1.8,1.8,0,0,1,.54-2c.1-.08-.08-.18-.07-.27a10,10,0,0,1,.75-3c.47-1,2.06-1.57,2.6-2.4a3.86,3.86,0,0,0,.75-1.5,9.26,9.26,0,0,0,.38-1.79c.07-.67.94-.8,1.43-1.14.29-.2.81-.19,1-.48a18.56,18.56,0,0,0,.5-2.18c.19-.75.61-1.33,1.55-1.16a5.33,5.33,0,0,0,1.45.13c.36-.08.55-.43.53-1.16,0-.38.07-.63.38-.39.54.41.74.43.89.14a2.48,2.48,0,0,0,.21-.59,4.85,4.85,0,0,1,.18-.64A6.68,6.68,0,0,0,279.74,150.3Z"/><path class="cls-1" d="M311,171.71c-2,.5-1.62.88-1.63,1.44a4,4,0,0,1-1,1.8,8.26,8.26,0,0,1-1.36,1.33c-.81.45-.57,2.3-.6,2.37a21.38,21.38,0,0,1-.54,2.2,11.8,11.8,0,0,1-.88,2,7.78,7.78,0,0,1-1.2,1.6,6.14,6.14,0,0,1-1.89,1.61c-1.18.55-2.71.43-2.7,2.22,0,1.14-1,.95-1.57,1.33a13.43,13.43,0,0,1-3.1,1.25c-.05,0-.13,0-.06.22s.29.9.45,1.38.75,1.67.81,1.73c1,.9,1.82,1.22,2.2.65.22-.33.34-.79.7-.84a2.76,2.76,0,0,0,1.64-1.25,2.05,2.05,0,0,1,1.93-.85c.13,0,.09-.17.17-.23.87-.63,1.55-1.44,2.48-2s2.63-.68,3.53-1.48a5.63,5.63,0,0,0,1.75-3.5c.11-.7.93-.95,1.43-1.44.29-.27.83-.42.94-.79.42-1.52-.93-3.6.85-4.45,1.1-.54,2.13-1.31,1-2.56-.28-.31-.4-.56,0-.72,1.38-.58.48-1.66-.33-2.51C313.54,171.63,311.77,171.5,311,171.71Z"/><path class="cls-1" d="M315.29,111.48c2.42.83,4.34-.06,6.33-.72,2.65-.92,13.45-3,14.64-3.07,3-.37,8.91-2.61,9.1-2.63,1.32-.38,2.65-.73,3.9-1l.42-.08.13,0a.92.92,0,0,1,.29,0c.2,0,.32.21.45.39a16.9,16.9,0,0,1,1.22,3.34,32,32,0,0,1,.77,3.78l.09.8a2.35,2.35,0,0,1,0,.53c-.09.13-.28.18-.42.26l-.64.26c-.74.29-1.5.56-2.27.83a88.18,88.18,0,0,1-8.84,2.63c-4.38,1-8.87,1.39-12.91,3.45a12.43,12.43,0,0,1-3.81,1.12c-.64.1-1.29.16-1.92.21l-.93.05a4.59,4.59,0,0,1-.49,0,.71.71,0,0,1-.45-.11,2.64,2.64,0,0,1-.15-.45c-.31-.9-.63-2-.91-3.08-.56-2.13-1.07-4.31-1.57-6.48,0-.19,0-.41-.27-.54a5.36,5.36,0,0,0-1.15-.14c-.46.22-1.29.52-1.32.66a9.49,9.49,0,0,0,.36,5.82,17,17,0,0,1,1.22,3.12,14.27,14.27,0,0,0,.46,1.67,8.23,8.23,0,0,0,1,2.07,2.73,2.73,0,0,0,2.1.65c.39,0,.79,0,1.15-.09l.88-.14a37.61,37.61,0,0,1,6.82-1,3.81,3.81,0,0,0,.87-.27c3.44-.82,6.81-1.84,10.22-2.69,3.61-.91,7.43-1.17,11.05-2.3.82-.26,1.64-.54,2.47-.87.26-.1,1.28-.51,1.93-.85a14.56,14.56,0,0,0,1.91-1.3l.06-1.68c0-.58,0-1.14-.1-1.72l-.09-.65-.08-.48-.19-1a33.11,33.11,0,0,0-1.05-3.71c-.38-1.07-.64-2.16-1.06-3.37-.56-1.53-1.82-3.46-3.78-3.53a13.3,13.3,0,0,0-1.67,0c-.36,0-.69,0-1,0a9.06,9.06,0,0,0-1.9.24c-4.63,1.21-8.63,3.94-13.37,4.15-2.87.14-5.74.36-8.15,2.14a2.89,2.89,0,0,1-2,.7c-2.58-.22-4.66,1.23-6.77,2.52C314.56,109.73,314.39,111.18,315.29,111.48Z"/><path class="cls-1" d="M364.47,143.86c1,.37,1,0,1.07-.2a5,5,0,0,1,1.67-1c.46-.11.55-1,.56-1.05.14-.33.28-.67.44-1a6,6,0,0,1,.51-.89,4.59,4.59,0,0,1,.6-.72,3.76,3.76,0,0,1,.91-.76c.55-.27,1.35-.33,1.18-1.22-.1-.54.39-.57.62-.82.39-.42.84-.79,1.26-1.18,0,0,.07,0,0-.11s-.34-.33-.52-.51-.71-.57-.76-.59c-.61-.21-1-.24-1,.06s0,.38-.12.44c-.57.25-.3,1.23-1.22,1.19-.06,0,0,.09,0,.11a7,7,0,0,1-.93.95c-.4.27-1.16.23-1.55.51a2.22,2.22,0,0,0-.77,1.4c-.06.3-.45.32-.7.47s-.4.07-.46.22c-.26.57.2,1.67-.71,1.71-.55,0-1.08.1-.74.8.08.17.1.3-.09.26-.69-.12-.44.45-.28.94A2.68,2.68,0,0,0,364.47,143.86Z"/><path class="cls-1" d="M361.58,129.09c1,.37,1,0,1.07-.2a5,5,0,0,1,1.67-1c.46-.1.55-1,.56-1,.14-.33.28-.67.44-1a5.93,5.93,0,0,1,.51-.88,4.59,4.59,0,0,1,.6-.72,3.76,3.76,0,0,1,.91-.76c.55-.28,1.35-.34,1.18-1.23-.1-.53.39-.57.62-.82.39-.42.84-.78,1.26-1.17,0,0,.07,0,0-.11s-.34-.34-.52-.51-.72-.57-.76-.59c-.61-.21-1-.24-1,.06s0,.38-.12.44c-.57.25-.3,1.23-1.22,1.19-.06,0,0,.08,0,.11a6.36,6.36,0,0,1-.93.94c-.4.28-1.16.23-1.55.52a2.22,2.22,0,0,0-.77,1.4c-.06.29-.45.32-.7.46s-.4.08-.46.23c-.26.56.2,1.67-.71,1.71-.55,0-1.08.09-.74.8.08.17.1.3-.09.26-.69-.12-.44.45-.28.93A2.7,2.7,0,0,0,361.58,129.09Z"/><path class="cls-1" d="M360.62,121.38c1,.37.95,0,1.07-.2a4.87,4.87,0,0,1,1.67-1c.46-.11.55-1,.56-1,.14-.33.27-.67.43-1a8.57,8.57,0,0,1,.51-.89,5.28,5.28,0,0,1,.61-.72,3.9,3.9,0,0,1,.9-.76c.55-.27,1.36-.33,1.19-1.22-.1-.54.39-.57.62-.82.38-.42.83-.79,1.25-1.18,0,0,.07,0,0-.11s-.33-.33-.51-.51-.72-.57-.76-.59c-.62-.21-1-.24-1,.06s0,.38-.12.44c-.58.25-.31,1.23-1.22,1.19-.06,0,0,.09,0,.11a7,7,0,0,1-.94,1c-.39.27-1.16.23-1.54.51a2.27,2.27,0,0,0-.78,1.4c-.06.3-.44.32-.7.47s-.39.07-.46.22c-.25.57.21,1.67-.7,1.71-.56,0-1.08.1-.74.8.08.17.1.3-.1.26-.69-.12-.44.45-.28.94A2.65,2.65,0,0,0,360.62,121.38Z"/><path class="cls-1" d="M228.63,174.69c1,.37,1,0,1.07-.2a4.72,4.72,0,0,1,1.67-1c.46-.11.55-1,.56-1.06.14-.32.27-.66.43-1a8.57,8.57,0,0,1,.51-.89,5.28,5.28,0,0,1,.61-.72,3.9,3.9,0,0,1,.9-.76c.55-.27,1.36-.33,1.19-1.22-.1-.54.39-.57.62-.82.38-.42.83-.79,1.25-1.18,0,0,.07,0,0-.11s-.33-.33-.51-.51-.72-.57-.76-.59c-.62-.21-1-.24-1,.06s0,.38-.12.44c-.58.25-.31,1.23-1.22,1.19-.06,0,0,.09,0,.11a7,7,0,0,1-.94,1c-.39.27-1.16.23-1.54.51a2.27,2.27,0,0,0-.78,1.4c-.06.3-.44.32-.7.47s-.39.07-.46.22c-.25.56.21,1.67-.7,1.71-.56,0-1.08.1-.74.8.08.17.1.3-.1.26-.69-.12-.44.45-.28.94A2.65,2.65,0,0,0,228.63,174.69Z"/><path class="cls-1" d="M290.61,92.8c1,.37.95,0,1.07-.2a5,5,0,0,1,1.67-1c.46-.1.55-1,.56-1,.14-.33.28-.66.43-1a8.42,8.42,0,0,1,.51-.88,5.28,5.28,0,0,1,.61-.72,3.76,3.76,0,0,1,.91-.76c.54-.28,1.35-.34,1.18-1.23-.1-.53.39-.56.62-.82s.83-.78,1.25-1.17c0,0,.08,0,0-.11s-.34-.33-.52-.51-.72-.57-.76-.59c-.62-.21-1-.24-1,.06s0,.38-.12.44c-.58.25-.31,1.23-1.22,1.19-.06,0,0,.08,0,.11a6.88,6.88,0,0,1-.93.94c-.4.28-1.17.23-1.55.52a2.27,2.27,0,0,0-.78,1.4c-.06.29-.44.32-.7.46s-.39.08-.46.23c-.25.56.21,1.67-.7,1.71-.56,0-1.08.09-.74.8.08.17.1.3-.09.26-.69-.12-.45.45-.29.94A2.72,2.72,0,0,0,290.61,92.8Z"/><path class="cls-1" d="M294.14,96.65c1,.37,1,0,1.07-.2a5,5,0,0,1,1.67-1c.46-.11.55-1,.56-1,.14-.33.28-.67.44-1a6,6,0,0,1,.51-.89,4.51,4.51,0,0,1,.6-.71,3.58,3.58,0,0,1,.91-.77c.55-.27,1.35-.33,1.18-1.22-.1-.54.39-.57.62-.82.39-.42.84-.78,1.26-1.18,0,0,.07,0,0-.11s-.34-.33-.52-.5-.72-.58-.76-.59c-.61-.22-1-.25-1,0s0,.38-.12.44c-.58.25-.3,1.23-1.22,1.19-.06,0,0,.09,0,.12a6.36,6.36,0,0,1-.93.94c-.4.27-1.16.23-1.55.52a2.17,2.17,0,0,0-.77,1.39c-.06.3-.45.33-.7.47s-.4.07-.46.22c-.26.57.2,1.68-.71,1.72-.55,0-1.08.09-.74.79.08.17.1.3-.09.27-.69-.13-.44.44-.28.93A2.68,2.68,0,0,0,294.14,96.65Z"/><path class="cls-1" d="M298.64,101.79c1,.37.95,0,1.06-.2a5,5,0,0,1,1.68-1c.46-.11.55-1,.56-1,.14-.33.27-.67.43-1a8.57,8.57,0,0,1,.51-.89,5.28,5.28,0,0,1,.61-.72,3.9,3.9,0,0,1,.9-.76c.55-.27,1.36-.33,1.19-1.22-.1-.54.39-.57.62-.82.38-.42.83-.79,1.25-1.18,0,0,.07,0,0-.11s-.33-.33-.51-.51-.72-.57-.76-.59c-.62-.21-1-.24-1,.06s0,.38-.12.44c-.58.25-.31,1.23-1.22,1.19-.06,0,0,.09,0,.11a6.41,6.41,0,0,1-.93.95c-.39.27-1.16.23-1.54.51a2.27,2.27,0,0,0-.78,1.4c-.06.3-.45.32-.7.47s-.39.07-.46.22c-.25.57.21,1.67-.7,1.71-.56,0-1.08.1-.74.8.08.17.1.3-.1.26-.69-.12-.44.45-.28.94A2.65,2.65,0,0,0,298.64,101.79Z"/><path class="cls-1" d="M230.24,181.43c1,.37.95,0,1.06-.2a5.06,5.06,0,0,1,1.68-1c.45-.1.54-1,.56-1.05.14-.33.27-.67.43-1a6,6,0,0,1,.51-.89,4.58,4.58,0,0,1,.61-.71,3.74,3.74,0,0,1,.9-.77c.55-.27,1.35-.33,1.19-1.22-.1-.54.38-.57.61-.82.39-.42.84-.78,1.26-1.17,0,0,.07,0,0-.12s-.34-.33-.51-.5-.72-.58-.76-.59c-.62-.21-1-.25-1,0s0,.38-.13.44c-.57.26-.3,1.23-1.21,1.2-.06,0,0,.08,0,.11a6.36,6.36,0,0,1-.93.94c-.39.28-1.16.23-1.55.52a2.19,2.19,0,0,0-.77,1.39c-.06.3-.45.33-.7.47s-.4.07-.46.22c-.26.57.2,1.68-.71,1.72-.55,0-1.08.09-.74.79.08.17.11.3-.09.27-.69-.12-.44.44-.28.93A2.59,2.59,0,0,0,230.24,181.43Z"/><path class="cls-1" d="M232.16,188.82c1,.37,1,0,1.07-.2a5,5,0,0,1,1.67-1c.46-.11.55-1,.56-1.05.14-.33.28-.67.43-1a7.14,7.14,0,0,1,.52-.89,4.59,4.59,0,0,1,.6-.72,3.76,3.76,0,0,1,.91-.76c.55-.27,1.35-.33,1.18-1.22-.1-.54.39-.57.62-.82.39-.42.84-.79,1.26-1.18,0,0,.07,0,0-.11s-.34-.33-.52-.51-.72-.57-.76-.59c-.62-.21-1-.24-1,.06s0,.38-.12.44c-.58.25-.31,1.23-1.22,1.19-.06,0,0,.09,0,.11a7.58,7.58,0,0,1-.93,1c-.4.27-1.16.23-1.55.51a2.22,2.22,0,0,0-.77,1.4c-.07.3-.45.32-.7.47s-.4.07-.47.22c-.25.57.21,1.67-.7,1.71-.55,0-1.08.1-.74.8.08.17.1.3-.09.26-.69-.12-.44.45-.28.94A2.62,2.62,0,0,0,232.16,188.82Z"/><path class="cls-1" d="M234.41,196.53c1,.37,1,0,1.07-.2a5,5,0,0,1,1.67-1.05c.46-.1.55-1,.56-1.05.14-.33.27-.67.43-1a8.42,8.42,0,0,1,.51-.88,5.28,5.28,0,0,1,.61-.72,3.76,3.76,0,0,1,.91-.76c.54-.28,1.35-.34,1.18-1.23-.1-.53.39-.56.62-.82.38-.41.83-.78,1.25-1.17,0,0,.07,0,0-.11s-.34-.34-.52-.51-.72-.57-.76-.59c-.62-.21-1-.24-1,.06s0,.38-.12.44c-.58.25-.31,1.23-1.22,1.19-.06,0,0,.08,0,.11a6.43,6.43,0,0,1-.94.94c-.39.28-1.16.23-1.54.52a2.27,2.27,0,0,0-.78,1.4c-.06.29-.44.32-.7.46s-.39.08-.46.23c-.25.56.21,1.67-.7,1.71-.56,0-1.08.09-.74.8.08.17.1.3-.1.26-.68-.12-.44.45-.28.94A2.72,2.72,0,0,0,234.41,196.53Z"/><path class="cls-1" d="M366.4,151.89c1,.37,1,0,1.07-.2a4.81,4.81,0,0,1,1.67-1c.46-.11.55-1,.56-1.06.14-.33.28-.66.43-1a8.57,8.57,0,0,1,.51-.89,5.28,5.28,0,0,1,.61-.72,3.76,3.76,0,0,1,.91-.76c.54-.28,1.35-.33,1.18-1.23-.1-.53.39-.56.62-.82.38-.41.83-.78,1.25-1.17,0,0,.08,0,0-.11s-.34-.33-.52-.51-.72-.57-.76-.59c-.62-.21-1-.24-1,.06s0,.38-.12.44c-.58.25-.31,1.23-1.22,1.19-.06,0,0,.08,0,.11a6.88,6.88,0,0,1-.93.94c-.4.28-1.17.23-1.55.52a2.27,2.27,0,0,0-.78,1.4c-.06.3-.44.32-.7.46s-.39.08-.46.23c-.25.56.21,1.67-.7,1.71-.56,0-1.08.1-.74.8.08.17.1.3-.09.26-.69-.12-.45.45-.29.94A2.72,2.72,0,0,0,366.4,151.89Z"/><path class="cls-1" d="M369,158.63c1,.37.95,0,1.07-.2a4.87,4.87,0,0,1,1.67-1c.46-.11.55-1,.56-1,.14-.33.27-.67.43-1a8.57,8.57,0,0,1,.51-.89,5.19,5.19,0,0,1,.61-.71,3.71,3.71,0,0,1,.9-.77c.55-.27,1.36-.33,1.19-1.22-.1-.54.39-.57.62-.82.38-.42.83-.78,1.25-1.18,0,0,.07,0,0-.11s-.33-.33-.51-.5-.72-.58-.76-.59c-.62-.22-1-.25-1,.05s0,.38-.12.44c-.58.25-.31,1.23-1.22,1.2-.06,0,0,.08,0,.11a6.43,6.43,0,0,1-.94.94c-.39.27-1.16.23-1.54.52a2.22,2.22,0,0,0-.78,1.39c-.06.3-.44.33-.7.47s-.39.07-.46.22c-.25.57.21,1.68-.7,1.72-.56,0-1.08.09-.74.79.08.17.1.3-.1.27-.69-.13-.44.44-.28.93A2.65,2.65,0,0,0,369,158.63Z"/><path class="cls-1" d="M371.54,165.37c1,.37.95,0,1.06-.19a5,5,0,0,1,1.68-1.05c.46-.1.55-1,.56-1,.14-.33.27-.67.43-1a8.42,8.42,0,0,1,.51-.88,5.28,5.28,0,0,1,.61-.72,3.9,3.9,0,0,1,.9-.76c.55-.28,1.36-.34,1.19-1.23-.1-.53.38-.57.62-.82.38-.42.83-.78,1.25-1.17,0,0,.07,0,0-.12s-.33-.33-.51-.5-.72-.58-.76-.59c-.62-.21-1-.24-1,.06s0,.38-.12.44c-.58.25-.31,1.23-1.22,1.19-.06,0,0,.08-.05.11a5.9,5.9,0,0,1-.93.94c-.39.28-1.16.23-1.54.52a2.23,2.23,0,0,0-.78,1.4c-.06.29-.45.32-.7.46s-.39.08-.46.22c-.25.57.21,1.68-.7,1.72-.56,0-1.08.09-.75.79.09.18.11.31-.09.27-.69-.12-.44.45-.28.93A2.59,2.59,0,0,0,371.54,165.37Z"/><path class="cls-1" d="M374.43,180.79c1,.37.95,0,1.06-.2a5,5,0,0,1,1.68-1c.46-.11.55-1,.56-1.05.14-.33.27-.67.43-1a8.57,8.57,0,0,1,.51-.89,5.19,5.19,0,0,1,.61-.71,3.71,3.71,0,0,1,.9-.77c.55-.27,1.36-.33,1.19-1.22-.1-.54.39-.57.62-.82.38-.42.83-.79,1.25-1.18,0,0,.07,0,0-.11s-.33-.33-.51-.51-.72-.57-.76-.58c-.62-.22-1-.25-1,.05s0,.38-.12.44c-.58.25-.31,1.23-1.22,1.19-.06,0,0,.09-.05.12a5.9,5.9,0,0,1-.93.94c-.39.27-1.16.23-1.54.52a2.22,2.22,0,0,0-.78,1.39c-.06.3-.45.33-.7.47s-.39.07-.46.22c-.25.57.21,1.67-.7,1.71-.56,0-1.08.1-.74.8.08.17.1.3-.1.27-.69-.13-.44.44-.28.93A2.65,2.65,0,0,0,374.43,180.79Z"/><path class="cls-1" d="M376,187.85c1,.37.95.05,1.06-.19a4.94,4.94,0,0,1,1.68-1c.45-.1.54-1,.56-1.05.14-.33.27-.67.43-1a5.93,5.93,0,0,1,.51-.88,4.65,4.65,0,0,1,.61-.72,3.52,3.52,0,0,1,.9-.76c.55-.28,1.35-.34,1.19-1.23-.1-.53.38-.57.61-.82.39-.42.84-.78,1.26-1.17,0,0,.07,0,0-.12s-.34-.33-.51-.5-.72-.58-.76-.59c-.62-.21-1-.24-1,.06s0,.38-.13.44c-.57.25-.3,1.23-1.21,1.19-.06,0,0,.08-.05.11a6.36,6.36,0,0,1-.93.94c-.39.28-1.16.23-1.55.52a2.22,2.22,0,0,0-.77,1.4c-.06.29-.45.32-.7.46s-.4.08-.46.22c-.26.57.2,1.68-.71,1.72-.55,0-1.08.09-.74.79.08.18.11.31-.09.27-.69-.12-.44.45-.28.93A2.59,2.59,0,0,0,376,187.85Z"/><path class="cls-1" d="M379.25,195.88c1,.37.95.05,1.06-.19a4.94,4.94,0,0,1,1.68-1.05c.45-.1.54-1,.56-1,.14-.33.27-.67.43-1a6,6,0,0,1,.51-.89,5.09,5.09,0,0,1,.61-.71,3.7,3.7,0,0,1,.9-.76c.55-.28,1.35-.34,1.19-1.23-.1-.53.38-.57.61-.82.39-.42.84-.78,1.26-1.17,0,0,.07,0,0-.12s-.33-.33-.51-.5-.72-.58-.76-.59c-.62-.21-1-.24-1,.05s0,.38-.13.45c-.57.25-.3,1.22-1.21,1.19-.06,0,0,.08-.05.11a6.36,6.36,0,0,1-.93.94c-.39.28-1.16.23-1.55.52a2.19,2.19,0,0,0-.77,1.4c-.06.29-.45.32-.7.46s-.4.08-.46.22c-.26.57.2,1.68-.71,1.72-.55,0-1.08.09-.74.79.09.18.11.3-.09.27-.69-.12-.44.44-.28.93A2.59,2.59,0,0,0,379.25,195.88Z"/><path class="cls-1" d="M271.05,328.78c-4.39-8.77-9.21-17.22-14.23-25.6l-7.62-12.52-6.31-10.2-.59-1c0-.06-.22-.23-.05-.21l.32,0,.66-.1c.45-.07.93-.14,1.44-.19l2.7-.31c5.26-.6,11.41-1.2,18.11-1.8,13.38-1.2,28.94-2.44,44-3.56,30.19-2.24,58.54-4,64.14-4.32,14-.74,35.74-2.61,54.28-4.19l6.77-.57,1.63-.14.73-.07h.06l.26-.07.65-.14.37-.07a.74.74,0,0,1,.18,0l-.06.09c-.33.5-.8,1.1-.84,1.15L425,277.84l-13.88,13.84Q397.15,305.45,383,319q-27.32,26.16-55.14,51.81l-35.54,32.81c-.19-1.09-.41-2.18-.63-3.25L290,393l-4.91-21.16c-1.57-7-3.27-14.14-4.18-21-.06-.4-.1-.89-.12-1.18l0-.51c0-.31-.05-.75.3-.9l1.11-.59,2.38-1.22,9.7-4.78,19.58-9.36c38-17.94,76.57-35,113.2-55.87,6.71-3.84,13.48-7.54,20.26-11.25l-2.7-6c-16.48,6.13-33,12.14-49.24,18.76-39,15.86-77.61,32.68-116.48,48.53a27.55,27.55,0,0,0-5.06,2.33,17,17,0,0,0-2.91,3.25c1.27.44,2.67,1.55,3.79,1.21a397.28,397.28,0,0,0,49.78-18.72c9.35-4.29,18.65-8.72,28.17-12.58,31.25-12.64,61.86-26.92,93.66-38.07L445,260.79q-11,5.76-22.39,10.95c-2.54,1.16-4.94,2.65-7.44,3.91Q371.4,297.77,327.17,319c-15.59,7.49-31.29,14.5-47,22l-1.49.73a13,13,0,0,0-2.31,1.35,5.12,5.12,0,0,0-2.63,4.32,23.61,23.61,0,0,0,0,2.79c0,.77.1,1.24.16,1.85.12,1.16.27,2.28.43,3.38.65,4.42,1.47,8.69,2.33,13,1.72,8.52,3.62,17,5.49,25.36l1.9,8.74c1.16,5.4,2.14,11.17,3.17,16.74q21.06-19.62,42.11-39.2,17.78-16.7,35.37-33.64c14.07-13.58,28.89-26.44,43.23-39.8,8.22-7.63,16.62-15.09,24.54-23,3.8-3.82,7.54-7.71,11.28-11.59l10.34-10.74,5.12-5.34,2.51-2.62c.45-.33-.19-.16-.45-.16l-1,.07-2,.16-15.16,1.23-7.07.6-4,.4-16.05,1.61c-21.39,2.12-42.77,4.08-64.24,4.95-26.11,1.05-52.24,2.33-78.14,6.67a149.22,149.22,0,0,1-19.4,2.2c-2.82.1-5.63.23-8.47.47l-1.06.09-1.76.17c-1.3.12-2.57.31-3.87.48l-7.85,1.09-1,.14c-.12,0-.44,0-.38.12l.24.42,1,1.68,2,3.38,3.86,6.41,2.52,4.08,2.26,3.55c6.06,9.44,12.49,18.65,19.08,27.72C269.17,332.14,274.36,335.23,271.05,328.78Z"/><path class="cls-1" d="M287.21,337.9c-.25-.93-.47-1.87-.76-2.76-.11-.33-.4-.54-.49-.87-.31-1.19-.52-2.42-.91-3.53a2.27,2.27,0,0,0-.92-1.1c-.48-.33-1.26-.34-.79-1a20.68,20.68,0,0,1,2.37-3.46c1.29-1.48,3.17-2.4,3.62-2a6,6,0,0,1,2.17,4.83c0,1.1.74,1.69,1.08,2.53s.66,1.88,1,2.81c.19.58.37,1.16.59,1.71a10.51,10.51,0,0,0,1.13,2.42,7,7,0,0,0,1.86,1.25,2.76,2.76,0,0,1,.45.25c.39.4,0,.81-1.68,2l-1.16.79a5.75,5.75,0,0,1-3.21,1.23,4.54,4.54,0,0,1-3.3-2.44,24.1,24.1,0,0,1-1.19-2.58Z"/><path class="cls-1" d="M77.86,332.34a61.73,61.73,0,0,0-2.66,21.15,57.48,57.48,0,0,0,4.87,21.15,44.69,44.69,0,0,0,5.07,8.47,38.3,38.3,0,0,0,4.44,4.82,47.16,47.16,0,0,0,5.89,4.33,52.14,52.14,0,0,0,14.82,6.16,31.92,31.92,0,0,0,4.1.91c1.38.24,2.77.5,4.17.71,2.8.24,5.62.61,8.41.59a101,101,0,0,0,30.18-4,70.43,70.43,0,0,0,15.91-6.48,50.36,50.36,0,0,0,14.59-12.92,61,61,0,0,0,10.29-19.36c2.18-6.79,2.66-13.59,1.78-18.59a18,18,0,0,0-.76-3.37,15.68,15.68,0,0,0-.84-2.56c-.64-1.39-1-2.23-1.12-2.41a28.7,28.7,0,0,0-10.91-11.16,36.76,36.76,0,0,0-14.46-4.64l-3.77-.29-3.77.16a22.37,22.37,0,0,0-3.73.46,26.66,26.66,0,0,0-3.68.75l-3.6,1.09a36.19,36.19,0,0,0-3.46,1.46,43.89,43.89,0,0,0-6.53,3.71,44.41,44.41,0,0,0-16.16,23.11,82.74,82.74,0,0,0-3.63,27.54,51.65,51.65,0,0,0,7.63,24.8,46.27,46.27,0,0,0,19.88,16.74,67.26,67.26,0,0,0,15.35,4.63,107.58,107.58,0,0,0,15.75,1.94c10.58.45,21.52-.85,31.52-5.07a70.37,70.37,0,0,0,19.77-12.52l2.19-2c.77-.75,1.48-1.51,2.14-2.29a53.49,53.49,0,0,0,3.61-4.78A81.86,81.86,0,0,0,247,384.46a75.15,75.15,0,0,0,7.15-22.4,38.06,38.06,0,0,0-.16-12.27,26,26,0,0,0-1.94-6.13,20.23,20.23,0,0,0-3.81-5.38,20.53,20.53,0,0,0-6.41-4.39,27.3,27.3,0,0,0-3.53-1.31,34.54,34.54,0,0,0-3.78-.73,25.49,25.49,0,0,0-14.49,3.2,30.57,30.57,0,0,0-15.54,23.83,35.47,35.47,0,0,0,1.14,12.23,24.4,24.4,0,0,0,6.72,10.73,26.48,26.48,0,0,0,11.2,5.61,38,38,0,0,0,24-2.24,33.26,33.26,0,0,0,9.73-7.61A41.21,41.21,0,0,0,264,367.53a72.11,72.11,0,0,0,4.08-11.07,17.2,17.2,0,0,0,.87-4,11.8,11.8,0,0,0-.75-3.1c-.81.57-2.1.91-2.36,1.7-2.07,6-4.32,11.85-7.54,17a40.78,40.78,0,0,1-5.58,7.07,33.39,33.39,0,0,1-6.94,5.53,30.84,30.84,0,0,1-20.36,2.75c-7.06-1.35-13.08-6.06-15.37-12.73a28.58,28.58,0,0,1,1.09-20.86c3.08-6.44,8.85-11.77,15.77-13.64a17.58,17.58,0,0,1,10.36.25,16.58,16.58,0,0,1,8.26,5.9,20.36,20.36,0,0,1,2.59,4.75c1.72,5.12,1.43,10.91.43,16.45a76.83,76.83,0,0,1-5.22,16.28,77.66,77.66,0,0,1-8.48,14.85,34.57,34.57,0,0,1-2.68,3.16c-1,1-2.08,1.94-3.1,2.91l-3.29,2.74c-1.15.83-2.27,1.7-3.44,2.51a57.59,57.59,0,0,1-16.12,7.64,64.26,64.26,0,0,1-17.61,2.5,94.69,94.69,0,0,1-17.82-1.64,81.74,81.74,0,0,1-17-4.83,41.39,41.39,0,0,1-15.12-11,40.51,40.51,0,0,1-8.3-16.69,57.58,57.58,0,0,1-1.2-19.24,82.64,82.64,0,0,1,4.08-19.15,34.83,34.83,0,0,1,29.37-22.07,33.9,33.9,0,0,1,20.56,4.74l2,1.46c.32.25.69.46,1,.74l.86.87c.57.59,1.19,1.14,1.73,1.74l1.37,2a21.75,21.75,0,0,1,3,9.28c.54,6.82-1.17,14.15-4.3,20.74a58.84,58.84,0,0,1-5.57,9.51,52,52,0,0,1-7.42,8.12,36.67,36.67,0,0,1-9.09,5.95,62.91,62.91,0,0,1-10.4,3.85c-17.51,4.49-36.12,5.18-52.87-.07l-3-1.24-1.51-.66c-.47-.27-.93-.57-1.39-.85-.92-.59-1.83-1.18-2.72-1.8a20.84,20.84,0,0,1-2.33-2.16,46.25,46.25,0,0,1-10.16-19.39,81.81,81.81,0,0,1-2.64-22.84,69.15,69.15,0,0,0-.18-10C79.38,329.72,78.68,329.83,77.86,332.34Z"/><path class="cls-1" d="M139.7,226.77c.37.74.78,1.44,1.11,2.21l.11.25,0,.06,0,.11c.05.11.06.42.13.41a1.19,1.19,0,0,1,.22-.23,13.78,13.78,0,0,1,1.24-.81,20.68,20.68,0,0,1,7-2.56,23.78,23.78,0,0,1,7.24-.08,25.28,25.28,0,0,1,3.56.73,23.21,23.21,0,0,1,3.44,1.46,16.92,16.92,0,0,1,5.87,4.82,16.34,16.34,0,0,1,3.11,7,23,23,0,0,1,.38,3.66,17.83,17.83,0,0,1,0,1.79,6.54,6.54,0,0,1-.06.89l0,.28a5.57,5.57,0,0,1-.14.66l-.11.33c0,.05-.05.13,0,.15l.13-.08a2.49,2.49,0,0,1,1-.2l.47,0a5.45,5.45,0,0,1,.7,0l1.41.07a18,18,0,0,1,2.79.51,15.68,15.68,0,0,1,10.75,10,30.71,30.71,0,0,1,1.48,13.67c-.22,1.15-.35,2.3-.67,3.44a18.64,18.64,0,0,1-1.3,3.39,15.11,15.11,0,0,1-4.81,5.73,16.54,16.54,0,0,1-6.76,2.8,20.88,20.88,0,0,1-3.5.36,6.77,6.77,0,0,1-1.51-.06,3.68,3.68,0,0,0-.37.69l-.18.37,0,.1-.14.24-.26.46-1.07,1.85c-.39.6-.82,1.18-1.23,1.77a26.51,26.51,0,0,1-6.15,6.13A27.73,27.73,0,0,1,147.17,304a47.29,47.29,0,0,1-16.2-3.21,58,58,0,0,1-7.44-3.4c-1.21-.64-2.38-1.35-3.54-2.09l-1.71-1.18-.84-.63-.36-.29a6.27,6.27,0,0,1-1.18-1.23c-.06-.13-.09,0-.13.05l-.1.24-.21.48c-.18.3-.34.61-.54.91l-.48.67c-.24.32-.46.66-.72,1l-1.56,1.79a34.78,34.78,0,0,1-7.39,5.8,33.59,33.59,0,0,1-8.7,3.52,30.4,30.4,0,0,1-4.65.73c-.78,0-1.57.16-2.35.15l-2.35-.09A36.63,36.63,0,0,1,74,303.82a26.72,26.72,0,0,1-10.42-8.56,23.28,23.28,0,0,1-3.91-13,35.4,35.4,0,0,1,2.43-12.89c1-2.53,1.94-3.43,2.42-3.12s.59,1.8.58,4.05c.06,4.4-.64,12.41,2.56,19.32,1.74,3.84,5.21,6.66,9.34,8.66a27.37,27.37,0,0,0,13.34,2.8,25.85,25.85,0,0,0,12.87-4.24,25.33,25.33,0,0,0,5.24-4.42,14.59,14.59,0,0,0,1.09-1.29l.52-.71a7.61,7.61,0,0,0,1-1.77c1.19-2.59,2.29-5.19,3.31-7.54l3.38,4.5a13.44,13.44,0,0,0,1.72,1.93l.85.86c.16.13.28.24.47.38l.27.2a35.2,35.2,0,0,0,3.62,2.44,52.8,52.8,0,0,0,8.06,3.95,39.49,39.49,0,0,0,17.33,3,20.39,20.39,0,0,0,11.32-4.43,21.62,21.62,0,0,0,4.22-4.66,27.65,27.65,0,0,0,1.69-2.77c.07-.14.12-.2.21-.4l.29-.64.59-1.27c.39-.84.75-1.74,1.18-2.53,1.16.14,2.56.39,3.52.39l.79,0h.48c.3,0,.61,0,.91-.06a14.26,14.26,0,0,0,3.49-.75,9.53,9.53,0,0,0,5.15-4.08c2.34-3.87,2.39-9.65,1.47-14.55a15.65,15.65,0,0,0-1.86-4.87,10.48,10.48,0,0,0-3.48-3.31,10.84,10.84,0,0,0-4.78-1.25,4.52,4.52,0,0,0-.64,0l-.86,0a5.45,5.45,0,0,0-1.3.24L171,254c-.9.32-2.07.92-3.2,1.47l-3.29,1.66,0-.57a1.17,1.17,0,0,1,.12-.45l.19-.59.8-2.4c.54-1.65,1.06-3.3,1.41-4.81a11.68,11.68,0,0,0,.37-2.22,11.14,11.14,0,0,0,.09-1.24,16,16,0,0,0-.08-2.4,11,11,0,0,0-4.13-7.8,16.74,16.74,0,0,0-18.07-.88l-.57.38a6.63,6.63,0,0,0-.89.78l-.86.82-.84,1.11c-1.11,1.48-2.35,3.23-3.3,4.67-.09-.16-.2-.21-.28-.46l-.21-.92-.45-1.87c-.32-1.31-.65-2.58-1-3.76a16.31,16.31,0,0,0-.58-1.75c-.11-.28-.22-.55-.34-.81l-.29-.63c-.28-.65-.65-1.27-1-1.91a34,34,0,0,0-5-6.93c-3.89-4.11-9-7.13-14.56-7.56a23.54,23.54,0,0,0-17.4,5.53A21.71,21.71,0,0,0,92,227.81a12.8,12.8,0,0,0-.95,2.56c-.08.3-.17.59-.23.91l0,1.16-.07,2.33c0,1.6.11,3.58.17,5.27l.17,2.24.08,1.12c0,.23,0,.29,0,.35l0,.21-.69-1.25-.86-1.48-1.77-3L86,235.46a17.51,17.51,0,0,0-1.6-2.07A11.4,11.4,0,0,0,82.74,232a9.54,9.54,0,0,0-1.11-.66,14,14,0,0,0-2.4-1,14.81,14.81,0,0,0-5.17-.58,9.37,9.37,0,0,0-4.72,1.41,13.33,13.33,0,0,0-5.12,6.28,10.68,10.68,0,0,0-.72,3.83l0,.46,0,.26a4,4,0,0,0,.09.5l.88,1.84c.68,1.26,1.55,2.73,2.26,3.77-.14.38-1.42.14-2.36.13s-2.06-.09-3.05-.09a16,16,0,0,0-2.9.16c-.62.06-1.16.21-1.74.31a19.05,19.05,0,0,0-6.27,2.51A11.4,11.4,0,0,0,45.25,262a15.5,15.5,0,0,0,.24,2.27,10.72,10.72,0,0,0,.68,1.94,13.34,13.34,0,0,0,2.57,3.5,8.44,8.44,0,0,0,5.65,2.5,10,10,0,0,0,4.12-1.2c1.08-.69,2-1.21,2.8-1.79s1.55-.89,2.24-1.27a15.71,15.71,0,0,1,1.94-1c.88-.22.76.92-.36,3.33a16.92,16.92,0,0,1-3.25,4.08,12.17,12.17,0,0,1-7.32,3.21,12.8,12.8,0,0,1-7.4-2,16.85,16.85,0,0,1-5.25-5.21L41,268.74c-.26-.58-.5-1.18-.74-1.77s-.36-1.31-.52-2a17.25,17.25,0,0,1-.2-1.81l-.13-1.8c0-.6.05-1.22.09-1.83a16.6,16.6,0,0,1,.18-1.84l.44-1.86c1.24-5.08,5.55-9.28,10-11.14a27.59,27.59,0,0,1,6.93-2c.8-.11.69-.09.72-.11l.07,0s.12,0,.07,0a.61.61,0,0,1-.07-.1s0-.1,0,.06a13.65,13.65,0,0,1-.06-1.8,16,16,0,0,1,1.66-6.44,18.07,18.07,0,0,1,9.19-9,9.91,9.91,0,0,1,1.72-.57A10.42,10.42,0,0,1,72,224.3a19.59,19.59,0,0,1,3.16-.22,19.86,19.86,0,0,1,6.32,1.06,17.13,17.13,0,0,1,3,1.3c.48.25.94.54,1.4.84l.08.06h0c0-.06,0,.12,0-.12a26.46,26.46,0,0,1,5.18-8.48,29.63,29.63,0,0,1,16.84-9.3,30.92,30.92,0,0,1,9.79,0A28.83,28.83,0,0,1,127,213a36.79,36.79,0,0,1,12.8,13.72Z"/><path class="cls-1" d="M173.75,265c1.29.5,1.27.06,1.42-.26a6.51,6.51,0,0,1,2.22-1.38c.61-.14.73-1.37.75-1.4.18-.44.36-.89.57-1.31a9.78,9.78,0,0,1,.68-1.18,5.65,5.65,0,0,1,.81-1,5.18,5.18,0,0,1,1.2-1c.72-.36,1.79-.44,1.57-1.62-.13-.71.51-.76.82-1.09.51-.56,1.11-1,1.67-1.56,0,0,.09,0,0-.15s-.44-.44-.68-.67-.95-.77-1-.79c-.82-.28-1.36-.32-1.38.08,0,.23,0,.5-.16.58-.77.34-.41,1.63-1.62,1.59-.08,0,0,.11-.06.14a8.2,8.2,0,0,1-1.24,1.26c-.52.36-1.54.3-2.05.68a3,3,0,0,0-1,1.86c-.08.39-.59.43-.93.62-.19.1-.52.1-.61.29-.34.76.27,2.23-.94,2.28-.73,0-1.43.12-1,1.06.11.23.14.4-.12.35-.92-.16-.59.59-.38,1.24A3.51,3.51,0,0,0,173.75,265Z"/><path class="cls-1" d="M176.6,273c1.28.49,1.26.06,1.41-.26a6.49,6.49,0,0,1,2.23-1.39c.6-.14.72-1.36.74-1.4.19-.43.36-.89.57-1.31a9.78,9.78,0,0,1,.68-1.18,6.67,6.67,0,0,1,.81-.95,4.92,4.92,0,0,1,1.2-1c.73-.37,1.8-.45,1.58-1.63-.14-.71.51-.76.81-1.09.52-.56,1.12-1,1.67-1.56,0,0,.1,0,0-.15s-.45-.44-.68-.67-1-.76-1-.78c-.82-.29-1.36-.33-1.39.07,0,.23,0,.5-.16.59-.76.33-.4,1.63-1.62,1.58-.08,0,0,.11,0,.15a9.76,9.76,0,0,1-1.24,1.25c-.52.36-1.54.3-2.06.69a2.91,2.91,0,0,0-1,1.85c-.09.4-.6.43-.94.62s-.52.1-.61.3c-.34.75.28,2.22-.93,2.27-.74,0-1.44.13-1,1.06.11.23.14.4-.12.35-.92-.16-.59.59-.37,1.24A3.47,3.47,0,0,0,176.6,273Z"/><path class="cls-1" d="M131.1,245.11c1.28.49,1.26.06,1.41-.26a6.55,6.55,0,0,1,2.22-1.39c.61-.14.73-1.36.75-1.4.19-.43.36-.89.57-1.31a9.78,9.78,0,0,1,.68-1.18,6.67,6.67,0,0,1,.81-.95,4.92,4.92,0,0,1,1.2-1c.73-.37,1.79-.45,1.57-1.63-.13-.71.52-.76.82-1.09.52-.56,1.11-1,1.67-1.56,0,0,.1,0,0-.15s-.45-.44-.69-.67-1-.76-1-.78c-.82-.29-1.35-.33-1.38.07,0,.23,0,.5-.16.59-.77.33-.41,1.63-1.62,1.58-.08,0,0,.11-.06.15a9.07,9.07,0,0,1-1.23,1.25c-.53.36-1.55.3-2.06.69a3,3,0,0,0-1,1.85c-.08.4-.59.43-.93.62s-.52.1-.61.3c-.34.75.27,2.22-.93,2.27-.74,0-1.44.13-1,1.06.11.23.14.4-.12.35-.92-.16-.59.59-.38,1.24A3.55,3.55,0,0,0,131.1,245.11Z"/><path class="cls-1" d="M126.54,237.15c1.29.49,1.27,0,1.42-.27a6.51,6.51,0,0,1,2.22-1.38c.61-.14.73-1.37.75-1.4.19-.44.36-.89.57-1.31a9.78,9.78,0,0,1,.68-1.18,6.16,6.16,0,0,1,.81-1,5.18,5.18,0,0,1,1.2-1c.73-.36,1.79-.44,1.57-1.62-.13-.71.52-.76.82-1.09.52-.56,1.11-1,1.67-1.56,0,0,.1,0,0-.15s-.45-.44-.69-.67-.95-.77-1-.79c-.82-.28-1.35-.32-1.38.08,0,.23,0,.5-.16.58-.77.34-.41,1.63-1.62,1.59-.08,0,0,.11-.06.14a8.61,8.61,0,0,1-1.23,1.26c-.53.36-1.55.3-2.06.68a3,3,0,0,0-1,1.86c-.08.39-.59.43-.93.62-.19.1-.52.1-.61.29-.34.76.27,2.23-.94,2.28-.73,0-1.43.12-1,1.06.11.23.14.4-.12.35-.92-.16-.59.59-.38,1.24A3.65,3.65,0,0,0,126.54,237.15Z"/><path class="cls-1" d="M122,230.89c1.29.49,1.27.06,1.42-.26a6.55,6.55,0,0,1,2.22-1.39c.61-.14.73-1.36.75-1.4.19-.43.36-.88.57-1.31a9.78,9.78,0,0,1,.68-1.18,6.67,6.67,0,0,1,.81-.95,4.92,4.92,0,0,1,1.2-1c.73-.37,1.79-.45,1.57-1.63-.13-.71.52-.75.82-1.09.51-.55,1.11-1,1.67-1.56,0,0,.1,0,0-.15s-.45-.44-.69-.67-1-.76-1-.78c-.82-.28-1.35-.33-1.38.07,0,.23,0,.5-.16.59-.77.33-.41,1.63-1.62,1.58-.08,0,0,.11-.06.15a9.07,9.07,0,0,1-1.23,1.25c-.53.37-1.55.31-2.06.69a3,3,0,0,0-1,1.85c-.08.4-.59.43-.93.62s-.52.1-.61.3c-.34.75.27,2.22-.94,2.27-.73,0-1.43.13-1,1.06.11.23.14.4-.12.35-.92-.16-.59.6-.38,1.24A3.58,3.58,0,0,0,122,230.89Z"/><path class="cls-1" d="M348.94,281.22c1.28.5,1.26.06,1.41-.26a6.51,6.51,0,0,1,2.22-1.38c.61-.14.73-1.37.75-1.4.19-.44.36-.89.57-1.31a9.78,9.78,0,0,1,.68-1.18,6.16,6.16,0,0,1,.81-.95,5.18,5.18,0,0,1,1.2-1c.73-.36,1.79-.44,1.57-1.62-.13-.71.52-.76.82-1.09.52-.56,1.11-1,1.67-1.56,0,0,.1,0,0-.15s-.45-.44-.69-.67-.95-.77-1-.79c-.82-.28-1.35-.32-1.38.08,0,.23,0,.5-.16.58-.77.34-.41,1.63-1.62,1.59-.08,0,0,.11-.06.14a8.61,8.61,0,0,1-1.23,1.26c-.53.36-1.55.3-2.06.68a3,3,0,0,0-1,1.86c-.08.39-.59.43-.93.62-.19.1-.52.1-.61.29-.34.76.27,2.23-.93,2.28-.74,0-1.44.12-1,1.06.11.23.14.4-.12.35-.92-.16-.59.59-.38,1.24A3.53,3.53,0,0,0,348.94,281.22Z"/><path class="cls-1" d="M367.28,278.24c1.28.49,1.26.06,1.41-.26a6.49,6.49,0,0,1,2.23-1.39c.6-.14.73-1.36.74-1.4.19-.43.37-.88.57-1.31a9.78,9.78,0,0,1,.68-1.18,6.67,6.67,0,0,1,.81-.95,4.92,4.92,0,0,1,1.2-1c.73-.37,1.8-.45,1.58-1.63-.14-.71.51-.75.82-1.09.51-.55,1.11-1,1.66-1.56,0,0,.1,0,0-.15s-.45-.44-.68-.67-1-.76-1-.78c-.82-.28-1.36-.33-1.38.07,0,.23,0,.5-.17.59-.76.33-.4,1.63-1.61,1.58-.08,0,0,.11-.06.15a9.76,9.76,0,0,1-1.24,1.25c-.52.37-1.54.31-2.06.69a2.91,2.91,0,0,0-1,1.85c-.09.4-.6.43-.93.62s-.53.1-.62.3c-.34.75.28,2.22-.93,2.27-.74,0-1.44.13-1,1.06.11.23.14.4-.12.35-.92-.16-.58.6-.37,1.24A3.47,3.47,0,0,0,367.28,278.24Z"/><path class="cls-1" d="M379.22,308.53c1.28.49,1.27.05,1.42-.27a6.51,6.51,0,0,1,2.22-1.38c.61-.14.73-1.37.75-1.4.18-.44.36-.89.57-1.31a8.61,8.61,0,0,1,.68-1.18,6.08,6.08,0,0,1,.81-.95,5,5,0,0,1,1.2-1c.72-.36,1.79-.44,1.57-1.62-.13-.71.51-.76.82-1.09.51-.56,1.11-1,1.67-1.56,0,0,.09,0,0-.15s-.44-.44-.68-.67-1-.77-1-.79c-.82-.28-1.36-.32-1.38.08,0,.23,0,.5-.16.58-.77.34-.41,1.64-1.62,1.59-.08,0,0,.11-.06.15a8.61,8.61,0,0,1-1.24,1.25c-.52.36-1.54.3-2.05.68a3,3,0,0,0-1,1.86c-.08.39-.59.43-.93.62s-.53.1-.61.29c-.34.76.27,2.23-.94,2.28-.73,0-1.43.13-1,1.06.11.23.14.4-.12.35-.92-.16-.59.59-.38,1.24A3.53,3.53,0,0,0,379.22,308.53Z"/><path class="cls-1" d="M314.38,338.81c1.28.49,1.27.06,1.42-.26a6.71,6.71,0,0,1,2.22-1.39c.61-.14.73-1.36.75-1.39.18-.44.36-.89.57-1.32a8.49,8.49,0,0,1,.68-1.17,5.65,5.65,0,0,1,.81-.95,4.57,4.57,0,0,1,1.2-1c.72-.36,1.79-.44,1.57-1.63-.13-.71.51-.75.82-1.08.51-.56,1.11-1,1.67-1.56,0,0,.09,0,0-.16s-.44-.43-.68-.67-.95-.76-1-.78c-.82-.28-1.36-.32-1.38.08,0,.22,0,.5-.16.58-.77.33-.41,1.63-1.62,1.59-.08,0,0,.11-.06.14a7.72,7.72,0,0,1-1.24,1.25c-.52.37-1.54.31-2.05.69a3,3,0,0,0-1,1.86c-.08.39-.59.43-.93.62-.19.1-.53.09-.61.29-.34.75.27,2.23-.94,2.28-.74,0-1.43.12-1,1.05.11.23.14.4-.12.36-.92-.16-.59.59-.38,1.24A3.51,3.51,0,0,0,314.38,338.81Z"/></svg>
