<svg id="Layer_1" data-name="Layer 1" xmlns="http://www.w3.org/2000/svg" viewBox="0 0 500 500"><defs><style>.cls-1{fill:#658378;}</style></defs><path class="cls-1" d="M302.21,202.71a45.79,45.79,0,0,0-14.43-1.65,29.59,29.59,0,0,0-14.47,4.3,23.23,23.23,0,0,0-9.44,12.32c-.79,2.57-1.26,4.76-1.83,7s-1.17,4.53-1.88,6.73a72.66,72.66,0,0,1-4.45,11.41,37.45,37.45,0,0,1-10.1,13c-4.65,3.82-11.07,5.87-17.86,6.47-.86.06-1.71.17-2.57.21l-2.62,0h-8.43l-2.91.31c-1,.11-1.95.19-2.91.33l-2.88.66a40.71,40.71,0,0,0-19.81,11.14,55.47,55.47,0,0,0-10.83,16.61c-4.76,10.79-5.95,19.25-6.66,21.94-.29,1.71-.61,3.54-.95,5.47s-.51,4-.78,6.09c0,.08,0,.36,0,.29h0l-.12,0a2,2,0,0,1-.54.11,21.7,21.7,0,0,1-5.62.07c-8.29-.91-17.12-4.58-24.19-9.19a64.17,64.17,0,0,1-16-14.91,59.67,59.67,0,0,1-5.3-8.37,69,69,0,0,1-6.15-17c-.41-1.47-.57-3-.87-4.48l-.2-1.12-.09-.56-.09-.65,0-.34,0-.17c0-.07,0-.1,0-.08h.52l3.12.13c12.71.55,25.69.68,38.49-1.6a89.43,89.43,0,0,0,18.16-4.93l2.21-.85c.72-.3,1.43-.67,2.15-1,1.42-.7,2.87-1.33,4.26-2.08l4.09-2.43a16.15,16.15,0,0,0,2-1.31l2.24-1.64,1.52-1.11c.5-.38.9-.76,1.35-1.14.9-.74,1.72-1.55,2.57-2.33l5-4.73.31-.29.16-.15.08-.07s-.06,0-.09,0l-.87-.12-1.72-.23-3.3-.4-1.66-.2L186,242c-1.18-.1-2.39-.17-3.63-.22l-5.47-.25-4.52-.26c-3-.19-6-.47-9-.81-11-1.29-22-3.77-32-8.31s-19-11.17-25.52-19.91a66.68,66.68,0,0,1-9.58-17.78,98.12,98.12,0,0,1-4.74-19.91c-.65-3.4-.92-6.84-1.25-10.26s-.39-6.86-.52-10.29a46.18,46.18,0,0,1,.09-5.13l.25-5.12.65-5.06.33-2.53.54-2.48A70.22,70.22,0,0,1,103,107,77.72,77.72,0,0,1,112.59,96c1.84-1.61,3.62-3.27,5.58-4.76l.72-.57.23-.17.16-.1c.1,0,.24-.2.28-.11l.07.38,0,.08v0l.1.36.55,1.84c.73,2.46,1.49,4.92,2.29,7.36,1.58,4.89,3.33,9.73,5.19,14.53a198.6,198.6,0,0,0,13.35,27.88c6.31,10.67,13.18,21.08,21.67,30.26a102.27,102.27,0,0,0,13.87,12.65,75.51,75.51,0,0,0,16.45,9.36l1.82.77,1.88.64c1.26.41,2.5.87,3.77,1.25a79.27,79.27,0,0,0,7.73,1.77,77.38,77.38,0,0,0,15.78,1.18l4.1-.2,1.61-.09.42,0c.14,0,.21-.16.32-.24l.6-.56,1.15-1.09.71-.69c1.87-1.85,3.62-3.71,5.37-5.54a96.76,96.76,0,0,1,10.8-10.07c3.77-2.91,7.95-5.15,12.14-5.54a14,14,0,0,1,6.15.82,10.43,10.43,0,0,1,1.47.62,12.5,12.5,0,0,1,1.44.77c.46.25,1,.58,1.5.93l1.55,1a154.15,154.15,0,0,1,23,18.94,40.35,40.35,0,0,0,3.79,3.65,19.91,19.91,0,0,0,3.57,1.74c-.06-1.15.27-2.61-.43-3.51a124.82,124.82,0,0,0-18.08-18.41,110.59,110.59,0,0,0-10.47-7.75,20.33,20.33,0,0,0-13.33-3.94c-5.58.47-10.36,3.26-14.41,6.33A111.62,111.62,0,0,0,236,188.16l-5.32,5.44-1.33,1.31-.94.88a2.48,2.48,0,0,1-.56.05l-.72,0-1.87.09c-2.49.22-5,0-7.46,0-1.24,0-2.47-.21-3.71-.31a32.8,32.8,0,0,1-3.7-.46l-3.67-.61-3.62-.89a31.84,31.84,0,0,1-3.58-1c-1.17-.41-2.38-.72-3.53-1.2a78.21,78.21,0,0,1-13.34-6.71,93,93,0,0,1-11.86-9.19,111.68,111.68,0,0,1-10.24-11.06,133.58,133.58,0,0,1-15.9-25.61l-3.7-7.17c-3.38-7.07-6.37-14.34-9.1-21.71-1.37-3.68-2.65-7.4-3.87-11.13-.63-1.86-1.2-3.75-1.8-5.62l-1.92-6.4L123,82.76l-.3-1-.15-.51c0-.15-.11,0-.17,0l-.21.16-1.72,1.28-3.44,2.55c-.54.41-1.18.94-1.59,1.27l-1.17.95c-1.6,1.22-3.05,2.63-4.56,4s-2.87,2.85-4.3,4.27a73.79,73.79,0,0,0-13.38,20.22c-.79,2-1.66,4-2.38,6L87.77,128l-1.38,6.27c-.46,2.09-.63,4.22-1,6.33a121.68,121.68,0,0,0-.38,25.52c.19,2.11.28,4.25.57,6.35l.9,6.3L87,182c.16,1.05.42,2.11.63,3.17a63.61,63.61,0,0,0,1.52,6.31,74.55,74.55,0,0,0,11.18,23.66,72.68,72.68,0,0,0,9.91,10.83,77.05,77.05,0,0,0,11.93,8.48,94.85,94.85,0,0,0,27,9.9,162.39,162.39,0,0,0,28.14,3.19,24.78,24.78,0,0,0,3.11.06h.66l.37,0c.14,0-.07.11-.09.17a8.29,8.29,0,0,1-.89.9l-.27.22-1.19.9a25.12,25.12,0,0,1-2.76,1.8,71.55,71.55,0,0,1-25.46,9.34,145.37,145.37,0,0,1-27.63,1.62c-2.67-.09-5.33-.19-8-.38l-9.43-.67-4-.27-2-.13-.5,0c-.12,0,0,.28,0,.41l.09.95.77,7.69.1,1,.08.53.17,1,.34,2.1c.2,1.41.55,2.79.88,4.17a70.43,70.43,0,0,0,14.5,29.18,69.69,69.69,0,0,0,26,19.27,59.93,59.93,0,0,0,15.65,4.48,30.83,30.83,0,0,0,8.49.11l1.12-.2c.38-.08.73-.2,1.3-.36a5.19,5.19,0,0,0,1.41-.65,8.16,8.16,0,0,0,1.29-.8l.61-.46a3.36,3.36,0,0,0,.29-.24l.08-.37c.1-.49.23-1,.3-1.47l.27-2.48c1.11-10.14,3.12-20.28,7.17-29.42a50.81,50.81,0,0,1,9.58-14.88,34.83,34.83,0,0,1,14.15-9.17,24.88,24.88,0,0,1,4.1-1.14c.7-.15,1.38-.38,2.1-.47l2.15-.25,2.15-.27c.73-.05,1.46,0,2.2-.06l4.57-.11c6.64.06,13.61-.94,19.88-4a45.16,45.16,0,0,0,15.57-13A54.42,54.42,0,0,0,264.61,237a132.64,132.64,0,0,0,4.47-15.89,18.5,18.5,0,0,1,7.36-11.32c3.81-2.72,8.77-4.14,13.86-4.62,6.43-.58,11.11-.29,13.31-.52S305.64,203.72,302.21,202.71Z"/><path class="cls-1" d="M239.18,186.71a.32.32,0,0,1,0,.17s0,0,0,0l.23-.15.43-.2c.15,0,.12,0,.13-.09a3.31,3.31,0,0,1,.19-.38c0-.05.31-.5.27-.43s0,0,0,0l0-.08-.08-.18-.39-.78c-.27-.54-.56-1.06-.87-1.57a30.69,30.69,0,0,0-2-2.93c-1.42-1.87-3-3.63-4.47-5.48A111.94,111.94,0,0,1,223,159.15a131.74,131.74,0,0,1-6.48-14.06c-1.17-3.15-3.34-7.9-5.07-12s-3.07-7.55-3.15-7.76a137.15,137.15,0,0,1-5-18.17,117.94,117.94,0,0,1-2.18-18.07c-.12-2.81-.13-5.63,0-8.44l.1-2.35.26-3.44c.21-2.31.48-4.71.76-7.11l.37-3.2-.25.09-.38.28-.77.56-1.52,1.14-3.08,2.27-5.74,4.44-.72.56-.35.27-.23.2-.95.8-1.89,1.59c-1.3,1-2.49,2.18-3.74,3.26-2,1.7-3.88,3.6-5.84,5.41-1.8,2-3.75,3.8-5.37,5.93-.84,1-1.67,2.09-2.48,3.15s-1.48,2.23-2.18,3.37a44.37,44.37,0,0,0-3.57,7.17c-.6,1.49-1.15,3-1.82,4.43-.33.73-.68,1.44-1,2.15l-1,2.17-2,4.33c-.57,1.48-1.14,3-1.67,4.46a127.64,127.64,0,0,0-6.37,31,2.27,2.27,0,0,0,.06,1.41c.22.38.93.71,1.42,1.06.71-.22,2-.36,2.06-.64a42.69,42.69,0,0,0,1.93-6.32,36.87,36.87,0,0,0,1-6.35,32.78,32.78,0,0,1,1-7.4c1.34-4.92,2.53-9.85,4.09-14.71.77-2.43,1.81-4.76,2.81-7.1a45.29,45.29,0,0,1,4-6.51,14.56,14.56,0,0,0,.95-1.79A92.36,92.36,0,0,1,183.29,86.5a70.23,70.23,0,0,1,9-7.44l.59-.43.29-.21.15-.11.07,0,.51-.25q.48-.23.84-.36c.26-.12.27,0,.36,0s.11,0,.09.16l-.09.25a2.18,2.18,0,0,0-.12.53c-.11,2.3-.13,4.8-.06,7.19a101.71,101.71,0,0,0,1.47,14.38c.83,4.83,1.06,9.76,1.89,14.63a63.49,63.49,0,0,0,1.61,8.31c3.26,10.43,9.24,19.51,12.79,29.64,2.18,6.19,4.87,12.34,9.7,17a11.67,11.67,0,0,1,2.9,3.91c2.22,5.35,6.58,9.16,11.08,12.69a8.4,8.4,0,0,0,2.12,1.21c.21.09.28.1.71.28l.36.13a1.58,1.58,0,0,0,.75,0,1.61,1.61,0,0,0,.79-.44,1.54,1.54,0,0,0,.42-1,1.77,1.77,0,0,0-.16-.64l-.11-.14a.88.88,0,0,0-.27-.22,1.87,1.87,0,0,0-.74-.2C239.34,185.29,239,185.84,239.18,186.71Z"/><path class="cls-1" d="M286.4,297.82a91.82,91.82,0,0,0-8.33-10.71,34,34,0,0,0-11.43-8.36,23.84,23.84,0,0,0-14.59-1.34,27.08,27.08,0,0,0-12.81,6.84A45.35,45.35,0,0,0,230.69,295a55.48,55.48,0,0,0-4.36,9.35,45.12,45.12,0,0,0-1.69,6c-.1.56-.21,1.12-.28,1.71l-.11,1c0,.44,0,.88-.07,1.32a10.64,10.64,0,0,0,1.1,5c1,.2,2.11.39,3.2.54a12.72,12.72,0,0,0,1.69.17l.75,0c.2,0,.41,0,.61,0a20,20,0,0,0,5.07-.73,28.66,28.66,0,0,0,5.05-1.94c.84-.41,1.66-.86,2.48-1.34l1-.58.73-.45c.27-.19.6.15.5.47l0,.9,0,.43v1a51.89,51.89,0,0,0,1.46,12.21A41.82,41.82,0,0,0,260,350.66c5.5,5.19,11.52,8.12,16.12,10.38l6.06,2.49,3.51,1.33c5.94,2.22,13.53,5.07,21.22,8.65s15.41,8,20.85,13.65a37.13,37.13,0,0,1,6.36,8.82c.37.76.74,1.49,1.1,2.21a22.79,22.79,0,0,1,.81,2.21,27.24,27.24,0,0,1,1.24,4.09c.27,1.31.52,2.5.74,3.55s.22,2,.31,2.83c.15,1.6.25,2.58.26,2.78.12,1.4,0,2.85,0,4.27a36.47,36.47,0,0,1-.18,4.3l-.74,7.38-.2,2-.05.5c.05.1.3,0,.45,0l1-.14,4-.55,6.18-.85c1.51-.24,3-.6,4.52-.9s3-.55,4.51-1l4.47-1.26c11.84-3.46,23.23-9.87,31.65-19.21a77.61,77.61,0,0,0,10.24-14.74l2-4c.64-1.33,1.21-2.7,1.81-4s1.15-2.72,1.68-4.09l.8-2.05.42-1.12.58-1.66,2.33-6.61.14-.41c0-.08-.26,0-.39,0h-6.17l-5.34,0-4.28-.1a134.2,134.2,0,0,1-16.92-1.6A96.64,96.64,0,0,1,368,364.69a73.77,73.77,0,0,1-12.28-5.19,63.77,63.77,0,0,1-11-7.41,10.83,10.83,0,0,1-1.24-1.1l-1.13-1.08-1-1-.91-1.07-.46-.53-.22-.26s-.1-.1-.1-.12h.18l1.84.13,1.88,0,5-.22c1.7-.11,3.39-.34,5.08-.51s3.37-.55,5.05-.81a49.91,49.91,0,0,0,5-1.11,77.66,77.66,0,0,0,19.06-7.42A76.32,76.32,0,0,0,399.25,325a84,84,0,0,0,7-7.47c1.17-1.26,2.06-2.72,3.11-4.07s2.07-2.73,3-4.18l3.83-6.36c1.21-2.17,2.21-4.42,3.32-6.63a63,63,0,0,0,2.92-6.82,68.27,68.27,0,0,0,2.52-7,96.5,96.5,0,0,0,4.87-29.35c.28-20-6.28-40.24-19.11-55.63-.9-1.2-2-2.24-3-3.36s-2-2.24-3.12-3.24l-1.68-1.57c-.85-.84-1.72-1.64-2.61-2.36l-5.43-4.39-1.35-1.1-.33-.27-.17-.14a.84.84,0,0,0,0,.19l-.09.85-.34,3.4c-.11,1.16-.24,2.19-.34,3.45s-.2,2.45-.38,3.6l-.33,2.41c-.08.7-.25,1.39-.37,2.08l-.81,4.16a183.16,183.16,0,0,1-10.76,32.26,146.7,146.7,0,0,1-13.65,24.72A91.45,91.45,0,0,1,347,278.62c-1.9,1.3-3.74,2.65-5.67,3.93l-6.12,3.64c-4.13,2.31-8.29,4.57-12.56,6.49a79.1,79.1,0,0,1-13,4.82,37.67,37.67,0,0,1-13.15,1.43c-1.53-.1-3.1-.52-4.58-.55a22.07,22.07,0,0,0-3.73.54c.68.92,1.11,2.33,2.14,2.67a32.86,32.86,0,0,0,12.21,1.79,50.32,50.32,0,0,0,12.26-2.18,98.46,98.46,0,0,0,22.44-10.33c2-1.21,4-2.53,6-3.79s3.9-2.83,5.85-4.22l1.45-1.07,1.34-1.21,2.68-2.4a71.33,71.33,0,0,0,5.11-5,112.41,112.41,0,0,0,17-23.7,165,165,0,0,0,11.6-26.67,169.07,169.07,0,0,0,7.12-28.18l.38-2.65.21-2.38.05-.57,0-.15.11.1.24.2.93.8c.61.54,1.23,1,1.79,1.59l2,2.06a26.71,26.71,0,0,1,2.36,2.62,56.35,56.35,0,0,1,4.25,5.62c.7,1,1.46,2,2.22,3s1.38,2.1,2,3.17a85.57,85.57,0,0,1,8.8,20.05,92.78,92.78,0,0,1,3.45,21.65c.13,1.83,0,3.67,0,5.5l0,2.75c0,.91-.17,1.82-.25,2.74l-.58,5.47c-.29,1.81-.68,3.6-1,5.4l-.53,2.71c-.17.9-.48,1.77-.71,2.65l-1.52,5.3c-.49,1.77-1.26,3.45-1.88,5.18s-1.24,3.46-2,5.12l-2.53,5.23c-.44.86-.8,1.77-1.31,2.59l-1.5,2.48c-1,1.64-1.94,3.34-3.06,4.91l-3.44,4.63A78.73,78.73,0,0,1,387.19,328c-12.65,8.48-27.76,12.68-42.88,13l-.6,0a4.68,4.68,0,0,1-.5,0l-.61,0-2.46-.11-4.94-.22c-3.3-.16-6.67-.47-10-.69l7.14,8.33c1.26,1.42,2.29,2.73,3.62,4.09l3.31,3.16a24.62,24.62,0,0,0,2.4,2l2.48,1.94a22.79,22.79,0,0,0,2.57,1.8l2.65,1.71a78.13,78.13,0,0,0,23.05,9.22,126,126,0,0,0,24.25,3c2,.08,4,.09,6,.12h2.35l.58,0c.66-.2.25.4.2.77l-.09.32,0,.11-.13.34-.26.68-1,2.72a72.93,72.93,0,0,1-12.95,22.24A56.41,56.41,0,0,1,371,417.19c-1.12.48-2.21,1-3.36,1.43l-3.48,1.15c-2.28.86-4.73,1.29-7.1,1.93a36.26,36.26,0,0,1-3.62.74l-3.64.66c-1.21.26-2.45.38-3.68.54l-.46.06h0s0,0,0,0a0,0,0,0,1,0,0v-.06l0-.46.17-1.91,0-1.94,0-3.88a30.09,30.09,0,0,0-.24-3.89l-.37-3.91c-.25-1.29-.54-2.59-.81-3.88a21.66,21.66,0,0,0-1-3.83L342,396.16c-.54-1.22-1.19-2.4-1.78-3.6l-.92-1.77-1.13-1.65c-.77-1.08-1.48-2.22-2.31-3.24a50.59,50.59,0,0,0-5.5-5.64,37.19,37.19,0,0,0-3-2.5l-3.13-2.25a38.1,38.1,0,0,0-3.23-2.05l-3.28-1.94c-2.26-1.12-4.47-2.35-6.75-3.38-4.55-2.1-9.15-4-13.78-5.77l-13.85-5.16-3.3-1.37a25.26,25.26,0,0,1-3.22-1.47,48.42,48.42,0,0,1-6.05-3.55L268.21,349c-.83-.66-1.59-1.39-2.39-2.07a42.56,42.56,0,0,1-4.36-4.45,37.37,37.37,0,0,1-5.93-10.61,42.37,42.37,0,0,1-2.25-12.12l-.07-1.59q0-.39,0-.81l0-1.17a32,32,0,0,0-.11-3.29l-.32-3.09L251.59,308a4.74,4.74,0,0,0-2-1.24,2.46,2.46,0,0,0-1-.15l-1,.05c-.57-.14-1.63.53-2.48.87q-1.82,1.28-3.61,2.47l-1.07.66-.85.51a28.9,28.9,0,0,1-3.42,1.73,18.38,18.38,0,0,1-3.45,1,14.85,14.85,0,0,1-1.76.22h-.25l-.08,0-.25,0c-.11,0-.23,0-.35,0-.28-.12-.29-.53-.33-.88,0,0,0-.49.05-.74s.08-.61.11-.91c.1-.61.21-1.23.35-1.85a31.14,31.14,0,0,1,2.67-7.19A54.52,54.52,0,0,1,240.92,291a26.12,26.12,0,0,1,11-7.42,19.57,19.57,0,0,1,12.86.25,36.43,36.43,0,0,1,11.8,7.81c4.51,4.28,7.81,7.48,9.74,8.52S288.31,300.46,286.4,297.82Z"/><path class="cls-1" d="M274.9,288.49a18,18,0,0,0,3.83-.44,20.17,20.17,0,0,0,3.5-1.37,19.36,19.36,0,0,0,3.22-1.91c1-.73,2.08-1.39,3-2.2A97.5,97.5,0,0,0,302.6,269.7a112.21,112.21,0,0,0,9.86-13c2.09-2.91,4.4-8,6-12.42a86.94,86.94,0,0,0,2.57-8.46A128.94,128.94,0,0,0,325,216.56q1.29-9.24,2.19-18.56c.55-5.74,1-11.53,1.07-17.35a26.57,26.57,0,0,0,0-2.72c0-.1-.05-.26,0-.29l.31.18.6.39c.39.26.77.53,1.13.82l1.88,1.51c.89.74,1.81,1.45,2.65,2.26A117,117,0,0,1,345,193.69c1.52,2,3.17,3.83,4.74,5.75.77,1,1.56,1.93,2.38,2.87s1.7,1.85,2.48,2.82a32.88,32.88,0,0,1,4.93,7.54l1.94,4.06,1.66,4.19,1.44,3.46c.43,1.17.76,2.38,1.14,3.57l1.1,3.59c.18.6.39,1.19.54,1.79l.38,1.84,1.51,7.34.85,7.45a2.18,2.18,0,0,0,.36,1.3,6.69,6.69,0,0,0,1.61.8c.66-.3,1.86-.62,1.9-.92a41.28,41.28,0,0,0,.55-6.66,26.19,26.19,0,0,0-.19-3.32,32.49,32.49,0,0,0-.82-3.23l-1.17-3.67c-.35-1.23-.69-2.46-1-3.69-.67-2.52-1.47-5-2.33-7.49L365.72,216c-1.17-2.33-2.52-4.57-3.65-6.92s-2.53-4.55-3.58-7a8.85,8.85,0,0,0-1.24-1.69,115,115,0,0,0-16-18.39c-2.32-2.17-4.64-4.37-7.07-6.49-.21-.22-.85-.67-1.33-1l-1.56-1.17A39.31,39.31,0,0,0,328,171c-1.11-.71-2.25-1.46-3.41-2.16l-1.78-1.09-.46-.28c-.16-.1-.21-.1-.35-.18l-.77-.39.67,6.82c.06,1.08.18,2.23.21,3.29v3.13c0,.67,0,.79,0,1.11l0,.85-.06,1.71-.17,3.42-.41,6.88c-.28,4.6-.64,9.22-1,13.85a49.27,49.27,0,0,1-1.14,7c-.49,2.35-1.15,4.6-1.72,6.85-.57,2.6-1.76,5-2.28,7.63-1.31,4.9-2.28,10-4,14.79a51.9,51.9,0,0,1-3,7.09c-.6,1.13-1.29,2.22-2,3.29a23.1,23.1,0,0,1-2.32,3.07c-4.08,4.78-8.34,9-11.68,14.29a8.85,8.85,0,0,1-3.23,3.23c-4.81,2.4-8.31,6.13-12.67,9.2C273.62,286.19,273,288.5,274.9,288.49Z"/><path class="cls-1" d="M305.45,310.81a22,22,0,0,0,9.42.62c2.1-.11,7.28-.41,12.13-1.15l3.53-.54c1.12-.19,2.15-.45,3.07-.63l3.64-.77a64.43,64.43,0,0,0,13.46-5.4l2.84-1.45c.93-.51,1.83-1.08,2.74-1.61l2.73-1.64,2.62-1.8c1.72-1.1,3.31-2.39,4.91-3.65s3.12-2.64,4.66-4a87.8,87.8,0,0,0,7.83-8.19c.8-.86,1.43-1.86,2.15-2.78s1.46-1.85,2.05-2.87c1.27-2,2.57-4,3.72-6,3.45-5.78,7-11.63,8.87-18.21,1.11-3.93,2.76-7.64,3.87-11.57A85.8,85.8,0,0,0,403,219.11a1.86,1.86,0,0,0-.07-.91c-.11-.24-.47-.43-.73-.65-.35.16-1,.29-1,.48a45.2,45.2,0,0,0-1.38,8.31,29.13,29.13,0,0,1-.52,4.84c-1.49,6.43-2.67,13.08-5.85,19a13.24,13.24,0,0,0-.48,1.24,135.13,135.13,0,0,1-6.77,14,82.91,82.91,0,0,1-9.44,13.16,100.16,100.16,0,0,1-12.66,12.56,24.51,24.51,0,0,1-3.75,2.63c-1.33.76-2.62,1.58-4,2.27-1.56.78-3.15,1.5-4.68,2.34-5.82,3.21-11.88,6.57-18.61,7.56l-3,.46c-1,.11-2,.23-3,.39s-2,.36-3,.59a26.57,26.57,0,0,0-3,.73,8.7,8.7,0,0,1-3,.46,21.09,21.09,0,0,0-5.27.08c-1.75.25-3.5.38-5.25.62C305.24,309.5,304.31,310.42,305.45,310.81Z"/><path class="cls-1" d="M316.61,329.56a22,22,0,0,0,9.42.62c2.11-.11,7.29-.41,12.13-1.15l3.53-.54c1.12-.19,2.15-.45,3.07-.63l3.64-.77a52.37,52.37,0,0,0,8.35-2.93,49.65,49.65,0,0,0,5.11-2.47l2.84-1.45c.93-.51,1.83-1.08,2.74-1.61l2.73-1.64,2.62-1.8c1.72-1.1,3.31-2.39,4.92-3.65s3.11-2.64,4.65-4a87.8,87.8,0,0,0,7.83-8.19c.8-.86,1.43-1.86,2.15-2.78s1.46-1.85,2.06-2.86c1.26-2,2.56-4,3.71-6,3.45-5.78,7-11.63,8.87-18.21,1.11-3.93,2.76-7.64,3.87-11.57a85.8,85.8,0,0,0,3.31-20.14,2,2,0,0,0-.06-.91c-.12-.24-.48-.43-.73-.64-.36.15-1,.28-1,.47a45.17,45.17,0,0,0-1.37,8.31,30.24,30.24,0,0,1-.53,4.84c-1.49,6.43-2.67,13.08-5.85,19-.21.39-.3.83-.48,1.24a135.13,135.13,0,0,1-6.77,14,82.46,82.46,0,0,1-9.44,13.16,100.16,100.16,0,0,1-12.66,12.56,24.51,24.51,0,0,1-3.75,2.63c-1.33.76-2.62,1.58-4,2.27-1.57.79-3.16,1.5-4.69,2.34-5.82,3.21-11.88,6.57-18.61,7.56l-3,.46c-1,.11-2,.23-3,.39s-2,.36-3,.59a26.57,26.57,0,0,0-3,.73,8.7,8.7,0,0,1-3,.46,21.09,21.09,0,0,0-5.27.08c-1.74.25-3.49.38-5.25.62C316.4,328.25,315.47,329.17,316.61,329.56Z"/><path class="cls-1" d="M301.64,297.66c2.32-.07,3.93-1.5,5.52-2.76,1.08-.85,3.75-2.89,6.12-5,1.22-1,2.26-2.16,3.16-3s1.52-1.48,1.71-1.7a32.48,32.48,0,0,0,3.49-4.54c1-1.68,1.79-3.09,1.84-3.17l1.07-1.75.93-1.83,1.88-3.64c1.14-2.37,2.08-4.82,3.17-7.2.9-2.25,1.66-4.55,2.54-6.8a40.3,40.3,0,0,0,1.39-4.28c.43-1.44.87-2.88,1.35-4.3a58,58,0,0,0,1.82-6.3,24.59,24.59,0,0,0,.86-6.5c-.13-2.65.53-5.19.85-7.79.34-2.15.36-4.33.52-6.5l.41-6.51a.78.78,0,0,0-.06-.58,2.87,2.87,0,0,0-.73-.41c-.35.1-1,.18-1,.3a12.57,12.57,0,0,0-1,5.4,18.44,18.44,0,0,1,.06,3.15c-.13,1.06-.15,2.14-.2,3.21l-.25,3.21a29.79,29.79,0,0,1-1,6.35,6,6,0,0,0-.06.86c-.66,3.26-1.25,6.54-2,9.77-.53,1.68-1.19,3.32-1.84,4.95s-1.22,3.28-1.93,4.87q-1.08,2.68-2,5.43c-.63,1.82-1.42,3.58-2.07,5.41a14.12,14.12,0,0,1-1.29,2.65l-1.64,2.47c-.61.95-1.33,1.83-1.85,2.82-1.13,1.82-2,3.81-3.11,5.7a19.59,19.59,0,0,1-4.13,5c-1.05.82-2.05,1.67-3,2.54a12.67,12.67,0,0,0-2.56,3,3.56,3.56,0,0,1-1.43,1.32c-2.11,1-3.55,2.65-5.19,4.21C300.91,296.59,300.8,297.66,301.64,297.66Z"/><path class="cls-1" d="M221.33,211.37c-3.45-.78-6.79-.44-10.18-.54a73.59,73.59,0,0,1-12.91-1.71,82.29,82.29,0,0,1-10.65-3l-4.13-1.44c-1.56-.51-3.19-1.1-4.69-1.67-3-1.05-5.44-2.16-5.6-2.18a101.41,101.41,0,0,1-12-6.28A95.61,95.61,0,0,1,150.5,187c-1.54-1.32-3.12-2.58-4.56-4l-2.19-2.09-2.08-2.2c-1.76-1.79-3.32-3.75-4.94-5.66s-3.06-4-4.36-6.1c-3.94-6.13-6.81-12.75-10.14-19.18-2.06-3.88-3-8.2-4-12.39a98.53,98.53,0,0,1-2.59-21.56,2.1,2.1,0,0,0-.13-1c-.13-.25-.51-.45-.77-.67-.34.18-1,.34-1,.55a27.06,27.06,0,0,0-.22,9.37c.24,1.8.67,3.58.89,5.37.87,7.42,3.64,14.36,5.69,21.49.14.48.41.9.59,1.36a110.29,110.29,0,0,0,8,15.38,101.57,101.57,0,0,0,10.67,15,80.47,80.47,0,0,0,15.6,13.17c2.9,1.89,5.65,4,8.62,5.86L166,201.3c.85.52,1.73,1,2.62,1.44,7,3.32,14.41,5.07,21.58,7.65a36.47,36.47,0,0,0,13.66,2.7,11.14,11.14,0,0,1,3.46.23c3.94,1,8,.48,11.92-.22C221.76,212.66,222.62,211.67,221.33,211.37Z"/><path class="cls-1" d="M212.39,226.11c-3.54-.75-7-.32-10.44-.22a109.72,109.72,0,0,1-13.35-.63,112.31,112.31,0,0,1-11.22-1.68l-4.41-.83c-1.65-.3-3.41-.59-5-.94-3.22-.58-5.84-1.25-6-1.27a97.67,97.67,0,0,1-13.14-4.24,81.58,81.58,0,0,1-11.94-5.87c-1.73-1.1-3.51-2.14-5.13-3.4-.83-.61-1.67-1.2-2.47-1.84l-2.35-2A59.21,59.21,0,0,1,116.72,192c-4.2-6.08-6.87-12.88-9.71-19.65a49.34,49.34,0,0,1-2.78-12.94,94.15,94.15,0,0,1,0-22.13,2.36,2.36,0,0,0,0-1c-.1-.27-.45-.51-.69-.77-.36.14-1,.23-1,.44a28.64,28.64,0,0,0-1.36,9.46l.21,5.55c-.07,7.62,1.87,15,3.43,22.42a10.12,10.12,0,0,0,.54,1.42,68.77,68.77,0,0,0,7.66,16,68.42,68.42,0,0,0,11.8,14.68,66.82,66.82,0,0,0,17.63,11.18c1.62.73,3.2,1.53,4.82,2.25l2.4,1.15,2.46,1a49.1,49.1,0,0,0,5.7,2.17c7.55,2.17,15.33,2.64,22.89,4.28a41.76,41.76,0,0,0,14.08,1.18,11.81,11.81,0,0,1,3.51,0c4.05.66,8.11,0,12.07-.75C212.82,227.4,213.71,226.4,212.39,226.11Z"/><path class="cls-1" d="M336.73,287.56c1.68-.61,2.38-2,3.11-3.26.52-.84,1.9-2.85,3.16-4.79s2.38-3.8,2.61-4.17a26.8,26.8,0,0,0,2.51-6.33l.92-2.84.82-2.86c.56-1.83,1-3.7,1.5-5.53l1.28-5.14c.49-2.13,1-4.24,1.48-6.4.81-3.07,1.82-6.18,1.43-9.42-.27-1.94.33-3.79.43-5.69.27-3.17.48-6.33.61-9.51,0-.14.06-.29-.08-.42a3.2,3.2,0,0,0-.74-.3,4.1,4.1,0,0,0-1,.22,6.91,6.91,0,0,0-.89,3.94,8.89,8.89,0,0,1,.12,2.3,31.89,31.89,0,0,0-.2,4.69,15.37,15.37,0,0,1-.69,4.65,2.58,2.58,0,0,0,0,.62c-.32,2.41-.57,4.83-1.1,7.21a37.32,37.32,0,0,1-1.1,3.7,34.72,34.72,0,0,0-1.22,3.65c-.77,2.71-1.31,5.47-1.87,8.26a19.23,19.23,0,0,1-1.59,4c-.31.77-.8,1.46-1.06,2.24-.92,3-1.24,6.35-3.28,8.88a11,11,0,0,0-2.85,5,1.91,1.91,0,0,1-.64,1.28c-1.43,1.05-1.81,2.73-2.41,4.32C335.6,286.89,336.11,287.78,336.73,287.56Z"/><path class="cls-1" d="M256.6,293.64a5.73,5.73,0,0,0-.69-.19,2.67,2.67,0,0,0-.68-.15c-.2-.06-.27.19-.5.15a4.83,4.83,0,0,0-2.87,1.15,6,6,0,0,0-1.07,1.23,16.61,16.61,0,0,1-1.53,1.78c-.19.19-.06.19-.12,0s-.51-.69-.7-1.22a4.74,4.74,0,0,1,.78-5.4c.46-.4.79-.9,1.26-1.36a9.08,9.08,0,0,1,.68-.71,6.74,6.74,0,0,1,.86-.57,6.43,6.43,0,0,1,2.16-.69,10.54,10.54,0,0,1,2.18,0,13.69,13.69,0,0,1,2.29.79c.5.28,1,.57,1.45.87s.85.65,1.26,1,.67.42,1,.65a7.32,7.32,0,0,1,.78.88,4.67,4.67,0,0,1,.3.43,4.74,4.74,0,0,1,.4,1,.33.33,0,0,0,.06.06,2.49,2.49,0,0,0-.78,0,16.73,16.73,0,0,0-2.43.21,11.28,11.28,0,0,1-2,.18c-.88.14-1.58,0-2.05.06Z"/><path class="cls-1" d="M265.08,189.84a4.32,4.32,0,0,0-.69-.19,2.58,2.58,0,0,0-.68-.15c-.2-.06-.27.19-.5.15a4.88,4.88,0,0,0-2.87,1.14,6.37,6.37,0,0,0-1.07,1.24,17.65,17.65,0,0,1-1.53,1.78c-.19.19-.06.19-.12,0s-.51-.69-.7-1.22a4.74,4.74,0,0,1,.78-5.4c.46-.4.79-.9,1.26-1.36a9.08,9.08,0,0,1,.68-.71,6.74,6.74,0,0,1,.86-.57,6.43,6.43,0,0,1,2.16-.69,10.54,10.54,0,0,1,2.18,0,13.69,13.69,0,0,1,2.29.79c.5.28,1,.57,1.45.87s.85.65,1.27,1,.66.43,1,.66a6.62,6.62,0,0,1,.78.88c.1.14.21.27.3.42a4.94,4.94,0,0,1,.4,1,.33.33,0,0,0,.06.06,2.44,2.44,0,0,0-.78,0,16.85,16.85,0,0,0-2.43.21,10.36,10.36,0,0,1-2,.17c-.88.15-1.58,0-2.05.07Z"/><path class="cls-1" d="M226.31,192.48c-1.12-1.89-2.82-2.79-4.43-3.92a51.19,51.19,0,0,1-5.66-5c-2.15-2.13-4-4.28-4.34-4.72-.86-1.1-2.37-2.65-3.66-4l-2.4-2.51c-1.68-2-3.36-4-4.85-6.13-.75-1-1.45-2.05-2.13-3.12s-1.33-2.14-2-3.24-1.12-2-1.63-3.09-1-2.1-1.47-3.18c-.59-1.32-1.12-2.66-1.61-4a40.38,40.38,0,0,1-1.31-4.13c-1.05-4.08-1.52-8.22-2.9-12.21a13.16,13.16,0,0,1-.75-3.71c-.11-1.25-.21-2.5-.27-3.76l-.19-3.14c0-1.05,0-2.1,0-3.15,0-2.09.11-4.19.2-6.28a.74.74,0,0,0-.08-.56,3.33,3.33,0,0,0-.73-.44c-.35.09-1,.14-1,.26a11.76,11.76,0,0,0-.93,5.39,18.61,18.61,0,0,1,.27,3.15,38.4,38.4,0,0,0,.49,6.42,42.84,42.84,0,0,1,.65,6.41,4.86,4.86,0,0,0,.19.84c.54,3.31,1.42,6.54,2.24,9.79.94,3.4,1.53,7,2.91,10.29a48,48,0,0,0,5.81,10.34c1.16,1.65,2.06,3.47,3.13,5.19a24.7,24.7,0,0,0,1.89,2.92c2.87,3.45,6.6,6,9.24,9.57,1.61,2.18,3.39,4.31,5.94,5.47a3.77,3.77,0,0,1,1.62,1.18c1.44,1.94,3.67,2.86,5.85,3.73C225.8,193.72,226.75,193.17,226.31,192.48Z"/><path class="cls-1" d="M198.36,193.87c-.3-1.75-1.48-2.51-2.48-3.51a35.31,35.31,0,0,1-3.4-4.2c-1.29-1.75-2.31-3.52-2.53-3.86a55.4,55.4,0,0,0-3.83-5.09c-1.13-1.5-2.17-3.06-3.18-4.65s-1.82-3.12-2.7-4.71c-.71-1.52-1.45-3-2.05-4.59a42.15,42.15,0,0,1-1.95-5.91c-.39-1.45-.57-3-.86-4.42a21.56,21.56,0,0,0-1.3-4.31c-.84-1.67-.64-3.54-.88-5.31-.18-1.48-.16-3-.23-4.47s.1-3,.14-4.47c0-.13,0-.27-.09-.4a3.85,3.85,0,0,0-.74-.32,4.81,4.81,0,0,0-1,.17,6.63,6.63,0,0,0-.85,3.89,14.71,14.71,0,0,1,.3,2.27,18.31,18.31,0,0,0,.5,4.61,23.1,23.1,0,0,1,.48,4.63,2.54,2.54,0,0,0,.16.6c.22,1.19.47,2.37.8,3.52s.56,2.35.88,3.51.56,2.5.78,3.77a34.34,34.34,0,0,0,1,3.74,35.33,35.33,0,0,0,3.93,7.57,39.48,39.48,0,0,1,1.91,3.92,12.25,12.25,0,0,0,1.1,2.24,35.23,35.23,0,0,0,3.15,3.65,16.39,16.39,0,0,1,2.79,3.86,9,9,0,0,0,3.63,4.53,2,2,0,0,1,1,1,5,5,0,0,0,1.55,2,21.25,21.25,0,0,0,2.2,1.31C197.58,194.93,198.48,194.51,198.36,193.87Z"/><path class="cls-1" d="M96.6,250.75c.3-1.07-.22-1.14-.6-1.26s-.8-.48-1.4-.78-1.21-.55-1.33-.62a1.67,1.67,0,0,0-1.22,0,4.56,4.56,0,0,0-.72.35,8.1,8.1,0,0,0-1.51.81,10.21,10.21,0,0,0-1.27,1,14.47,14.47,0,0,0-1,1c-.42.45-.73,1-1.13,1.44-.58.67-1.42,1.55-.76,2.54.4.55,0,1.05.1,1.6a8.31,8.31,0,0,0,.66,2.66s0,.1.14.06a6.74,6.74,0,0,0,.68-.31c.29-.2.81-.52.83-.56.41-.57.63-.9.37-1.07s-.35-.19-.33-.36c.12-.6-.81-1.23,0-1.85.06,0,0-.08,0-.12a3,3,0,0,1,.43-1.36c.31-.43,1.09-.5,1.41-.71a2.82,2.82,0,0,0,.81-1.1c.14-.26.5-.1.75-.07s.33.16.44.09c.37-.28,1-1.43,1.54-.64.31.48.44.9,1,.32.13-.14.25-.21.26,0,0,.71.42.28.92.1A2.94,2.94,0,0,0,96.6,250.75Z"/><path class="cls-1" d="M89.3,241.58c-.26-1-.62-.82-.9-.74s-2.14-.17-2.38-.13c-.59-.12-1.2.88-1.2.88a10.5,10.5,0,0,0-.8,1c-.25.31-.47.62-.7.94s-.42.55-.66.82a9.86,9.86,0,0,1-.85,1c-.5.45-1.33,1-.77,1.83.33.48-.08.79-.12,1.2a9.56,9.56,0,0,0-.08,2.08s0,.07.1.07.49-.06.74-.1l1-.26c.58-.36.9-.57.68-.74s-.28-.21-.21-.33c.25-.42-.54-1.05.3-1.38.06,0,0-.07,0-.1a2.4,2.4,0,0,1,.47-1c.27-.32,1-.3,1.29-.51a1.55,1.55,0,0,0,.51-1.09c.06-.24.4-.18.62-.2s.33.09.39,0c.19-.35.15-1.55.86-1,.41.34.67.64.77-.1,0-.18.07-.29.16-.11.3.59.4.06.65-.39A3.92,3.92,0,0,0,89.3,241.58Z"/><path class="cls-1" d="M315.16,162.61c.92-.59.68-.71.62-1a1.49,1.49,0,0,1,.39-1,2.39,2.39,0,0,1,.69-.62c.4-.14.41-1,.46-1a2.74,2.74,0,0,1,.61-.83,1.87,1.87,0,0,1,.87-.48,2.07,2.07,0,0,1,1,0,2,2,0,0,1,1.11.52c.48.49.41,1.19,1.28,1.08.57,0,.47.5.55.77l.05.14,2.32-1.59c-.51-.49-1-1-1.49-1.54,0,0,0-.09-.14,0s-.35.34-.54.52-.6.75-.61.8c-.17.69-.14,1.17.23,1.24s.47,0,.57.22a1.16,1.16,0,0,0,.51.47l2.62,1.48-1.34-2.36c-.34-.6-.87-.93-.87-1.76,0-.08-.12-.07-.16-.11a9.45,9.45,0,0,0-1.64-1.38c-.59-.46-1.18-1.33-2.07-1.55a3.39,3.39,0,0,0-2.85.64c-.4.3-1,.25-1.44.45a2,2,0,0,0-.83.36,3.7,3.7,0,0,0-.62,1.59,1.75,1.75,0,0,1-.79,1.29c-.64.39-1.22,1-.59,1.8.16.18.25.33.06.48-.68.55-.06,1.19.49,1.57C313.92,163.06,314.82,162.84,315.16,162.61Z"/><path class="cls-1" d="M314.53,151.15c.9.58.83.35.93.19s1.19-.05,1.3.1.54-.39.57-.41a3.47,3.47,0,0,1,.61-.38,1.77,1.77,0,0,1,.67-.19,1.46,1.46,0,0,1,.62.08,1.25,1.25,0,0,1,.69.4c.27.37.22,1,.88.56.43-.26.39.18.52.32a2.27,2.27,0,0,1,.44.86s0,0,.1,0l.67-.34c.3-.17.83-.48.86-.51.44-.49.58-.9.29-1s-.38,0-.41-.19c-.17-.64-1.13-.29-1.13-1.19,0-.06-.08,0-.11,0-.35-.24-.73-.41-1.09-.66s-.63-1-1.1-1.24a1.88,1.88,0,0,0-1.64.18c-.26.16-.54-.14-.84-.21s-.36-.22-.52-.15c-.65.28-.82,1.49-1.63,1-.5-.25-1.13-.38-1,.45,0,.2,0,.33-.18.24-.67-.33-.59.37-.5.88A2.88,2.88,0,0,0,314.53,151.15Z"/></svg>