<?xml version="1.0" encoding="utf-8"?>
<svg version="1.1" id="Layer_1" xmlns="http://www.w3.org/2000/svg" xmlns:xlink="http://www.w3.org/1999/xlink" x="0px" y="0px" viewBox="0 0 1024 1024" style="enable-background:new 0 0 1024 1024;" xml:space="preserve">
<style type="text/css">
	.st0{clip-path:url(#SVGID_2_);}
	.st1{clip-path:url(#SVGID_6_);}
	.st2{fill:none;stroke:#000000;stroke-miterlimit:10;}
</style>
<g>
	<defs>
		<rect id="SVGID_1_" width="1024" height="1024"/>
	</defs>
	<clipPath id="SVGID_2_">
		<use xlink:href="#SVGID_1_"  style="overflow:visible;"/>
	</clipPath>
	<path class="st0" d="M284.04,176.04c-0.53,12.56-4.19,25.04-9.76,36.49c-5.6,11.47-13.18,21.97-22.08,31.12
		c-8.91,9.16-19.15,16.95-30.17,23.23c-11.03,6.26-22.83,11.05-35.03,14.04c11.18-5.72,21.98-11.75,32.1-18.7
		c10.13-6.93,19.58-14.72,28.08-23.44c8.49-8.72,16.03-18.36,22.27-28.85C275.71,199.44,280.64,188.13,284.04,176.04"/>
	<path class="st0" d="M213.61,268.39c0.66,4.05,0.78,8.16,0.73,12.25c-0.07,4.1-0.43,8.19-1,12.26c-1.16,8.13-3.22,16.19-6.38,23.88
		c-0.38,0.97-0.8,1.92-1.24,2.86c-0.43,0.95-0.84,1.9-1.32,2.83c-0.93,1.87-1.93,3.7-2.98,5.5c-2.16,3.58-4.61,7-7.38,10.14
		c-5.49,6.31-12.48,11.42-20.21,14.15c6.26-5.28,11.57-11.04,15.87-17.53c2.16-3.22,4.14-6.55,5.93-10
		c0.86-1.74,1.76-3.46,2.54-5.24c0.43-0.87,0.81-1.77,1.2-2.66c0.4-0.89,0.77-1.79,1.13-2.7c2.97-7.22,5.37-14.71,7.48-22.35
		C210.08,284.14,211.92,276.38,213.61,268.39"/>
	<path class="st0" d="M501.74,376.37c-4.19-5.97-9.15-11.28-14.68-15.86c-5.5-4.62-11.57-8.49-17.92-11.71
		c-3.18-1.6-6.46-2.98-9.8-4.15c-3.34-1.19-6.71-2.09-10.18-2.7c-3.45-0.6-6.94-0.9-10.35-0.81c-3.38,0.12-6.79,0.7-9.45,2.13
		c-2.69,1.42-4.08,3.76-4.01,6.54c0.06,1.22,0.49,2.07,1.49,2.89c0.99,0.81,2.47,1.44,4.05,1.91c3.19,0.93,6.76,1.37,10.32,1.85
		c3.58,0.46,7.23,0.86,10.9,1.48c1.83,0.31,3.68,0.68,5.51,1.17c0.92,0.25,1.83,0.52,2.74,0.84c0.91,0.31,1.83,0.68,2.65,1.04
		c1.7,0.71,3.37,1.48,5.04,2.25c1.66,0.81,3.3,1.65,4.92,2.52c3.25,1.73,6.38,3.71,9.39,5.8c3.01,2.1,5.82,4.41,8.82,6.48
		c-3.35-1.49-6.51-3.36-9.71-5.02c-3.2-1.68-6.46-3.21-9.77-4.63c-3.32-1.39-6.68-2.66-10.07-3.85c-3.27-1.24-6.65-1.83-10.18-2.35
		c-3.52-0.49-7.12-0.77-10.76-1.13c-3.65-0.36-7.35-0.74-11.16-1.81c-1.9-0.56-3.88-1.28-5.75-2.73c-0.92-0.72-1.8-1.69-2.4-2.84
		c-0.62-1.15-0.91-2.44-0.98-3.64c-0.04-1.2,0.06-2.27,0.33-3.41c0.26-1.12,0.71-2.24,1.34-3.23c0.62-0.99,1.39-1.87,2.23-2.62
		c0.85-0.74,1.77-1.34,2.71-1.86c1.89-0.99,3.86-1.61,5.82-2c1.96-0.39,3.91-0.58,5.84-0.62c3.86-0.1,7.65,0.38,11.34,1.13
		c3.68,0.76,7.32,1.85,10.8,3.21c3.48,1.37,6.83,3.02,10.07,4.84c3.23,1.83,6.36,3.84,9.3,6.08c2.95,2.23,5.79,4.61,8.41,7.21
		C493.86,363.97,498.41,369.87,501.74,376.37"/>
	<path class="st0" d="M427.31,338.94c-5.29,5.47-10.01,11.4-14.12,17.71c-4.13,6.29-7.62,12.96-10.42,19.86
		c-2.77,6.92-4.75,14.12-5.78,21.43c-0.93,7.31-1.09,14.73,0.1,22c0.56,3.63,1.35,7.23,2.39,10.75c1.07,3.52,2.37,6.98,3.89,10.38
		c1.49,3.41,3.12,6.78,4.85,10.14c1.73,3.36,3.52,6.71,5.16,10.21c1.63,3.49,3.23,7.1,4.05,11.07c0.4,1.98,0.59,4.06,0.35,6.13
		c-0.07,0.52-0.12,1.04-0.25,1.54c-0.1,0.52-0.23,1.01-0.39,1.49c-0.28,0.96-0.64,1.91-1.07,2.82c-1.66,3.67-4.76,6.83-8.55,8.14
		c-3.76,1.36-7.9,1.13-11.41-0.34c1.83,0.51,3.74,0.66,5.59,0.51c1.85-0.15,3.67-0.6,5.3-1.4c1.62-0.8,3.08-1.89,4.23-3.24
		c1.16-1.34,2.03-2.91,2.64-4.59c0.6-1.67,1.05-3.46,1.1-5.14c0.07-1.72-0.22-3.45-0.71-5.16c-0.99-3.42-2.61-6.76-4.4-10.04
		c-3.61-6.55-7.59-13.13-10.86-20.16c-3.23-7.04-5.77-14.59-6.81-22.37c-0.31-1.94-0.46-3.9-0.63-5.85
		c-0.09-1.96-0.19-3.92-0.15-5.88c0.04-3.92,0.34-7.83,1.01-11.68c1.3-7.7,3.6-15.21,6.88-22.23c3.21-7.05,7.3-13.65,11.98-19.73
		C416,349.23,421.32,343.64,427.31,338.94"/>
	<path class="st0" d="M403.93,480.87c-3.61,0.08-6.96,1.18-9.94,2.81c-1.48,0.83-2.88,1.78-4.17,2.85
		c-0.65,0.53-1.27,1.09-1.87,1.67l-0.88,0.89c-0.35,0.36-0.77,0.74-1.18,1.07c-1.65,1.32-3.48,2.22-5.36,2.87
		c-1.89,0.66-3.85,1.05-5.86,1.19c-3.98,0.27-8.31-0.49-11.94-3.01c-0.9-0.6-1.76-1.37-2.46-2.12c-0.71-0.74-1.34-1.49-1.93-2.23
		c-1.17-1.49-2.17-2.95-3.2-4.33c-2.02-2.76-4.08-5.2-6.63-6.9c-2.52-1.73-5.59-2.68-8.95-2.96c-1.67-0.15-3.41-0.18-5.15-0.04
		c-1.76,0.06-3.53,0.31-5.35,0.49c3.14-1.83,6.61-3.19,10.4-3.73c1.89-0.26,3.86-0.3,5.84-0.01c1.98,0.28,3.95,0.91,5.77,1.83
		c3.68,1.85,6.49,4.85,8.77,7.73l3.22,4.23c0.51,0.66,1.02,1.29,1.53,1.84c0.52,0.56,0.98,0.98,1.55,1.4
		c2.21,1.66,5.23,2.45,8.34,2.47c3.09,0.02,6.38-0.68,8.93-2.18c0.32-0.2,0.58-0.38,0.9-0.62l1.13-0.87
		c0.78-0.55,1.56-1.09,2.38-1.57c1.64-0.96,3.37-1.76,5.17-2.32C396.56,480.17,400.45,479.86,403.93,480.87"/>
	<path class="st0" d="M334.78,440.67c-4.94-0.13-9.37,1.81-12.86,4.7c-3.48,2.87-6.2,6.76-7.33,10.88
		c-0.54,2.08-0.71,4.34-0.58,6.57c0.12,2.23,0.53,4.47,1.27,6.58c0.76,2.09,1.82,4.11,3.39,5.73c1.53,1.66,3.6,2.84,5.99,3.51
		c-2.46,0.26-5.1-0.48-7.28-1.97c-2.17-1.51-3.88-3.65-5.04-6.01c-1.19-2.36-1.86-4.92-2.16-7.53c-0.27-2.61-0.15-5.28,0.55-7.9
		c1.5-5.27,5.02-9.54,9.39-12.36c2.19-1.39,4.65-2.37,7.18-2.81C329.84,439.65,332.47,439.78,334.78,440.67"/>
	<path class="st0" d="M415.42,535.27c-10.03,3.31-20.42,5.62-31.01,6.77c-10.58,1.17-21.41,1.04-32.03-0.88
		c-10.59-1.98-20.73-5.4-30.48-9.6c-2.43-1.07-4.85-2.17-7.24-3.31c-2.39-1.15-4.74-2.38-7.07-3.63c-4.64-2.55-9.23-5.24-13.46-8.44
		c9.65,4.28,19.43,8.04,29.27,11.53c9.84,3.44,19.8,6.58,29.89,8.58c10.08,1.96,20.46,2.42,30.85,2.09
		C394.55,538.01,404.96,536.74,415.42,535.27"/>
	<path class="st0" d="M496.52,234.74c2.67,3.5,5.23,7.09,7.6,10.81c2.35,3.74,4.53,7.6,6.51,11.57c3.86,7.99,6.83,16.46,8.78,25.18
		c1.02,4.35,1.72,8.77,2.26,13.2c0.56,4.44,0.86,8.89,1.06,13.34c0.38,8.9,0.24,17.81-0.3,26.68c-0.25,4.44-0.81,8.84-1.39,13.24
		c-0.58,4.4-1.18,8.79-1.86,13.16l-4.04,26.06l-4.04,26.06l-2.02,13.03c-0.67,4.33-1.33,8.7-2.08,13.07
		c-2.97,17.47-7.03,34.81-12.55,51.71c-1.37,4.23-2.84,8.42-4.4,12.59c-1.56,4.17-3.18,8.28-5.03,12.41
		c-3.65,8.22-7.99,16.09-12.79,23.64c-4.81,7.55-10.18,14.71-15.86,21.59c-1.45,1.69-2.83,3.45-4.34,5.09l-4.49,4.96
		c-3.1,3.21-6.17,6.46-9.44,9.49c-3.18,3.13-6.58,6.03-9.93,8.98l-5.18,4.25c-1.71,1.44-3.54,2.72-5.3,4.09
		c-7.18,5.35-14.53,10.35-22.46,14.71c-15.81,8.63-33,14.48-50.7,17.57c-17.69,3.1-36.02,3.1-53.73-0.5
		c-17.71-3.58-34.65-11.02-49.3-21.56c-1.85-1.3-3.6-2.72-5.4-4.07c-0.91-0.67-1.77-1.4-2.62-2.13l-2.57-2.19
		c-1.75-1.42-3.34-3.02-4.98-4.55l-2.45-2.32l-2.33-2.37l-4.65-4.74l-2.32-2.38l-2.26-2.44c-3.01-3.26-6.07-6.47-8.93-9.87
		l-4.36-5.04l-4.18-5.21l-2.09-2.61c-0.68-0.88-1.33-1.79-2-2.69l-3.97-5.4c-5.07-7.37-9.76-15.08-13.63-23.24
		c-3.88-8.15-6.87-16.76-8.92-25.54c-0.47-2.2-0.97-4.39-1.41-6.6l-1.17-6.61c-0.32-2.2-0.71-4.4-0.99-6.61
		c-0.29-2.2-0.5-4.41-0.72-6.62c-1.46-17.76-1.17-35.57,0.46-53.17c0.82-8.8,1.93-17.56,3.26-26.27c1.35-8.71,2.91-17.37,4.55-26.01
		c-0.99,8.74-1.89,17.49-2.58,26.24c-0.73,8.75-1.26,17.51-1.47,26.26c-0.46,17.49,0.26,34.97,2.75,52.17l1.72,12.92
		c0.32,2.14,0.71,4.25,1.08,6.38c0.42,2.11,0.9,4.2,1.34,6.3c1.96,8.35,4.76,16.44,8.44,24.16c3.66,7.73,8.14,15.1,13.03,22.2
		l3.84,5.22c0.65,0.87,1.27,1.75,1.93,2.6l2.04,2.54l4.07,5.07l4.27,4.93c2.8,3.32,5.81,6.48,8.76,9.68l2.22,2.4l2.29,2.34
		l4.58,4.67l2.29,2.34l2.34,2.22c1.57,1.46,3.08,2.99,4.75,4.34l2.45,2.08c0.81,0.7,1.63,1.4,2.49,2.03
		c1.71,1.28,3.38,2.64,5.13,3.86c13.9,10,29.88,17.01,46.64,20.4c16.76,3.41,34.21,3.43,51.13,0.46
		c16.93-2.95,33.47-8.59,48.53-16.81c7.49-4.11,14.71-9.01,21.62-14.17c1.71-1.32,3.48-2.56,5.14-3.96l5.02-4.11
		c3.24-2.86,6.54-5.67,9.63-8.71c3.18-2.94,6.14-6.1,9.15-9.21l4.36-4.81c1.46-1.59,2.8-3.3,4.21-4.94
		c5.51-6.67,10.71-13.6,15.35-20.89c4.63-7.29,8.8-14.86,12.28-22.7c1.75-3.89,3.36-7.96,4.87-12.03c1.53-4.07,2.96-8.17,4.3-12.3
		c5.4-16.53,9.38-33.52,12.3-50.72c0.74-4.29,1.39-8.61,2.07-12.97l2.02-13.03l4.04-26.06l4.04-26.06
		c0.67-4.31,1.28-8.63,1.78-12.95l1.36-12.99c0.97-8.64,1.69-17.32,1.83-26c0.17-8.68-0.29-17.34-1.61-25.9
		c-1.31-8.56-3.63-16.98-6.87-25.07c-1.63-4.04-3.49-8.01-5.52-11.89C501.18,242.2,498.91,238.43,496.52,234.74"/>
	<path class="st0" d="M161.37,421.2c-0.57,1.76-1.81,3.39-3.53,4.4c-1.71,1-3.72,1.43-5.71,1.48c-2,0.05-3.99-0.31-5.91-1.04
		c-0.96-0.39-1.9-0.84-2.8-1.47c-0.45-0.33-0.9-0.64-1.3-1.09c-0.45-0.42-0.77-0.83-1.08-1.25c-0.64-0.84-1.07-1.79-1.46-2.71
		c-0.39-0.93-0.73-1.86-1.04-2.78c-0.6-1.86-1.03-3.71-1.43-5.52c-0.4-1.81-0.76-3.6-1.22-5.29c-0.45-1.71-0.99-3.18-1.86-4.59
		c-1.71-2.83-4.35-5.52-6.55-8.69c-1.1-1.59-2.1-3.27-2.97-5.03c-0.82-1.77-1.56-3.59-2.07-5.46l-0.4-1.4l-0.32-1.41
		c-0.23-0.95-0.39-1.86-0.55-2.77l-0.99-5.46l-0.89-5.48l-0.78-5.51c-0.95-7.35-1.66-14.76-1.71-22.24
		c-0.03-7.46,0.38-15.03,2.49-22.45c0.57-1.84,1.19-3.68,2.05-5.45c0.81-1.78,1.85-3.5,3.09-5.09c2.45-3.18,6.08-5.77,10.13-6.67
		c1.02-0.18,2.04-0.25,3.03-0.27c1.06-0.01,2.13,0.09,3.13,0.31c2,0.44,3.85,1.25,5.5,2.3c1.65,1.05,3.1,2.35,4.33,3.8
		c1.22,1.46,2.21,3.06,3,4.74c-2.22-2.96-5.11-5.31-8.33-6.63c-1.61-0.64-3.29-1.07-4.93-1.14c-0.83-0.04-1.6,0.03-2.38,0.16
		c-0.85,0.15-1.65,0.35-2.42,0.62c-0.77,0.26-1.54,0.47-2.28,0.78c-0.37,0.15-0.74,0.32-1.08,0.52c-0.36,0.18-0.69,0.4-1.03,0.62
		c-1.34,0.89-2.52,2.03-3.54,3.34c-2.06,2.61-3.44,5.85-4.44,9.2c-1.94,6.77-2.37,14.07-2.33,21.29c0.05,7.25,0.74,14.52,1.68,21.75
		l0.77,5.43l0.88,5.41c0.68,3.58,1.19,7.29,2.15,10.58c0.46,1.68,1.12,3.28,1.84,4.85c0.76,1.55,1.64,3.04,2.64,4.47
		c1.01,1.43,2.13,2.82,3.3,4.25c1.16,1.44,2.38,2.95,3.42,4.69c0.52,0.87,0.97,1.8,1.37,2.76c0.37,0.96,0.67,1.91,0.91,2.84
		c0.5,1.87,0.87,3.69,1.26,5.47c0.77,3.53,1.66,7,3.41,9.67c1.19,2.55,4.55,4.32,7.86,4.87c1.68,0.28,3.44,0.23,5.07-0.34
		C158.98,423.99,160.44,422.81,161.37,421.2"/>
	<path class="st0" d="M153.09,334.57c-1.19-1.28-2.55-2.29-3.99-2.86c-0.72-0.28-1.44-0.45-2.14-0.53c-0.7-0.05-1.36,0.04-1.94,0.2
		c-0.28,0.11-0.57,0.07-0.86,0.14c-0.29,0.03-0.54,0.18-0.81,0.28c-0.51,0.28-0.99,0.64-1.42,1.11c-0.87,0.95-1.52,2.3-2,3.73
		c-0.93,2.93-1.25,6.19-1.22,9.46c0.01,3.38,0.07,6.71,0.48,9.95c0.4,3.23,1.18,6.36,2.47,9.27c1.23,2.86,3.18,5.43,5.38,7.87
		c0.55,0.61,1.12,1.21,1.7,1.81l0.88,0.89c0.33,0.37,0.76,0.8,1.03,1.25c0.64,0.88,1.05,1.82,1.39,2.75
		c0.17,0.46,0.3,0.93,0.44,1.39c0.16,0.46,0.28,0.91,0.3,1.38c0.05,3.76-0.61,7.15-1.39,10.55c-0.81-3.39-1.38-6.85-2.54-9.81
		c-0.32-1.5-0.72-2.95-1.47-3.96c-0.17-0.29-0.37-0.45-0.59-0.72l-0.91-0.93c-0.61-0.63-1.21-1.26-1.8-1.92
		c-2.35-2.61-4.59-5.52-6.07-8.94c-1.48-3.32-2.35-6.87-2.78-10.39c-0.44-3.52-0.5-7.02-0.51-10.44c-0.02-3.53,0.29-7.14,1.42-10.71
		c0.6-1.77,1.42-3.59,2.84-5.18c0.71-0.79,1.6-1.48,2.59-2c0.51-0.22,1.03-0.46,1.57-0.6c0.54-0.19,1.1-0.29,1.66-0.28
		c1.12,0.09,2.17,0.41,3.1,0.84c0.92,0.47,1.75,1.02,2.44,1.71C151.72,331.23,152.63,332.88,153.09,334.57"/>
	<path class="st0" d="M534.48,323.57c2.26,7.54,3.51,15.46,3.2,23.52c-0.15,4.02-0.67,8.04-1.52,11.97
		c-0.85,3.93-2.03,7.77-3.39,11.53c-0.71,1.86-1.44,3.72-2.25,5.57c-0.84,1.83-1.71,3.63-2.66,5.4c-1.9,3.52-4.03,6.89-6.27,10.12
		c-4.51,6.47-9.32,12.5-14.1,18.77c2.59-7.47,6.44-14.41,10.08-21.23c1.82-3.41,3.61-6.79,5.22-10.23
		c1.62-3.44,3.06-6.89,4.37-10.47c2.63-7.12,4.75-14.37,5.86-21.85C534.19,339.18,534.29,331.46,534.48,323.57"/>
	<path class="st0" d="M534.48,354.48c2.88-10.69,6.39-21.14,9.46-31.62c3.07-10.47,5.78-20.99,7-31.6
		c0.61-5.3,0.82-10.62,0.49-15.89c-0.34-5.27-1.27-10.49-2.82-15.55c-1.54-5.07-3.73-9.96-6.44-14.63
		c-2.68-4.69-5.96-9.07-9.45-13.38c4.42,3.34,8.39,7.31,11.89,11.72c3.47,4.43,6.34,9.4,8.45,14.71c2.12,5.31,3.44,10.95,4.04,16.64
		c0.58,5.7,0.43,11.42-0.2,17.05c-1.3,11.27-4.54,22.08-8.5,32.43C544.38,334.73,539.66,344.7,534.48,354.48"/>
	<path class="st0" d="M509.04,159.02c6.67,0.29,13.39,2.86,18.59,7.4c5.28,4.47,8.97,10.63,11.21,17.14
		c1.12,3.3,1.79,6.69,2.32,10.03c0.52,3.35,0.93,6.67,1.33,9.96c0.83,6.53,1.82,13.09,4.5,18.56l0.01,0.02
		c0.48,0.97,0.24,2.1-0.5,2.8c-3.79,3.6-8.17,6.6-12.95,8.73c-4.75,2.18-9.86,3.45-14.97,4.09c-10.26,1.27-20.58-0.01-30.32-3.03
		c-2.44-0.78-4.83-1.67-7.21-2.93c-1.15-0.65-2.23-1.3-3.32-1.98c-1.05-0.73-2.14-1.4-3.15-2.18c-4.11-3.02-7.79-6.56-11.08-10.38
		c-6.55-7.66-11.53-16.69-13.94-26.34c1.8,4.63,4.12,9,6.82,13.08c2.67,4.11,5.78,7.9,9.18,11.38c3.4,3.47,7.15,6.57,11.13,9.26
		c0.98,0.7,2.04,1.27,3.05,1.91c1.04,0.58,2.11,1.16,3.14,1.68c2.05,0.96,4.36,1.71,6.64,2.38c4.61,1.3,9.38,2.16,14.16,2.54
		c4.78,0.39,9.58,0.38,14.28-0.26c4.7-0.62,9.29-1.87,13.58-3.75c4.3-1.86,8.22-4.5,11.64-7.69l-0.49,2.81
		c-1.61-3.28-2.49-6.73-3.14-10.12c-0.64-3.4-1.01-6.77-1.34-10.11c-0.67-6.66-0.89-13.31-2.65-19.45
		c-1.68-6.19-4.78-12.05-9.32-16.67c-2.28-2.29-4.92-4.25-7.83-5.76C515.51,160.67,512.34,159.6,509.04,159.02"/>
	<path class="st0" d="M295,148.65c8.07,6.65,16.28,13.14,25.08,18.7c8.8,5.55,18.06,10.32,27.71,14.11
		c9.65,3.77,19.61,6.71,29.75,8.74c2.53,0.55,5.09,0.95,7.63,1.4c2.56,0.37,5.11,0.8,7.68,1.07c5.13,0.67,10.29,1.08,15.45,1.41
		l3.88,0.17c1.29,0.06,2.59,0.12,3.83,0.11c2.51-0.01,5.04-0.15,7.55-0.41c5.03-0.53,10.05-1.49,15.01-2.69
		c4.96-1.22,9.86-2.74,14.68-4.49c4.82-1.74,9.56-3.71,14.12-5.93c9.2-4.46,18.02-9.86,26.54-15.68
		c8.52-5.83,16.82-12.04,24.68-18.71l-0.31,4.86c-8.1-8.93-16.33-17.72-25.08-25.96c-8.76-8.21-17.85-16.09-27.66-22.95
		c-4.91-3.41-9.93-6.67-15.19-9.51c-5.25-2.84-10.7-5.32-16.33-7.27c-5.64-1.94-11.5-3.27-17.46-3.82
		c-5.96-0.52-12.05-0.23-17.98,1.1c5.77-1.91,11.91-2.84,18.06-2.76c6.16,0.03,12.3,1.03,18.25,2.64c5.97,1.59,11.74,3.85,17.3,6.51
		c5.56,2.66,10.95,5.67,16.11,9.01c10.33,6.69,20.01,14.3,29.08,22.53c9.09,8.21,17.73,16.89,25.93,25.92
		c1.26,1.39,1.16,3.54-0.23,4.8c-0.02,0.02-0.05,0.05-0.08,0.07c-8.05,6.89-16.41,13.38-25.18,19.31
		c-8.79,5.9-17.89,11.39-27.55,15.99c-4.85,2.35-9.86,4.21-14.9,5.93c-5.05,1.7-10.19,3.17-15.41,4.33
		c-5.22,1.17-10.54,2-15.92,2.35c-2.69,0.18-5.4,0.23-8.12,0.14c-2.73-0.11-5.3-0.33-7.96-0.5c-21.05-1.69-42-6.33-61.35-14.84
		c-9.65-4.27-18.9-9.45-27.48-15.53c-4.3-3.02-8.44-6.26-12.43-9.65C302.68,155.75,298.85,152.19,295,148.65"/>
	<path class="st0" d="M331.78,174.48c-6.47,2.99-13.48,4.83-20.66,5.62c-7.17,0.77-14.55,0.44-21.69-1.19
		c-7.13-1.62-14.02-4.57-19.99-8.79c-5.96-4.21-11.03-9.67-14.35-15.99c5.3,4.77,10.85,8.83,16.84,11.98
		c5.97,3.17,12.31,5.45,18.85,6.95c6.55,1.5,13.3,2.21,20.14,2.34C317.76,175.55,324.68,175.06,331.78,174.48"/>
	<path class="st0" d="M408.48,80.83c-1.91-0.94-3.84-1.77-5.83-2.44c-0.98-0.36-1.99-0.66-2.98-0.99c-1.01-0.28-2.01-0.59-3.02-0.85
		c-4.04-1.08-8.14-1.95-12.26-2.66c-4.11-0.76-8.25-1.35-12.4-1.81c-4.14-0.5-8.3-0.86-12.44-1.15
		c-16.57-1.05-33.23-0.19-49.49,2.72c-2.02,0.41-4.06,0.75-6.07,1.2c-2.01,0.48-4.03,0.89-6.02,1.42c-1.98,0.53-4.03,1.02-5.95,1.59
		c-1.93,0.58-3.85,1.23-5.76,1.93c-7.62,2.85-15.05,6.5-21.82,11c-3.38,2.24-6.58,4.75-9.32,7.57c-0.69,0.72-1.31,1.42-1.93,2.21
		c-0.64,0.81-1.26,1.63-1.88,2.45c-1.22,1.65-2.36,3.36-3.44,5.1c-2.17,3.47-3.91,7.2-5,11.15c-1.08,3.95-1.37,8.16-0.69,12.36
		c-0.76-1.98-1.25-4.09-1.5-6.24c-0.23-2.15-0.2-4.35,0.05-6.53c0.49-4.37,1.93-8.58,3.73-12.56c0.91-1.99,1.96-3.9,3.06-5.78
		c0.56-0.93,1.12-1.86,1.71-2.77c0.59-0.93,1.27-1.9,1.97-2.78c2.81-3.57,6.13-6.54,9.59-9.24c3.48-2.68,7.14-5.09,10.95-7.23
		c3.79-2.16,7.73-4.07,11.79-5.73c2.03-0.84,4.09-1.6,6.2-2.28c2.12-0.69,4.17-1.22,6.26-1.83c2.08-0.61,4.2-1.04,6.3-1.56
		c2.11-0.49,4.24-0.87,6.36-1.31c17.03-3.08,34.47-3.48,51.55-1.26c4.27,0.54,8.49,1.31,12.69,2.2c4.19,0.93,8.35,1.99,12.46,3.21
		c4.1,1.28,8.15,2.7,12.08,4.43C401.33,76.1,405.17,78.15,408.48,80.83"/>
	<path class="st0" d="M240.22,120.48c-3.3-0.73-6.57-1.38-9.86-1.76c-3.29-0.33-6.57-0.49-9.81-0.29c-3.24,0.17-6.42,0.69-9.51,1.51
		c-1.55,0.4-3.06,0.91-4.56,1.41c-1.48,0.59-2.97,1.15-4.39,1.87c-2.87,1.38-5.63,2.99-8.28,4.81c-1.37,0.88-2.54,1.82-3.79,2.81
		c-1.22,1.01-2.41,2.07-3.56,3.17c-4.63,4.41-8.69,9.43-12.02,14.83c-1.64,2.71-3.09,5.53-4.32,8.43c-0.3,0.73-0.57,1.47-0.85,2.2
		l-0.42,1.1l-0.35,1.13l-0.7,2.26l-0.59,2.34c-0.82,3.11-1.33,6.3-1.82,9.49c-0.39,3.21-0.7,6.44-0.81,9.7
		c-0.49,13.05,1.7,26.27,3.64,39.6c-2.4-6.3-4.47-12.71-6.11-19.3c-0.81-3.3-1.45-6.64-2-10.02c-0.25-1.69-0.49-3.39-0.62-5.1
		l-0.23-2.57l-0.14-2.58c-0.38-6.89,0.19-13.87,1.61-20.69l0.55-2.56l0.72-2.57l0.37-1.28l0.44-1.26c0.3-0.83,0.58-1.68,0.9-2.5
		c1.35-3.28,2.95-6.45,4.76-9.48c1.87-2.99,3.93-5.85,6.18-8.54c2.26-2.68,4.71-5.19,7.34-7.52c1.31-1.16,2.68-2.27,4.08-3.35
		c1.41-1.05,2.94-2.09,4.44-2.95c1.48-0.92,3.04-1.74,4.6-2.54c0.78-0.39,1.6-0.73,2.4-1.09c0.79-0.37,1.62-0.69,2.44-0.99
		c6.54-2.62,13.71-3.65,20.63-3.21c3.46,0.3,6.86,0.89,10.15,1.82C234.02,117.77,237.18,119.02,240.22,120.48"/>
	<path class="st0" d="M160.91,188.83c-1.62,1.02-3,2.32-4.3,3.69c-1.31,1.34-2.52,2.79-3.67,4.28c-2.29,2.97-4.43,6.08-6.21,9.32
		c-0.88,1.61-1.75,3.25-2.34,4.87c-0.13,0.41-0.27,0.76-0.39,1.22l-0.36,1.36l-0.72,2.7l-1.24,5.44c-0.31,1.83-0.72,3.64-0.95,5.49
		c-1.02,7.34-1.44,14.74-1.02,22.11c0.21,3.69,0.54,7.37,1.09,11.03c0.24,1.83,0.58,3.66,0.88,5.48c0.38,1.82,0.68,3.64,1.13,5.45
		c0.77,3.64,1.75,7.23,2.76,10.83c0.53,1.77,1.08,3.51,1.65,5.25c0.66,1.72,1.24,3.46,1.97,5.16c0.71,1.7,1.41,3.41,2.21,5.09
		c0.76,1.69,1.59,3.37,2.41,5.05l5.12,10.17c1.71,3.42,3.39,6.91,4.88,10.48c0.74,1.79,1.41,3.61,2.1,5.42
		c0.6,1.85,1.28,3.66,1.81,5.52c2.15,7.44,3.49,15.06,3.91,22.7c-1.96-7.4-4.17-14.64-7.15-21.54c-2.86-6.95-6.55-13.45-10.36-19.98
		c-3.88-6.48-7.84-13.14-11.05-20.32c-0.85-1.77-1.49-3.64-2.25-5.46c-0.65-1.85-1.3-3.73-1.9-5.6c-1.09-3.72-2.14-7.46-2.97-11.27
		c-1.71-7.6-2.7-15.41-2.88-23.24c-0.05-1.96,0.01-3.92,0.04-5.88l0.16-2.94c0.04-0.98,0.13-1.96,0.24-2.93l0.31-2.92
		c0.12-0.97,0.28-1.94,0.43-2.91c0.28-1.94,0.7-3.85,1.1-5.76c0.38-1.92,0.94-3.79,1.41-5.68c0.56-1.87,1.11-3.74,1.76-5.57
		l1.02-2.73l0.51-1.36c0.16-0.45,0.42-0.97,0.63-1.45c0.92-1.88,2-3.53,3.14-5.13c2.33-3.16,4.86-6.1,7.66-8.78
		c1.4-1.33,2.85-2.62,4.41-3.77C157.49,190.59,159.1,189.48,160.91,188.83"/>
	<path class="st0" d="M418.61,535.96c-4.5,4.5-9.8,8.18-15.4,11.33c-5.63,3.1-11.63,5.61-17.9,7.29c-1.58,0.39-3.16,0.7-4.77,0.92
		c-1.6,0.24-3.19,0.57-4.8,0.73l-4.84,0.43c-0.81,0.1-1.62,0.1-2.43,0.11l-2.43,0.03c-3.24,0.15-6.47-0.23-9.7-0.4
		c-1.61-0.15-3.21-0.45-4.81-0.67l-2.4-0.36c-0.81-0.1-1.58-0.35-2.38-0.51c-12.72-2.69-24.64-8.7-34.76-16.63
		c-5.11-3.91-9.87-8.22-14.53-12.5c-4.67-4.25-9.27-8.59-14.36-11.77l-0.03-0.02c-0.94-0.58-1.22-1.82-0.64-2.76
		c0.42-0.66,1.16-1,1.89-0.93c10.96,1.05,21.98,1.92,32.99,2.83l16.53,1.38l8.27,0.76l4.16,0.44c0.69,0.08,1.39,0.16,2.11,0.26
		l1.08,0.15c0.44,0.09,0.88,0.18,1.31,0.29c0.1,0.03,0.2,0.06,0.28,0.12l0.07,0.04c1.73,1.04,2.81,2.25,3.91,3.41
		c1.07,1.17,2.05,2.35,3.03,3.45c0.96,1.08,2,2.16,2.9,2.73c0.21,0.13,0.4,0.21,0.5,0.24c0.05,0.01,0.07,0.01,0.07,0.01
		s-0.01-0.01-0.02,0c-0.03,0.01,0.1-0.03,0.14-0.03c0.47-0.1,1.14-0.37,1.77-0.65c1.3-0.58,2.63-1.28,3.99-1.98
		c1.38-0.7,2.75-1.42,4.33-2.04c0.41-0.15,0.81-0.3,1.29-0.42c0.23-0.06,0.46-0.13,0.76-0.16c0.29-0.04,0.52-0.1,0.94-0.07
		c0.19,0.01,0.38,0.02,0.57,0.04c0.17,0.02,0.21,0.04,0.33,0.06l0.57,0.12l1.14,0.22c1.51,0.3,3.01,0.59,4.49,1
		c5.91,1.66,11.79,3.42,17.58,5.41c2.9,0.99,5.78,2.06,8.63,3.17c2.84,1.15,5.65,2.38,8.39,3.73c-5.78-1.99-11.68-3.49-17.61-4.84
		c-5.93-1.35-11.9-2.53-17.88-3.58c-1.49-0.27-2.96-0.63-4.44-0.96l-1.11-0.24l-0.54-0.11c-0.07-0.01-0.22-0.05-0.24-0.04
		c0,0.01-0.01,0.02-0.01,0.02c0.04-0.02-0.11,0.01-0.2,0.02c-0.08,0-0.22,0.04-0.36,0.08c-0.26,0.06-0.57,0.18-0.88,0.29
		c-1.26,0.49-2.6,1.18-3.94,1.86c-1.35,0.69-2.71,1.41-4.2,2.08c-0.77,0.32-1.5,0.66-2.53,0.89c-0.14,0.03-0.2,0.06-0.42,0.09
		c-0.19,0.02-0.4,0.05-0.59,0.04c-0.39-0.01-0.74-0.06-1.06-0.14c-0.63-0.17-1.14-0.43-1.58-0.7c-1.68-1.09-2.71-2.3-3.79-3.47
		c-1.05-1.17-2.02-2.34-3-3.42c-0.97-1.06-2.01-2.1-2.92-2.63l0.35,0.16c-0.24-0.04-0.48-0.08-0.71-0.14l-0.98-0.14
		c-0.65-0.1-1.32-0.17-2-0.25l-4.09-0.43l-8.23-0.75l-16.51-1.38c-11.01-0.91-22.03-1.77-33.06-2.83l1.22-3.71
		c5.67,3.55,10.32,8,15,12.25c4.66,4.28,9.31,8.49,14.26,12.27c9.8,7.67,21.08,13.32,33.18,15.9c0.75,0.16,1.49,0.4,2.26,0.49
		l2.29,0.34c1.53,0.21,3.05,0.5,4.59,0.64c3.09,0.16,6.18,0.54,9.27,0.39c6.18,0.02,12.38-0.72,18.37-2.21
		c1.51-0.34,3.04-0.58,4.53-0.99l2.26-0.56l1.13-0.28l1.11-0.35c1.47-0.49,2.99-0.89,4.44-1.46c1.45-0.57,2.94-1.07,4.36-1.71
		c1.43-0.64,2.89-1.21,4.28-1.94l2.11-1.04l2.06-1.14C413.42,539.58,416.11,537.91,418.61,535.96"/>
	<path class="st0" d="M443.67,388.49c-16.7-0.66-27.35,8.91-26.39,9.77c0.96,0.86,3.41-0.2,12.72-1.46
		c19.06-2.59,31.59,4.45,38.29,7.62c6.15,2.91,12.8,4.16,2.07-5.33C461.45,391.2,453.49,388.88,443.67,388.49"/>
	<path class="st0" d="M311.33,361.07c26.13,7.29,30.76,20.34,30.37,22.94c-0.14,0.94-8.03-8.54-35.44-15.09
		c-28.3-6.77-45.46-2.59-31.76-7.1C284.33,358.58,297.35,357.17,311.33,361.07"/>
	<path class="st0" d="M265.75,316.21c4.24-1.02,8.6-1.47,12.97-1.71c4.37-0.24,8.77-0.12,13.15,0.22c4.38,0.37,8.75,1.01,13.07,1.91
		c4.45,0.89,8.64,2.55,12.69,4.27c8.12,3.43,15.71,7.81,23.5,10.81c1.94,0.74,3.89,1.35,5.77,1.76c1.88,0.4,3.74,0.54,5.24,0.21
		c1.51-0.33,2.63-1.07,3.54-2.35c0.46-0.63,0.85-1.39,1.18-2.22c0.19-0.47,0.27-0.72,0.34-1.04c0.06-0.32,0.09-0.64,0.09-0.98
		c-0.02-1.36-0.63-2.95-1.61-4.47c-0.98-1.52-2.29-2.96-3.76-4.27c-2.95-2.63-6.45-4.83-10.17-6.6c-3.71-1.8-7.64-3.21-11.68-4.23
		c-4.04-1-8.18-1.64-12.36-1.93c-2.1-0.14-4.17-0.17-6.3-0.1l-6.46,0.22c-4.3,0.16-8.6,0.41-12.85,0.9
		c-4.26,0.44-8.48,1.17-12.62,2.28c-4.13,1.12-8.15,2.75-12.15,4.47c1.84-1.16,3.72-2.25,5.64-3.3c1.94-1.01,3.93-1.94,5.97-2.77
		c4.1-1.62,8.39-2.75,12.7-3.63c4.32-0.84,8.66-1.43,13.01-1.93c2.17-0.27,4.35-0.42,6.53-0.62c2.2-0.2,4.47-0.29,6.71-0.26
		c4.49,0.02,8.99,0.55,13.4,1.5c4.41,0.96,8.74,2.33,12.9,4.2c4.14,1.9,8.13,4.24,11.69,7.36c1.77,1.57,3.43,3.34,4.82,5.46
		c1.37,2.1,2.53,4.67,2.55,7.68c0,0.75-0.08,1.51-0.23,2.25c-0.16,0.74-0.44,1.51-0.66,2.05c-0.49,1.18-1.1,2.36-1.92,3.48
		c-0.82,1.11-1.86,2.16-3.1,2.96c-1.24,0.8-2.63,1.33-4,1.61c-2.76,0.54-5.33,0.22-7.66-0.29c-2.35-0.52-4.52-1.33-6.61-2.19
		c-8.3-3.54-15.7-8.04-23.36-11.83c-3.82-1.89-7.7-3.55-11.69-4.69c-4.1-1.18-8.28-2.08-12.51-2.8c-4.22-0.74-8.5-1.2-12.8-1.46
		C274.41,315.89,270.08,315.84,265.75,316.21"/>
	<path class="st0" d="M720.74,417.09c16.5,12.42,31.16,27.31,43.82,43.73c12.63,16.47,23.18,34.55,31.51,53.61
		c8.4,19.04,14.45,39.08,18.57,59.47c1.01,5.1,1.95,10.22,2.69,15.37l2.28,15.29c1.56,10.19,3.13,20.42,4.41,30.7
		c2.57,20.56,3.94,41.35,3.59,62.13c-0.21,10.39-0.89,20.77-1.98,31.11c-0.58,5.16-1.2,10.33-2.04,15.45
		c-0.41,2.57-0.78,5.14-1.25,7.69l-1.46,7.65c-2.1,10.16-4.42,20.28-7.35,30.23c-2.92,9.95-6.13,19.81-9.83,29.48
		c-3.74,9.66-7.82,19.18-12.44,28.44c-4.62,9.25-9.74,18.28-15.73,26.69c2.7-4.4,5.27-8.86,7.56-13.48l1.76-3.44l1.66-3.49
		c1.13-2.31,2.17-4.66,3.2-7.02c4.14-9.41,7.84-19.02,11.15-28.74c3.36-9.71,6.22-19.58,8.79-29.52c2.63-9.92,4.72-19.97,6.55-30.05
		l1.27-7.58c0.41-2.53,0.71-5.07,1.08-7.6c0.77-5.06,1.3-10.16,1.8-15.25c0.93-10.19,1.47-20.42,1.53-30.66
		c0.27-20.48-1.23-40.95-3.78-61.31c-1.23-10.19-2.74-20.36-4.26-30.57l-2.22-15.32c-0.72-5.06-1.57-10.1-2.5-15.13
		c-3.75-20.1-9.53-39.82-17.3-58.75C776.28,478.42,752.16,443.9,720.74,417.09"/>
	<path class="st0" d="M711.12,426.59c3.44,4.41,6.9,8.81,10.11,13.41c3.23,4.58,6.26,9.31,9.11,14.14
		c5.72,9.67,10.63,19.81,15,30.17c8.75,20.74,15.11,42.42,20.11,64.36c0.66,2.74,1.18,5.5,1.78,8.25c0.59,2.75,1.17,5.51,1.67,8.27
		l1.53,8.3c0.45,2.78,0.88,5.56,1.27,8.34l0.6,4.18l0.49,4.19l1.01,8.37c0.59,5.59,1.22,11.17,1.72,16.77
		c2.03,22.38,3.08,44.83,3.38,67.27c0.42,22.42-0.14,45.02-2.66,67.43c-2.5,22.41-6.74,44.61-12.39,66.39
		c-11.33,43.6-27.71,85.6-46.18,126.46l-2.57-4.89c6.88,1.22,13.89,1.61,20.86,1.16c6.97-0.47,13.88-1.77,20.59-3.82
		c13.42-4.09,26.01-11.07,37.25-19.63c11.16-8.59,20.75-19.32,29.08-30.86c4.19-5.77,7.99-11.83,11.52-18.04
		c1.8-3.09,3.43-6.27,5.09-9.44c0.82-1.59,1.57-3.22,2.36-4.82l1.17-2.42l1.09-2.45c3.01-6.5,5.55-13.21,8.02-19.94
		c2.32-6.79,4.55-13.61,6.35-20.56c3.73-13.86,6.49-28,8.26-42.27c3.58-28.54,3.58-57.52,0.84-86.21
		c-2.81-28.8-6.78-57.51-13.05-85.68c-3.17-14.07-6.94-28-11.48-41.65c-2.32-6.81-4.75-13.58-7.51-20.21
		c-1.32-3.34-2.8-6.61-4.24-9.9c-0.73-1.64-1.53-3.25-2.29-4.87c-0.77-1.62-1.55-3.24-2.38-4.83l-2.45-4.79
		c-0.85-1.58-1.72-3.15-2.54-4.74c-0.81-1.6-1.71-3.15-2.58-4.72c-0.87-1.57-1.7-3.16-2.63-4.7c-3.54-6.24-7.43-12.28-11.48-18.21
		c-8.15-11.84-17.31-23-27.18-33.54l-3.72-3.94l-3.8-3.86c-2.52-2.6-5.11-4.95-7.93-7.19c-5.6-4.45-11.67-8.38-17.99-11.86
		c-6.32-3.48-12.88-6.54-19.69-9.01c-6.8-2.42-13.86-4.36-21.13-4.75c7.28,0.04,14.49,1.64,21.46,3.74
		c6.98,2.15,13.77,4.91,20.33,8.14c6.56,3.24,12.9,6.97,18.87,11.29c2.97,2.15,5.88,4.57,8.53,7.07l4.02,3.72l3.94,3.81
		c10.45,10.23,20.21,21.21,29.04,32.96c4.38,5.89,8.62,11.91,12.51,18.16c3.92,6.22,7.58,12.63,10.75,19.26
		c6.49,13.2,12.04,26.84,16.7,40.74c4.63,13.92,8.47,28.07,11.68,42.34c6.36,28.57,10.35,57.53,13.19,86.54
		c2.78,29.14,2.78,58.62-0.87,87.76c-1.8,14.57-4.63,29.01-8.44,43.21c-1.85,7.11-4.13,14.11-6.51,21.07
		c-2.53,6.91-5.15,13.79-8.24,20.48l-1.13,2.52l-1.2,2.49c-0.81,1.66-1.59,3.33-2.43,4.97c-1.71,3.27-3.39,6.55-5.25,9.74
		c-3.65,6.41-7.58,12.68-11.92,18.67c-8.66,11.97-18.62,23.17-30.51,32.32c-5.94,4.56-12.19,8.57-18.77,12.11
		c-6.58,3.52-13.51,6.47-20.7,8.66c-7.19,2.19-14.64,3.6-22.17,4.1c-7.53,0.49-15.12,0.06-22.55-1.25c-1.9-0.34-3.17-2.15-2.84-4.05
		c0.05-0.29,0.14-0.56,0.25-0.82l0.01-0.02c18.37-40.61,34.6-82.28,45.78-125.32c5.58-21.51,9.75-43.36,12.21-65.41
		c2.47-22.06,3.03-44.27,2.62-66.56c-0.3-22.28-1.34-44.55-3.35-66.72c-0.5-5.54-1.12-11.07-1.71-16.6
		c-0.73-5.51-1.37-11.04-2.24-16.53c-1.51-11.02-3.16-22.01-5.14-32.95c-4.04-21.85-9.52-43.48-17.18-64.37l-1.45-3.91l-1.54-3.88
		c-1-2.6-2.14-5.13-3.22-7.7c-2.27-5.08-4.62-10.13-7.22-15.06c-2.59-4.93-5.35-9.78-8.32-14.51
		C717.56,435.74,714.34,431.17,711.12,426.59"/>
	<path class="st0" d="M698.43,398.7c-13.15-4.22-27.04-5.21-40.52-3.72c-13.52,1.49-26.67,5.21-39.36,10.05
		c-3.16,1.22-6.35,2.5-9.42,3.84c-3.03,1.33-5.98,2.83-8.9,4.41c-5.88,3.09-11.5,6.77-16.77,10.93
		c-10.6,8.27-20.05,18.06-28.6,28.57c-8.54,10.53-16.22,21.81-23.13,33.54c-6.94,11.72-13.17,23.89-18.83,36.32
		c-11.35,24.77-19.53,50.97-23.82,77.85c-4.3,26.86-4.71,54.33-1.27,81.33c1.73,13.5,4.32,26.89,7.83,40.05
		c1.71,6.59,3.7,13.11,5.83,19.58l1.64,4.84c0.52,1.56,1.15,3.16,1.75,4.78l3.62,9.67c4.82,12.91,9.59,25.84,14.25,38.82
		c4.65,12.98,9.23,25.99,13.5,39.15c2.13,6.59,4.19,13.19,5.95,20.01c0.43,1.72,0.84,3.45,1.19,5.25l0.96,5.07l1.93,10.14
		c1.28,6.77,2.55,13.57,3.62,20.45c0.53,3.44,1.01,6.91,1.35,10.45c0.17,1.77,0.3,3.56,0.34,5.4c0.03,1.85,0.01,3.73-0.33,5.83
		l-2.61-4c4.14,1,8.39,1.46,12.6,1.11c4.2-0.37,8.35-1.21,12.41-2.59c8.11-2.82,15.51-8,21.92-14.22
		c6.42-6.24,12.01-13.48,16.88-21.18c4.86-7.71,9.13-15.86,12.84-24.28c-2.95,8.71-6.41,17.29-10.72,25.5
		c-4.32,8.19-9.36,16.11-15.65,23.17c-6.26,7.02-13.8,13.28-22.84,17.21c-4.5,1.96-9.39,3.25-14.37,3.47
		c-4.97,0.28-9.96-0.21-14.74-1.38c-1.78-0.44-2.9-2.16-2.62-3.94l0.01-0.06c0.21-1.3,0.26-2.88,0.23-4.47
		c-0.04-1.6-0.16-3.25-0.31-4.9c-0.31-3.31-0.78-6.67-1.3-10.03c-1.05-6.72-2.31-13.47-3.58-20.22l-1.93-10.14l-0.96-5.08
		c-0.31-1.58-0.69-3.2-1.09-4.82c-1.68-6.52-3.73-13.06-5.83-19.57c-4.23-13.03-8.79-26-13.43-38.94
		c-4.65-12.94-9.4-25.84-14.22-38.73l-3.62-9.67c-0.6-1.61-1.22-3.22-1.8-4.92l-1.67-4.94c-2.17-6.6-4.2-13.26-5.95-20
		c-3.59-13.45-6.23-27.15-8.01-40.96c-3.53-27.63-3.11-55.79,1.3-83.31c4.38-27.53,12.78-54.37,24.36-79.65
		c5.75-12.63,12.09-25.01,19.17-36.98c7.06-11.98,14.92-23.54,23.72-34.4c8.81-10.83,18.6-20.99,29.73-29.67
		c1.37-1.11,2.82-2.12,4.23-3.19c1.45-1.01,2.88-2.05,4.37-3.01c2.94-1.97,5.95-3.86,9.09-5.54c3.13-1.7,6.42-3.13,9.79-4.35
		c3.33-1.21,6.61-2.28,9.95-3.32c13.32-4.1,27.12-7.12,41.1-7.57c6.98-0.23,13.98,0.09,20.84,1.28
		C685.37,394.15,692.07,396.07,698.43,398.7"/>
	<path class="st0" d="M705.87,426.48c-8,0.74-15.84,2.49-23.5,4.73c-7.67,2.2-15.19,4.91-22.53,7.99
		c-14.69,6.14-28.79,13.64-41.94,22.41c-13.41,8.33-26,18.04-36.58,29.59c-10.59,11.63-19.83,24.63-27.91,38.24
		c-16.14,27.26-27.59,57.36-33.02,88.55c-2.73,15.59-3.96,31.44-3.63,47.26c0.18,7.91,0.69,15.81,1.63,23.67
		c0.48,3.93,1,7.85,1.67,11.75c0.31,1.96,0.67,3.9,1.04,5.84l0.56,3l0.51,3.02c1.25,7.94,2.59,15.73,4.29,23.5
		c1.67,7.76,3.67,15.43,5.99,23c4.66,15.12,10.73,29.81,18.52,43.51c3.92,6.84,8.19,13.45,13.09,19.5
		c4.89,6.06,10.37,11.61,16.49,16.28c6.12,4.66,12.87,8.46,20.08,11.06c3.6,1.31,7.3,2.34,11.07,3.11c3.77,0.75,7.6,1.24,11.46,1.5
		c1.93,0.13,3.88,0.2,5.8,0.21c1.91,0,3.83-0.05,5.74-0.2c3.83-0.28,7.64-0.85,11.42-1.67c7.56-1.63,14.94-4.23,22.09-7.42
		c7.15-3.2,14.05-7.01,20.74-11.2c3.34-2.1,6.65-4.27,9.87-6.56c3.23-2.29,6.36-4.72,9.56-7.06c12.81-9.4,25.25-19.36,36.29-30.82
		c5.53-5.71,10.7-11.78,15.37-18.25c4.72-6.43,8.85-13.31,12.38-20.53c-1.44,3.75-3.05,7.44-4.83,11.06
		c-0.87,1.82-1.84,3.59-2.78,5.38c-1.01,1.75-1.96,3.54-3.04,5.24c-4.22,6.9-8.99,13.48-14.17,19.72
		c-5.18,6.25-10.79,12.13-16.64,17.76c-5.86,5.62-11.91,11.01-18.26,16.07c-3.17,2.53-6.51,4.86-9.84,7.18
		c-3.35,2.31-6.73,4.58-10.19,6.74c-6.91,4.33-14.08,8.3-21.59,11.66c-7.5,3.36-15.33,6.12-23.47,7.88
		c-4.07,0.88-8.2,1.5-12.38,1.81c-2.09,0.16-4.19,0.22-6.29,0.22c-2.09-0.01-4.15-0.09-6.23-0.22c-4.15-0.28-8.29-0.81-12.39-1.63
		c-4.1-0.83-8.14-1.96-12.08-3.39c-7.9-2.84-15.3-7.01-21.93-12.07c-6.64-5.07-12.51-11.03-17.7-17.45
		c-5.2-6.43-9.66-13.34-13.72-20.43c-8.09-14.21-14.34-29.38-19.13-44.91c-2.38-7.78-4.43-15.65-6.14-23.58
		c-1.73-7.92-3.11-15.95-4.35-23.86l-0.49-2.92l-0.54-2.92c-0.38-2-0.75-4-1.07-6.01c-0.68-4.01-1.22-8.04-1.72-12.08
		c-0.96-8.08-1.49-16.21-1.68-24.34c-0.34-16.27,0.92-32.58,3.73-48.6c5.59-32.08,17.34-62.96,33.9-90.92
		c8.31-13.97,17.76-27.28,28.78-39.4c5.57-6.04,11.61-11.65,18.01-16.73c3.17-2.58,6.49-4.97,9.79-7.38
		c3.34-2.34,6.66-4.72,10.2-6.74c7.03-4.13,14.3-7.79,21.7-11.14c7.4-3.34,14.94-6.34,22.62-8.89c7.68-2.56,15.49-4.73,23.4-6.37
		C689.79,427.62,697.83,426.54,705.87,426.48"/>
	<path class="st0" d="M693.35,410.04c-9.86-0.79-19.64,0.15-29.16,2.15c-2.37,0.56-4.76,1-7.09,1.68c-1.17,0.32-2.35,0.62-3.51,0.95
		l-3.47,1.09l-1.74,0.54l-1.72,0.6l-3.43,1.19c-2.27,0.84-4.52,1.75-6.77,2.64c-17.86,7.56-34.43,17.9-49.34,30.26
		c-1.83,1.58-3.74,3.07-5.52,4.72c-1.78,1.64-3.6,3.24-5.36,4.91l-5.21,5.07l-5.02,5.26c-6.61,7.11-12.74,14.66-18.57,22.46
		l-4.24,5.95c-1.39,2-2.68,4.08-4.06,6.09c-0.67,1.02-1.38,2.02-2.02,3.06l-1.92,3.12l-1.92,3.13l-0.96,1.57l-0.91,1.6l-3.67,6.37
		c-1.21,2.14-2.29,4.34-3.48,6.49l-1.75,3.25c-0.57,1.09-1.09,2.21-1.64,3.31c-1.11,2.2-2.2,4.41-3.34,6.61
		c1.59-4.67,3.06-9.41,4.96-13.98c0.91-2.3,1.81-4.61,2.81-6.88l3.07-6.78c4.33-8.93,9.07-17.71,14.58-26.02
		c10.94-16.66,24.22-31.95,39.71-44.7c15.44-12.77,32.95-23.19,51.84-29.94c9.43-3.39,19.23-5.75,29.15-7.01
		C673.56,407.72,683.71,407.71,693.35,410.04"/>
	<path class="st0" d="M577.52,704.96c-2.81,0.61-5.89-0.14-8.39-1.76c-1.26-0.81-2.39-1.87-3.29-3.14
		c-0.45-0.64-0.83-1.33-1.12-2.07c-0.3-0.77-0.48-1.47-0.66-2.19c-0.37-1.44-0.57-2.96-0.6-4.5c-0.01-1.53,0.15-3.06,0.43-4.53
		c0.28-1.48,0.64-2.88,1.09-4.3c0.47-1.48,1.1-2.88,1.79-4.19c2.83-5.22,6.04-9.77,8.92-14.62c1.46-2.41,2.87-4.81,4.26-7.28
		c1.4-2.48,2.8-4.91,4.11-7.37c2.65-4.9,4.96-9.9,6.67-15.11c1.71-5.21,2.82-10.61,3.42-16.11c0.33-2.75,0.49-5.53,0.54-8.31
		c0.08-2.79,0.05-5.59-0.07-8.39c-0.22-5.62-0.8-11.25-1.43-16.91c3.55,10.82,5.58,22.29,5.1,33.93
		c-0.26,5.81-1.18,11.65-2.91,17.26c-1.68,5.63-4.17,10.97-6.97,16.02c-1.41,2.52-2.88,4.98-4.36,7.39
		c-1.48,2.42-2.97,4.89-4.54,7.28c-1.57,2.4-3.17,4.76-4.79,7.1c-1.62,2.33-3.26,4.62-4.63,6.95c-0.69,1.16-1.28,2.34-1.73,3.54
		c-0.47,1.26-0.93,2.58-1.31,3.86c-0.37,1.29-0.63,2.58-0.74,3.88c-0.1,1.3-0.04,2.61,0.14,3.96c0.09,0.67,0.19,1.37,0.34,1.94
		c0.16,0.6,0.39,1.2,0.7,1.76c0.61,1.14,1.47,2.16,2.48,3.05C571.97,703.85,574.67,705.02,577.52,704.96"/>
	<path class="st0" d="M572.83,695.96c2.97-0.28,6.06-0.15,9.07,0.84c1.49,0.5,2.92,1.24,4.23,2.09c1.32,0.84,2.48,1.8,3.66,2.62
		c1.18,0.83,2.34,1.57,3.53,2.1c1.21,0.54,2.48,0.94,3.79,1.2c2.63,0.52,5.37,0.45,7.97-0.1c1.3-0.29,2.56-0.71,3.74-1.29
		c1.06-0.49,2.26-1.41,3.53-2.25c2.54-1.69,5.31-3.19,8.24-4.2c2.91-1.05,5.96-1.63,8.98-1.89c3.03-0.21,6.05-0.06,9.01,0.37
		c-2.98,0.35-5.9,0.73-8.74,1.4c-0.7,0.19-1.4,0.39-2.1,0.56c-0.7,0.18-1.38,0.44-2.06,0.65c-1.36,0.48-2.68,1.02-3.97,1.61
		c-2.59,1.2-4.94,2.76-7.26,4.48c-1.18,0.84-2.27,1.83-3.86,2.68c-1.46,0.78-3.01,1.38-4.61,1.74c-3.19,0.75-6.52,0.74-9.69-0.02
		c-1.58-0.4-3.13-0.97-4.57-1.77c-1.47-0.8-2.73-1.8-3.87-2.82c-2.31-2.04-4.2-4.06-6.72-5.34
		C578.65,697.24,575.75,696.57,572.83,695.96"/>
	<path class="st0" d="M634.91,703.26c4.6-1.09,9.07-2.31,12.98-4.25c1.94-0.96,3.71-2.13,5.05-3.52c1.35-1.39,2.22-3,2.57-4.79
		c0.81-4.03,0.37-8.08-1.72-11.64c-2.07-3.59-5.52-6.6-9.5-9.19c2.4,0.22,4.72,1,6.94,2.11c2.2,1.13,4.25,2.71,5.89,4.74
		c1.65,2.02,2.86,4.51,3.37,7.15c0.53,2.64,0.43,5.31-0.13,7.87c-0.57,2.78-2.21,5.36-4.27,7.12c-2.06,1.8-4.45,2.91-6.83,3.66
		c-2.39,0.74-4.81,1.11-7.22,1.21C639.65,703.82,637.25,703.72,634.91,703.26"/>
	<path class="st0" d="M728.7,579.35c-11.9-8.96-25.73-14.82-40.06-17.77c-1.8-0.35-3.59-0.7-5.41-0.95
		c-1.8-0.31-3.62-0.51-5.44-0.73c-1.82-0.18-3.64-0.35-5.47-0.45l-5.53-0.25c-3.59-0.13-7.2-0.04-10.36,0.96
		c-1.57,0.5-2.97,1.25-3.98,2.28c-1.01,1-1.67,2.37-1.85,3.76c-0.19,1.38,0.13,2.78,0.91,4.01c0.78,1.24,1.79,2.01,3.17,2.33
		c1.39,0.33,3.08,0.24,4.81-0.01c1.74-0.24,3.55-0.67,5.43-0.94c7.45-1.24,15.03-1.79,22.56-1.38c15.06,0.66,29.95,4.79,42.91,12.14
		c-13.69-5.84-28.34-8.94-42.99-9.02c-3.66-0.06-7.32,0.18-10.96,0.44c-3.64,0.38-7.27,0.81-10.85,1.54
		c-1.79,0.31-3.6,0.74-5.54,1.03c-1.93,0.28-4.02,0.5-6.27,0c-1.11-0.26-2.26-0.73-3.23-1.45c-0.98-0.71-1.78-1.62-2.38-2.57
		c-1.24-1.9-1.85-4.32-1.53-6.63c0.31-2.3,1.39-4.44,3.02-6.04c1.63-1.61,3.63-2.59,5.6-3.2c3.97-1.2,7.93-1.24,11.73-1.02l5.6,0.4
		c1.88,0.15,3.76,0.37,5.63,0.6c3.74,0.5,7.45,1.2,11.11,2.11C703.94,562.13,717.85,569.09,728.7,579.35"/>
	<path class="st0" d="M670.37,747.32c-2.17-0.86-4.41-1.49-6.67-2.03c-2.25-0.56-4.52-1.03-6.79-1.46
		c-4.56-0.83-9.14-1.53-13.73-2.06c-9.09-1.57-18.3-2.91-27.43-3.31c-2.26-0.08-4.57-0.11-6.64,0.13c-0.49,0.07-0.98,0.16-1.3,0.27
		c-0.13,0.02-0.08,0.05-0.12,0.05c-0.03,0.02-0.02-0.03-0.19,0.09l-0.79,0.52c-1.07,0.67-2.25,1.32-3.63,1.74
		c-1.38,0.42-2.92,0.58-4.52,0.18c-0.79-0.2-1.51-0.54-2.11-0.89l-1.49-0.92c-0.42-0.24-0.77-0.4-1.12-0.5l-0.26-0.06
		c-0.05,0-0.08-0.01-0.16-0.01c-0.14-0.01-0.34,0.01-0.54,0.03c-0.87,0.11-1.94,0.42-2.98,0.77c-2.09,0.72-4.32,1.6-6.47,2.4
		c-2.16,0.83-4.33,1.68-6.55,2.5c-2.22,0.81-4.5,1.57-6.85,2.16c-2.35,0.59-4.77,1.01-7.21,1.21l1.34-3.32
		c6.38,7.16,14.44,12.86,23.26,16.71c8.83,3.85,18.46,5.74,28.09,5.39c9.78-0.33,19.57-1.39,28.75-4.4
		c4.67-1.2,9.25-2.84,13.57-5.09c4.32-2.24,8.38-5.09,12.02-8.48l-2.4,2.87l-2.61,2.7l-2.83,2.5l-3.01,2.3
		c-4.14,2.92-8.71,5.28-13.48,7.09c-9.75,3.02-19.86,4.2-29.86,4.51c-10.19,0.38-20.49-1.64-29.82-5.72
		c-9.34-4.08-17.84-10.08-24.66-17.73c-0.73-0.82-0.66-2.08,0.16-2.81c0.34-0.3,0.75-0.47,1.17-0.5h0.01
		c4.41-0.34,8.71-1.56,13.01-3.14c2.15-0.79,4.31-1.64,6.5-2.47c2.22-0.83,4.31-1.66,6.62-2.46c1.17-0.38,2.34-0.76,3.78-0.95
		c0.37-0.04,0.76-0.07,1.2-0.05c0.22,0.01,0.48,0.05,0.71,0.08l0.59,0.14c0.77,0.21,1.48,0.55,2.07,0.9
		c1.19,0.72,1.9,1.24,2.58,1.38c0.67,0.17,1.53,0.13,2.38-0.14c0.85-0.26,1.75-0.72,2.64-1.29l0.67-0.44
		c0.06-0.05,0.35-0.21,0.58-0.33c0.22-0.11,0.51-0.26,0.67-0.29c0.78-0.26,1.45-0.36,2.11-0.45c2.55-0.29,4.92-0.24,7.31-0.16
		c4.75,0.19,9.42,0.67,14.08,1.24c2.33,0.3,4.65,0.62,6.97,0.98c2.31,0.4,4.66,0.59,6.93,1.21c4.56,1.14,9.1,2.39,13.56,3.87
		C661.89,743.28,666.34,744.93,670.37,747.32"/>
	<path class="st0" d="M670.46,748.29c-8.7,1.94-17.5,3.19-26.32,4.15c-8.82,0.99-17.67,1.61-26.53,2
		c-8.9,0.38-17.89,0.25-26.79-0.89c-8.89-1.1-17.71-3.19-25.89-6.76c8.77,1.57,17.48,2.51,26.21,2.87
		c8.74,0.33,17.48,0.17,26.25-0.21c8.82-0.37,17.64-0.69,26.48-0.88C652.71,748.34,661.55,748.17,670.46,748.29"/>
	<path class="st0" d="M539.96,567.48c3.29-1.8,6.84-3.12,10.52-4.08c1.86-0.44,3.76-0.76,5.72-0.87c1.98-0.11,3.99,0.1,5.9,0.52
		c3.86,0.76,7.39,2.59,10.64,3.49c0.8,0.22,1.57,0.38,2.25,0.39c0.66,0.02,1.32-0.14,1.63-0.34c0.32-0.2,0.48-0.44,0.57-0.92
		c0.08-0.48,0.01-1.12-0.2-1.76c-0.41-1.3-1.34-2.57-2.52-3.43c-0.6-0.44-1.22-0.77-1.96-1.02c-0.8-0.28-1.63-0.51-2.46-0.73
		c-3.37-0.84-6.93-0.95-10.45-0.58c-3.51,0.43-7,1.39-10.3,2.9c-3.33,1.46-6.45,3.46-9.47,5.66c2.43-2.85,5.32-5.35,8.56-7.38
		c3.26-2,6.9-3.49,10.73-4.24c3.83-0.79,7.83-0.78,11.74-0.04c0.98,0.18,1.95,0.44,2.91,0.76c1.02,0.33,2.08,0.85,2.99,1.5
		c1.84,1.31,3.28,3.13,4.04,5.36c0.37,1.12,0.54,2.38,0.29,3.73c-0.13,0.67-0.39,1.38-0.81,2.01c-0.42,0.63-1.01,1.17-1.65,1.54
		c-1.31,0.74-2.56,0.87-3.75,0.84c-1.18-0.05-2.25-0.29-3.22-0.61c-1.95-0.65-3.64-1.46-5.32-2.18c-1.68-0.72-3.33-1.39-5.01-1.91
		c-1.68-0.53-3.39-0.82-5.13-0.92c-1.76-0.11-3.56-0.02-5.37,0.18C547.2,565.73,543.57,566.52,539.96,567.48"/>
	<path class="st0" d="M653.17,612.22c0,0,7.69-19.89,33.85-12.26c10.97,3.2,19.11,11.22,26.15,12.26
		c-9.65,0.78-20.67-1.5-29.28-3.46c-7.45-1.69-15.26-2.35-23.67,1.56C655.26,612.15,652.13,614.57,653.17,612.22"/>
	<path class="st0" d="M577.87,611.92c0,0-4.65-17.51-26.5-11.05c-10.92,3.5-14.56,9.97-20.02,11.05c7.48,0.81,16.83-3.06,22.7-4.13
		c5.87-1.08,11.7-1.35,18.98,2.15C576.86,611.82,578.68,614.34,577.87,611.92"/>
</g>
<g>
	<defs>
		<rect id="SVGID_3_" width="1024" height="1024"/>
	</defs>
	<clipPath id="SVGID_4_">
		<use xlink:href="#SVGID_3_"  style="overflow:visible;"/>
	</clipPath>
</g>
<g>
	<defs>
		<rect id="SVGID_5_" width="1024" height="1024"/>
	</defs>
	<clipPath id="SVGID_6_">
		<use xlink:href="#SVGID_5_"  style="overflow:visible;"/>
	</clipPath>
	<path class="st1" d="M162.74,305.96c3.78-0.31,7.29-0.58,10.88-0.71c3.56-0.13,7.13-0.14,10.7,0.01c3.57,0.15,7.16,0.45,10.75,1.01
		c3.58,0.58,7.2,1.33,10.72,2.82c-3.67,1.01-7.25,1.55-10.87,1.89c-3.61,0.32-7.22,0.43-10.85,0.27c-3.62-0.16-7.26-0.56-10.87-1.32
		C169.62,309.14,165.94,308.07,162.74,305.96"/>
	<path class="st1" d="M196.39,216.35c6.32,0.03,12.46-0.08,18.65-0.09c6.18-0.01,12.36,0.05,18.55,0.25
		c6.19,0.2,12.39,0.55,18.59,1.15c6.2,0.62,12.42,1.42,18.56,3c-6.26,0.92-12.46,1.42-18.68,1.72c-6.22,0.28-12.44,0.35-18.67,0.13
		c-6.23-0.21-12.46-0.68-18.68-1.56C208.52,220.03,202.25,218.82,196.39,216.35"/>
	<path class="st1" d="M449.96,144.35c6.32,0.03,12.46-0.08,18.65-0.09c6.18-0.01,12.36,0.05,18.55,0.25
		c6.19,0.2,12.39,0.55,18.59,1.15c6.2,0.62,12.42,1.42,18.56,3c-6.27,0.92-12.46,1.42-18.68,1.72c-6.22,0.28-12.44,0.35-18.67,0.13
		c-6.23-0.21-12.46-0.68-18.68-1.56C462.09,148.03,455.81,146.82,449.96,144.35"/>
	<path class="st1" d="M176.83,293.43c3.04-0.46,5.81-0.64,8.6-0.76c2.78-0.1,5.54-0.09,8.32,0.07c2.78,0.16,5.57,0.47,8.38,1.03
		c2.8,0.58,5.63,1.35,8.36,2.8c-2.9,1.05-5.71,1.57-8.55,1.92c-2.83,0.32-5.68,0.42-8.53,0.25c-2.85-0.17-5.72-0.6-8.55-1.39
		C182.04,296.52,179.23,295.38,176.83,293.43"/>
	<path class="st1" d="M226.13,201.48c4.37-0.18,8.5-0.19,12.66-0.17c4.15,0.03,8.28,0.12,12.44,0.34c4.15,0.22,8.32,0.58,12.5,1.18
		c4.18,0.62,8.37,1.44,12.48,2.96c-4.27,0.97-8.45,1.45-12.66,1.75c-4.2,0.28-8.42,0.33-12.65,0.1c-4.22-0.23-8.46-0.74-12.65-1.66
		C234.08,205.03,229.9,203.71,226.13,201.48"/>
	<path class="st1" d="M524.3,269.57c2.85-0.56,5.52-0.6,8.08-0.65l7.51,0.01c2.53,0.03,5.22,0.19,7.88,0.68
		c2.66,0.51,5.29,1.29,7.83,2.7c-2.7,1.09-5.32,1.61-7.92,2.02c-2.6,0.38-5.17,0.64-7.89,0.6c-2.72-0.02-5.57-0.47-8.18-1.36
		C529,272.65,526.55,271.41,524.3,269.57"/>
	<path class="st1" d="M527.43,282.87c2.85-0.56,5.52-0.6,8.08-0.65l7.51,0.01c2.53,0.03,5.22,0.19,7.88,0.68
		c2.66,0.51,5.29,1.29,7.83,2.7c-2.71,1.09-5.32,1.61-7.92,2.02c-2.6,0.38-5.17,0.64-7.89,0.6c-2.72-0.02-5.57-0.47-8.18-1.36
		C532.13,285.95,529.68,284.71,527.43,282.87"/>
	<path class="st1" d="M496.91,220.26c4.37-0.18,8.5-0.19,12.66-0.17c4.15,0.03,8.28,0.12,12.44,0.34c4.15,0.22,8.32,0.58,12.5,1.18
		c4.18,0.62,8.38,1.44,12.48,2.96c-4.27,0.97-8.45,1.45-12.66,1.75c-4.21,0.28-8.42,0.33-12.65,0.1c-4.22-0.23-8.46-0.74-12.65-1.66
		C504.86,223.81,500.69,222.5,496.91,220.26"/>
	<path class="st1" d="M457,128.7c4.37-0.18,8.5-0.19,12.66-0.17c4.15,0.03,8.28,0.12,12.44,0.34c4.15,0.22,8.32,0.58,12.5,1.18
		c4.18,0.62,8.37,1.44,12.48,2.96c-4.27,0.97-8.45,1.45-12.66,1.75c-4.2,0.28-8.42,0.33-12.65,0.1c-4.22-0.23-8.46-0.74-12.65-1.66
		C464.95,132.25,460.77,130.93,457,128.7"/>
	<path class="st1" d="M251.96,188.57c2.7-0.65,5.15-0.95,7.62-1.16c2.46-0.18,4.89-0.23,7.35-0.11c2.45,0.12,4.92,0.4,7.4,0.93
		c2.47,0.55,4.96,1.29,7.38,2.69c-2.56,1.1-5.04,1.65-7.54,2.03c-2.5,0.35-5.01,0.47-7.53,0.34c-2.52-0.13-5.05-0.5-7.55-1.2
		C256.6,191.36,254.11,190.34,251.96,188.57"/>
	<path class="st1" d="M514.91,212.04c2.7-0.65,5.15-0.95,7.61-1.16c2.46-0.18,4.89-0.23,7.35-0.11c2.45,0.12,4.92,0.4,7.4,0.93
		c2.47,0.55,4.97,1.29,7.38,2.69c-2.56,1.1-5.04,1.65-7.54,2.03c-2.5,0.35-5.01,0.47-7.53,0.34c-2.52-0.13-5.05-0.5-7.54-1.2
		C519.55,214.83,517.07,213.82,514.91,212.04"/>
	<path class="st1" d="M435.88,175.54c3.88-0.87,7.62-1.44,11.42-1.81c3.79-0.36,7.59-0.51,11.4-0.42c3.82,0.09,7.65,0.43,11.46,1.14
		c0.95,0.17,1.91,0.38,2.86,0.62l1.42,0.37l1.41,0.45c0.94,0.3,1.87,0.66,2.77,1.07c0.91,0.37,1.79,0.91,2.63,1.43
		c-3.96,0.26-7.65,0.59-11.42,0.76c-3.75,0.18-7.51,0.26-11.28,0.15c-3.77-0.09-7.56-0.35-11.36-0.88
		C443.41,177.87,439.55,177.14,435.88,175.54"/>
</g>
<g>
	<path d="M850,697c0.31,6.19,0.28,12.39,0.1,18.59c-0.18,6.2-0.51,12.4-0.99,18.58c-1.01,12.37-2.6,24.71-4.85,36.93
		c-2.21,12.24-5.16,24.34-8.7,36.28c-1.77,5.97-3.8,11.86-5.96,17.71c-2.17,5.84-4.51,11.62-7.09,17.3
		c-2.59,5.67-5.37,11.26-8.38,16.74c-3.03,5.46-6.24,10.82-9.7,16.02c-7,10.34-14.82,20.17-23.73,28.93
		c-4.41,4.42-9.1,8.56-14,12.43c-4.88,3.89-10.02,7.45-15.31,10.73c-10.63,6.5-21.97,11.77-33.74,15.64
		c23.02-9.19,43.83-23.27,60.82-40.99c8.49-8.86,16.11-18.54,22.8-28.83c3.33-5.15,6.49-10.42,9.43-15.8
		c2.93-5.4,5.63-10.92,8.16-16.51c10.17-22.39,17.27-46.12,22.34-70.24c2.5-12.08,4.49-24.27,5.96-36.53
		C848.72,721.72,849.68,709.38,850,697z"/>
</g>
<g>
	<path d="M769,506c1.38,2.82,2.62,5.7,3.85,8.59c1.19,2.91,2.32,5.84,3.42,8.78c2.2,5.89,4.19,11.85,6.07,17.85
		c3.68,12.02,6.8,24.22,9.34,36.55c5.1,24.65,8.05,49.74,9.1,74.89c0.44,12.58,0.58,25.18,0.06,37.75
		c-0.15,6.29-0.67,12.57-1.03,18.85c-0.23,3.14-0.54,6.27-0.82,9.4c-0.3,3.13-0.56,6.26-0.98,9.38l-1.14,9.36
		c-0.35,3.12-0.89,6.22-1.35,9.33c-0.5,3.1-0.92,6.22-1.48,9.31l-1.71,9.27l-0.88,4.63l-1.01,4.6l-2.02,9.2
		c-1.38,6.12-3.03,12.19-4.59,18.26l1.77-9.24l0.92-4.61c0.32-1.53,0.61-3.07,0.86-4.62l1.58-9.26l0.78-4.63l0.66-4.65l1.37-9.29
		c0.45-3.1,0.76-6.21,1.15-9.32c0.34-3.11,0.81-6.2,1.08-9.32l0.9-9.34c0.34-3.11,0.52-6.23,0.74-9.35
		c0.21-3.12,0.48-6.23,0.66-9.35c0.26-6.24,0.68-12.48,0.74-18.73c0.4-12.49,0.23-24.99-0.27-37.47
		c-0.41-12.49-1.45-24.95-2.79-37.36c-1.32-12.42-3.16-24.79-5.37-37.09c-2.26-12.29-4.95-24.51-8.16-36.61
		C777.31,529.65,773.6,517.67,769,506z"/>
</g>
<g>
	<path d="M838,611c-2.44-14.81-5.77-29.41-9.67-43.82c-2.01-7.19-4.1-14.36-6.47-21.43c-2.31-7.09-4.86-14.1-7.64-21.01
		c-1.34-3.48-2.81-6.9-4.26-10.33c-1.53-3.39-3.03-6.8-4.68-10.14c-1.56-3.38-3.29-6.68-4.99-9.99c-0.86-1.65-1.79-3.26-2.68-4.9
		l-1.33-2.46l-1.41-2.41c-3.69-6.47-7.78-12.71-12.06-18.83l-3.27-4.55c-1.1-1.51-2.3-2.94-3.43-4.44l-1.72-2.22
		c-0.58-0.74-1.2-1.43-1.8-2.16L769,448c2.67,2.63,5.46,5.17,7.95,7.99c1.27,1.39,2.57,2.75,3.79,4.19l3.63,4.33
		c4.69,5.89,9.19,11.98,13.16,18.39c8.12,12.74,14.8,26.36,20.39,40.37c2.74,7.03,5.31,14.13,7.53,21.33
		c2.19,7.21,4.22,14.47,5.88,21.82c1.71,7.33,3.12,14.73,4.29,22.16C836.74,596.02,837.66,603.49,838,611z"/>
</g>
<path class="st2" d="M779,831"/>
<g>
	<path d="M507,574c-3.88,14.17-6.05,28.73-7.25,43.31c-0.62,7.29-0.98,14.61-1.05,21.92c-0.06,7.31-0.01,14.63,0.43,21.92
		c0.78,14.59,2.53,29.13,5.17,43.49c2.68,14.36,6.24,28.54,10.72,42.44c0.56,1.74,1.08,3.49,1.67,5.21l1.8,5.17
		c1.18,3.45,2.46,6.89,3.72,10.34l7.62,20.66c5.03,13.79,10.21,27.54,15.09,41.41c2.43,6.94,4.86,13.89,7.04,20.93
		c2.18,7.04,4.17,14.17,5.52,21.45c1.27,7.29,1.78,14.81,0.67,22.16c-0.54,3.67-1.45,7.26-2.59,10.77
		c-1.16,3.5-2.54,6.91-4.02,10.27c1.29-3.44,2.47-6.92,3.44-10.45c0.98-3.52,1.74-7.11,2.12-10.73c0.8-7.25-0.01-14.55-1.54-21.65
		c-1.56-7.11-3.71-14.1-6.09-21.02c-2.37-6.92-4.89-13.81-7.48-20.67l-15.7-41.15l-7.74-20.63c-1.28-3.44-2.57-6.87-3.78-10.37
		l-1.85-5.22c-0.61-1.74-1.14-3.51-1.71-5.27c-4.45-14.08-8.05-28.44-10.63-42.99c-1.2-7.29-2.32-14.59-3.04-21.94
		c-0.43-3.67-0.69-7.35-0.98-11.03c-0.14-1.84-0.2-3.69-0.31-5.53c-0.1-1.84-0.2-3.68-0.23-5.53c-0.49-14.75,0.06-29.53,1.78-44.17
		c0.89-7.31,2.03-14.6,3.52-21.81C502.82,588.11,504.57,580.94,507,574z"/>
</g>
<g>
	<path d="M779,819.94c-0.95,11.46-3.39,22.78-6.61,33.85c-1.59,5.55-3.5,11-5.55,16.4c-2.11,5.38-4.48,10.66-7.03,15.85
		c-5.22,10.32-11.4,20.22-18.85,29.11c-3.65,4.5-7.78,8.6-12.03,12.5c-4.32,3.84-8.97,7.3-13.83,10.34
		c4.34-3.77,8.59-7.57,12.46-11.75c1.01-1,1.91-2.1,2.88-3.15c0.95-1.06,1.91-2.1,2.78-3.22l2.71-3.28l2.58-3.38
		c3.35-4.57,6.63-9.19,9.5-14.08c2.94-4.84,5.74-9.77,8.22-14.88c5.12-10.12,9.42-20.67,13.2-31.41
		C773.16,842.08,776.42,831.13,779,819.94z"/>
</g>
</svg>
