<?xml version="1.0" encoding="utf-8"?>
<!-- Generator: Adobe Illustrator 23.1.0, SVG Export Plug-In . SVG Version: 6.00 Build 0)  -->
<svg version="1.1" id="Layer_1" xmlns="http://www.w3.org/2000/svg" xmlns:xlink="http://www.w3.org/1999/xlink" x="0px" y="0px"
	 viewBox="0 0 272.45 189.72" style="enable-background:new 0 0 272.45 189.72;" xml:space="preserve">
<style type="text/css">
	.st0{fill:#324148;}
</style>
<g>
	<g>
		<g>
			<path class="st0" d="M168.12,17.36c0.08,7.28-5.92,12.06-12.44,14.11c-19.49,5.92-52.33-16.53-74.7-18.58
				c-10.84-1.06-21.77,2.2-27.3,12.36c-0.46,0.91-0.83,1.75-1.21,2.73c0.76,0,1.52,0,2.27,0C70.29,28.5,76.21,41.24,72.87,55.2
				c3.03-4.32,6.83-4.47,10.77-3.26c10.01-14.71,20.17-27.6,32.31-27.3c0.45,0,0.45,0.38,0.08,0.38
				c-10.47,0.53-20.1,13.42-29.96,27.83c1.52,0.61,3.11,1.37,4.63,2.12c1.52-1.21,3.41-2.05,5.31-2.28c7.51-0.61,6.75,6.45,0,4.85
				c-1.67-0.46-3.41-1.21-5.23-2.12c-0.91,0.83-1.74,1.82-2.35,2.88c-0.15,0.3-0.53,0.08-0.38-0.15c0.61-1.14,1.44-2.05,2.35-2.88
				c-1.52-0.76-3.03-1.52-4.55-2.12C74.77,69.38,63.47,87.43,50.35,92.21c-4.47,1.59-11.6,2.05-15.17-1.67
				c-4.02,2.12-8.11,3.11-12.13,3.11c-29.35,0-9.33-64.84,28.97-65.67c0.38-0.99,0.83-1.97,1.37-2.88
				c5.61-10.46,16.53-14.48,27.83-13.95c23.28,0.99,55.82,24.04,74.4,19.11c6.29-1.67,12.13-6.07,12.13-12.97
				c0-4.25-2.43-8.19-7.21-9.56c-0.23-0.08-0.08-0.46,0.15-0.38C165.62,8.79,168.12,12.88,168.12,17.36z M52.24,28.5
				c-1.67,4.55-1.97,9.55-0.3,14.18c0.08,0.23-0.23,0.38-0.38,0.08c-1.74-4.55-1.44-9.63,0.23-14.26
				c-35.42,2.88-54.6,64.76-28.74,64.69c3.64,0,7.51-1.36,11.22-3.64C26.16,78.1,42.16,44.5,55.58,45.41
				c4.4,0.3,6.22,3.64,6.14,7.74C61.5,63.92,49.36,82.8,35.56,90.39c3.56,3.56,10.09,2.81,14.33,0.99
				c12.29-5.23,22.75-23.13,33.52-39.13c-4.02-1.21-7.89-0.83-10.84,4.17c-0.08,0.23-0.46,0.15-0.46-0.08
				c3.94-14.18-1.67-27.38-17.37-27.98C53.91,28.35,53.08,28.43,52.24,28.5z M59.9,53.38c0.61-3.87,0.08-7.28-4.32-7.58
				c-13.04-0.99-28.89,32.38-21.01,43.53C47.01,81.44,58.39,63.54,59.9,53.38z M91.07,55.2c1.74,0.83,3.41,1.52,5.08,1.97
				c6.14,1.44,6.75-4.63-0.08-4.02C94.26,53.3,92.51,54.06,91.07,55.2z"/>
			<path class="st0" d="M98.2,64.3c-3.49,4.78-10.92,13.5-15.47,12.67c-4.55-0.91,0.99-14.26,7.36-16.3
				c2.05-0.61,4.47-0.08,4.17,1.82c-0.46,3.41-5.99,6.22-9.1,6.22c-2.2,3.87-3.56,7.74-2.27,7.89C87.2,77.11,94.26,69,97.74,64.3
				H98.2z M85.38,68.32c2.88-0.08,7.28-2.43,8.34-5.31c0.68-1.97-1.29-2.73-3.26-1.21C88.27,63.46,86.22,66.95,85.38,68.32z"/>
			<path class="st0" d="M110.71,64.3c-3.49,4.78-11,13.5-15.47,12.67c-5.31-1.06,2.58-18.13,10.09-16.38
				c2.12,0.46,1.67,2.96,0.76,4.93c-1.06,2.35-4.17,2.65-1.52-1.06c1.14-1.44,2.12-3.19,0.61-3.49
				c-3.72-0.91-12.44,15.24-9.78,15.62c4.32,0.53,11.3-7.58,14.79-12.29H110.71z"/>
			<path class="st0" d="M130.28,64.3c-1.9,2.58-5.23,6.67-8.27,9.48c-2.12,2.05-4.1,3.41-5.38,3.19c-3.03-0.61-0.91-5.76,0.38-8.27
				c-1.52,1.82-3.11,3.64-4.7,5.08c-2.12,2.05-4.1,3.41-5.38,3.19c-3.64-0.68-0.08-7.66,0.91-9.25c1.82-2.81,3.94-5.54,5.08-6.98
				c0.3-0.38,0.53-0.68,0.68-0.91c0.3,1.06,1.37,2.2,1.21,2.43c-1.14,1.36-3.19,4.02-4.93,6.75c-0.53,0.83-4.85,7.28-2.81,7.58
				c1.14,0.15,2.96-1.21,4.93-3.11c2.35-2.12,4.78-5.08,6.67-7.43c1.52-2.2,3.03-4.17,4.02-5.31c0.3-0.38,0.53-0.68,0.68-0.91
				c0.23,1.06,1.36,2.2,1.21,2.43c-1.14,1.36-3.26,4.02-5,6.75c-0.53,0.83-4.78,7.28-2.73,7.58c1.06,0.15,2.88-1.21,4.93-3.11
				c2.88-2.73,6.07-6.6,7.96-9.18H130.28z"/>
			<path class="st0" d="M147.57,64.3c-1.9,2.58-5.23,6.67-8.19,9.48c-2.12,2.05-4.17,3.49-5.38,3.19
				c-6.67-1.59,10.47-16.68,7.51-16.76c-1.14,0-2.96,1.21-4.93,3.11c-2.88,2.73-9.86,10.84-11.83,13.35
				c-0.15,0.3-0.3,0.61-0.46,0.76c-0.38-0.99-1.59-1.97-1.44-2.2c2.88-4.7,5.84-9.33,8.72-13.95c0.23-0.38,0.46-0.68,0.53-0.99
				c0.38,1.06,1.67,2.05,1.52,2.27c-2.35,3.79-4.78,7.58-7.13,11.38c2.88-3.49,7.51-8.8,9.78-10.92c2.12-2.05,4.1-3.41,5.38-3.18
				c6.52,1.21-10.31,16.38-7.51,16.76c1.14,0.15,2.96-1.21,4.93-3.11c2.88-2.73,6.14-6.6,8.04-9.18H147.57z"/>
			<path class="st0" d="M157.12,69c-0.53,0.83-4.78,7.28-2.81,7.58c1.14,0.15,2.96-1.21,5-3.11c2.88-2.73,6.07-6.67,7.96-9.18h0.46
				c-1.82,2.5-5.16,6.67-8.19,9.48c-2.12,2.05-4.09,3.41-5.38,3.19c-2.96-0.61-1.14-5.38,0.23-7.96c-3.72,4.02-7.89,7.81-9.48,7.96
				c-5.16,0.61,0.83-17.82,9.78-16.38c0.99,0.15,1.74,0.68,2.12,1.67c0.38,0.76,0.38,1.67,0.23,2.5
				c6.98-10.46,16.08-21.61,23.51-31.02c0.3-0.38,0.53-0.68,0.68-0.91c0.3,1.14,1.37,2.2,1.21,2.43C175.02,44.66,164.1,58,157.12,69
				z M156.44,62.4c-0.3-0.83-0.99-1.29-1.82-1.44c-4.1-0.76-12.82,16.15-9.63,15.62c1.67-0.3,6.52-4.85,10.31-9.18
				c0.3-0.46,0.53-0.91,0.83-1.29C156.67,64.9,156.97,63.54,156.44,62.4z"/>
		</g>
		<g>
			<path class="st0" d="M156.55,91.52c-26.54,0.3-32.38,28.74-46.41,34.28c-2.5,7.81-10.16,16.46-16.68,21.54
				c-6.83,5.38-15.02,9.33-22.98,9.48c-6.98,0.08-13.57-2.65-15.7-9.93c-25.48-19.72,6.37-65.83,43.61-44.14
				c0.76,0.46,1.59,0.99,2.35,1.59c0.76-1.59,1.52-3.18,2.35-4.55c8.49-14.56,16.91-7.36,2.2,4.02c-0.91,0.68-1.9,1.36-2.81,1.97
				l-0.15,0.08c1.44,1.52,2.12,3.03,2.27,4.32c0.53,4.55-4.63,5.76-5.23,0.68c-0.08-0.99,0-2.12,0.3-3.49
				c-11.83,6.45-24.12,8.12-33.82,19.11c-3.34,3.72-5.84,7.96-7.2,11.98c-4.02,11.75,2.65,17.06,11.91,17.14
				c7.89,0,15.62-3.49,22.22-8.57c6.45-4.93,13.8-13.12,16.38-20.93c-1.14,0.38-5.54,0.91-6.45,0.61
				c-2.96,5.69-8.42,15.47-16.68,21.39c-3.26,2.27-8.34,5.38-12.36,4.25c-15.7-4.47,12.21-35.72,29.42-35.57
				c5.38,0,8.72,2.5,7.28,8.19c13.42-5.84,19.64-33.82,46.26-34.05C157.31,90.92,157.31,91.52,156.55,91.52z M61.38,125.5
				C72.07,112.76,88,112,100.06,106.01c0.15-0.3,0.3-0.68,0.46-0.99c-0.83-0.68-1.67-1.21-2.5-1.74
				c-32.15-18.88-63.48,25.71-43.38,43C53.04,139.98,55.84,132.09,61.38,125.5z M103.01,118.22c-14.26,2.05-37.46,27.98-28.97,32.91
				c3.11,1.82,8.95-1.82,11.53-3.72c8.11-5.69,13.95-16.15,16.68-21.31c0.08-0.15,0.23-0.08,0.3-0.08c1.44,0.3,5.69-0.3,6.83-0.68
				C110.82,120.11,108.4,117.46,103.01,118.22z M100.51,106.92c-0.46,1.52-0.61,2.81-0.46,3.79c0.46,4.25,4.32,3.26,3.87-0.46
				c-0.15-1.21-0.76-2.58-2.2-4.02C101.35,106.46,100.89,106.69,100.51,106.92z M101.27,104.79c0.15,0.08,0.3,0.23,0.46,0.3
				c0.99-0.53,1.97-1.14,2.88-1.82c13.65-9.63,7.36-17.29-0.83-3.34C102.86,101.38,102.03,103.05,101.27,104.79z"/>
			<path class="st0" d="M196.9,140.97c14.79,5.99,12.59,26.47,2.96,38.9c-0.08,0.15-0.45-0.08-0.3-0.3
				c9.48-12.13,11.75-32.38-2.88-38.22c-11.68,20.48-24.19,41.25-41.86,40.95c-24.5,0-0.61-45.35,34.73-42.92
				c1.82,0.08,3.49,0.38,5.01,0.83c7.81-13.8,15.62-27.38,24.95-34.28c-14.18,9.25-21.01,29.58-35.79,29.58
				c-29.58,0-13.88-51.27,41.48-45.58c-26.77-18.12-66.13-8.57-71.29,26.54c0,0.23-0.38,0.15-0.38-0.08
				c4.1-38.3,44.52-47.78,72.58-26.31c0.08,0,0.08,0.08,0.08,0.15c-0.08,0.23-0.46,0.15-0.61,0.08
				c-52.71-4.63-68.48,44.82-41.86,44.82c16.83,0,23.36-27.23,43-32.99c1.82-0.61,3.72-0.91,5.69-0.91c0.15,0,0.3,0.38,0,0.38
				C218.66,101.76,208.12,121.17,196.9,140.97z M194.32,140.51c-1.44-0.38-3.03-0.61-4.85-0.76c-34.73-2.35-58.47,42.09-34.66,42.09
				C171.19,181.54,182.79,160.84,194.32,140.51z"/>
			<path class="st0" d="M222.15,129.21c-1.9,2.58-5.23,6.67-8.27,9.48c-1.67,1.59-3.26,2.81-4.47,3.11
				c-2.05,0.53-2.27-1.21-1.9-2.65c0.83-2.81,3.72-6.75,4.78-8.49c0.46-0.76,0.91-1.44,1.21-1.97c0.46-0.99,0.15-1.44-0.53-1.52
				c-1.06-0.08-1.9,0.68-2.96,0.53c-0.15,0-0.23,0-0.3-0.08c-0.53,0.68-0.99,1.21-1.29,1.67h-0.53c0.38-0.46,0.91-1.14,1.44-1.9
				c-1.67-2.05,1.29-6.75,3.56-6.22c1.67,0.38-2.58,5.61-2.96,6.14c0.08,0,0.15,0,0.23,0c0.91,0.08,1.97-0.61,2.96-0.83
				c1.52-0.3,3.34-0.08,2.88,2.05c-0.68,2.73-8.12,11.91-6.67,12.59c0.61,0.23,2.73-1.21,4.32-2.73c2.88-2.73,6.07-6.6,7.96-9.18
				H222.15z M212.75,121.55c-1.29-0.23-3.94,4.4-3.11,5.54C209.86,126.79,213.66,121.78,212.75,121.55z"/>
			<path class="st0" d="M242.25,129.21c-1.9,2.58-5.16,6.67-8.19,9.48c-2.12,2.05-4.09,3.41-5.38,3.19
				c-2.96-0.61-1.14-5.38,0.23-7.96c-3.72,4.02-7.89,7.81-9.48,7.96c-5.16,0.61,0.83-17.82,9.78-16.38
				c0.99,0.15,1.74,0.68,2.12,1.67c0.38,0.83,0.38,1.82,0.15,2.65c1.21-1.67,2.43-3.19,3.19-4.17c0.3-0.38,0.53-0.68,0.76-0.91
				c0.23,1.06,1.37,2.2,1.14,2.43c-1.14,1.37-3.19,4.02-4.93,6.75c-0.53,0.83-4.78,7.28-2.81,7.58c1.14,0.15,2.96-1.21,5-3.11
				c2.88-2.73,6.07-6.6,7.96-9.18H242.25z M229.81,132.25c0.3-0.38,0.53-0.76,0.83-1.21c0.53-1.14,0.83-2.65,0.3-3.72
				c-0.3-0.83-0.99-1.29-1.82-1.44c-4.1-0.76-12.82,16.15-9.63,15.62C221.16,141.19,226.02,136.65,229.81,132.25z"/>
			<path class="st0" d="M254.68,129.21c-3.49,4.78-11,13.5-15.47,12.67c-5.31-1.06,2.58-18.13,10.09-16.38
				c2.12,0.46,1.67,2.96,0.76,4.93c-1.06,2.35-4.17,2.65-1.52-1.06c1.14-1.44,2.12-3.19,0.61-3.49
				c-3.72-0.91-12.44,15.24-9.78,15.62c4.32,0.53,11.3-7.58,14.79-12.29H254.68z"/>
			<path class="st0" d="M267.04,129.21c-3.49,4.78-10.92,13.5-15.47,12.67c-4.55-0.91,0.99-14.26,7.36-16.3
				c2.05-0.61,4.47-0.08,4.17,1.82c-0.45,3.41-5.99,6.22-9.1,6.22c-2.2,3.87-3.56,7.74-2.28,7.89c4.32,0.53,11.38-7.58,14.86-12.29
				H267.04z M254.23,133.23c2.88-0.08,7.28-2.43,8.34-5.31c0.68-1.97-1.29-2.73-3.26-1.21
				C257.11,128.38,255.06,131.87,254.23,133.23z"/>
		</g>
	</g>
</g>
</svg>
