<?xml version="1.0" standalone="no"?>
<!DOCTYPE svg PUBLIC "-//W3C//DTD SVG 20010904//EN"
 "http://www.w3.org/TR/2001/REC-SVG-20010904/DTD/svg10.dtd">
<svg version="1.0" xmlns="http://www.w3.org/2000/svg"
 width="700.000000pt" height="700.000000pt" viewBox="0 0 700.000000 700.000000"
 preserveAspectRatio="xMidYMid meet">
<metadata>
Created by potrace 1.14, written by Peter Selinger 2001-2017
</metadata>
<g transform="translate(0.000000,700.000000) scale(0.100000,-0.100000)"
fill="#000000" stroke="none">
<path d="M3367 6984 c-1 -1 -56 -5 -121 -8 -66 -4 -122 -9 -125 -10 -3 -2 -33
-7 -66 -10 -112 -12 -320 -52 -420 -81 -167 -47 -212 -61 -322 -101 -366 -132
-718 -335 -1023 -588 -94 -79 -87 -72 -196 -177 -237 -228 -426 -468 -592
-749 -47 -81 -182 -343 -182 -355 0 -3 -9 -24 -20 -48 -46 -100 -130 -343
-159 -462 -5 -22 -18 -76 -29 -120 -57 -228 -86 -493 -86 -785 0 -249 10 -367
50 -598 63 -370 203 -776 367 -1067 12 -22 38 -67 56 -100 19 -33 79 -125 132
-205 573 -847 1514 -1410 2519 -1508 98 -9 612 -9 715 1 87 8 262 33 310 44
17 4 32 7 35 8 48 11 69 15 90 19 62 12 289 79 392 117 226 83 494 214 657
320 41 27 75 49 77 49 2 0 46 30 97 67 79 57 146 110 282 222 17 14 93 88 170
166 273 273 476 556 651 905 145 290 261 636 309 922 3 18 10 58 15 88 5 30
12 73 14 95 6 52 17 162 22 211 12 138 4 484 -16 649 -21 166 -37 260 -80 445
-20 86 -83 290 -110 355 -4 11 -29 73 -55 138 -100 248 -294 588 -439 768 -11
15 -32 41 -46 59 -143 186 -401 444 -580 580 -25 19 -47 37 -50 41 -3 3 -54
40 -115 81 -294 202 -574 342 -885 445 -128 42 -325 95 -399 108 -19 3 -37 7
-40 9 -3 2 -28 7 -56 10 -27 4 -57 9 -65 11 -8 2 -42 6 -75 10 -33 3 -67 8
-75 10 -43 11 -523 28 -533 19z"/>
</g>
</svg>
