<svg xmlns="http://www.w3.org/2000/svg" viewBox="0 0 1024 1024"><g id="Layer_4" data-name="Layer 4"><path d="M491.2,378.05c-2.89-2.26-5.61-4.68-8.56-6.92a86.71,86.71,0,0,0-9.28-6.15q-2.42-1.38-4.89-2.67c-1.67-.82-3.34-1.64-5-2.4-.81-.38-1.77-.77-2.71-1.1s-1.87-.63-2.81-.89c-1.88-.53-3.75-.93-5.61-1.26-3.71-.68-7.38-1.13-10.94-1.59a69.31,69.31,0,0,1-10.06-1.87,10.81,10.81,0,0,1-3.52-1.66,2.14,2.14,0,0,1-.93-1.79,5.44,5.44,0,0,1,3.22-5.15,21.14,21.14,0,0,1,8.77-2,49.76,49.76,0,0,1,10,.72,73.92,73.92,0,0,1,19.7,6.48,94.17,94.17,0,0,1,18,11.21,85.71,85.71,0,0,1,15.15,15.35,66,66,0,0,0-12.67-18.08,77.77,77.77,0,0,0-8.34-7.46,81,81,0,0,0-9.3-6.34,71.29,71.29,0,0,0-21.15-8.41,52,52,0,0,0-11.64-1.22,27.13,27.13,0,0,0-12.33,2.75,16.53,16.53,0,0,0-3,2.06,13.61,13.61,0,0,0-2.51,3,11.82,11.82,0,0,0-1.25,2.7,101.42,101.42,0,0,0-8.91,9.5,100.12,100.12,0,0,0-12.49,19.7A86.19,86.19,0,0,0,391,397a76.6,76.6,0,0,0-.28,23.85,77.78,77.78,0,0,0,2.67,11.68,89.88,89.88,0,0,0,4.37,11c3.33,7.11,7.44,13.66,11.09,20.12a53,53,0,0,1,4.49,9.74,16,16,0,0,1,.79,4.86,11.9,11.9,0,0,1-.07,1.2l-.07.59-.14.63-.28,1.26c-.1.42-.27.81-.38,1.22a13.05,13.05,0,0,1-6.32,7.73,14,14,0,0,1-5.13,1.57,16.44,16.44,0,0,1-5.58-.26,15.28,15.28,0,0,0,20.64-7.51c.23-.47.47-.95.66-1.43l.51-1.47.26-.75.19-.8a13.27,13.27,0,0,0,.29-1.63,20.55,20.55,0,0,0-.28-6.43,34.93,34.93,0,0,0-1.68-5.9c-.69-1.89-1.47-3.7-2.29-5.47-1.63-3.53-3.37-6.92-5.05-10.29s-3.3-6.71-4.73-10.09a80.73,80.73,0,0,1-6.05-20.78c-.3-1.77-.45-3.57-.63-5.36s-.2-3.59-.19-5.39a79.81,79.81,0,0,1,.68-10.8A93.73,93.73,0,0,1,403.91,377a117.56,117.56,0,0,1,9.91-19.9q2.39-3.9,5.08-7.63c0,.22,0,.43,0,.66a10.21,10.21,0,0,0,3.93,7.59,17.73,17.73,0,0,0,6.28,3,64,64,0,0,0,11.43,1.79c3.66.35,7.24.6,10.72,1,1.73.22,3.44.48,5.1.81.83.17,1.64.36,2.44.58s1.54.46,2.42.76q2.55.81,5.08,1.7t5,1.84c3.32,1.32,6.62,2.72,9.88,4.28S487.74,376.75,491.2,378.05Z"/><path d="M360.62,478.34a27.53,27.53,0,0,0-9.13-7.87,19,19,0,0,0-6-1.8,20.48,20.48,0,0,0-6,.17,26.77,26.77,0,0,0-10.38,4.27,60.15,60.15,0,0,1,10.52.1,18.2,18.2,0,0,1,8.51,3.15,28.35,28.35,0,0,1,6.27,6.77c1,1.36,2,2.82,3.19,4.34.6.75,1.24,1.52,2,2.3.35.37.8.79,1.23,1.18a15.82,15.82,0,0,0,1.39,1.05,17.49,17.49,0,0,0,6.18,2.67,21.13,21.13,0,0,0,6.36.43,23.16,23.16,0,0,0,6.06-1.3,18.44,18.44,0,0,0,5.55-3.07l.63-.56.59-.58.83-.9c.58-.58,1.17-1.15,1.79-1.69a27.8,27.8,0,0,1,4-2.92,26.53,26.53,0,0,1,4.6-2.16,21.86,21.86,0,0,1,5.17-1.05,18.55,18.55,0,0,0-11.11.05,25.86,25.86,0,0,0-5.33,2.24c-.85.47-1.66,1-2.46,1.55l-1.18.86c-.31.22-.55.37-.85.55a17.7,17.7,0,0,1-8.55,1.87,13.37,13.37,0,0,1-7.74-2.38,10.43,10.43,0,0,1-1.4-1.29c-.48-.52-1-1.13-1.47-1.78C362.83,481.26,361.78,479.81,360.62,478.34Z"/><path d="M316.46,455.27c.18-.46.36-.94.57-1.4a23.74,23.74,0,0,1,1.48-2.7,24.72,24.72,0,0,1,4.08-4.86,20.67,20.67,0,0,1,12.19-5.64,13.59,13.59,0,0,0-7.65-1.3,19.47,19.47,0,0,0-7.68,2.57,22.77,22.77,0,0,0-6.22,5.37,22,22,0,0,0-2.32,3.51,16.22,16.22,0,0,0-.91,1.93,21.59,21.59,0,0,0-.71,2.1,22.66,22.66,0,0,0,1.95,16.28,15.91,15.91,0,0,0,5.65,6.12,10.69,10.69,0,0,0,7.77,1.39c-4.81-2-7.1-5.71-8.28-9.72a25.24,25.24,0,0,1-.94-6.22,22.25,22.25,0,0,1,.59-6.06C316.16,456.16,316.29,455.73,316.46,455.27Z"/><path d="M483.17,527.76l3.74-6.91c1.14-2.36,2.29-4.75,3.36-7.13s2-4.75,2.83-7.18c6.72-18.61,10.79-38,13.76-57.26.73-4.83,1.44-9.65,2.07-14.48s1.31-9.56,2.05-14.32q1.29-8.48,2.9-16.88l2-2.22c2.67-3.07,5.28-6.19,7.71-9.52a76.42,76.42,0,0,0,11.63-22.39,67.23,67.23,0,0,0,2.54-11.2,4.92,4.92,0,0,0,1.4-2l1.54-3.91c16-40.59,32.58-82.49,1-118.49a50.64,50.64,0,0,0,7.68-6,6.49,6.49,0,0,0,1.34-7.6c-2.58-5.18-3.38-12.76-4.16-20.09-.61-5.8-1.25-11.79-2.78-17.09-4-13.61-12.08-23-23.31-27.24q1.83-1.51,3.61-3a5,5,0,0,0,1.74-3.48,5,5,0,0,0-1.28-3.68l-1.39-1.52c-23.48-25.91-60.55-66.81-110.33-65.87a4.92,4.92,0,0,0-1.52-1.63c-10.8-7.18-31.8-11.72-47.85-13.58-17.23-2-43.84-2.6-72.68,5.91-15.14,4.46-34.89,15.14-43.35,26.92a62.1,62.1,0,0,0-9.55,18.53c-18-5.38-33.87-2.92-49.68,7.62-2.24,1.49-22.06,15.29-28.41,39.68a91.88,91.88,0,0,0-2.88,23.65c-7.86,5-17.21,17.79-19.44,24.23-8.18,23.6-8.12,47.54.19,75.33a101.58,101.58,0,0,0,3.53,9.88,16.35,16.35,0,0,0-3.67-.12,21.3,21.3,0,0,0-15.69,8.68c-9.37,12.4-10.47,37.74-3.27,75.31,2,10.3,6.34,15.66,9.84,20a24,24,0,0,1,3.94,5.83,41.61,41.61,0,0,1,1.63,6.14c1,4.67,2.16,10,5.25,14.13,2.8,3.78,8.42,6.24,13.9,6.24a17,17,0,0,0,1.89-.1,14.65,14.65,0,0,0,3.57-.82c0,6.1.11,12.19,0,18.26a211.41,211.41,0,0,0,1.71,28.55,197.11,197.11,0,0,0,5.37,28.16,144.79,144.79,0,0,0,10.47,26.8c1.1,2.14,2.14,4.3,3.36,6.36l1.77,3.14c.58,1,1.15,2.1,1.8,3.11l3.73,6.15,3.9,6c1.33,2.18,3.22,4,4.81,6a375.39,375.39,0,0,0,30,32.78l4.09,3.86,4.28,3.66c1.4,1.26,2.93,2.35,4.41,3.51s3,2.32,4.53,3.36a130.68,130.68,0,0,0,19.43,11.48,141.21,141.21,0,0,0,94,10.68,157.84,157.84,0,0,0,25.52-8.23c4.14-1.71,8.18-3.65,12.17-5.72s7.9-4.41,11.55-6.87,7.32-5,10.92-7.59,7-5.39,10.32-8.32,6.58-5.88,9.81-8.87,6.27-6.2,9.19-9.49c6.08-6.61,12.1-13.28,17.74-20.3a206.86,206.86,0,0,0,15.8-22Zm60.76-272.4c-1.73-.06-3.38-.13-5.2-.14a42.05,42.05,0,0,0-6.8.39,23.46,23.46,0,0,0-3.81.89,12.69,12.69,0,0,0-3.82,2,27.88,27.88,0,0,0,6.76,4.13,20.36,20.36,0,0,0,7.57,1.61,15.74,15.74,0,0,0,8-2A59.93,59.93,0,0,1,549,273.1c-1.17,0-2.33-.07-3.57-.08a42.24,42.24,0,0,0-6.81.39,22.58,22.58,0,0,0-3.8.89,12.46,12.46,0,0,0-3.82,2,28.35,28.35,0,0,0,6.75,4.13,20.21,20.21,0,0,0,7.58,1.6,16.85,16.85,0,0,0,4.19-.45c0,2.77-.16,5.56-.44,8.37a4.35,4.35,0,0,1-.82,0c-.11,0-.24,0-.33,0l-.21-.07c-.28-.07-.13-.18-.26-.19a10.47,10.47,0,0,1-1.29-.17,12,12,0,0,0-2.63-.13,7.44,7.44,0,0,0-5.43,2.75c1.5,1.89,2.51,3,3.43,4a8.81,8.81,0,0,0,1.61,1.34,7.9,7.9,0,0,0,3,1.1,6.46,6.46,0,0,0,1.66.06c-2.19,11.62-6.25,23.6-10.89,35.84-.18-.89-.37-1.77-.57-2.65A88,88,0,0,0,532.72,320c-.46,4.14-.63,8.22-.9,12.23s-.56,8-1,11.83a105.62,105.62,0,0,1-5,22.32,164.52,164.52,0,0,1-7.87,18.28q1.08-4.89,2.11-9.8.9-4.31,1.74-8.63l.82-4.32c.26-1.47.53-2.94.77-4.41a159.7,159.7,0,0,0,2.09-35.79,132.34,132.34,0,0,1-.25-17.92,85.13,85.13,0,0,0-3.66-31.2,106.3,106.3,0,0,0-13.87-28.16c-.53-.78-1.06-1.5-1.58-2.19,1.47.09,2.95.15,4.46.15a61.51,61.51,0,0,0,21.84-3.79A64.64,64.64,0,0,1,543.93,255.36Zm-34.6-88.88c9.68,1.08,16.55,6.5,20.48,16.13-1.3.21-2.57.43-3.81.65a86,86,0,0,1-11.83,1.38c-1,0-1.9,0-2.91,0l-3,0c-2-.06-3.95-.1-5.95-.24s-4.05-.31-6.29-.42a15.22,15.22,0,0,0-6.88.93,56.88,56.88,0,0,1,5.71,3.13,34.15,34.15,0,0,0,6.1,2.85,31.31,31.31,0,0,0,6.74,1.52c.57.06,1.14.14,1.71.18l1.71.07a31.44,31.44,0,0,0,3.49-.08,36.3,36.3,0,0,0,13.25-3.64c1.19-.57,2.34-1.21,3.46-1.88a92.53,92.53,0,0,1,2.26,14.54c0,.11,0,.22,0,.33q-1.49.12-2.94.3c-2.75.37-5.41.87-8,1.3a87.13,87.13,0,0,1-15.09,1.66,78.38,78.38,0,0,1-15-2c-2.61-.52-5.27-1.09-8-1.5a41.28,41.28,0,0,0-4.22-.44,13.19,13.19,0,0,0-4.29.41,52.71,52.71,0,0,1,7.25,3.73c2.37,1.34,4.81,2.62,7.36,3.77a42.58,42.58,0,0,0,16.86,4,44.59,44.59,0,0,0,16.89-3.62,80.56,80.56,0,0,0,7.48-3.6l2-1.13a81.79,81.79,0,0,0,3.13,16.46c-19.4,14.54-47.66,5.32-52.36,2.83a55.55,55.55,0,0,1-26.06-30.55c5-1.84,8.66-3.45,10.23-4.17C480.61,184,494.24,175.7,507.45,166A6.14,6.14,0,0,0,509.33,166.48ZM146.85,212.9c1.3-3.73,6.2-10.54,10.75-15.17,1.21,10.68,3.68,20.38,5.77,28.59a5,5,0,0,0,4.84,3.77,4.8,4.8,0,0,0,1.24-.16,5,5,0,0,0,3.61-6.08c-4.22-16.58-9.48-37.23-3.66-59.59,4.4-16.9,17.34-29.25,24.29-33.88,13.68-9.12,26.9-11,42.57-5.95a31.94,31.94,0,0,0,1.08,8.49,5,5,0,0,0,4.83,3.71,4.89,4.89,0,0,0,1.3-.17,5,5,0,0,0,3.53-6.12c-2.23-8.34.47-17.42,8.5-28.6,6.1-8.49,22.81-18.67,38-23.16,27.24-8,52.4-7.46,68.71-5.57,12.69,1.47,24.6,4.11,33.36,7.24-2.81.59-5.65,1.31-8.53,2.18A5,5,0,1,0,390,92c29.21-8.82,54.36-1,75.64,12.78-4.91,1.2-9.71,2.21-14.52,3a150.37,150.37,0,0,1-20.39,2.07c-3.4.15-6.8.12-10.21,0s-6.83-.38-10.29-.67c-6.91-.65-13.86-1.79-21.29-2.79a57.31,57.31,0,0,0,19.71,10.49,64.92,64.92,0,0,0,11.06,2.42c1.88.3,3.77.37,5.67.53s3.79.1,5.69,0a67,67,0,0,0,22.17-4.52,60.43,60.43,0,0,0,10.08-5,53.74,53.74,0,0,0,5.07-3.69A172.13,172.13,0,0,1,484,118.76a254.86,254.86,0,0,1-28.68,9.44,159.41,159.41,0,0,1-17.07,3.48c-1.42.23-2.85.38-4.28.57s-2.85.28-4.28.39c-2.85.22-5.7.36-8.54.32s-5.67-.16-8.5-.36c-1.41-.14-2.8-.31-4.22-.48s-2.94-.42-4.41-.63c-2.95-.39-5.88-.88-8.82-1.29s-5.88-.88-8.8-1.4c-5.88-.94-11.72-2-17.57-3.2-2.92-.6-5.84-1.23-8.75-1.93s-5.83-1.44-8.72-2.41a51.28,51.28,0,0,0,7.74,4.94c2.7,1.48,5.48,2.76,8.29,4a154.25,154.25,0,0,0,17.27,6.16c5.86,1.71,11.78,3.21,17.75,4.4,1.49.3,3,.61,4.48.89s3.14.51,4.71.72a84.16,84.16,0,0,0,9.51.6,98.81,98.81,0,0,0,36.67-7.22,114.31,114.31,0,0,0,16.58-8.15c2.63-1.59,5.2-3.26,7.68-5.06,1.14-.82,2.25-1.67,3.34-2.55,6.52,5.77,12.58,11.83,18.18,17.74l-.32.07c-2.05.54-4.07,1.17-6.09,1.81-4,1.27-8,2.69-11.91,4.07-7.89,2.78-15.71,5.54-23.59,8C446,156.54,430,160.36,414,161s-31.95-2.63-47.62-7.41c-7.86-2.37-15.64-5.17-23.43-8.13l-11.71-4.49a94.75,94.75,0,0,0-12-4c1.88,1,3.65,2.05,5.43,3.17l5.34,3.31c3.56,2.23,7.19,4.37,10.86,6.45a198.82,198.82,0,0,0,22.89,11.09,145,145,0,0,0,24.58,7.6,108.5,108.5,0,0,0,26,2.41,121.7,121.7,0,0,0,13-1.23c4.29-.67,8.53-1.51,12.7-2.56A175.67,175.67,0,0,0,464.34,159c7.85-3.25,15.46-6.93,22.88-10.88q5.56-3,11-6c1.83-1,3.66-2,5.52-2.93l.82-.41c3.14,3.34,6.14,6.62,9,9.76-16.14,13.28-34.12,25-48.89,31.75-4.6,2.11-28.65,12.59-50.14,11.68-65.17-2.76-97.25-30.59-114.48-45.54l-1.81-1.57a5,5,0,0,0-6.54,7.57l1.79,1.55a228.83,228.83,0,0,0,23.05,18.09c-24.11,3.36-44.26-3.9-57.53-21a5,5,0,1,0-7.9,6.12,64.41,64.41,0,0,0,27.52,20.73,103.91,103.91,0,0,1-4.37,16.17c-5.52-.2-13,1.12-20.83,2.54-7,1.26-14.29,2.56-19.41,2.56a5,5,0,0,0,0,10c6,0,13.72-1.38,21.18-2.72,5.26-.95,10.65-1.91,14.89-2.27a107.94,107.94,0,0,1-11.93,19.62c-9.86-.43-16.51,1.07-22.94,2.53a87.74,87.74,0,0,1-21.64,2.76,5,5,0,0,0,0,10,97.06,97.06,0,0,0,23.85-3A89.48,89.48,0,0,1,249.38,234c-13.88,14.13-34.1,27-63.54,34a5,5,0,0,0,1.16,9.87,5.18,5.18,0,0,0,1.16-.14,168.62,168.62,0,0,0,20.37-6.24A141,141,0,0,1,205.09,295c-5.5,1-9,3.86-11.9,6.26s-5,4.16-9.06,4.16a5,5,0,0,0,0,10c7.62,0,12-3.58,15.43-6.45.77-.64,1.49-1.23,2.2-1.76-5,15.64-13.32,31.83-26.52,41.53-3.76-17.82-10.08-29.34-16.22-40.51-4.54-8.26-8.83-16.06-11.84-26.14C139.51,256.4,139.4,234.42,146.85,212.9ZM477.63,511.2,476,515.11c-.56,1.31-1.2,2.57-1.8,3.86a182.89,182.89,0,0,1-17.62,29.38,217.61,217.61,0,0,1-46.9,46.92l-6.31,4.42-6.49,4.16a136.73,136.73,0,0,1-13.46,7.21,142.79,142.79,0,0,1-14.18,5.78,147.39,147.39,0,0,1-14.69,4.37,160.17,160.17,0,0,1-18.66,3.41,140.46,140.46,0,0,1-18.89,1,119.69,119.69,0,0,1-36.94-6.34c-17.2-5.91-32.54-16.1-45.56-28.55l-2.43-2.36c-.81-.77-1.62-1.56-2.43-2.42l-4.86-5c-3.3-3.29-6.41-6.73-9.63-10.07-1.64-1.66-3.16-3.39-4.73-5.1l-4.71-5.1c-3-3.49-6.21-6.86-9.11-10.42a110.79,110.79,0,0,1-17.48-27.83,117.27,117.27,0,0,1-5.43-15.4c-1.34-5.29-2.56-10.6-3.41-16-.42-2.25-.72-4.55-1.05-6.84s-.58-4.61-.86-6.92c-.52-4.63-.94-9.23-1.23-13.86-.59-9.25-.7-18.54-.41-27.82.58-18.59,2.8-37.14,5.58-55.69a16.52,16.52,0,0,0,.4-5c-.23-1.35-1.35-2.58-2.08-3.86-1.34.71-3.58,1.17-3.88,2.19-4.2,14.22-7.3,28.85-8,43.81a5,5,0,0,0-1.92,2.2c-.2.43-.7,1.57-2.94,1.81-2.82.31-5.89-1.09-6.68-2.15-1.81-2.45-2.67-6.44-3.51-10.3a49.16,49.16,0,0,0-2.13-7.78,33,33,0,0,0-5.45-8.38c-3.09-3.79-6.28-7.71-7.78-15.53-8.28-43.19-3.79-60.49,1.43-67.4a11.16,11.16,0,0,1,8.57-4.74c2.58-.23,7.64,1.44,10.93,7a4.57,4.57,0,0,0,.77,1l.24.44c6.54,11.89,13.3,24.18,16.45,44.65a6.1,6.1,0,0,0,8.56,2.92c34.56-19.4,43-72.37,43.34-91.14a5,5,0,0,0-.39-2,128.07,128.07,0,0,0,42.2-30.65,115.44,115.44,0,0,0,27.87-55.93,76.89,76.89,0,0,0,17.38,2,97.53,97.53,0,0,0,23.51-3c19.88,11,47.11,20.58,85,22.18,1,.05,2,.07,3,.07,10.06,0,20.34-2,29.11-4.47a68.44,68.44,0,0,0,32.32,38c3.06,1.62,10.48,4.37,19.86,5.81l3.6,8.49c1.67,4,3.34,7.85,4.82,11.82s2.92,7.94,4.1,12a126.66,126.66,0,0,1,3,12.38,139.17,139.17,0,0,1,1.68,27.29,300.52,300.52,0,0,1-3.81,38.9c-1.05,6.6-2.3,13.19-3.4,19.4s-2.18,12-3.11,17.12C503.42,399,502,406.55,501.53,409c-1.23,6.16-2.55,14.1-3.84,22.57s-2.77,17.17-4.37,25.22c-3.17,16.12-6.92,29.15-7.15,29.94q-2.48,8.28-5.45,16.41c-.48,1.36-1,2.71-1.51,4.06l-.76,2Z"/><path d="M147,326.5a9.35,9.35,0,0,0-8,2.26c-4.61,4.13-5.3,12.25-5.3,16.72,0,8,.27,15.17,3.6,22.39,2.12,4.59,5.65,8.45,8.82,11.62,2.25,2.25,2.25,8.52,2.25,13.55v.18a3,3,0,0,0,6,0V393c0-6.46,0-13.78-4-17.79-2.8-2.8-5.89-6.16-7.61-9.9-2.83-6.12-3.05-12.35-3.05-19.87,0-4.49.87-10.06,3.3-12.24a3.35,3.35,0,0,1,3-.83,6.8,6.8,0,0,1,4.48,3.59,3,3,0,0,0,5.27-2.86A12.69,12.69,0,0,0,147,326.5Z"/><path d="M408.32,541.77l-2.14,1c-1.41.66-2.9,1.17-4.34,1.74s-2.94,1-4.39,1.51-3,.84-4.44,1.27c-3,.77-6,1.3-9,1.84a70.18,70.18,0,0,1-18,2.21,89.52,89.52,0,0,1-9.11-.37c-1.51-.14-3-.43-4.51-.63l-2.25-.33c-.75-.09-1.47-.33-2.21-.48a80.39,80.39,0,0,1-32.59-15.63c-4.88-3.73-9.49-7.9-14.15-12.18-.54-.48-1.07-1-1.6-1.46,2.53,1.73,5.14,3.35,7.79,4.88a155.81,155.81,0,0,0,14.23,7.24,135.84,135.84,0,0,0,30.59,9.79,108.55,108.55,0,0,0,32.27.67,138.35,138.35,0,0,0,31-7.52c-10.55,1.11-21,2.14-31.33,2.35a145.08,145.08,0,0,1-30.62-2.31,249.75,249.75,0,0,1-29.76-8.38c-9.31-3.16-18.58-6.49-27.89-10.11h0c7,.6,14.05,1.17,21.07,1.75l16.5,1.38,8.21.75,4.06.43c.68.07,1.34.15,2,.24l.94.13.22,0a16.44,16.44,0,0,1,2.2,2.1c1,1,1.92,2.21,3,3.41.54.6,1.11,1.22,1.75,1.84a13.84,13.84,0,0,0,2.38,1.91,7.66,7.66,0,0,0,2,.87c.22.06.45.1.67.14a6.49,6.49,0,0,0,.77.05,4.48,4.48,0,0,0,.81-.06,1.11,1.11,0,0,0,.3,0l.22,0a15.31,15.31,0,0,0,2.81-1c1.56-.7,2.93-1.43,4.28-2.12s2.66-1.35,3.79-1.79a5.52,5.52,0,0,1,.73-.24l.15,0h0l.5.1,1.09.24c1.47.35,2.92.76,4.42,1q9,1.21,18,2.88c6,1.1,11.93,2.36,17.83,4.06-2.67-1.51-5.45-2.85-8.25-4.14s-5.67-2.43-8.55-3.55c-5.75-2.24-11.59-4.21-17.47-6.1a36.42,36.42,0,0,0-4.52-1l-1.14-.22-.59-.12-.14,0-.22,0c-.25,0-.51-.06-.77-.07a5.72,5.72,0,0,0-1.22.09l-.5.09-.41.11a13.57,13.57,0,0,0-1.44.47c-1.71.67-3.09,1.4-4.48,2.1s-2.69,1.4-3.92,1.94a11.53,11.53,0,0,1-1.16.46,15.36,15.36,0,0,1-2.47-2.38c-1-1.07-1.94-2.25-3-3.46-.56-.61-1.14-1.23-1.81-1.85a13.69,13.69,0,0,0-2.47-1.86l-.14-.08a2,2,0,0,0-.48-.2c-.51-.13-1-.24-1.54-.34l-1.11-.16c-.75-.11-1.45-.19-2.15-.27l-4.18-.44L334,513l-16.53-1.39c-11-.91-22-1.77-33-2.82a3.5,3.5,0,0,0-2.19,6.45l.05,0c4.88,3,9.45,7.34,14.12,11.59s9.45,8.62,14.63,12.58a87.26,87.26,0,0,0,35.35,16.91c.81.17,1.6.42,2.42.52l2.45.36c1.63.23,3.26.53,4.9.68a95.39,95.39,0,0,0,9.86.41l2.47,0c.82,0,1.64,0,2.46-.1l4.93-.44c1.64-.16,3.25-.5,4.88-.74s3.26-.51,4.87-.9a30,30,0,0,0,4.69-1.57l2.3-.92,1.14-.45,1.12-.53a85,85,0,0,0,8.67-4.55,68.19,68.19,0,0,0,15-12.1,66.52,66.52,0,0,1-8.18,4.77Zm-33.89-15.3.12,0a.63.63,0,0,1-.19,0C374.29,526.44,374.4,526.47,374.43,526.47Z"/><path d="M470.36,399.08c-8.91-7.88-16.87-10.2-26.69-10.59-16.7-.66-27.34,8.91-26.38,9.77s3.41-.2,12.72-1.46c19.06-2.59,31.59,4.45,38.29,7.62C474.45,407.33,481.09,408.58,470.36,399.08Z"/><path d="M341.7,384c.39-2.6-4.24-15.65-30.37-22.94a63.67,63.67,0,0,0-36.83.74c-13.7,4.52,3.46.33,31.76,7.11C333.67,375.48,341.56,385,341.7,384Z"/><path d="M291.43,318.31a125.87,125.87,0,0,1,12.36,3,69.6,69.6,0,0,1,11.43,4.81c3.78,1.9,7.5,4,11.34,6.1a127.53,127.53,0,0,0,12,6,41.34,41.34,0,0,0,6.82,2.29,20,20,0,0,0,8.28.34,13.24,13.24,0,0,0,4.52-1.81,13.4,13.4,0,0,0,3.5-3.32,18,18,0,0,0,2.1-3.81,12.22,12.22,0,0,0,.74-2.3,12.54,12.54,0,0,0,.27-2.57,15.64,15.64,0,0,0-2.81-8.48,28.79,28.79,0,0,0-5.09-5.76,48.33,48.33,0,0,0-12.07-7.55A66.3,66.3,0,0,0,318,299.64a61.49,61.49,0,0,0-6.81.35c-2.18.23-4.36.44-6.54.73-4.36.56-8.72,1.24-13.05,2.19a76.41,76.41,0,0,0-12.71,4c-2,.9-4,1.9-5.94,3s-3.74,2.27-5.54,3.51a99.26,99.26,0,0,1,12.29-4.06,82.18,82.18,0,0,1,12.59-1.94c4.25-.38,8.53-.54,12.82-.64,2.14-.06,4.29-.09,6.44-.11s4.13,0,6.19.19a65.53,65.53,0,0,1,23.48,6.26,42.05,42.05,0,0,1,9.78,6.4,19.93,19.93,0,0,1,3.49,4,7.48,7.48,0,0,1,1.36,3.66,3.47,3.47,0,0,1-.05.66,4.83,4.83,0,0,1-.27.79,8.79,8.79,0,0,1-1,1.89,4.25,4.25,0,0,1-2.63,1.79,11.43,11.43,0,0,1-4.63-.18,37.31,37.31,0,0,1-5.56-1.66c-7.62-2.93-15.33-7.15-23.52-10.57a67.6,67.6,0,0,0-13-4.14A101.88,101.88,0,0,0,292,314a99.12,99.12,0,0,0-13.24.09,68.17,68.17,0,0,0-13,2.12,98.12,98.12,0,0,1,13,.33A114.79,114.79,0,0,1,291.43,318.31Z"/><path d="M791,854.76a206.1,206.1,0,0,0,13.26-22.59c1-1.94,2-3.91,2.85-5.92s1.83-4,2.68-6c1.62-4.08,3.34-8.13,4.71-12.31a216.15,216.15,0,0,0,7.11-25.42l1.22-6.49c.38-2.17.86-4.33,1.12-6.51l.89-6.54.44-3.28.3-3.28c.88-8.81,1.31-17.46,1.67-26.16.18-4.34.32-8.69.38-13l.12-6.52,0-6.54c0-4.35,0-8.7-.14-13.06s-.23-8.71-.37-13.06-.45-8.7-.67-13.06-.58-8.69-1-13-.76-8.68-1.27-13l-.71-6.51-.85-6.48c-.53-4.33-1.24-8.64-1.87-13l-1.09-6.45c-.36-2.15-.74-4.3-1.17-6.44-1.55-8.59-3.5-17.11-5.6-25.59a312.58,312.58,0,0,0-16.79-49.62,196.37,196.37,0,0,0-12.22-23.19,105.66,105.66,0,0,0-16.27-20.38,103.78,103.78,0,0,1,7.39,10.61l.86,1.36.8,1.4,1.6,2.79c1,1.89,2,3.8,3,5.71a212.36,212.36,0,0,1,9.89,23.7c2.89,8,5.38,16.25,7.54,24.53s4.16,16.61,5.83,25q5.05,25.18,7.8,50.77l.69,6.39.6,6.4c.44,4.27.71,8.55,1.06,12.82l.85,12.83c.19,4.29.46,8.56.59,12.85s.36,8.57.43,12.86l.14,6.44.06,6.44.07,6.43,0,6.44c0,4.3-.09,8.59-.14,12.89-.13,8.58-.39,17.21-.91,25.65l-.17,3.18-.31,3.16-.63,6.34c-.15,2.12-.52,4.21-.8,6.31l-.89,6.31-1.16,6.26c-.39,2.08-.73,4.18-1.26,6.24l-1.43,6.21c-.47,2.07-1.1,4.1-1.64,6.16-1,4.13-2.44,8.14-3.72,12.21-.7,2-1.47,4-2.2,6-.38,1-.72,2-1.13,3l-1.22,3c-1.55,4-3.35,7.87-5.14,11.76l-2.84,5.78-3,5.71q-3,5.7-6.32,11.29l-6.54,11.23c2.69-3.4,5.32-6.85,7.93-10.31S788.54,858.36,791,854.76Z"/><path d="M853.47,706.72c-.27-11.4-.88-22.79-1.73-34.17-.43-5.68-1.06-11.36-1.59-17-.31-2.84-.68-5.67-1-8.5s-.65-5.67-1.09-8.49l-1.28-8.47-.64-4.24-.74-4.22-1.5-8.43c-.5-2.82-1.14-5.6-1.7-8.4a422.69,422.69,0,0,0-19.06-65.83c-8.24-21.34-18.37-42-31.3-61a181.45,181.45,0,0,0-21.91-26.38l-1.53-1.5-1.59-1.44-3.2-2.86c-2.25-1.77-4.4-3.65-6.78-5.25a64.87,64.87,0,0,0-15-8.16,67.7,67.7,0,0,1,13.94,9.47c2.18,1.76,4.16,3.76,6.2,5.67l2.9,3,1.44,1.53,1.37,1.59a188.41,188.41,0,0,1,19.6,27.2,268.1,268.1,0,0,1,15.45,29.77c4.53,10.22,8.7,20.61,12.32,31.2.9,2.65,1.73,5.32,2.6,8,.43,1.33.88,2.65,1.28,4l1.18,4c.76,2.7,1.63,5.35,2.34,8.06l2.18,8.11c2.74,10.85,5.29,21.75,7.31,32.77s3.82,22.08,5.33,33.18c.7,5.56,1.34,11.13,2,16.69s1.1,11.16,1.5,16.76c.87,11.18,1.5,22.39,1.83,33.61l.24,8.41.11,4.21,0,4.22,0,8.42,0,4.21-.06,4.15a273.45,273.45,0,0,1-2.79,33.16c-.39,2.75-.85,5.5-1.31,8.24s-1,5.48-1.57,8.2l-.84,4.08-.93,4.07c-.59,2.72-1.32,5.41-2,8.11A266.3,266.3,0,0,1,823,838.19a213.13,213.13,0,0,1-14.85,29.93c-2.91,4.75-5.9,9.47-9.27,13.93-1.61,2.28-3.42,4.4-5.15,6.61L791,891.83l-1.37,1.6L788.15,895a122.29,122.29,0,0,1-25.93,21.43c2.51-1.29,5.11-2.48,7.52-4,1.21-.73,2.48-1.39,3.66-2.19l3.57-2.35a124.84,124.84,0,0,0,13.33-10.75l1.59-1.45,1.53-1.51,3-3c1.91-2.13,3.92-4.19,5.73-6.41,3.76-4.34,7.15-9,10.47-13.66a215.87,215.87,0,0,0,16.92-30c1.18-2.62,2.42-5.21,3.48-7.88l1.64-4,1.54-4c1.06-2.67,1.94-5.41,2.92-8.11s1.81-5.45,2.65-8.2A269.1,269.1,0,0,0,853.41,741l.15-4.33,0-4.28.06-8.54,0-4.28-.07-4.27Z"/><path d="M876,677.21c-6.27-64.23-17.08-112.78-34-152.8-15.75-37.21-37.51-68.24-68.46-97.64-15.62-14.84-47.41-31-69.86-31.51h-.11a4.85,4.85,0,0,0-1.83.36,4.38,4.38,0,0,0-1.7-1.15c-32.41-11.9-61.68-2.64-88.87,7.87-19.28,7.44-68.26,34-106.57,119.34a302.16,302.16,0,0,0-26.79,111.54c-1.6,38.55,4.47,77.71,18,116.4.22.62.79,2.24,1.66,4.66,19.18,53.59,32,91.19,38.19,111.75,2.57,8.58,4.74,15.76,6.58,21.87,5.69,18.85,8.29,27.45,10,35.09a4.5,4.5,0,0,0,4.38,3.51,4.14,4.14,0,0,0,.7-.06c29.5-4.62,53-17.38,71.55-64.24h.46c28,0,59.19-14.67,95.25-44.82,17-14.19,28.32-26.88,36.25-38-8.92,40-25.64,90.72-56.39,158.44a5,5,0,0,0,3.68,7,110.79,110.79,0,0,0,19.37,1.69,118.93,118.93,0,0,0,69-22.12c24.14-17.48,46.25-48.69,60.66-85.63C875.23,792.28,881.75,736.43,876,677.21ZM718.82,810.48c-34.38,28.74-63.66,42.72-89.48,42.72h-.89c-30.15-.38-52.84-13.91-71.41-42.56C533,773.5,526.26,731.8,523.4,714c-.41-2.54-.73-4.54-1-6C499,589,570.26,502.16,584.79,486c36.54-40.77,93.43-53.75,121.28-55a4.27,4.27,0,0,0,1.75-.44l1.1,1.49c15.07,20.29,60.92,82,61.6,260.56a364.63,364.63,0,0,1-4.56,60C759.3,767.14,747.54,786.47,718.82,810.48Zm129,24.61c-13.74,35.21-34.59,64.79-57.21,81.16a108.39,108.39,0,0,1-74.3,19.62c56.86-126.81,64.42-194.15,64.23-243.32C779.83,510.72,732.5,447,717,426.06l-1.78-2.41a5,5,0,0,0-7-1.11l-.06.06a4.5,4.5,0,0,0-2.45-.62c-39.21,1.75-93.86,20.35-127.59,58-9.54,10.65-33.61,40.22-50.89,84.72-18.57,47.81-23.16,96.61-13.65,145,.27,1.34.58,3.27,1,5.72,3,18.37,9.87,61.39,35,100.12,18.24,28.12,41.17,43.29,69.91,46.16-16,38.84-34.2,50.42-59.36,55.15-1.78-7-4.41-15.73-9.18-31.55-1.85-6.1-4-13.28-6.58-21.85-6.21-20.71-19.11-58.46-38.34-112.2-.85-2.4-1.42-4-1.64-4.61-26.45-75.39-23.6-149.84,8.47-221.28,37-82.31,83.36-107.58,101.6-114.63,31.23-12.06,55.93-17.58,82.52-7.81a4.48,4.48,0,0,0,2.53.16,5,5,0,0,0,4,2.18c17.61.37,47.73,14.08,63.18,28.76,60.74,57.7,87.69,123.88,99.42,244.16C871.65,735.84,865.35,790.1,847.8,835.09Z"/><path d="M668.24,411.85c-2.13.09-4.26.16-6.38.45s-4.25.45-6.36.73a128,128,0,0,0-12.57,2.61c-4.19.94-8.22,2.43-12.31,3.75a155.15,155.15,0,0,0-44.33,26C573,456.32,561.38,469.15,551,482.76c-2.57,3.44-5.22,6.79-7.59,10.48s-4.58,7.32-6.71,11.05c-4.25,7.47-8.13,15.12-11.74,22.89a333.73,333.73,0,0,0-17.7,48.21,303.26,303.26,0,0,0-9.65,50.41,265.74,265.74,0,0,0-.28,51.23,239.86,239.86,0,0,0,10.19,50,283.83,283.83,0,0,1-6.76-50.21c-.15-2.1-.15-4.21-.19-6.31s-.1-4.21-.11-6.32l.12-6.31.07-3.15.17-3.15.34-6.3.52-6.29.26-3.14.36-3.13.74-6.26.93-6.23.47-3.12L505,614l1.11-6.2,1.27-6.16c1.79-8.21,3.8-16.37,6.25-24.4s5-16,8-23.89,6.2-15.61,9.73-23.22,7.23-15.15,11.33-22.45c2-3.65,4.18-7.25,6.42-10.74s4.8-6.78,7.22-10.2a236.77,236.77,0,0,1,33.56-37.21c.75-.73,1.58-1.36,2.39-2l2.42-2,2.43-2c.81-.65,1.6-1.34,2.46-1.93l5.09-3.66c.85-.6,1.67-1.25,2.55-1.82l2.64-1.69,5.29-3.36,5.49-3c.92-.5,1.83-1,2.76-1.5l2.84-1.33c1.9-.87,3.79-1.8,5.71-2.63a145,145,0,0,1,24-7.65c2.06-.41,4.14-.76,6.22-1.14,1-.17,2.07-.43,3.12-.52l3.14-.36c4.19-.62,8.43-.73,12.67-1C676.75,411.82,672.49,411.58,668.24,411.85Z"/><path d="M574.54,662.94c-1.42,2.41-2.89,4.79-4.38,7.2s-3,4.85-4.41,7.58a27.38,27.38,0,0,0-1.8,4.4,38.49,38.49,0,0,0-1,4.43,23.8,23.8,0,0,0-.34,4.73,20.9,20.9,0,0,0,.75,4.66q.17.55.33,1.08a11.4,11.4,0,0,0,.43,1.18,10.13,10.13,0,0,0,1.25,2.17,11.9,11.9,0,0,0,3.54,3.15,11.24,11.24,0,0,0,8.63,1.44,10.47,10.47,0,0,1-4-1,11.57,11.57,0,0,1-3.3-2.21,10.55,10.55,0,0,1-2.22-3,7.42,7.42,0,0,1-.57-1.66,17,17,0,0,1-.25-1.87,17.42,17.42,0,0,1,.84-7.49c.39-1.22.88-2.51,1.37-3.72a21.25,21.25,0,0,1,1.73-3.34c1.36-2.23,3-4.5,4.67-6.81s3.28-4.68,4.88-7.08,3.11-4.87,4.62-7.28,3-4.86,4.44-7.4a79.12,79.12,0,0,0,7.06-16.28,67.44,67.44,0,0,0,2.76-17.61A81.11,81.11,0,0,0,598,600.75a91,91,0,0,0-4.86-16.58c.29,5.75.61,11.4.64,17a123.78,123.78,0,0,1-.92,16.53,82.47,82.47,0,0,1-3.57,15.76,96,96,0,0,1-6.57,14.84c-1.28,2.44-2.66,4.87-4,7.36S576,660.53,574.54,662.94Z"/><path d="M594.11,702a5.16,5.16,0,0,1-.8-.33,6.17,6.17,0,0,1-.81-.41c-.58-.3-1.14-.64-1.73-1-1.17-.74-2.43-1.61-3.86-2.43a18.5,18.5,0,0,0-4.63-1.93,17.1,17.1,0,0,0-4.83-.54,21.5,21.5,0,0,0-4.62.61,34.79,34.79,0,0,1,7.9,3.56c2.24,1.47,3.81,3.43,6.11,5.68.58.55,1.19,1.1,1.85,1.64.31.26.69.52,1.06.78a11.8,11.8,0,0,0,1.15.74,19.87,19.87,0,0,0,5,2.06,21.77,21.77,0,0,0,10.55.08,19,19,0,0,0,5-2,13.61,13.61,0,0,0,1.26-.76l1-.77,1.74-1.37a45.89,45.89,0,0,1,6.77-4.6,49.12,49.12,0,0,1,7.72-3.3c2.74-.89,5.61-1.56,8.6-2.3a34.54,34.54,0,0,0-9.15-1.26,32.77,32.77,0,0,0-9.41,1.41,36,36,0,0,0-8.72,4.08,28.62,28.62,0,0,1-3.37,2,16.33,16.33,0,0,1-3.3,1.07,19.92,19.92,0,0,1-7.1.16A17,17,0,0,1,594.11,702Z"/><path d="M654.55,690.49a8.71,8.71,0,0,1-2.24,4.33,18,18,0,0,1-4.7,3.49,74.33,74.33,0,0,1-12.7,5,28.5,28.5,0,0,0,14.64,0,18.87,18.87,0,0,0,7.18-3.69,13.74,13.74,0,0,0,4.62-7.58,19.44,19.44,0,0,0,.49-4.08,17.84,17.84,0,0,0-.38-4.17,16.54,16.54,0,0,0-3.66-7.44,18.44,18.44,0,0,0-13.5-6.39c3.83,3,7,6.17,8.84,9.66a15.54,15.54,0,0,1,1.66,5.34,18.33,18.33,0,0,1,.09,2.78A24.2,24.2,0,0,1,654.55,690.49Z"/><path d="M664.67,570.19c-1.92.26-3.74.67-5.4.89a11.77,11.77,0,0,1-4.25,0,3.43,3.43,0,0,1-2.24-1.67,4.43,4.43,0,0,1-.69-3c.29-2.22,1.9-3.87,4.79-4.79a29.29,29.29,0,0,1,9.84-1l5.5.22c1.8.09,3.61.23,5.41.38s3.59.37,5.38.65,3.58.53,5.36.85a105.55,105.55,0,0,1,40.33,16.63,77.52,77.52,0,0,0-18-13.57,91.87,91.87,0,0,0-21.16-8.38,101.88,101.88,0,0,0-11.22-2.3c-1.89-.25-3.78-.51-5.68-.67l-5.63-.43a34.68,34.68,0,0,0-12.25,1,15,15,0,0,0-6.21,3.57,12,12,0,0,0-3.44,6.92,11.41,11.41,0,0,0,1.75,7.63,10.63,10.63,0,0,0,2.76,3,10.25,10.25,0,0,0,3.78,1.7,18.13,18.13,0,0,0,6.83,0c2-.32,3.82-.75,5.57-1.07,3.53-.76,7.11-1.18,10.7-1.62,1.8-.14,3.6-.34,5.4-.41l2.71-.14c.91,0,1.81,0,2.72,0a118.22,118.22,0,0,1,43,7.85A91.38,91.38,0,0,0,687.52,569,99.42,99.42,0,0,0,664.67,570.19Z"/><path d="M617.64,754.94c8.86-.38,17.71-1.06,26.53-2.09a218.66,218.66,0,0,0,26.29-4.56c-8.93-.33-17.77-.26-26.61-.13s-17.65.42-26.47.79-17.48.59-26.2.3c-5.82-.17-11.64-.62-17.48-1.3,1.31-.41,2.6-.85,3.86-1.31,2.25-.83,4.43-1.68,6.58-2.51l3.26-1.23c1.08-.41,2.13-.8,3.14-1.14a15.08,15.08,0,0,1,2.57-.68l.16,0h0a2.3,2.3,0,0,1,.64.3l1.5.92a10.28,10.28,0,0,0,2.62,1.09,10.55,10.55,0,0,0,5.59-.21,16.9,16.9,0,0,0,4.11-2l.73-.48.09,0a.58.58,0,0,1,.19-.05l.58-.09a44.71,44.71,0,0,1,6.31-.12,225.28,225.28,0,0,1,27.15,3.25c4.61.26,9.21.67,13.82,1.16,2.31.26,4.6.57,6.89,1a54.64,54.64,0,0,1,6.84,1.5,63.35,63.35,0,0,0-12.65-6.59c-4.41-1.82-8.92-3.37-13.47-4.78-2.27-.81-4.67-.79-7-1.24s-4.68-.69-7-1c-4.7-.59-9.41-1.07-14.25-1.26a50.93,50.93,0,0,0-7.64.17c-.37,0-.77.13-1.15.19a5,5,0,0,0-.65.16l-.71.2-.17.06-.26.11c-.17.07-.35.16-.52.25s-.34.18-.5.27l-.27.17-.62.41a9,9,0,0,1-2.15,1.06,2.67,2.67,0,0,1-1.3.12,3,3,0,0,1-.59-.27l-1.48-.91a11,11,0,0,0-2.54-1.1c-.25-.06-.48-.12-.75-.17a9.08,9.08,0,0,0-1-.11,10.25,10.25,0,0,0-1.52.06,22.53,22.53,0,0,0-4.18,1c-1.21.41-2.33.84-3.43,1.25l-3.27,1.24c-2.2.84-4.36,1.69-6.47,2.47a46.43,46.43,0,0,1-12.48,3h0a4.05,4.05,0,0,0-2.35,1,4,4,0,0,0-.32,5.64A73.15,73.15,0,0,0,585,767a70.64,70.64,0,0,0,30.69,5.88,116.27,116.27,0,0,0,30.41-4.57,60.56,60.56,0,0,0,13.44-8.09c1-.84,2-1.71,2.93-2.55l2.71-2.74,2.45-2.93c.75-1,1.48-2.06,2.2-3.09l-3,2.23-3.12,2L660.52,755l-3.28,1.53a63.61,63.61,0,0,1-13.61,4.1c-1.15.25-2.21.78-3.36,1.06s-2.28.59-3.44.84-2.31.48-3.48.69l-3.53.57a134.24,134.24,0,0,1-14.38,1.18,62.47,62.47,0,0,1-27.23-5.23A66.2,66.2,0,0,1,572,749.61,98.21,98.21,0,0,0,590.79,754,152.69,152.69,0,0,0,617.64,754.94Zm-9-14.27-.08,0,.09-.06C608.84,740.49,608.67,740.65,608.61,740.67Z"/><path d="M559.79,559.31a30.29,30.29,0,0,1,10,.8c.79.21,1.57.45,2.3.71a6,6,0,0,1,1.56.86,5.69,5.69,0,0,1,2,2.68,2.6,2.6,0,0,1,.15,1,2,2,0,0,1-.68.1,7.92,7.92,0,0,1-1.88-.29c-3-.8-6.74-2.58-10.76-3.29a22.47,22.47,0,0,0-6.19-.35,29.94,29.94,0,0,0-5.86,1.13,41.75,41.75,0,0,0-5.4,2.06,37.26,37.26,0,0,0-5,2.76,93.24,93.24,0,0,1,11-1.4,33.74,33.74,0,0,1,5.24.08,12.14,12.14,0,0,1,1.23.17c.4.07.8.12,1.2.23.81.19,1.6.42,2.4.69a48.91,48.91,0,0,1,4.8,2,53.84,53.84,0,0,0,5.42,2.31,13.13,13.13,0,0,0,3.58.71,8.32,8.32,0,0,0,4.57-1,6.65,6.65,0,0,0,2.13-2,6.93,6.93,0,0,0,1-2.56,8.89,8.89,0,0,0-.34-4.48,12.39,12.39,0,0,0-8-7.78,24.76,24.76,0,0,0-3.08-.77,30.3,30.3,0,0,0-12.23.26A31.71,31.71,0,0,0,548,558.67a33.52,33.52,0,0,0-8.21,8,59.06,59.06,0,0,1,9.81-5A36.15,36.15,0,0,1,559.79,559.31Zm16,6a.05.05,0,0,1,0,0S575.85,565.31,575.81,565.33Z"/><path d="M687.16,599.48c-26-7.59-34.19,11.91-34.45,12.54-.14.32-.45,1,0,1.45a.75.75,0,0,0,.57.22,8.82,8.82,0,0,0,2.84-1.06c1.17-.55,2.62-1.22,4.32-1.85,8.7-4,16.69-3,23.35-1.53l2.41.55c11.33,2.61,20.86,4.65,22.84,3.24a1.1,1.1,0,0,0,.47-.77C709.83,609.13,697.19,602.4,687.16,599.48Z"/><path d="M572.8,610.38a25.35,25.35,0,0,1,3.54,2.18c.76.54,1.22.86,1.59.86a.55.55,0,0,0,.36-.13c.42-.3.27-.87.06-1.52a18.57,18.57,0,0,0-8.4-10.49c-5-2.8-11.27-3.09-18.73-.89-9.27,3-13.73,7.79-13.93,10.27a1.63,1.63,0,0,0,.87,1.7c1.56.81,4.55-.3,8.32-1.7a49.85,49.85,0,0,1,7.65-2.39C560.34,607.13,565.89,607.06,572.8,610.38Z"/><path d="M801.3,750.3c.82-5.88,1.68-11.76,2.25-17.67s1-11.83,1.49-17.75c.27-5.92.6-11.85.67-17.78s0-11.87,0-17.79-.37-11.85-.78-17.77q-1.11-17.73-3.56-35.33c-1.66-11.72-3.74-23.36-6.35-34.89-1.34-5.76-2.71-11.5-4.31-17.19s-3.27-11.35-5.3-16.89c1.64,11.68,3.14,23.3,4.31,35s2.28,23.27,3.08,34.91,1.4,23.28,1.74,34.91.45,23.26.2,34.88-.67,23.23-1.56,34.8c-.32,5.81-1,11.57-1.47,17.36l-1,8.66c-.28,2.89-.69,5.76-1.1,8.64-1.47,11.54-3.53,23-5.84,34.44L782,809.38c-.64,2.85-1.42,5.67-2.05,8.53l-1,4.29c-.36,1.42-.77,2.82-1.15,4.24-.74,2.85-1.52,5.69-2.22,8.56a276.48,276.48,0,0,0,22.59-67.18C799.4,762,800.29,756.15,801.3,750.3Z"/></g></svg>